<?xml version="1.0" encoding="UTF-8" standalone="no"?>
<!-- Created with Inkscape (http://www.inkscape.org/) -->

<svg
   width="297mm"
   height="210mm"
   viewBox="0 0 297 210"
   version="1.1"
   id="svg5"
   xml:space="preserve"
   inkscape:version="1.2.1 (9c6d41e410, 2022-07-14)"
   sodipodi:docname="logo.svg"
   xmlns:inkscape="http://www.inkscape.org/namespaces/inkscape"
   xmlns:sodipodi="http://sodipodi.sourceforge.net/DTD/sodipodi-0.dtd"
   xmlns="http://www.w3.org/2000/svg"
   xmlns:svg="http://www.w3.org/2000/svg"><sodipodi:namedview
     id="namedview7"
     pagecolor="#ffffff"
     bordercolor="#000000"
     borderopacity="0.25"
     inkscape:showpageshadow="2"
     inkscape:pageopacity="0.0"
     inkscape:pagecheckerboard="0"
     inkscape:deskcolor="#d1d1d1"
     inkscape:document-units="mm"
     showgrid="false"
     inkscape:zoom="0.35355339"
     inkscape:cx="-1.4142136"
     inkscape:cy="12.727922"
     inkscape:window-width="1920"
     inkscape:window-height="1010"
     inkscape:window-x="-6"
     inkscape:window-y="-6"
     inkscape:window-maximized="1"
     inkscape:current-layer="layer1" /><defs
     id="defs2"><rect
       x="93.430466"
       y="216.65036"
       width="636.41046"
       height="388.61658"
       id="rect236" /></defs><g
     inkscape:label="图层 1"
     inkscape:groupmode="layer"
     id="layer1"><path
       style="fill:#ff0000;fill-opacity:1;stroke:none;stroke-width:0.264583;stroke-linecap:square;stroke-miterlimit:10"
       d="m 30.263057,29.495439 12.270507,0.17913 0.447829,2.32871 22.391435,23.0184 c 0,0 0.453898,-13.06775 0.268698,-19.25664 -0.01363,-0.45552 -0.331245,-0.92096 -0.716526,-1.16435 -0.939348,-0.5934 -3.313933,-0.35827 -3.313933,-0.35827 l -0.08957,-0.71652 11.822679,-0.0896 -0.179131,0.89566 -2.328709,-0.0896 c 0,0 -1.430245,0.75752 -1.433052,1.43306 -0.04184,10.06752 0,27.13841 0,27.13841 l -0.358265,0.62696 H 66.985008 L 44.056179,39.616309 c 0,0 1.020017,17.80366 -0.08957,26.60102 -0.350664,2.78024 -1.043471,5.53911 -2.060012,8.15049 -0.775325,1.99172 -1.80178,3.90427 -3.045235,5.64264 -1.27827,1.78704 -2.865782,3.34414 -4.478287,4.83655 -1.34141,1.24151 -2.608741,2.70835 -4.299156,3.4035 -0.500069,0.20564 -1.612183,0.17913 -1.612183,0.17913 l 0.179131,-0.80609 c 0,0 1.802341,-1.03899 2.597407,-1.70175 1.330083,-1.10875 2.53398,-2.3838 3.582629,-3.76176 1.14766,-1.50807 2.183025,-3.13167 2.923071,-4.87629 0.960379,-2.26406 1.749093,-4.68802 1.913479,-7.12552 0.798679,-11.84274 -0.281493,-22.41059 -0.179131,-34.48281 0.0057,-0.66756 -0.108209,-1.35147 -0.358263,-1.97045 -0.28224,-0.69866 -0.701349,-1.36859 -1.253921,-1.88088 -0.401915,-0.37262 -0.905639,-0.65704 -1.433051,-0.80609 -0.747533,-0.21126 -1.552262,-0.0658 -2.32871,-0.0896 -1.313355,-0.0402 -3.940892,-0.0896 -3.940892,-0.0896 z"
       id="path3247"
       sodipodi:nodetypes="ccccsacccccsccccaaaaaccaaassaaaacc" /><path
       id="path3678"
       style="fill:#ff0000;fill-opacity:1;stroke:none;stroke-width:0.264583;stroke-linecap:square;stroke-miterlimit:10"
       d="m 92.355082,32.297299 a 17.131453,15.674806 0 0 0 -17.131254,15.67501 17.131453,15.674806 0 0 0 17.131254,15.6745 17.131453,15.674806 0 0 0 17.131258,-15.6745 17.131453,15.674806 0 0 0 -17.131258,-15.67501 z m 0.19017,2.08979 a 12.381513,13.67983 0 0 1 12.381158,13.68031 12.381513,13.67983 0 0 1 -12.381158,13.67978 12.381513,13.67983 0 0 1 -12.381674,-13.67978 12.381513,13.67983 0 0 1 12.381674,-13.68031 z m 0.03152,10.51357 a 2.9132969,3.0716283 0 0 0 -2.913517,3.07165 2.9132969,3.0716283 0 0 0 2.913517,3.07165 2.9132969,3.0716283 0 0 0 2.913001,-3.07165 2.9132969,3.0716283 0 0 0 -2.913001,-3.07165 z" /><path
       id="path3678-2"
       style="fill:#ff0000;fill-opacity:1;stroke:none;stroke-width:0.264583;stroke-linecap:square;stroke-miterlimit:10"
       d="m 249.02889,33.371823 a 17.131453,15.674806 0 0 0 -17.13135,15.67501 17.131453,15.674806 0 0 0 17.13135,15.6745 17.131453,15.674806 0 0 0 17.13134,-15.6745 17.131453,15.674806 0 0 0 -17.13134,-15.67501 z m 0.19017,2.08979 a 12.381513,13.67983 0 0 1 12.38123,13.68031 12.381513,13.67983 0 0 1 -12.38123,13.67978 12.381513,13.67983 0 0 1 -12.38174,-13.67978 12.381513,13.67983 0 0 1 12.38174,-13.68031 z m 0.0315,10.51357 a 2.9132969,3.0716283 0 0 0 -2.91353,3.07165 2.9132969,3.0716283 0 0 0 2.91353,3.07165 2.9132969,3.0716283 0 0 0 2.91302,-3.07165 2.9132969,3.0716283 0 0 0 -2.91302,-3.07165 z" /><path
       style="fill:#ff0000;fill-opacity:1;stroke:none;stroke-width:0.264583;stroke-linecap:square;stroke-miterlimit:10"
       d="m 132.59192,40.108979 -0.76131,-6.71743 -0.94044,0.53739 -1.38827,0.0896 h -0.85087 l -1.97045,-0.94044 -1.47784,-0.22391 -1.8361,-0.0896 -2.37349,0.35826 c 0,0 -1.79782,0.48378 -2.59741,0.94044 -0.77341,0.44172 -1.48284,1.02339 -2.06001,1.70175 -0.45955,0.54013 -0.82536,1.17223 -1.07478,1.8361 -0.25124,0.66871 -0.37574,1.39097 -0.40305,2.1048 -0.0304,0.79563 0.064,1.60403 0.2687,2.37349 0.21314,0.80125 0.51215,1.603 0.98522,2.28392 0.55421,0.79771 1.3548,1.39799 2.1048,2.01523 1.0009,0.82375 2.1121,1.50369 3.17958,2.23914 0.68188,0.46979 1.37137,0.92846 2.06001,1.38828 0.96754,0.64603 2.00988,1.18968 2.91089,1.92566 0.67034,0.54755 1.31677,1.14366 1.8361,1.8361 0.31666,0.42222 0.55808,0.9012 0.76131,1.38827 0.22189,0.53178 0.42933,1.08423 0.49261,1.65696 0.0477,0.4313 -0.002,0.87378 -0.0896,1.2987 -0.10908,0.52705 -0.24694,1.0695 -0.5374,1.52262 -0.3703,0.57768 -0.8976,1.06675 -1.47783,1.43305 -0.57914,0.36561 -1.25742,0.56649 -1.92568,0.71653 -1.02329,0.22976 -2.09676,0.41827 -3.1348,0.2687 -0.93562,-0.13481 -1.82486,-0.55511 -2.64219,-1.03001 -0.96354,-0.55986 -1.88737,-1.24589 -2.5974,-2.10479 -0.60424,-0.73093 -0.97132,-1.63558 -1.34348,-2.50785 -0.26492,-0.6209 -0.0942,-1.51107 -0.62696,-1.92566 -0.17711,-0.13782 -0.70606,-0.26657 -0.67175,-0.0448 0.45982,2.97209 0.69845,5.05088 1.03001,7.92657 0.0185,0.1604 0.40304,0.26869 0.40304,0.26869 0,0 0.58051,-0.66936 0.98523,-0.76131 0.20842,-0.0473 0.42035,0.0796 0.62696,0.13435 0.90817,0.24051 2.68696,0.85088 2.68696,0.85088 l 1.34349,0.44783 c 0,0 1.31216,0.14246 1.97045,0.13434 1.28922,-0.0159 2.61062,-0.008 3.85133,-0.35826 1.16922,-0.33047 2.29505,-0.88596 3.26915,-1.61218 0.89766,-0.66923 1.73529,-1.48702 2.28393,-2.46306 0.56266,-1.00096 0.83986,-2.17008 0.94044,-3.31393 0.0907,-1.03131 0.0115,-2.10707 -0.31348,-3.09002 -0.28371,-0.85802 -0.8186,-1.62717 -1.38827,-2.32871 -0.48614,-0.59868 -1.09841,-1.08706 -1.70175,-1.5674 -1.30219,-1.03672 -2.69365,-1.96345 -4.12002,-2.82132 -0.60652,-0.36478 -1.28834,-0.59816 -1.88089,-0.98522 -0.96029,-0.62727 -2.68698,-2.14958 -2.68698,-2.14958 0,0 -1.38208,-1.06676 -1.83609,-1.79132 -0.22558,-0.36001 -0.335,-0.78977 -0.40305,-1.20913 -0.0765,-0.47152 -0.0798,-0.96208 0,-1.43306 0.11355,-0.67027 0.28632,-1.36565 0.67174,-1.92566 0.35434,-0.51485 0.8688,-0.94035 1.43306,-1.20913 0.8643,-0.4117 1.86645,-0.46862 2.82132,-0.5374 0.67067,-0.0483 1.36117,-0.0663 2.01524,0.0896 0.81237,0.19369 1.61132,0.53495 2.28392,1.03 0.85163,0.62682 2.1048,2.37349 2.1048,2.37349 l 1.20914,2.14958 z"
       id="path3800"
       sodipodi:nodetypes="cccccccccaaaaaaaaaaaaaaaaaaaaaasscaaccaaaaaaaaaacaaaaaaaaccc" /><path
       id="path4540"
       style="fill:#ff0000;fill-opacity:1;stroke:none;stroke-width:0.264583;stroke-linecap:square;stroke-miterlimit:10"
       d="m 163.14507,32.964475 c -4.0654,0.01043 -8.73469,0.132708 -8.73469,0.132708 l 0.0733,0.440951 c 0,0 1.39455,0.702002 1.99126,1.195178 0.32705,0.270303 0.84884,0.948517 0.84884,0.948517 l 0.16853,0.657608 -0.0692,12.11655 -1.43287,-0.03689 -1.32287,0.147126 -0.58785,0.5143 -0.47763,0.624748 -0.58787,1.249078 0.22048,0.734987 0.22027,0.07355 0.80854,-0.955463 1.46956,-0.367388 1.61667,-0.07356 0.22048,0.07356 -0.0733,9.847004 c 0,0 -0.57904,1.397435 -1.14563,1.850553 -0.57501,0.459856 -2.08772,0.721372 -2.08772,0.721372 l 0.0468,0.554482 10.66228,0.09954 -0.0436,-0.444144 c 0,0 -1.55415,-0.43833 -2.067,-1.008089 -0.40361,-0.448403 -0.61844,-1.700959 -0.61844,-1.700959 l -0.007,-9.559565 0.3676,-0.3676 c 0,0 6.00542,-0.06424 9.01864,-0.447527 0.70133,-0.08921 1.40982,-0.23139 2.05764,-0.514514 0.69725,-0.304727 1.51776,-1.224502 2.0978,-1.71701 0.60794,-0.516183 1.09969,-1.30652 1.5699,-1.950676 0.3493,-0.478537 0.65053,-0.980283 0.83491,-1.543328 0.26855,-0.820062 0.28292,-1.709075 0.29404,-2.571925 0.0107,-0.836007 0.0131,-1.695799 -0.22048,-2.498573 -0.20816,-0.715325 -0.59327,-1.379644 -1.0288,-1.984065 -0.67853,-0.941623 -1.48306,-1.820515 -2.42503,-2.498579 -0.55128,-0.396846 -1.19919,-0.648381 -1.83713,-0.881687 -0.6417,-0.234663 -1.30674,-0.424889 -1.98407,-0.514513 -2.09153,-0.276745 -5.05503,-0.352902 -7.83663,-0.345763 z m 3.19306,2.039184 c 0.32053,8e-6 0.64758,0.0011 0.97645,0.0038 0.32358,0.0025 1.35974,0.162245 2.02669,0.311632 0.47596,0.106611 0.9506,0.233353 1.40298,0.415724 0.48857,0.196964 0.98477,0.407251 1.40298,0.727566 0.44771,0.342896 0.83205,0.776626 1.14307,1.246956 0.2309,0.349169 0.40851,0.739727 0.51961,1.143292 0.0832,0.302441 0.18276,0.744504 0.24441,1.122415 0.0948,0.581288 0.20304,1.167557 0.19221,1.756429 -0.0143,0.775405 -0.14976,1.670223 -0.33794,2.301933 -0.17716,0.595092 -0.51589,1.441395 -0.98211,2.031687 -0.34488,0.43666 -0.8178,0.766608 -1.29372,1.054914 -0.53359,0.323245 -1.12281,0.557378 -1.71999,0.737902 -0.48551,0.146767 -1.01563,0.193722 -1.49653,0.275195 -0.35903,0.06081 -0.72706,0.04534 -1.09115,0.05215 -1.69723,0.03172 -4.99879,0.322027 -4.99879,0.322027 l -0.20797,-0.46766 V 35.319106 l 0.0519,-0.259692 c 0,0 1.92418,-0.05583 4.16781,-0.05575 z"
       sodipodi:nodetypes="cccacccccccccccccccaccccacccssssscsssssccscsssacaacaaassccccss" /><path
       style="fill:#ff0000;fill-opacity:1;stroke:none;stroke-width:0.264583;stroke-linecap:square;stroke-miterlimit:10"
       d="m 182.42463,33.554525 h 13.56583 v 0.452196 l -1.03359,0.06457 -1.29197,0.1938 -0.96899,0.516793 -0.25841,0.516794 -0.51678,0.839796 -0.0646,24.806084 0.32298,0.839797 0.51681,0.581389 0.45218,0.322994 3.03617,0.1938 v 0.645986 l -13.63043,0.129203 -0.19379,-0.645996 1.29198,-0.06457 1.48578,-0.1938 0.77519,-0.452197 0.4522,-0.645986 0.19379,-0.452197 V 36.267694 35.621697 l -0.2584,-0.258396 -0.38759,-0.516783 -0.25839,-0.323004 -0.8398,-0.258396 -2.39017,-0.06457 z"
       id="path4599" /><path
       style="fill:#ff0000;fill-opacity:1;stroke:none;stroke-width:0.264583;stroke-linecap:square;stroke-miterlimit:10"
       d="m 227.64217,35.041631 -0.40305,0.0896 -0.26869,0.44783 -1.16436,0.0448 -1.34348,-0.0448 -1.34349,-0.58218 -2.3735,-0.58217 c 0,0 -1.72545,-0.29842 -2.5974,-0.35827 -1.37012,-0.094 -2.75488,-0.14985 -4.12002,0 -0.95763,0.10512 -1.90171,0.33988 -2.82133,0.62696 -1.32305,0.41302 -2.63862,0.89629 -3.85132,1.56741 -1.09471,0.60582 -2.17137,1.29894 -3.04524,2.19435 -1.44016,1.47567 -2.6552,3.2212 -3.49306,5.10525 -0.54288,1.22073 -0.79478,2.56807 -0.94044,3.89611 -0.17743,1.61768 -0.16599,3.27414 0.0896,4.88133 0.24028,1.51093 0.63774,3.03131 1.34349,4.38873 0.75071,1.44389 1.78851,2.76524 3.00045,3.85132 0.95333,0.85433 2.1168,1.45773 3.26915,2.01523 1.10099,0.53265 2.26278,0.95315 3.44828,1.25392 0.98018,0.24868 1.99164,0.37798 3.00046,0.44783 1.50416,0.10415 3.02255,0.10282 4.52307,-0.0448 1.04309,-0.10262 3.09001,-0.58218 3.09001,-0.58218 l 4.12003,-1.25392 1.70174,-0.71653 0.31348,-0.49261 c 0,0 0.33337,-1.31241 0.49262,-1.97044 0.16948,-0.70034 0.49261,-2.1048 0.49261,-2.1048 l 0.22392,-0.94044 -0.71653,0.31348 -0.2687,1.11957 -0.71652,1.43306 -0.67175,1.07478 -1.47783,0.71653 -3.1348,1.07479 c 0,0 -2.09461,0.6707 -3.17959,0.80609 -1.1702,0.14603 -2.37654,0.20516 -3.53784,0 -1.33001,-0.23496 -2.60908,-0.76362 -3.80655,-1.38827 -0.92162,-0.48076 -1.79335,-1.08136 -2.55262,-1.79131 -0.79865,-0.74678 -1.48235,-1.62429 -2.06002,-2.55263 -0.59985,-0.96399 -1.1192,-1.99887 -1.43305,-3.09001 -0.32859,-1.14237 -0.4144,-2.34963 -0.44783,-3.53785 -0.0362,-1.28639 0.0506,-2.58305 0.2687,-3.85133 0.18905,-1.09935 0.43882,-2.20672 0.89566,-3.22436 0.45108,-1.00481 1.09125,-1.92624 1.79132,-2.77654 0.69788,-0.84764 1.49407,-1.62655 2.37349,-2.28393 0.99064,-0.74052 2.05331,-1.4381 3.22436,-1.8361 0.92745,-0.31521 1.93177,-0.37375 2.91089,-0.40304 1.1524,-0.0345 2.31955,0.0338 3.44828,0.2687 0.85041,0.17699 2.46306,0.85087 2.46306,0.85087 l 2.19436,1.20914 1.25392,1.38827 1.25392,2.28392 0.2687,1.47784 h 0.85087 l -0.22391,-7.97135 z"
       id="path9683"
       sodipodi:nodetypes="cccccccaaaaaaaaaaaaaaccccaccccccccaaaaaaaaaaaaaacccccccc" /><path
       id="path3247-2"
       style="fill:#ff0000;fill-opacity:1;stroke:none;stroke-width:0.264583;stroke-linecap:square;stroke-miterlimit:10"
       d="M 33.366439 111.97146 L 33.277039 113.31453 C 33.277039 113.31453 35.90453 113.36425 37.217883 113.40445 C 37.994331 113.42825 38.798891 113.28259 39.546423 113.49385 C 40.073835 113.6429 40.577496 113.92738 40.979411 114.3 C 41.531982 114.81229 41.951358 115.48236 42.233598 116.18102 C 42.483652 116.8 42.597415 117.48389 42.591715 118.15144 C 42.489354 130.22365 43.569194 140.79137 42.770516 152.63409 C 42.60613 155.07159 41.817832 157.4957 40.857454 159.75976 C 40.117409 161.50438 39.081778 163.12788 37.934119 164.63595 C 36.885471 166.0139 35.681473 167.28924 34.351392 168.39799 C 33.556326 169.06075 31.754134 170.09969 31.754134 170.09969 L 31.574817 170.90533 C 31.574817 170.90533 32.687053 170.93217 33.187122 170.72653 C 34.877535 170.03138 36.145192 168.56463 37.486601 167.32312 C 39.099104 165.83071 40.686612 164.27324 41.96488 162.48621 C 43.208334 160.74784 44.234332 158.83537 45.009656 156.84366 C 46.026196 154.23228 46.719331 151.47349 47.069995 148.69325 C 48.179581 139.8959 47.159395 122.09229 47.159395 122.09229 L 70.088228 145.91667 L 72.148568 145.91667 L 72.506685 145.28984 C 72.506685 145.28984 72.464845 128.21895 72.506685 118.15144 C 72.509492 117.47591 73.939673 116.71846 73.939673 116.71846 L 76.268213 116.80786 L 76.44753 115.9123 L 64.624996 116.0017 L 64.714396 116.71846 C 64.714396 116.71846 67.089059 116.48318 68.028406 117.07657 C 68.413686 117.31996 68.731011 117.78533 68.744641 118.24084 C 68.929841 124.42973 68.475924 137.49755 68.475924 137.49755 L 46.084526 114.47932 L 45.637008 112.15026 L 33.366439 111.97146 z M 95.458256 114.77336 A 17.131453 15.674806 0 0 0 78.327002 130.44837 A 17.131453 15.674806 0 0 0 95.458256 146.12286 A 17.131453 15.674806 0 0 0 112.58951 130.44837 A 17.131453 15.674806 0 0 0 95.458256 114.77336 z M 126.4698 115.24051 L 124.0963 115.59863 C 124.0963 115.59863 122.29863 116.08248 121.49904 116.53914 C 120.72563 116.98086 120.01639 117.56249 119.43922 118.24084 C 118.97967 118.78097 118.61377 119.41304 118.36435 120.07691 C 118.11311 120.74562 117.98859 121.46786 117.96128 122.18169 C 117.93088 122.97732 118.02529 123.78573 118.22999 124.55519 C 118.44313 125.35644 118.74188 126.15837 119.21495 126.83929 C 119.76915 127.637 120.56973 128.23743 121.31973 128.85467 C 122.32063 129.67842 123.4319 130.35836 124.49938 131.09381 C 125.18126 131.5636 125.87108 132.02202 126.55972 132.48184 C 127.52726 133.12787 128.56964 133.67184 129.47065 134.40782 C 130.14099 134.95537 130.78738 135.55144 131.30671 136.24388 C 131.62337 136.6661 131.86468 137.14484 132.06791 137.63191 C 132.2898 138.16369 132.4971 138.71644 132.56038 139.28917 C 132.60808 139.72047 132.55858 140.16288 132.47098 140.5878 C 132.3619 141.11485 132.22401 141.65707 131.93355 142.11019 C 131.56325 142.68787 131.03583 143.17688 130.4556 143.54318 C 129.87646 143.90879 129.1984 144.10989 128.53014 144.25993 C 127.50685 144.48969 126.43297 144.67822 125.39493 144.52865 C 124.45931 144.39384 123.57004 143.97363 122.75271 143.49873 C 121.78917 142.93888 120.86549 142.25285 120.15546 141.39395 C 119.55122 140.66302 119.18403 139.75837 118.81187 138.8861 C 118.54695 138.2652 118.71779 137.37471 118.18503 136.96012 C 118.00792 136.8223 117.47893 136.6939 117.51324 136.91567 C 117.97306 139.88776 118.21159 141.96612 118.54315 144.84181 C 118.56165 145.0022 118.94623 145.11052 118.94623 145.11052 C 118.94623 145.11052 119.52698 144.44128 119.9317 144.34933 C 120.14012 144.30203 120.35192 144.42894 120.55853 144.48369 C 121.4667 144.7242 123.24571 145.3348 123.24571 145.3348 L 124.58878 145.78232 C 124.58878 145.78232 125.90143 145.92479 126.55972 145.91667 C 127.84894 145.90077 129.16994 145.90882 130.41064 145.55856 C 131.57986 145.22809 132.70611 144.67247 133.68021 143.94625 C 134.57787 143.27702 135.41515 142.45939 135.96379 141.48335 C 136.52645 140.48239 136.80373 139.31319 136.90431 138.16934 C 136.995 137.13804 136.91561 136.06204 136.59063 135.07909 C 136.30692 134.22107 135.77227 133.45209 135.2026 132.75055 C 134.71646 132.15187 134.10423 131.66355 133.5009 131.18321 C 132.19871 130.14649 130.8071 129.21954 129.38073 128.36167 C 128.77421 127.99689 128.09226 127.76378 127.49971 127.37672 C 126.53942 126.74945 124.81305 125.22698 124.81305 125.22698 C 124.81305 125.22698 123.431 124.16044 122.97699 123.43588 C 122.75141 123.07587 122.64196 122.64601 122.57391 122.22665 C 122.49741 121.75513 122.49411 121.26464 122.57391 120.79366 C 122.68746 120.12339 122.86029 119.42769 123.24571 118.86768 C 123.60005 118.35283 124.11444 117.92775 124.67869 117.65897 C 125.54299 117.24727 126.54484 117.19031 127.49971 117.12153 C 128.17038 117.07323 128.86102 117.05503 129.51509 117.21093 C 130.32746 117.40462 131.12659 117.7458 131.79919 118.24084 C 132.65082 118.86766 133.90397 120.61434 133.90397 120.61434 L 135.1132 122.76408 L 135.69508 122.58477 L 134.93388 115.86735 L 133.99337 116.40478 L 132.60534 116.4947 L 131.75423 116.4947 L 129.78381 115.55419 L 128.30586 115.32991 L 126.4698 115.24051 z M 166.24825 115.4405 C 162.18285 115.4509 157.5139 115.57331 157.5139 115.57331 L 157.58676 116.01411 C 157.58676 116.01411 158.98166 116.7162 159.57837 117.20938 C 159.90542 117.47968 160.4269 118.15765 160.4269 118.15765 L 160.59537 118.81549 L 160.52664 130.93206 L 159.09365 130.89485 L 157.77073 131.04213 L 157.18265 131.55631 L 156.70516 132.18108 L 156.11709 133.4301 L 156.33774 134.16545 L 156.55789 134.23883 L 157.36662 133.28334 L 158.8363 132.91592 L 160.45274 132.84254 L 160.6734 132.91592 L 160.60002 142.76286 C 160.60002 142.76286 160.02094 144.16028 159.45435 144.6134 C 158.87934 145.07325 157.36662 145.3348 157.36662 145.3348 L 157.41365 145.88929 L 168.07553 145.98902 L 168.03212 145.5446 C 168.03212 145.5446 166.47791 145.10667 165.96506 144.53691 C 165.56145 144.08851 165.3465 142.83573 165.3465 142.83573 L 165.33978 133.2761 L 165.7072 132.90868 C 165.7072 132.90868 171.71255 132.84449 174.72577 132.46117 C 175.4271 132.37197 176.13571 132.22959 176.78352 131.94647 C 177.48077 131.64174 178.30155 130.72228 178.88159 130.22978 C 179.48953 129.71359 179.98131 128.92315 180.45152 128.27899 C 180.80082 127.80045 181.10171 127.29847 181.28609 126.73542 C 181.55464 125.91536 181.56901 125.02633 181.58013 124.16348 C 181.59083 123.32747 181.59357 122.4677 181.35999 121.66493 C 181.15183 120.94961 180.76664 120.28549 180.33111 119.68107 C 179.65258 118.73945 178.84791 117.86057 177.90594 117.18251 C 177.35466 116.78566 176.70678 116.53422 176.06884 116.30091 C 175.42714 116.06625 174.76231 115.87583 174.08498 115.78621 C 171.99345 115.50946 169.02985 115.43336 166.24825 115.4405 z M 252.13241 115.84771 A 17.131453 15.674806 0 0 0 235.00064 131.52272 A 17.131453 15.674806 0 0 0 252.13241 147.19722 A 17.131453 15.674806 0 0 0 269.26367 131.52272 A 17.131453 15.674806 0 0 0 252.13241 115.84771 z M 185.52769 116.03064 L 185.52769 116.6766 L 187.91825 116.74119 L 188.75799 116.99958 L 189.01637 117.32255 L 189.40394 117.83932 L 189.66233 118.0977 L 189.66233 118.74366 L 189.66233 143.67909 L 189.46854 144.13125 L 189.01637 144.77721 L 188.24122 145.22938 L 186.75553 145.42316 L 185.4631 145.48776 L 185.65688 146.13372 L 199.28758 146.00452 L 199.28758 145.35857 L 196.25159 145.16478 L 195.79942 144.84181 L 195.28265 144.26045 L 194.95968 143.4207 L 195.02427 118.61447 L 195.54104 117.77472 L 195.79942 117.25796 L 196.76835 116.74119 L 198.06026 116.54741 L 199.09379 116.48281 L 199.09379 116.03064 L 185.52769 116.03064 z M 219.18972 116.44095 C 218.50162 116.43397 217.81402 116.4575 217.13145 116.53242 C 216.17382 116.63754 215.22954 116.87218 214.30992 117.15926 C 212.98687 117.57228 211.67169 118.05548 210.45899 118.7266 C 209.36428 119.33242 208.28757 120.02589 207.4137 120.9213 C 205.97354 122.39697 204.75823 124.14237 203.92037 126.02642 C 203.37749 127.24714 203.12552 128.59426 202.97986 129.9223 C 202.80243 131.53998 202.81419 133.19647 203.06978 134.80366 C 203.31006 136.31459 203.70761 137.83512 204.41336 139.19254 C 205.16407 140.63643 206.20176 141.9579 207.4137 143.04398 C 208.36703 143.89831 209.5304 144.50135 210.68275 145.05885 C 211.78374 145.5915 212.94562 146.01226 214.13112 146.31303 C 215.11129 146.56171 216.12263 146.69122 217.13145 146.76107 C 218.63561 146.86522 220.15417 146.86373 221.65469 146.71611 C 222.69778 146.61349 224.74442 146.13372 224.74442 146.13372 L 228.86458 144.88005 L 230.56629 144.16329 L 230.87996 143.67082 C 230.87996 143.67082 231.21319 142.35842 231.37244 141.70039 C 231.54192 141.00006 231.86492 139.59561 231.86492 139.59561 L 232.08919 138.6551 L 231.37244 138.96878 L 231.10372 140.08809 L 230.38749 141.52108 L 229.71569 142.59595 L 228.23775 143.3127 L 225.10306 144.38705 C 225.10306 144.38705 223.00838 145.05781 221.9234 145.1932 C 220.75321 145.33923 219.54694 145.39836 218.38564 145.1932 C 217.05563 144.95824 215.77662 144.42983 214.57915 143.80518 C 213.65753 143.32442 212.7856 142.72402 212.02633 142.01407 C 211.22769 141.26729 210.54418 140.38959 209.96651 139.46125 C 209.36666 138.49727 208.84686 137.46214 208.53301 136.371 C 208.20442 135.22864 208.11892 134.02145 208.08549 132.83324 C 208.04929 131.54685 208.13611 130.25007 208.35421 128.98179 C 208.54326 127.88244 208.79292 126.77534 209.24976 125.7577 C 209.70084 124.75289 210.3408 123.83142 211.04087 122.98112 C 211.73874 122.13348 212.53494 121.3544 213.41436 120.69703 C 214.405 119.95651 215.46792 119.25896 216.63897 118.86096 C 217.56642 118.54575 218.57079 118.48718 219.54991 118.45789 C 220.70231 118.42339 221.86955 118.4917 222.99827 118.7266 C 223.84868 118.90359 225.46117 119.57771 225.46117 119.57771 L 227.65535 120.78694 L 228.90954 122.17497 L 230.16321 124.45907 L 230.43193 125.93702 L 231.28304 125.93702 L 231.05876 117.96541 L 230.74561 117.51737 L 230.34253 117.60729 L 230.07381 118.05481 L 228.90954 118.09977 L 227.56595 118.05481 L 226.22237 117.47293 L 223.84887 116.89054 C 223.84887 116.89054 222.12356 116.59227 221.25161 116.53242 C 220.56655 116.48542 219.87782 116.44794 219.18972 116.44095 z M 95.648425 116.86315 A 12.381513 13.67983 0 0 1 108.02958 130.54345 A 12.381513 13.67983 0 0 1 95.648425 144.22324 A 12.381513 13.67983 0 0 1 83.266752 130.54345 A 12.381513 13.67983 0 0 1 95.648425 116.86315 z M 169.44134 117.47965 C 169.76187 117.47965 170.08915 117.48078 170.41802 117.48378 C 170.7416 117.48578 171.77782 117.646 172.44477 117.79539 C 172.92073 117.902 173.39541 118.0285 173.84779 118.21087 C 174.33636 118.40784 174.83208 118.61816 175.25028 118.93848 C 175.69799 119.28138 176.08235 119.71511 176.39337 120.18543 C 176.62427 120.5346 176.80213 120.92546 176.91323 121.32903 C 176.99643 121.63147 177.09601 122.07301 177.15766 122.45092 C 177.25246 123.03221 177.36073 123.61854 177.3499 124.20741 C 177.3356 124.98281 177.20011 125.87788 177.01193 126.50959 C 176.83477 127.10469 176.49578 127.9507 176.02957 128.54099 C 175.68469 128.97765 175.21202 129.30792 174.7361 129.59622 C 174.20251 129.91947 173.61349 130.15363 173.01631 130.33416 C 172.5308 130.48092 172.00066 130.52761 171.51976 130.60908 C 171.16073 130.66988 170.79245 130.65438 170.42836 130.66128 C 168.73113 130.69298 165.4297 130.98322 165.4297 130.98322 L 165.22144 130.51606 L 165.22144 117.79539 L 165.27363 117.53546 C 165.27363 117.53546 167.19771 117.47955 169.44134 117.47965 z M 252.32258 117.9375 A 12.381513 13.67983 0 0 1 264.70374 131.61781 A 12.381513 13.67983 0 0 1 252.32258 145.29759 A 12.381513 13.67983 0 0 1 239.94039 131.61781 A 12.381513 13.67983 0 0 1 252.32258 117.9375 z M 95.679948 127.37672 A 2.9132969 3.0716283 0 0 0 92.766431 130.44837 A 2.9132969 3.0716283 0 0 0 95.679948 133.52002 A 2.9132969 3.0716283 0 0 0 98.592948 130.44837 A 2.9132969 3.0716283 0 0 0 95.679948 127.37672 z M 252.35411 128.45107 A 2.9132969 3.0716283 0 0 0 249.44059 131.52272 A 2.9132969 3.0716283 0 0 0 252.35411 134.59437 A 2.9132969 3.0716283 0 0 0 255.26711 131.52272 A 2.9132969 3.0716283 0 0 0 252.35411 128.45107 z " /></g></svg>
