  0
SECTION
  2
HEADER
  9
$ACADVER
  1
AC1014
  9
$HANDSEED
  5
FFFF
  9
$MEASUREMENT
 70
     1
  0
ENDSEC
  0
SECTION
  2
TABLES
  0
TABLE
  2
VPORT
  5
8
330
0
100
AcDbSymbolTable
 70
     4
  0
VPORT
  5
2E
330
8
100
AcDbSymbolTableRecord
100
AcDbViewportTableRecord
  2
*ACTIVE
 70
     0
 10
0.0
 20
0.0
 11
1.0
 21
1.0
 12
210.0
 22
148.5
 13
0.0
 23
0.0
 14
10.0
 24
10.0
 15
10.0
 25
10.0
 16
0.0
 26
0.0
 36
1.0
 17
0.0
 27
0.0
 37
0.0
 40
341.0
 41
1.24
 42
50.0
 43
0.0
 44
0.0
 50
0.0
 51
0.0
 71
     0
 72
   100
 73
     1
 74
     3
 75
     0
 76
     0
 77
     0
 78
     0
  0
ENDTAB
  0
TABLE
  2
LTYPE
  5
5
330
0
100
AcDbSymbolTable
 70
     1
  0
LTYPE
  5
14
330
5
100
AcDbSymbolTableRecord
100
AcDbLinetypeTableRecord
  2
BYBLOCK
 70
     0
  3

 72
    65
 73
     0
 40
0.0
  0
LTYPE
  5
15
330
5
100
AcDbSymbolTableRecord
100
AcDbLinetypeTableRecord
  2
BYLAYER
 70
     0
  3

 72
    65
 73
     0
 40
0.0
  0
LTYPE
  5
16
330
5
100
AcDbSymbolTableRecord
100
AcDbLinetypeTableRecord
  2
CONTINUOUS
 70
     0
  3
Solid line
 72
    65
 73
     0
 40
0.0
  0
ENDTAB
  0
TABLE
  2
LAYER
  5
2
100
AcDbSymbolTable
 70
2
  0
LAYER
  5
50
100
AcDbSymbolTableRecord
100
AcDbLayerTableRecord
  2
0
 70
0
  6
CONTINUOUS
  0
LAYER
  5
51
100
AcDbSymbolTableRecord
100
AcDbLayerTableRecord
  2
图层_1
 70
0
  6
CONTINUOUS
  0
ENDTAB
  0
TABLE
  2
STYLE
  5
3
330
0
100
AcDbSymbolTable
 70
     1
  0
STYLE
  5
11
330
3
100
AcDbSymbolTableRecord
100
AcDbTextStyleTableRecord
  2
STANDARD
 70
     0
 40
0.0
 41
1.0
 50
0.0
 71
     0
 42
2.5
  3
txt
  4

  0
ENDTAB
  0
TABLE
  2
VIEW
  5
6
330
0
100
AcDbSymbolTable
 70
     0
  0
ENDTAB
  0
TABLE
  2
UCS
  5
7
330
0
100
AcDbSymbolTable
 70
     0
  0
ENDTAB
  0
TABLE
  2
APPID
  5
9
330
0
100
AcDbSymbolTable
 70
     2
  0
APPID
  5
12
330
9
100
AcDbSymbolTableRecord
100
AcDbRegAppTableRecord
  2
ACAD
 70
     0
  0
ENDTAB
  0
TABLE
  2
DIMSTYLE
  5
A
330
0
100
AcDbSymbolTable
 70
     1
  0
DIMSTYLE
105
27
330
A
100
AcDbSymbolTableRecord
100
AcDbDimStyleTableRecord
  2
ISO-25
 70
     0
  3

  4

  5

  6

  7

 40
1.0
 41
2.5
 42
0.625
 43
3.75
 44
1.25
 45
0.0
 46
0.0
 47
0.0
 48
0.0
140
2.5
141
2.5
142
0.0
143
0.03937007874016
144
1.0
145
0.0
146
1.0
147
0.625
 71
     0
 72
     0
 73
     0
 74
     0
 75
     0
 76
     0
 77
     1
 78
     8
170
     0
171
     3
172
     1
173
     0
174
     0
175
     0
176
     0
177
     0
178
     0
270
     2
271
     2
272
     2
273
     2
274
     3
340
11
275
     0
280
     0
281
     0
282
     0
283
     0
284
     8
285
     0
286
     0
287
     3
288
     0
  0
ENDTAB
  0
TABLE
  2
BLOCK_RECORD
  5
1
330
0
100
AcDbSymbolTable
 70
     1
  0
BLOCK_RECORD
  5
1F
330
1
100
AcDbSymbolTableRecord
100
AcDbBlockTableRecord
  2
*MODEL_SPACE
  0
BLOCK_RECORD
  5
1B
330
1
100
AcDbSymbolTableRecord
100
AcDbBlockTableRecord
  2
*PAPER_SPACE
  0
ENDTAB
  0
ENDSEC
  0
SECTION
  2
BLOCKS
  0
BLOCK
  5
20
330
1F
100
AcDbEntity
  8
0
100
AcDbBlockBegin
  2
*MODEL_SPACE
 70
     0
 10
0.0
 20
0.0
 30
0.0
  3
*MODEL_SPACE
  1

  0
ENDBLK
  5
21
330
1F
100
AcDbEntity
  8
0
100
AcDbBlockEnd
  0
BLOCK
  5
1C
330
1B
100
AcDbEntity
 67
     1
  8
0
100
AcDbBlockBegin
  2
*PAPER_SPACE
  1

  0
ENDBLK
  5
1D
330
1B
100
AcDbEntity
 67
     1
  8
0
100
AcDbBlockEnd
  0
ENDSEC
  0
SECTION
  2
ENTITIES
  0
SPLINE
  5
100
100
AcDbEntity
  8
图层_1
 62
7
100
AcDbSpline
 70
8
 71
3
 72
8
 73
4
 74
0
 40
0
 40
0
 40
0
 40
0
 40
1
 40
1
 40
1
 40
1
 10
10.757678
 20
289.656406
 30
0.0
 10
10.757678
 20
289.656406
 30
0.0
 10
13.385169
 20
289.607206
 30
0.0
 10
14.698522
 20
289.567006
 30
0.0
  0
SPLINE
  5
101
100
AcDbEntity
  8
图层_1
 62
7
100
AcDbSpline
 70
8
 71
3
 72
8
 73
4
 74
0
 40
0
 40
0
 40
0
 40
0
 40
1
 40
1
 40
1
 40
1
 10
14.698522
 20
289.567006
 30
0.0
 10
15.474970
 20
289.543206
 30
0.0
 10
16.279530
 20
289.688349
 30
0.0
 10
17.027062
 20
289.477086
 30
0.0
  0
SPLINE
  5
102
100
AcDbEntity
  8
图层_1
 62
7
100
AcDbSpline
 70
8
 71
3
 72
8
 73
4
 74
0
 40
0
 40
0
 40
0
 40
0
 40
1
 40
1
 40
1
 40
1
 10
17.027062
 20
289.477086
 30
0.0
 10
17.554474
 20
289.328036
 30
0.0
 10
18.058135
 20
289.043554
 30
0.0
 10
18.460050
 20
288.670934
 30
0.0
  0
SPLINE
  5
103
100
AcDbEntity
  8
图层_1
 62
7
100
AcDbSpline
 70
8
 71
3
 72
8
 73
4
 74
0
 40
0
 40
0
 40
0
 40
0
 40
1
 40
1
 40
1
 40
1
 10
18.460050
 20
288.670934
 30
0.0
 10
19.012621
 20
288.158644
 30
0.0
 10
19.431997
 20
287.489088
 30
0.0
 10
19.714237
 20
286.790429
 30
0.0
  0
SPLINE
  5
104
100
AcDbEntity
  8
图层_1
 62
7
100
AcDbSpline
 70
8
 71
3
 72
8
 73
4
 74
0
 40
0
 40
0
 40
0
 40
0
 40
1
 40
1
 40
1
 40
1
 10
19.714237
 20
286.790429
 30
0.0
 10
19.964291
 20
286.171449
 30
0.0
 10
20.078055
 20
285.487049
 30
0.0
 10
20.072355
 20
284.819489
 30
0.0
  0
SPLINE
  5
105
100
AcDbEntity
  8
图层_1
 62
7
100
AcDbSpline
 70
8
 71
3
 72
8
 73
4
 74
0
 40
0
 40
0
 40
0
 40
0
 40
1
 40
1
 40
1
 40
1
 10
20.072355
 20
284.819489
 30
0.0
 10
19.969993
 20
272.747282
 30
0.0
 10
21.050350
 20
262.179568
 30
0.0
 10
20.251672
 20
250.336843
 30
0.0
  0
SPLINE
  5
106
100
AcDbEntity
  8
图层_1
 62
7
100
AcDbSpline
 70
8
 71
3
 72
8
 73
4
 74
0
 40
0
 40
0
 40
0
 40
0
 40
1
 40
1
 40
1
 40
1
 10
20.251672
 20
250.336843
 30
0.0
 10
20.087286
 20
247.899343
 30
0.0
 10
19.298472
 20
245.475233
 30
0.0
 10
18.338094
 20
243.211183
 30
0.0
  0
SPLINE
  5
107
100
AcDbEntity
  8
图层_1
 62
7
100
AcDbSpline
 70
8
 71
3
 72
8
 73
4
 74
0
 40
0
 40
0
 40
0
 40
0
 40
1
 40
1
 40
1
 40
1
 10
18.338094
 20
243.211183
 30
0.0
 10
17.598048
 20
241.466563
 30
0.0
 10
16.562417
 20
239.843063
 30
0.0
 10
15.414758
 20
238.334990
 30
0.0
  0
SPLINE
  5
108
100
AcDbEntity
  8
图层_1
 62
7
100
AcDbSpline
 70
8
 71
3
 72
8
 73
4
 74
0
 40
0
 40
0
 40
0
 40
0
 40
1
 40
1
 40
1
 40
1
 10
15.414758
 20
238.334990
 30
0.0
 10
14.366110
 20
236.957030
 30
0.0
 10
13.162112
 20
235.682210
 30
0.0
 10
11.832031
 20
234.573460
 30
0.0
  0
SPLINE
  5
109
100
AcDbEntity
  8
图层_1
 62
7
100
AcDbSpline
 70
8
 71
3
 72
8
 73
4
 74
0
 40
0
 40
0
 40
0
 40
0
 40
1
 40
1
 40
1
 40
1
 10
11.832031
 20
234.573460
 30
0.0
 10
11.036966
 20
233.910700
 30
0.0
 10
9.234773
 20
232.871750
 30
0.0
 10
9.234773
 20
232.871750
 30
0.0
  0
LWPOLYLINE
  5
10a
100
AcDbEntity
  8
图层_1
 62
7
100
AcDbPolyline
 90
2
 70
0
 10
10.847078
 20
290.999476
 30
0.0
 10
10.757678
 20
289.656406
 30
0.0
  0
SPLINE
  5
10b
100
AcDbEntity
  8
图层_1
 62
7
100
AcDbSpline
 70
8
 71
3
 72
8
 73
4
 74
0
 40
0
 40
0
 40
0
 40
0
 40
1
 40
1
 40
1
 40
1
 10
9.055456
 20
232.065600
 30
0.0
 10
9.055456
 20
232.065600
 30
0.0
 10
10.167692
 20
232.038800
 30
0.0
 10
10.667761
 20
232.244400
 30
0.0
  0
SPLINE
  5
10c
100
AcDbEntity
  8
图层_1
 62
7
100
AcDbSpline
 70
8
 71
3
 72
8
 73
4
 74
0
 40
0
 40
0
 40
0
 40
0
 40
1
 40
1
 40
1
 40
1
 10
10.667761
 20
232.244400
 30
0.0
 10
12.358174
 20
232.939550
 30
0.0
 10
13.625831
 20
234.406820
 30
0.0
 10
14.967240
 20
235.648330
 30
0.0
  0
SPLINE
  5
10d
100
AcDbEntity
  8
图层_1
 62
7
100
AcDbSpline
 70
8
 71
3
 72
8
 73
4
 74
0
 40
0
 40
0
 40
0
 40
0
 40
1
 40
1
 40
1
 40
1
 10
14.967240
 20
235.648330
 30
0.0
 10
16.579743
 20
237.140740
 30
0.0
 10
18.167251
 20
238.697690
 30
0.0
 10
19.445520
 20
240.484733
 30
0.0
  0
SPLINE
  5
10e
100
AcDbEntity
  8
图层_1
 62
7
100
AcDbSpline
 70
8
 71
3
 72
8
 73
4
 74
0
 40
0
 40
0
 40
0
 40
0
 40
1
 40
1
 40
1
 40
1
 10
19.445520
 20
240.484733
 30
0.0
 10
20.688973
 20
242.223103
 30
0.0
 10
21.715487
 20
244.135563
 30
0.0
 10
22.490812
 20
246.127283
 30
0.0
  0
SPLINE
  5
10f
100
AcDbEntity
  8
图层_1
 62
7
100
AcDbSpline
 70
8
 71
3
 72
8
 73
4
 74
0
 40
0
 40
0
 40
0
 40
0
 40
1
 40
1
 40
1
 40
1
 10
22.490812
 20
246.127283
 30
0.0
 10
23.507352
 20
248.738653
 30
0.0
 10
24.199971
 20
251.497453
 30
0.0
 10
24.550634
 20
254.277683
 30
0.0
  0
SPLINE
  5
110
100
AcDbEntity
  8
图层_1
 62
7
100
AcDbSpline
 70
8
 71
3
 72
8
 73
4
 74
0
 40
0
 40
0
 40
0
 40
0
 40
1
 40
1
 40
1
 40
1
 10
24.550634
 20
254.277683
 30
0.0
 10
25.660220
 20
263.075036
 30
0.0
 10
24.640034
 20
280.878645
 30
0.0
 10
24.640034
 20
280.878645
 30
0.0
  0
LWPOLYLINE
  5
111
100
AcDbEntity
  8
图层_1
 62
7
100
AcDbPolyline
 90
2
 70
0
 10
9.234773
 20
232.871750
 30
0.0
 10
9.055456
 20
232.065600
 30
0.0
  0
SPLINE
  5
112
100
AcDbEntity
  8
图层_1
 62
7
100
AcDbSpline
 70
8
 71
3
 72
8
 73
4
 74
0
 40
0
 40
0
 40
0
 40
0
 40
1
 40
1
 40
1
 40
1
 10
49.987326
 20
257.681093
 30
0.0
 10
49.987326
 20
257.681093
 30
0.0
 10
49.945526
 20
274.751980
 30
0.0
 10
49.987326
 20
284.819489
 30
0.0
  0
SPLINE
  5
113
100
AcDbEntity
  8
图层_1
 62
7
100
AcDbSpline
 70
8
 71
3
 72
8
 73
4
 74
0
 40
0
 40
0
 40
0
 40
0
 40
1
 40
1
 40
1
 40
1
 10
49.987326
 20
284.819489
 30
0.0
 10
49.990126
 20
285.495029
 30
0.0
 10
51.420316
 20
286.252994
 30
0.0
 10
51.420316
 20
286.252994
 30
0.0
  0
LWPOLYLINE
  5
114
100
AcDbEntity
  8
图层_1
 62
7
100
AcDbPolyline
 90
4
 70
0
 10
24.640034
 20
280.878645
 30
0.0
 10
47.568866
 20
257.054263
 30
0.0
 10
49.629206
 20
257.054263
 30
0.0
 10
49.987326
 20
257.681093
 30
0.0
  0
SPLINE
  5
115
100
AcDbEntity
  8
图层_1
 62
7
100
AcDbSpline
 70
8
 71
3
 72
8
 73
4
 74
0
 40
0
 40
0
 40
0
 40
0
 40
1
 40
1
 40
1
 40
1
 10
42.195036
 20
286.252474
 30
0.0
 10
42.195036
 20
286.252474
 30
0.0
 10
44.569696
 20
286.487756
 30
0.0
 10
45.509046
 20
285.894356
 30
0.0
  0
SPLINE
  5
116
100
AcDbEntity
  8
图层_1
 62
7
100
AcDbSpline
 70
8
 71
3
 72
8
 73
4
 74
0
 40
0
 40
0
 40
0
 40
0
 40
1
 40
1
 40
1
 40
1
 10
45.509046
 20
285.894356
 30
0.0
 10
45.894326
 20
285.650967
 30
0.0
 10
46.211676
 20
285.185606
 30
0.0
 10
46.225276
 20
284.730086
 30
0.0
  0
SPLINE
  5
117
100
AcDbEntity
  8
图层_1
 62
7
100
AcDbSpline
 70
8
 71
3
 72
8
 73
4
 74
0
 40
0
 40
0
 40
0
 40
0
 40
1
 40
1
 40
1
 40
1
 10
46.225276
 20
284.730086
 30
0.0
 10
46.410476
 20
278.541202
 30
0.0
 10
45.956566
 20
265.473381
 30
0.0
 10
45.956566
 20
265.473381
 30
0.0
  0
LWPOLYLINE
  5
118
100
AcDbEntity
  8
图层_1
 62
7
100
AcDbPolyline
 90
5
 70
0
 10
51.420316
 20
286.252994
 30
0.0
 10
53.748856
 20
286.163074
 30
0.0
 10
53.928166
 20
287.058626
 30
0.0
 10
42.105636
 20
286.969226
 30
0.0
 10
42.195036
 20
286.252474
 30
0.0
  0
SPLINE
  5
119
100
AcDbEntity
  8
图层_1
 62
7
100
AcDbSpline
 70
8
 71
3
 72
8
 73
4
 74
0
 40
0
 40
0
 40
0
 40
0
 40
1
 40
1
 40
1
 40
1
 10
72.938896
 20
288.198097
 30
0.0
 10
68.395348
 20
288.198048
 30
0.0
 10
64.037914
 20
286.546550
 30
0.0
 10
60.825181
 20
283.606914
 30
0.0
  0
SPLINE
  5
11a
100
AcDbEntity
  8
图层_1
 62
7
100
AcDbSpline
 70
8
 71
3
 72
8
 73
4
 74
0
 40
0
 40
0
 40
0
 40
0
 40
1
 40
1
 40
1
 40
1
 10
60.825181
 20
283.606914
 30
0.0
 10
57.612447
 20
280.667278
 30
0.0
 10
55.807586
 20
276.680305
 30
0.0
 10
55.807646
 20
272.523084
 30
0.0
  0
SPLINE
  5
11b
100
AcDbEntity
  8
图层_1
 62
7
100
AcDbSpline
 70
8
 71
3
 72
8
 73
4
 74
0
 40
0
 40
0
 40
0
 40
0
 40
1
 40
1
 40
1
 40
1
 10
55.807646
 20
272.523084
 30
0.0
 10
55.807836
 20
263.866323
 30
0.0
 10
63.477669
 20
256.848696
 30
0.0
 10
72.938896
 20
256.848593
 30
0.0
  0
SPLINE
  5
11c
100
AcDbEntity
  8
图层_1
 62
7
100
AcDbSpline
 70
8
 71
3
 72
8
 73
4
 74
0
 40
0
 40
0
 40
0
 40
0
 40
1
 40
1
 40
1
 40
1
 10
72.938896
 20
256.848593
 30
0.0
 10
82.400121
 20
256.848697
 30
0.0
 10
90.069953
 20
263.866324
 30
0.0
 10
90.070143
 20
272.523084
 30
0.0
  0
SPLINE
  5
11d
100
AcDbEntity
  8
图层_1
 62
7
100
AcDbSpline
 70
8
 71
3
 72
8
 73
4
 74
0
 40
0
 40
0
 40
0
 40
0
 40
1
 40
1
 40
1
 40
1
 10
90.070143
 20
272.523084
 30
0.0
 10
90.070203
 20
276.680304
 30
0.0
 10
88.265342
 20
280.667277
 30
0.0
 10
85.052609
 20
283.606913
 30
0.0
  0
SPLINE
  5
11e
100
AcDbEntity
  8
图层_1
 62
7
100
AcDbSpline
 70
8
 71
3
 72
8
 73
4
 74
0
 40
0
 40
0
 40
0
 40
0
 40
1
 40
1
 40
1
 40
1
 10
85.052609
 20
283.606913
 30
0.0
 10
81.839877
 20
286.546549
 30
0.0
 10
77.482443
 20
288.198047
 30
0.0
 10
72.938896
 20
288.198097
 30
0.0
  0
LWPOLYLINE
  5
11f
100
AcDbEntity
  8
图层_1
 62
7
100
AcDbPolyline
 90
4
 70
0
 10
45.956566
 20
265.473381
 30
0.0
 10
23.565165
 20
288.491619
 30
0.0
 10
23.117647
 20
290.820676
 30
0.0
 10
10.847078
 20
290.999476
 30
0.0
  0
LWPOLYLINE
  5
120
100
AcDbEntity
  8
图层_1
 62
7
100
AcDbPolyline
 90
1
 70
1
 10
72.938896
 20
288.198097
 30
0.0
  0
SPLINE
  5
121
100
AcDbEntity
  8
图层_1
 62
7
100
AcDbSpline
 70
8
 71
3
 72
8
 73
4
 74
0
 40
0
 40
0
 40
0
 40
0
 40
1
 40
1
 40
1
 40
1
 10
101.576930
 20
287.372307
 30
0.0
 10
101.576930
 20
287.372307
 30
0.0
 10
99.779273
 20
286.888456
 30
0.0
 10
98.979683
 20
286.431796
 30
0.0
  0
SPLINE
  5
122
100
AcDbEntity
  8
图层_1
 62
7
100
AcDbSpline
 70
8
 71
3
 72
8
 73
4
 74
0
 40
0
 40
0
 40
0
 40
0
 40
1
 40
1
 40
1
 40
1
 10
98.979683
 20
286.431796
 30
0.0
 10
98.206273
 20
285.990077
 30
0.0
 10
97.497023
 20
285.408451
 30
0.0
 10
96.919853
 20
284.730091
 30
0.0
  0
SPLINE
  5
123
100
AcDbEntity
  8
图层_1
 62
7
100
AcDbSpline
 70
8
 71
3
 72
8
 73
4
 74
0
 40
0
 40
0
 40
0
 40
0
 40
1
 40
1
 40
1
 40
1
 10
96.919853
 20
284.730091
 30
0.0
 10
96.460303
 20
284.189962
 30
0.0
 10
96.094403
 20
283.557897
 30
0.0
 10
95.844983
 20
282.894028
 30
0.0
  0
SPLINE
  5
124
100
AcDbEntity
  8
图层_1
 62
7
100
AcDbSpline
 70
8
 71
3
 72
8
 73
4
 74
0
 40
0
 40
0
 40
0
 40
0
 40
1
 40
1
 40
1
 40
1
 10
95.844983
 20
282.894028
 30
0.0
 10
95.593743
 20
282.225318
 30
0.0
 10
95.469223
 20
281.503076
 30
0.0
 10
95.441913
 20
280.789247
 30
0.0
  0
SPLINE
  5
125
100
AcDbEntity
  8
图层_1
 62
7
100
AcDbSpline
 70
8
 71
3
 72
8
 73
4
 74
0
 40
0
 40
0
 40
0
 40
0
 40
1
 40
1
 40
1
 40
1
 10
95.441913
 20
280.789247
 30
0.0
 10
95.411513
 20
279.993617
 30
0.0
 10
95.505913
 20
279.185207
 30
0.0
 10
95.710633
 20
278.415748
 30
0.0
  0
SPLINE
  5
126
100
AcDbEntity
  8
图层_1
 62
7
100
AcDbSpline
 70
8
 71
3
 72
8
 73
4
 74
0
 40
0
 40
0
 40
0
 40
0
 40
1
 40
1
 40
1
 40
1
 10
95.710633
 20
278.415748
 30
0.0
 10
95.923773
 20
277.614499
 30
0.0
 10
96.222513
 20
276.812569
 30
0.0
 10
96.695583
 20
276.131650
 30
0.0
  0
SPLINE
  5
127
100
AcDbEntity
  8
图层_1
 62
7
100
AcDbSpline
 70
8
 71
3
 72
8
 73
4
 74
0
 40
0
 40
0
 40
0
 40
0
 40
1
 40
1
 40
1
 40
1
 10
96.695583
 20
276.131650
 30
0.0
 10
97.249793
 20
275.333940
 30
0.0
 10
98.050363
 20
274.734025
 30
0.0
 10
98.800363
 20
274.116786
 30
0.0
  0
SPLINE
  5
128
100
AcDbEntity
  8
图层_1
 62
7
100
AcDbSpline
 70
8
 71
3
 72
8
 73
4
 74
0
 40
0
 40
0
 40
0
 40
0
 40
1
 40
1
 40
1
 40
1
 10
98.800363
 20
274.116786
 30
0.0
 10
99.801263
 20
273.293036
 30
0.0
 10
100.912530
 20
272.613095
 30
0.0
 10
101.980010
 20
271.877646
 30
0.0
  0
SPLINE
  5
129
100
AcDbEntity
  8
图层_1
 62
7
100
AcDbSpline
 70
8
 71
3
 72
8
 73
4
 74
0
 40
0
 40
0
 40
0
 40
0
 40
1
 40
1
 40
1
 40
1
 10
101.980010
 20
271.877646
 30
0.0
 10
102.661890
 20
271.407856
 30
0.0
 10
103.351710
 20
270.948920
 30
0.0
 10
104.040350
 20
270.489100
 30
0.0
  0
SPLINE
  5
12a
100
AcDbEntity
  8
图层_1
 62
7
100
AcDbSpline
 70
8
 71
3
 72
8
 73
4
 74
0
 40
0
 40
0
 40
0
 40
0
 40
1
 40
1
 40
1
 40
1
 10
104.040350
 20
270.489100
 30
0.0
 10
105.007890
 20
269.843071
 30
0.0
 10
106.050270
 20
269.299615
 30
0.0
 10
106.951280
 20
268.563636
 30
0.0
  0
SPLINE
  5
12b
100
AcDbEntity
  8
图层_1
 62
7
100
AcDbSpline
 70
8
 71
3
 72
8
 73
4
 74
0
 40
0
 40
0
 40
0
 40
0
 40
1
 40
1
 40
1
 40
1
 10
106.951280
 20
268.563636
 30
0.0
 10
107.621620
 20
268.016087
 30
0.0
 10
108.268020
 20
267.420012
 30
0.0
 10
108.787350
 20
266.727573
 30
0.0
  0
SPLINE
  5
12c
100
AcDbEntity
  8
图层_1
 62
7
100
AcDbSpline
 70
8
 71
3
 72
8
 73
4
 74
0
 40
0
 40
0
 40
0
 40
0
 40
1
 40
1
 40
1
 40
1
 10
108.787350
 20
266.727573
 30
0.0
 10
109.104010
 20
266.305353
 30
0.0
 10
109.345310
 20
265.826096
 30
0.0
 10
109.548540
 20
265.339027
 30
0.0
  0
SPLINE
  5
12d
100
AcDbEntity
  8
图层_1
 62
7
100
AcDbSpline
 70
8
 71
3
 72
8
 73
4
 74
0
 40
0
 40
0
 40
0
 40
0
 40
1
 40
1
 40
1
 40
1
 10
109.548540
 20
265.339027
 30
0.0
 10
109.770430
 20
264.807247
 30
0.0
 10
109.977740
 20
264.255010
 30
0.0
 10
110.041020
 20
263.682280
 30
0.0
  0
SPLINE
  5
12e
100
AcDbEntity
  8
图层_1
 62
7
100
AcDbSpline
 70
8
 71
3
 72
8
 73
4
 74
0
 40
0
 40
0
 40
0
 40
0
 40
1
 40
1
 40
1
 40
1
 10
110.041020
 20
263.682280
 30
0.0
 10
110.088720
 20
263.250981
 30
0.0
 10
110.039020
 20
262.808571
 30
0.0
 10
109.951620
 20
262.383652
 30
0.0
  0
SPLINE
  5
12f
100
AcDbEntity
  8
图层_1
 62
7
100
AcDbSpline
 70
8
 71
3
 72
8
 73
4
 74
0
 40
0
 40
0
 40
0
 40
0
 40
1
 40
1
 40
1
 40
1
 10
109.951620
 20
262.383652
 30
0.0
 10
109.842540
 20
261.856602
 30
0.0
 10
109.704640
 20
261.313863
 30
0.0
 10
109.414180
 20
260.860743
 30
0.0
  0
SPLINE
  5
130
100
AcDbEntity
  8
图层_1
 62
7
100
AcDbSpline
 70
8
 71
3
 72
8
 73
4
 74
0
 40
0
 40
0
 40
0
 40
0
 40
1
 40
1
 40
1
 40
1
 10
109.414180
 20
260.860743
 30
0.0
 10
109.043880
 20
260.283073
 30
0.0
 10
108.516470
 20
259.794063
 30
0.0
 10
107.936240
 20
259.427763
 30
0.0
  0
SPLINE
  5
131
100
AcDbEntity
  8
图层_1
 62
7
100
AcDbSpline
 70
8
 71
3
 72
8
 73
4
 74
0
 40
0
 40
0
 40
0
 40
0
 40
1
 40
1
 40
1
 40
1
 10
107.936240
 20
259.427763
 30
0.0
 10
107.357100
 20
259.062153
 30
0.0
 10
106.679030
 20
258.861043
 30
0.0
 10
106.010770
 20
258.711013
 30
0.0
  0
SPLINE
  5
132
100
AcDbEntity
  8
图层_1
 62
7
100
AcDbSpline
 70
8
 71
3
 72
8
 73
4
 74
0
 40
0
 40
0
 40
0
 40
0
 40
1
 40
1
 40
1
 40
1
 10
106.010770
 20
258.711013
 30
0.0
 10
104.987480
 20
258.481253
 30
0.0
 10
103.913600
 20
258.293233
 30
0.0
 10
102.875560
 20
258.442803
 30
0.0
  0
SPLINE
  5
133
100
AcDbEntity
  8
图层_1
 62
7
100
AcDbSpline
 70
8
 71
3
 72
8
 73
4
 74
0
 40
0
 40
0
 40
0
 40
0
 40
1
 40
1
 40
1
 40
1
 10
102.875560
 20
258.442803
 30
0.0
 10
101.939940
 20
258.577613
 30
0.0
 10
101.050680
 20
258.997823
 30
0.0
 10
100.233350
 20
259.472723
 30
0.0
  0
SPLINE
  5
134
100
AcDbEntity
  8
图层_1
 62
7
100
AcDbSpline
 70
8
 71
3
 72
8
 73
4
 74
0
 40
0
 40
0
 40
0
 40
0
 40
1
 40
1
 40
1
 40
1
 10
100.233350
 20
259.472723
 30
0.0
 10
99.269813
 20
260.032583
 30
0.0
 10
98.346123
 20
260.718603
 30
0.0
 10
97.636093
 20
261.577503
 30
0.0
  0
SPLINE
  5
135
100
AcDbEntity
  8
图层_1
 62
7
100
AcDbSpline
 70
8
 71
3
 72
8
 73
4
 74
0
 40
0
 40
0
 40
0
 40
0
 40
1
 40
1
 40
1
 40
1
 10
97.636093
 20
261.577503
 30
0.0
 10
97.031853
 20
262.308429
 30
0.0
 10
96.664663
 20
263.213087
 30
0.0
 10
96.292503
 20
264.085357
 30
0.0
  0
SPLINE
  5
136
100
AcDbEntity
  8
图层_1
 62
7
100
AcDbSpline
 70
8
 71
3
 72
8
 73
4
 74
0
 40
0
 40
0
 40
0
 40
0
 40
1
 40
1
 40
1
 40
1
 10
96.292503
 20
264.085357
 30
0.0
 10
96.027583
 20
264.706256
 30
0.0
 10
96.198403
 20
265.596231
 30
0.0
 10
95.665673
 20
266.010820
 30
0.0
  0
SPLINE
  5
137
100
AcDbEntity
  8
图层_1
 62
7
100
AcDbSpline
 70
8
 71
3
 72
8
 73
4
 74
0
 40
0
 40
0
 40
0
 40
0
 40
1
 40
1
 40
1
 40
1
 10
95.665673
 20
266.010820
 30
0.0
 10
95.488563
 20
266.148640
 30
0.0
 10
94.959563
 20
266.277549
 30
0.0
 10
94.993873
 20
266.055780
 30
0.0
  0
SPLINE
  5
138
100
AcDbEntity
  8
图层_1
 62
7
100
AcDbSpline
 70
8
 71
3
 72
8
 73
4
 74
0
 40
0
 40
0
 40
0
 40
0
 40
1
 40
1
 40
1
 40
1
 10
94.993873
 20
266.055780
 30
0.0
 10
95.453693
 20
263.083693
 30
0.0
 10
95.692233
 20
261.004823
 30
0.0
 10
96.023783
 20
258.129133
 30
0.0
  0
SPLINE
  5
139
100
AcDbEntity
  8
图层_1
 62
7
100
AcDbSpline
 70
8
 71
3
 72
8
 73
4
 74
0
 40
0
 40
0
 40
0
 40
0
 40
1
 40
1
 40
1
 40
1
 10
96.023783
 20
258.129133
 30
0.0
 10
96.042283
 20
257.968733
 30
0.0
 10
96.426863
 20
257.860413
 30
0.0
 10
96.426863
 20
257.860413
 30
0.0
  0
SPLINE
  5
13a
100
AcDbEntity
  8
图层_1
 62
7
100
AcDbSpline
 70
8
 71
3
 72
8
 73
4
 74
0
 40
0
 40
0
 40
0
 40
0
 40
1
 40
1
 40
1
 40
1
 10
96.426863
 20
257.860413
 30
0.0
 10
96.426863
 20
257.860413
 30
0.0
 10
97.007613
 20
258.529653
 30
0.0
 10
97.412333
 20
258.621603
 30
0.0
  0
SPLINE
  5
13b
100
AcDbEntity
  8
图层_1
 62
7
100
AcDbSpline
 70
8
 71
3
 72
8
 73
4
 74
0
 40
0
 40
0
 40
0
 40
0
 40
1
 40
1
 40
1
 40
1
 10
97.412333
 20
258.621603
 30
0.0
 10
97.620753
 20
258.668903
 30
0.0
 10
97.832563
 20
258.542003
 30
0.0
 10
98.039173
 20
258.487253
 30
0.0
  0
SPLINE
  5
13c
100
AcDbEntity
  8
图层_1
 62
7
100
AcDbSpline
 70
8
 71
3
 72
8
 73
4
 74
0
 40
0
 40
0
 40
0
 40
0
 40
1
 40
1
 40
1
 40
1
 10
98.039173
 20
258.487253
 30
0.0
 10
98.947333
 20
258.246743
 30
0.0
 10
100.726340
 20
257.636653
 30
0.0
 10
100.726340
 20
257.636653
 30
0.0
  0
LWPOLYLINE
  5
13d
100
AcDbEntity
  8
图层_1
 62
7
100
AcDbPolyline
 90
2
 70
0
 10
103.950430
 20
287.730425
 30
0.0
 10
101.576930
 20
287.372307
 30
0.0
  0
SPLINE
  5
13e
100
AcDbEntity
  8
图层_1
 62
7
100
AcDbSpline
 70
8
 71
3
 72
8
 73
4
 74
0
 40
0
 40
0
 40
0
 40
0
 40
1
 40
1
 40
1
 40
1
 10
102.069930
 20
257.188623
 30
0.0
 10
102.069930
 20
257.188623
 30
0.0
 10
103.382060
 20
257.046143
 30
0.0
 10
104.040350
 20
257.054263
 30
0.0
  0
SPLINE
  5
13f
100
AcDbEntity
  8
图层_1
 62
7
100
AcDbSpline
 70
8
 71
3
 72
8
 73
4
 74
0
 40
0
 40
0
 40
0
 40
0
 40
1
 40
1
 40
1
 40
1
 10
104.040350
 20
257.054263
 30
0.0
 10
105.329570
 20
257.070163
 30
0.0
 10
106.650570
 20
257.062263
 30
0.0
 10
107.891280
 20
257.412383
 30
0.0
  0
SPLINE
  5
140
100
AcDbEntity
  8
图层_1
 62
7
100
AcDbSpline
 70
8
 71
3
 72
8
 73
4
 74
0
 40
0
 40
0
 40
0
 40
0
 40
1
 40
1
 40
1
 40
1
 10
107.891280
 20
257.412383
 30
0.0
 10
109.060500
 20
257.742853
 30
0.0
 10
110.186750
 20
258.298463
 30
0.0
 10
111.160850
 20
259.024683
 30
0.0
  0
SPLINE
  5
141
100
AcDbEntity
  8
图层_1
 62
7
100
AcDbSpline
 70
8
 71
3
 72
8
 73
4
 74
0
 40
0
 40
0
 40
0
 40
0
 40
1
 40
1
 40
1
 40
1
 10
111.160850
 20
259.024683
 30
0.0
 10
112.058500
 20
259.693913
 30
0.0
 10
112.895790
 20
260.511543
 30
0.0
 10
113.444430
 20
261.487583
 30
0.0
  0
SPLINE
  5
142
100
AcDbEntity
  8
图层_1
 62
7
100
AcDbSpline
 70
8
 71
3
 72
8
 73
4
 74
0
 40
0
 40
0
 40
0
 40
0
 40
1
 40
1
 40
1
 40
1
 10
113.444430
 20
261.487583
 30
0.0
 10
114.007090
 20
262.488542
 30
0.0
 10
114.284360
 20
263.657744
 30
0.0
 10
114.384940
 20
264.801593
 30
0.0
  0
SPLINE
  5
143
100
AcDbEntity
  8
图层_1
 62
7
100
AcDbSpline
 70
8
 71
3
 72
8
 73
4
 74
0
 40
0
 40
0
 40
0
 40
0
 40
1
 40
1
 40
1
 40
1
 10
114.384940
 20
264.801593
 30
0.0
 10
114.475640
 20
265.832902
 30
0.0
 10
114.396240
 20
266.908895
 30
0.0
 10
114.071260
 20
267.891844
 30
0.0
  0
SPLINE
  5
144
100
AcDbEntity
  8
图层_1
 62
7
100
AcDbSpline
 70
8
 71
3
 72
8
 73
4
 74
0
 40
0
 40
0
 40
0
 40
0
 40
1
 40
1
 40
1
 40
1
 10
114.071260
 20
267.891844
 30
0.0
 10
113.787550
 20
268.749863
 30
0.0
 10
113.252900
 20
269.518844
 30
0.0
 10
112.683230
 20
270.220384
 30
0.0
  0
SPLINE
  5
145
100
AcDbEntity
  8
图层_1
 62
7
100
AcDbSpline
 70
8
 71
3
 72
8
 73
4
 74
0
 40
0
 40
0
 40
0
 40
0
 40
1
 40
1
 40
1
 40
1
 10
112.683230
 20
270.220384
 30
0.0
 10
112.197090
 20
270.819063
 30
0.0
 10
111.584870
 20
271.307390
 30
0.0
 10
110.981530
 20
271.787730
 30
0.0
  0
SPLINE
  5
146
100
AcDbEntity
  8
图层_1
 62
7
100
AcDbSpline
 70
8
 71
3
 72
8
 73
4
 74
0
 40
0
 40
0
 40
0
 40
0
 40
1
 40
1
 40
1
 40
1
 10
110.981530
 20
271.787730
 30
0.0
 10
109.679340
 20
272.824449
 30
0.0
 10
108.287730
 20
273.751394
 30
0.0
 10
106.861370
 20
274.609263
 30
0.0
  0
SPLINE
  5
147
100
AcDbEntity
  8
图层_1
 62
7
100
AcDbSpline
 70
8
 71
3
 72
8
 73
4
 74
0
 40
0
 40
0
 40
0
 40
0
 40
1
 40
1
 40
1
 40
1
 10
106.861370
 20
274.609263
 30
0.0
 10
106.254850
 20
274.974043
 30
0.0
 10
105.572890
 20
275.207156
 30
0.0
 10
104.980340
 20
275.594216
 30
0.0
  0
SPLINE
  5
148
100
AcDbEntity
  8
图层_1
 62
7
100
AcDbSpline
 70
8
 71
3
 72
8
 73
4
 74
0
 40
0
 40
0
 40
0
 40
0
 40
1
 40
1
 40
1
 40
1
 10
104.980340
 20
275.594216
 30
0.0
 10
104.020060
 20
276.221485
 30
0.0
 10
102.293690
 20
277.743955
 30
0.0
 10
102.293690
 20
277.743955
 30
0.0
  0
SPLINE
  5
149
100
AcDbEntity
  8
图层_1
 62
7
100
AcDbSpline
 70
8
 71
3
 72
8
 73
4
 74
0
 40
0
 40
0
 40
0
 40
0
 40
1
 40
1
 40
1
 40
1
 10
102.293690
 20
277.743955
 30
0.0
 10
102.293690
 20
277.743955
 30
0.0
 10
100.911630
 20
278.811018
 30
0.0
 10
100.457620
 20
279.535577
 30
0.0
  0
SPLINE
  5
14a
100
AcDbEntity
  8
图层_1
 62
7
100
AcDbSpline
 70
8
 71
3
 72
8
 73
4
 74
0
 40
0
 40
0
 40
0
 40
0
 40
1
 40
1
 40
1
 40
1
 10
100.457620
 20
279.535577
 30
0.0
 10
100.232040
 20
279.895587
 30
0.0
 10
100.122600
 20
280.324929
 30
0.0
 10
100.054550
 20
280.744289
 30
0.0
  0
SPLINE
  5
14b
100
AcDbEntity
  8
图层_1
 62
7
100
AcDbSpline
 70
8
 71
3
 72
8
 73
4
 74
0
 40
0
 40
0
 40
0
 40
0
 40
1
 40
1
 40
1
 40
1
 10
100.054550
 20
280.744289
 30
0.0
 10
99.978050
 20
281.215809
 30
0.0
 10
99.974750
 20
281.706297
 30
0.0
 10
100.054550
 20
282.177276
 30
0.0
  0
SPLINE
  5
14c
100
AcDbEntity
  8
图层_1
 62
7
100
AcDbSpline
 70
8
 71
3
 72
8
 73
4
 74
0
 40
0
 40
0
 40
0
 40
0
 40
1
 40
1
 40
1
 40
1
 10
100.054550
 20
282.177276
 30
0.0
 10
100.168100
 20
282.847546
 30
0.0
 10
100.340920
 20
283.543248
 30
0.0
 10
100.726340
 20
284.103257
 30
0.0
  0
SPLINE
  5
14d
100
AcDbEntity
  8
图层_1
 62
7
100
AcDbSpline
 70
8
 71
3
 72
8
 73
4
 74
0
 40
0
 40
0
 40
0
 40
0
 40
1
 40
1
 40
1
 40
1
 10
100.726340
 20
284.103257
 30
0.0
 10
101.080680
 20
284.618107
 30
0.0
 10
101.595070
 20
285.043706
 30
0.0
 10
102.159330
 20
285.312486
 30
0.0
  0
SPLINE
  5
14e
100
AcDbEntity
  8
图层_1
 62
7
100
AcDbSpline
 70
8
 71
3
 72
8
 73
4
 74
0
 40
0
 40
0
 40
0
 40
0
 40
1
 40
1
 40
1
 40
1
 10
102.159330
 20
285.312486
 30
0.0
 10
103.023630
 20
285.724185
 30
0.0
 10
104.025480
 20
285.781141
 30
0.0
 10
104.980340
 20
285.849921
 30
0.0
  0
SPLINE
  5
14f
100
AcDbEntity
  8
图层_1
 62
7
100
AcDbSpline
 70
8
 71
3
 72
8
 73
4
 74
0
 40
0
 40
0
 40
0
 40
0
 40
1
 40
1
 40
1
 40
1
 10
104.980340
 20
285.849921
 30
0.0
 10
105.651010
 20
285.898221
 30
0.0
 10
106.341660
 20
285.915901
 30
0.0
 10
106.995730
 20
285.760001
 30
0.0
  0
SPLINE
  5
150
100
AcDbEntity
  8
图层_1
 62
7
100
AcDbSpline
 70
8
 71
3
 72
8
 73
4
 74
0
 40
0
 40
0
 40
0
 40
0
 40
1
 40
1
 40
1
 40
1
 10
106.995730
 20
285.760001
 30
0.0
 10
107.808090
 20
285.566311
 30
0.0
 10
108.607220
 20
285.225139
 30
0.0
 10
109.279820
 20
284.730089
 30
0.0
  0
SPLINE
  5
151
100
AcDbEntity
  8
图层_1
 62
7
100
AcDbSpline
 70
8
 71
3
 72
8
 73
4
 74
0
 40
0
 40
0
 40
0
 40
0
 40
1
 40
1
 40
1
 40
1
 10
109.279820
 20
284.730089
 30
0.0
 10
110.131450
 20
284.103270
 30
0.0
 10
111.384600
 20
282.356591
 30
0.0
 10
111.384600
 20
282.356591
 30
0.0
  0
LWPOLYLINE
  5
152
100
AcDbEntity
  8
图层_1
 62
7
100
AcDbPolyline
 90
2
 70
0
 10
100.726340
 20
257.636653
 30
0.0
 10
102.069930
 20
257.188623
 30
0.0
  0
SPLINE
  5
153
100
AcDbEntity
  8
图层_1
 62
7
100
AcDbSpline
 70
8
 71
3
 72
8
 73
4
 74
0
 40
0
 40
0
 40
0
 40
0
 40
1
 40
1
 40
1
 40
1
 10
143.728880
 20
287.530437
 30
0.0
 10
139.663490
 20
287.520007
 30
0.0
 10
134.994530
 20
287.398145
 30
0.0
 10
134.994530
 20
287.398145
 30
0.0
  0
LWPOLYLINE
  5
154
100
AcDbEntity
  8
图层_1
 62
7
100
AcDbPolyline
 90
10
 70
0
 10
111.384600
 20
282.356591
 30
0.0
 10
112.593830
 20
280.206851
 30
0.0
 10
113.175710
 20
280.386168
 30
0.0
 10
112.414520
 20
287.103588
 30
0.0
 10
111.474000
 20
286.566153
 30
0.0
 10
110.085980
 20
286.476753
 30
0.0
 10
109.234860
 20
286.476753
 30
0.0
 10
107.264440
 20
287.417264
 30
0.0
 10
105.786500
 20
287.641023
 30
0.0
 10
103.950430
 20
287.730425
 30
0.0
  0
SPLINE
  5
155
100
AcDbEntity
  8
图层_1
 62
7
100
AcDbSpline
 70
8
 71
3
 72
8
 73
4
 74
0
 40
0
 40
0
 40
0
 40
0
 40
1
 40
1
 40
1
 40
1
 10
135.067430
 20
286.956829
 30
0.0
 10
135.067430
 20
286.956829
 30
0.0
 10
136.462330
 20
286.255245
 30
0.0
 10
137.059040
 20
285.762070
 30
0.0
  0
SPLINE
  5
156
100
AcDbEntity
  8
图层_1
 62
7
100
AcDbSpline
 70
8
 71
3
 72
8
 73
4
 74
0
 40
0
 40
0
 40
0
 40
0
 40
1
 40
1
 40
1
 40
1
 10
137.059040
 20
285.762070
 30
0.0
 10
137.386090
 20
285.491767
 30
0.0
 10
137.907560
 20
284.813290
 30
0.0
 10
137.907560
 20
284.813290
 30
0.0
  0
LWPOLYLINE
  5
157
100
AcDbEntity
  8
图层_1
 62
7
100
AcDbPolyline
 90
2
 70
0
 10
134.994530
 20
287.398145
 30
0.0
 10
135.067430
 20
286.956829
 30
0.0
  0
SPLINE
  5
158
100
AcDbEntity
  8
图层_1
 62
7
100
AcDbSpline
 70
8
 71
3
 72
8
 73
4
 74
0
 40
0
 40
0
 40
0
 40
0
 40
1
 40
1
 40
1
 40
1
 10
138.080610
 20
260.208073
 30
0.0
 10
138.080610
 20
260.208073
 30
0.0
 10
137.912140
 20
258.842593
 30
0.0
 10
137.449640
 20
258.404563
 30
0.0
  0
SPLINE
  5
159
100
AcDbEntity
  8
图层_1
 62
7
100
AcDbSpline
 70
8
 71
3
 72
8
 73
4
 74
0
 40
0
 40
0
 40
0
 40
0
 40
1
 40
1
 40
1
 40
1
 10
137.449640
 20
258.404563
 30
0.0
 10
136.552230
 20
257.554643
 30
0.0
 10
133.888100
 20
257.371553
 30
0.0
 10
133.888100
 20
257.371553
 30
0.0
  0
LWPOLYLINE
  5
15a
100
AcDbEntity
  8
图层_1
 62
7
100
AcDbPolyline
 90
15
 70
0
 10
137.907560
 20
284.813290
 30
0.0
 10
138.076550
 20
284.155966
 30
0.0
 10
138.007250
 20
272.039393
 30
0.0
 10
136.574260
 20
272.076083
 30
0.0
 10
135.251340
 20
271.928805
 30
0.0
 10
134.663270
 20
271.414625
 30
0.0
 10
134.185780
 20
270.789857
 30
0.0
 10
133.598220
 20
269.540837
 30
0.0
 10
133.818360
 20
268.805999
 30
0.0
 10
134.038500
 20
268.732099
 30
0.0
 10
134.847240
 20
269.687597
 30
0.0
 10
136.316910
 20
270.055016
 30
0.0
 10
137.933350
 20
270.128916
 30
0.0
 10
138.154010
 20
270.055016
 30
0.0
 10
138.080610
 20
260.208073
 30
0.0
  0
SPLINE
  5
15b
100
AcDbEntity
  8
图层_1
 62
7
100
AcDbSpline
 70
8
 71
3
 72
8
 73
4
 74
0
 40
0
 40
0
 40
0
 40
0
 40
1
 40
1
 40
1
 40
1
 10
147.265580
 20
257.393263
 30
0.0
 10
147.265580
 20
257.393263
 30
0.0
 10
144.160130
 20
257.339863
 30
0.0
 10
143.188310
 20
258.341003
 30
0.0
  0
SPLINE
  5
15c
100
AcDbEntity
  8
图层_1
 62
7
100
AcDbSpline
 70
8
 71
3
 72
8
 73
4
 74
0
 40
0
 40
0
 40
0
 40
0
 40
1
 40
1
 40
1
 40
1
 10
143.188310
 20
258.341003
 30
0.0
 10
142.763330
 20
258.778823
 30
0.0
 10
142.827090
 20
260.135213
 30
0.0
 10
142.827090
 20
260.135213
 30
0.0
  0
LWPOLYLINE
  5
15d
100
AcDbEntity
  8
图层_1
 62
7
100
AcDbPolyline
 90
4
 70
0
 10
133.888100
 20
257.371553
 30
0.0
 10
133.769760
 20
256.949363
 30
0.0
 10
147.375650
 20
256.948843
 30
0.0
 10
147.265580
 20
257.393263
 30
0.0
  0
SPLINE
  5
15e
100
AcDbEntity
  8
图层_1
 62
7
100
AcDbSpline
 70
8
 71
3
 72
8
 73
4
 74
0
 40
0
 40
0
 40
0
 40
0
 40
1
 40
1
 40
1
 40
1
 10
143.187510
 20
270.062767
 30
0.0
 10
143.187510
 20
270.062767
 30
0.0
 10
149.192870
 20
270.126997
 30
0.0
 10
152.206080
 20
270.510285
 30
0.0
  0
SPLINE
  5
15f
100
AcDbEntity
  8
图层_1
 62
7
100
AcDbSpline
 70
8
 71
3
 72
8
 73
4
 74
0
 40
0
 40
0
 40
0
 40
0
 40
1
 40
1
 40
1
 40
1
 10
152.206080
 20
270.510285
 30
0.0
 10
152.907410
 20
270.599495
 30
0.0
 10
153.616020
 20
270.741342
 30
0.0
 10
154.263840
 20
271.024466
 30
0.0
  0
SPLINE
  5
160
100
AcDbEntity
  8
图层_1
 62
7
100
AcDbSpline
 70
8
 71
3
 72
8
 73
4
 74
0
 40
0
 40
0
 40
0
 40
0
 40
1
 40
1
 40
1
 40
1
 10
154.263840
 20
271.024466
 30
0.0
 10
154.961090
 20
271.329193
 30
0.0
 10
155.781860
 20
272.249166
 30
0.0
 10
156.361900
 20
272.741674
 30
0.0
  0
SPLINE
  5
161
100
AcDbEntity
  8
图层_1
 62
7
100
AcDbSpline
 70
8
 71
3
 72
8
 73
4
 74
0
 40
0
 40
0
 40
0
 40
0
 40
1
 40
1
 40
1
 40
1
 10
156.361900
 20
272.741674
 30
0.0
 10
156.969840
 20
273.257856
 30
0.0
 10
157.461620
 20
274.048304
 30
0.0
 10
157.931830
 20
274.692459
 30
0.0
  0
SPLINE
  5
162
100
AcDbEntity
  8
图层_1
 62
7
100
AcDbSpline
 70
8
 71
3
 72
8
 73
4
 74
0
 40
0
 40
0
 40
0
 40
0
 40
1
 40
1
 40
1
 40
1
 10
157.931830
 20
274.692459
 30
0.0
 10
158.281130
 20
275.170996
 30
0.0
 10
158.582030
 20
275.672473
 30
0.0
 10
158.766410
 20
276.235517
 30
0.0
  0
SPLINE
  5
163
100
AcDbEntity
  8
图层_1
 62
7
100
AcDbSpline
 70
8
 71
3
 72
8
 73
4
 74
0
 40
0
 40
0
 40
0
 40
0
 40
1
 40
1
 40
1
 40
1
 10
158.766410
 20
276.235517
 30
0.0
 10
159.034950
 20
277.055578
 30
0.0
 10
159.049320
 20
277.944604
 30
0.0
 10
159.060440
 20
278.807453
 30
0.0
  0
SPLINE
  5
164
100
AcDbEntity
  8
图层_1
 62
7
100
AcDbSpline
 70
8
 71
3
 72
8
 73
4
 74
0
 40
0
 40
0
 40
0
 40
0
 40
1
 40
1
 40
1
 40
1
 10
159.060440
 20
278.807453
 30
0.0
 10
159.071140
 20
279.643460
 30
0.0
 10
159.073840
 20
280.503236
 30
0.0
 10
158.840300
 20
281.306009
 30
0.0
  0
SPLINE
  5
165
100
AcDbEntity
  8
图层_1
 62
7
100
AcDbSpline
 70
8
 71
3
 72
8
 73
4
 74
0
 40
0
 40
0
 40
0
 40
0
 40
1
 40
1
 40
1
 40
1
 10
158.840300
 20
281.306009
 30
0.0
 10
158.632140
 20
282.021333
 30
0.0
 10
158.246950
 20
282.685963
 30
0.0
 10
157.811420
 20
283.290384
 30
0.0
  0
SPLINE
  5
166
100
AcDbEntity
  8
图层_1
 62
7
100
AcDbSpline
 70
8
 71
3
 72
8
 73
4
 74
0
 40
0
 40
0
 40
0
 40
0
 40
1
 40
1
 40
1
 40
1
 10
157.811420
 20
283.290384
 30
0.0
 10
157.132900
 20
284.232006
 30
0.0
 10
156.328220
 20
285.110876
 30
0.0
 10
155.386250
 20
285.788939
 30
0.0
  0
SPLINE
  5
167
100
AcDbEntity
  8
图层_1
 62
7
100
AcDbSpline
 70
8
 71
3
 72
8
 73
4
 74
0
 40
0
 40
0
 40
0
 40
0
 40
1
 40
1
 40
1
 40
1
 10
155.386250
 20
285.788939
 30
0.0
 10
154.834970
 20
286.185785
 30
0.0
 10
154.187090
 20
286.437234
 30
0.0
 10
153.549150
 20
286.670539
 30
0.0
  0
SPLINE
  5
168
100
AcDbEntity
  8
图层_1
 62
7
100
AcDbSpline
 70
8
 71
3
 72
8
 73
4
 74
0
 40
0
 40
0
 40
0
 40
0
 40
1
 40
1
 40
1
 40
1
 10
153.549150
 20
286.670539
 30
0.0
 10
152.907450
 20
286.905202
 30
0.0
 10
152.242620
 20
287.095096
 30
0.0
 10
151.565290
 20
287.184720
 30
0.0
  0
SPLINE
  5
169
100
AcDbEntity
  8
图层_1
 62
7
100
AcDbSpline
 70
8
 71
3
 72
8
 73
4
 74
0
 40
0
 40
0
 40
0
 40
0
 40
1
 40
1
 40
1
 40
1
 10
151.565290
 20
287.184720
 30
0.0
 10
149.473770
 20
287.461464
 30
0.0
 10
146.510160
 20
287.537574
 30
0.0
 10
143.728560
 20
287.530435
 30
0.0
  0
LWPOLYLINE
  5
16a
100
AcDbEntity
  8
图层_1
 62
7
100
AcDbPolyline
 90
3
 70
0
 10
142.827090
 20
260.135213
 30
0.0
 10
142.820090
 20
269.694831
 30
0.0
 10
143.187510
 20
270.062767
 30
0.0
  0
SPLINE
  5
16b
100
AcDbEntity
  8
图层_1
 62
7
100
AcDbSpline
 70
8
 71
3
 72
8
 73
4
 74
0
 40
0
 40
0
 40
0
 40
0
 40
1
 40
1
 40
1
 40
1
 10
229.613050
 20
287.123227
 30
0.0
 10
225.069412
 20
287.123304
 30
0.0
 10
220.711845
 20
285.471862
 30
0.0
 10
217.498999
 20
282.532212
 30
0.0
  0
SPLINE
  5
16c
100
AcDbEntity
  8
图层_1
 62
7
100
AcDbSpline
 70
8
 71
3
 72
8
 73
4
 74
0
 40
0
 40
0
 40
0
 40
0
 40
1
 40
1
 40
1
 40
1
 10
217.498999
 20
282.532212
 30
0.0
 10
214.286153
 20
279.592563
 30
0.0
 10
212.481220
 20
275.605518
 30
0.0
 10
212.481280
 20
271.448215
 30
0.0
  0
SPLINE
  5
16d
100
AcDbEntity
  8
图层_1
 62
7
100
AcDbSpline
 70
8
 71
3
 72
8
 73
4
 74
0
 40
0
 40
0
 40
0
 40
0
 40
1
 40
1
 40
1
 40
1
 10
212.481280
 20
271.448215
 30
0.0
 10
212.481470
 20
262.791268
 30
0.0
 10
220.151620
 20
255.773563
 30
0.0
 10
229.613050
 20
255.773723
 30
0.0
  0
SPLINE
  5
16e
100
AcDbEntity
  8
图层_1
 62
7
100
AcDbSpline
 70
8
 71
3
 72
8
 73
4
 74
0
 40
0
 40
0
 40
0
 40
0
 40
1
 40
1
 40
1
 40
1
 10
229.613050
 20
255.773723
 30
0.0
 10
239.074281
 20
255.773821
 30
0.0
 10
246.744120
 20
262.791450
 30
0.0
 10
246.744310
 20
271.448215
 30
0.0
  0
SPLINE
  5
16f
100
AcDbEntity
  8
图层_1
 62
7
100
AcDbSpline
 70
8
 71
3
 72
8
 73
4
 74
0
 40
0
 40
0
 40
0
 40
0
 40
1
 40
1
 40
1
 40
1
 10
246.744310
 20
271.448215
 30
0.0
 10
246.744370
 20
275.605437
 30
0.0
 10
244.939507
 20
279.592412
 30
0.0
 10
241.726772
 20
282.532047
 30
0.0
  0
SPLINE
  5
170
100
AcDbEntity
  8
图层_1
 62
7
100
AcDbSpline
 70
8
 71
3
 72
8
 73
4
 74
0
 40
0
 40
0
 40
0
 40
0
 40
1
 40
1
 40
1
 40
1
 10
241.726772
 20
282.532047
 30
0.0
 10
238.514036
 20
285.471683
 30
0.0
 10
234.156599
 20
287.123180
 30
0.0
 10
229.613050
 20
287.123227
 30
0.0
  0
LWPOLYLINE
  5
171
100
AcDbEntity
  8
图层_1
 62
7
100
AcDbPolyline
 90
2
 70
0
 10
143.728560
 20
287.530435
 30
0.0
 10
143.728880
 20
287.530437
 30
0.0
  0
LWPOLYLINE
  5
172
100
AcDbEntity
  8
图层_1
 62
7
100
AcDbPolyline
 90
1
 70
1
 10
229.613050
 20
287.123227
 30
0.0
  0
SPLINE
  5
173
100
AcDbEntity
  8
图层_1
 62
7
100
AcDbSpline
 70
8
 71
3
 72
8
 73
4
 74
0
 40
0
 40
0
 40
0
 40
0
 40
1
 40
1
 40
1
 40
1
 10
196.670350
 20
286.529981
 30
0.0
 10
195.982260
 20
286.536981
 30
0.0
 10
195.294650
 20
286.513441
 30
0.0
 10
194.612080
 20
286.438511
 30
0.0
  0
SPLINE
  5
174
100
AcDbEntity
  8
图层_1
 62
7
100
AcDbSpline
 70
8
 71
3
 72
8
 73
4
 74
0
 40
0
 40
0
 40
0
 40
0
 40
1
 40
1
 40
1
 40
1
 10
194.612080
 20
286.438511
 30
0.0
 10
193.654450
 20
286.333391
 30
0.0
 10
192.710690
 20
286.098756
 30
0.0
 10
191.791070
 20
285.811676
 30
0.0
  0
SPLINE
  5
175
100
AcDbEntity
  8
图层_1
 62
7
100
AcDbSpline
 70
8
 71
3
 72
8
 73
4
 74
0
 40
0
 40
0
 40
0
 40
0
 40
1
 40
1
 40
1
 40
1
 10
191.791070
 20
285.811676
 30
0.0
 10
190.468020
 20
285.398656
 30
0.0
 10
189.152330
 20
284.915449
 30
0.0
 10
187.939620
 20
284.244330
 30
0.0
  0
SPLINE
  5
176
100
AcDbEntity
  8
图层_1
 62
7
100
AcDbSpline
 70
8
 71
3
 72
8
 73
4
 74
0
 40
0
 40
0
 40
0
 40
0
 40
1
 40
1
 40
1
 40
1
 10
187.939620
 20
284.244330
 30
0.0
 10
186.844910
 20
283.638510
 30
0.0
 10
185.768200
 20
282.945558
 30
0.0
 10
184.894330
 20
282.050148
 30
0.0
  0
SPLINE
  5
177
100
AcDbEntity
  8
图层_1
 62
7
100
AcDbSpline
 70
8
 71
3
 72
8
 73
4
 74
0
 40
0
 40
0
 40
0
 40
0
 40
1
 40
1
 40
1
 40
1
 10
184.894330
 20
282.050148
 30
0.0
 10
183.454180
 20
280.574480
 30
0.0
 10
182.238860
 20
278.828565
 30
0.0
 10
181.401010
 20
276.944517
 30
0.0
  0
SPLINE
  5
178
100
AcDbEntity
  8
图层_1
 62
7
100
AcDbSpline
 70
8
 71
3
 72
8
 73
4
 74
0
 40
0
 40
0
 40
0
 40
0
 40
1
 40
1
 40
1
 40
1
 10
181.401010
 20
276.944517
 30
0.0
 10
180.858130
 20
275.723788
 30
0.0
 10
180.606680
 20
274.376669
 30
0.0
 10
180.461020
 20
273.048631
 30
0.0
  0
SPLINE
  5
179
100
AcDbEntity
  8
图层_1
 62
7
100
AcDbSpline
 70
8
 71
3
 72
8
 73
4
 74
0
 40
0
 40
0
 40
0
 40
0
 40
1
 40
1
 40
1
 40
1
 10
180.461020
 20
273.048631
 30
0.0
 10
180.283590
 20
271.430952
 30
0.0
 10
180.294830
 20
269.774463
 30
0.0
 10
180.550420
 20
268.167275
 30
0.0
  0
SPLINE
  5
17a
100
AcDbEntity
  8
图层_1
 62
7
100
AcDbSpline
 70
8
 71
3
 72
8
 73
4
 74
0
 40
0
 40
0
 40
0
 40
0
 40
1
 40
1
 40
1
 40
1
 10
180.550420
 20
268.167275
 30
0.0
 10
180.790700
 20
266.656346
 30
0.0
 10
181.188260
 20
265.135814
 30
0.0
 10
181.894010
 20
263.778396
 30
0.0
  0
SPLINE
  5
17b
100
AcDbEntity
  8
图层_1
 62
7
100
AcDbSpline
 70
8
 71
3
 72
8
 73
4
 74
0
 40
0
 40
0
 40
0
 40
0
 40
1
 40
1
 40
1
 40
1
 10
181.894010
 20
263.778396
 30
0.0
 10
182.644720
 20
262.334507
 30
0.0
 10
183.682400
 20
261.013553
 30
0.0
 10
184.894340
 20
259.927473
 30
0.0
  0
SPLINE
  5
17c
100
AcDbEntity
  8
图层_1
 62
7
100
AcDbSpline
 70
8
 71
3
 72
8
 73
4
 74
0
 40
0
 40
0
 40
0
 40
0
 40
1
 40
1
 40
1
 40
1
 10
184.894340
 20
259.927473
 30
0.0
 10
185.847670
 20
259.073143
 30
0.0
 10
187.011040
 20
258.469593
 30
0.0
 10
188.163390
 20
257.912093
 30
0.0
  0
SPLINE
  5
17d
100
AcDbEntity
  8
图层_1
 62
7
100
AcDbSpline
 70
8
 71
3
 72
8
 73
4
 74
0
 40
0
 40
0
 40
0
 40
0
 40
1
 40
1
 40
1
 40
1
 10
188.163390
 20
257.912093
 30
0.0
 10
189.264380
 20
257.379443
 30
0.0
 10
190.426260
 20
256.958673
 30
0.0
 10
191.611760
 20
256.657903
 30
0.0
  0
SPLINE
  5
17e
100
AcDbEntity
  8
图层_1
 62
7
100
AcDbSpline
 70
8
 71
3
 72
8
 73
4
 74
0
 40
0
 40
0
 40
0
 40
0
 40
1
 40
1
 40
1
 40
1
 10
191.611760
 20
256.657903
 30
0.0
 10
192.591940
 20
256.409223
 30
0.0
 10
193.603270
 20
256.280233
 30
0.0
 10
194.612090
 20
256.210383
 30
0.0
  0
SPLINE
  5
17f
100
AcDbEntity
  8
图层_1
 62
7
100
AcDbSpline
 70
8
 71
3
 72
8
 73
4
 74
0
 40
0
 40
0
 40
0
 40
0
 40
1
 40
1
 40
1
 40
1
 10
194.612090
 20
256.210383
 30
0.0
 10
196.116250
 20
256.106233
 30
0.0
 10
197.634800
 20
256.107203
 30
0.0
 10
199.135320
 20
256.254783
 30
0.0
  0
SPLINE
  5
180
100
AcDbEntity
  8
图层_1
 62
7
100
AcDbSpline
 70
8
 71
3
 72
8
 73
4
 74
0
 40
0
 40
0
 40
0
 40
0
 40
1
 40
1
 40
1
 40
1
 10
199.135320
 20
256.254783
 30
0.0
 10
200.178410
 20
256.357403
 30
0.0
 10
202.225060
 20
256.837183
 30
0.0
 10
202.225060
 20
256.837183
 30
0.0
  0
LWPOLYLINE
  5
181
100
AcDbEntity
  8
图层_1
 62
7
100
AcDbPolyline
 90
28
 70
1
 10
163.008840
 20
286.940809
 30
0.0
 10
163.008840
 20
286.294854
 30
0.0
 10
165.398880
 20
286.230254
 30
0.0
 10
166.238620
 20
285.971872
 30
0.0
 10
166.497000
 20
285.648377
 30
0.0
 10
166.884580
 20
285.131613
 30
0.0
 10
167.142960
 20
284.873231
 30
0.0
 10
167.142960
 20
284.227276
 30
0.0
 10
167.142960
 20
259.292363
 30
0.0
 10
166.949170
 20
258.840203
 30
0.0
 10
166.497000
 20
258.194243
 30
0.0
 10
165.721860
 20
257.741563
 30
0.0
 10
164.236160
 20
257.547773
 30
0.0
 10
162.944250
 20
257.483173
 30
0.0
 10
163.138030
 20
256.837223
 30
0.0
 10
176.768210
 20
256.966413
 30
0.0
 10
176.768210
 20
257.612363
 30
0.0
 10
173.732220
 20
257.806673
 30
0.0
 10
173.280050
 20
258.129653
 30
0.0
 10
172.763290
 20
258.711013
 30
0.0
 10
172.440310
 20
259.550753
 30
0.0
 10
172.504910
 20
284.356467
 30
0.0
 10
173.021690
 20
285.196725
 30
0.0
 10
173.280060
 20
285.713490
 30
0.0
 10
174.248990
 20
286.230254
 30
0.0
 10
175.540910
 20
286.424041
 30
0.0
 10
176.574440
 20
286.488641
 30
0.0
 10
176.574440
 20
286.940810
 30
0.0
  0
SPLINE
  5
182
100
AcDbEntity
  8
图层_1
 62
7
100
AcDbSpline
 70
8
 71
3
 72
8
 73
4
 74
0
 40
0
 40
0
 40
0
 40
0
 40
1
 40
1
 40
1
 40
1
 10
208.360600
 20
259.300083
 30
0.0
 10
208.360600
 20
259.300083
 30
0.0
 10
208.693830
 20
260.612473
 30
0.0
 10
208.853070
 20
261.270503
 30
0.0
  0
SPLINE
  5
183
100
AcDbEntity
  8
图层_1
 62
7
100
AcDbSpline
 70
8
 71
3
 72
8
 73
4
 74
0
 40
0
 40
0
 40
0
 40
0
 40
1
 40
1
 40
1
 40
1
 10
208.853070
 20
261.270503
 30
0.0
 10
209.022550
 20
261.970838
 30
0.0
 10
209.345550
 20
263.375279
 30
0.0
 10
209.345550
 20
263.375279
 30
0.0
  0
LWPOLYLINE
  5
184
100
AcDbEntity
  8
图层_1
 62
7
100
AcDbPolyline
 90
4
 70
0
 10
202.225060
 20
256.837183
 30
0.0
 10
206.345220
 20
258.091363
 30
0.0
 10
208.046920
 20
258.807603
 30
0.0
 10
208.360600
 20
259.300083
 30
0.0
  0
SPLINE
  5
185
100
AcDbEntity
  8
图层_1
 62
7
100
AcDbSpline
 70
8
 71
3
 72
8
 73
4
 74
0
 40
0
 40
0
 40
0
 40
0
 40
1
 40
1
 40
1
 40
1
 10
202.583690
 20
258.583843
 30
0.0
 10
202.583690
 20
258.583843
 30
0.0
 10
200.489020
 20
257.913083
 30
0.0
 10
199.404050
 20
257.777693
 30
0.0
  0
SPLINE
  5
186
100
AcDbEntity
  8
图层_1
 62
7
100
AcDbSpline
 70
8
 71
3
 72
8
 73
4
 74
0
 40
0
 40
0
 40
0
 40
0
 40
1
 40
1
 40
1
 40
1
 10
199.404050
 20
257.777693
 30
0.0
 10
198.233840
 20
257.631663
 30
0.0
 10
197.027570
 20
257.572533
 30
0.0
 10
195.866270
 20
257.777693
 30
0.0
  0
SPLINE
  5
187
100
AcDbEntity
  8
图层_1
 62
7
100
AcDbSpline
 70
8
 71
3
 72
8
 73
4
 74
0
 40
0
 40
0
 40
0
 40
0
 40
1
 40
1
 40
1
 40
1
 10
195.866270
 20
257.777693
 30
0.0
 10
194.536270
 20
258.012653
 30
0.0
 10
193.257260
 20
258.541073
 30
0.0
 10
192.059790
 20
259.165723
 30
0.0
  0
SPLINE
  5
188
100
AcDbEntity
  8
图层_1
 62
7
100
AcDbSpline
 70
8
 71
3
 72
8
 73
4
 74
0
 40
0
 40
0
 40
0
 40
0
 40
1
 40
1
 40
1
 40
1
 10
192.059790
 20
259.165723
 30
0.0
 10
191.138170
 20
259.646483
 30
0.0
 10
190.266250
 20
260.247393
 30
0.0
 10
189.506980
 20
260.957343
 30
0.0
  0
SPLINE
  5
189
100
AcDbEntity
  8
图层_1
 62
7
100
AcDbSpline
 70
8
 71
3
 72
8
 73
4
 74
0
 40
0
 40
0
 40
0
 40
0
 40
1
 40
1
 40
1
 40
1
 10
189.506980
 20
260.957343
 30
0.0
 10
188.708330
 20
261.704123
 30
0.0
 10
188.024820
 20
262.581299
 30
0.0
 10
187.447160
 20
263.509638
 30
0.0
  0
SPLINE
  5
18a
100
AcDbEntity
  8
图层_1
 62
7
100
AcDbSpline
 70
8
 71
3
 72
8
 73
4
 74
0
 40
0
 40
0
 40
0
 40
0
 40
1
 40
1
 40
1
 40
1
 10
187.447160
 20
263.509638
 30
0.0
 10
186.847310
 20
264.473627
 30
0.0
 10
186.327500
 20
265.508750
 30
0.0
 10
186.013650
 20
266.599889
 30
0.0
  0
SPLINE
  5
18b
100
AcDbEntity
  8
图层_1
 62
7
100
AcDbSpline
 70
8
 71
3
 72
8
 73
4
 74
0
 40
0
 40
0
 40
0
 40
0
 40
1
 40
1
 40
1
 40
1
 10
186.013650
 20
266.599889
 30
0.0
 10
185.685060
 20
267.742258
 30
0.0
 10
185.599560
 20
268.949438
 30
0.0
 10
185.566130
 20
270.137657
 30
0.0
  0
SPLINE
  5
18c
100
AcDbEntity
  8
图层_1
 62
7
100
AcDbSpline
 70
8
 71
3
 72
8
 73
4
 74
0
 40
0
 40
0
 40
0
 40
0
 40
1
 40
1
 40
1
 40
1
 10
185.566130
 20
270.137657
 30
0.0
 10
185.529930
 20
271.424046
 30
0.0
 10
185.616730
 20
272.720823
 30
0.0
 10
185.834850
 20
273.989102
 30
0.0
  0
SPLINE
  5
18d
100
AcDbEntity
  8
图层_1
 62
7
100
AcDbSpline
 70
8
 71
3
 72
8
 73
4
 74
0
 40
0
 40
0
 40
0
 40
0
 40
1
 40
1
 40
1
 40
1
 10
185.834850
 20
273.989102
 30
0.0
 10
186.023900
 20
275.088451
 30
0.0
 10
186.273550
 20
276.195555
 30
0.0
 10
186.730390
 20
277.213194
 30
0.0
  0
SPLINE
  5
18e
100
AcDbEntity
  8
图层_1
 62
7
100
AcDbSpline
 70
8
 71
3
 72
8
 73
4
 74
0
 40
0
 40
0
 40
0
 40
0
 40
1
 40
1
 40
1
 40
1
 10
186.730390
 20
277.213194
 30
0.0
 10
187.181470
 20
278.218003
 30
0.0
 10
187.821430
 20
279.139470
 30
0.0
 10
188.521510
 20
279.989769
 30
0.0
  0
SPLINE
  5
18f
100
AcDbEntity
  8
图层_1
 62
7
100
AcDbSpline
 70
8
 71
3
 72
8
 73
4
 74
0
 40
0
 40
0
 40
0
 40
0
 40
1
 40
1
 40
1
 40
1
 10
188.521510
 20
279.989769
 30
0.0
 10
189.219380
 20
280.837408
 30
0.0
 10
190.015580
 20
281.616488
 30
0.0
 10
190.895010
 20
282.273867
 30
0.0
  0
SPLINE
  5
190
100
AcDbEntity
  8
图层_1
 62
7
100
AcDbSpline
 70
8
 71
3
 72
8
 73
4
 74
0
 40
0
 40
0
 40
0
 40
0
 40
1
 40
1
 40
1
 40
1
 10
190.895010
 20
282.273867
 30
0.0
 10
191.885650
 20
283.014387
 30
0.0
 10
192.948570
 20
283.711931
 30
0.0
 10
194.119620
 20
284.109931
 30
0.0
  0
SPLINE
  5
191
100
AcDbEntity
  8
图层_1
 62
7
100
AcDbSpline
 70
8
 71
3
 72
8
 73
4
 74
0
 40
0
 40
0
 40
0
 40
0
 40
1
 40
1
 40
1
 40
1
 10
194.119620
 20
284.109931
 30
0.0
 10
195.047070
 20
284.425141
 30
0.0
 10
196.051430
 20
284.483717
 30
0.0
 10
197.030550
 20
284.513007
 30
0.0
  0
SPLINE
  5
192
100
AcDbEntity
  8
图层_1
 62
7
100
AcDbSpline
 70
8
 71
3
 72
8
 73
4
 74
0
 40
0
 40
0
 40
0
 40
0
 40
1
 40
1
 40
1
 40
1
 10
197.030550
 20
284.513007
 30
0.0
 10
198.182950
 20
284.547507
 30
0.0
 10
199.350190
 20
284.479187
 30
0.0
 10
200.478920
 20
284.244290
 30
0.0
  0
SPLINE
  5
193
100
AcDbEntity
  8
图层_1
 62
7
100
AcDbSpline
 70
8
 71
3
 72
8
 73
4
 74
0
 40
0
 40
0
 40
0
 40
0
 40
1
 40
1
 40
1
 40
1
 10
200.478920
 20
284.244290
 30
0.0
 10
201.329330
 20
284.067300
 30
0.0
 10
202.941820
 20
283.393696
 30
0.0
 10
202.941820
 20
283.393696
 30
0.0
  0
LWPOLYLINE
  5
194
100
AcDbEntity
  8
图层_1
 62
7
100
AcDbPolyline
 90
8
 70
0
 10
209.345550
 20
263.375279
 30
0.0
 10
209.569830
 20
264.315790
 30
0.0
 10
208.853070
 20
264.002631
 30
0.0
 10
208.584370
 20
262.882803
 30
0.0
 10
207.868120
 20
261.449823
 30
0.0
 10
207.196330
 20
260.374953
 30
0.0
 10
205.718390
 20
259.658713
 30
0.0
 10
202.583690
 20
258.583843
 30
0.0
  0
SPLINE
  5
195
100
AcDbEntity
  8
图层_1
 62
7
100
AcDbSpline
 70
8
 71
3
 72
8
 73
4
 74
0
 40
0
 40
0
 40
0
 40
0
 40
1
 40
1
 40
1
 40
1
 10
201.329500
 20
286.080353
 30
0.0
 10
201.329500
 20
286.080353
 30
0.0
 10
199.604200
 20
286.378621
 30
0.0
 10
198.732240
 20
286.438471
 30
0.0
  0
SPLINE
  5
196
100
AcDbEntity
  8
图层_1
 62
7
100
AcDbSpline
 70
8
 71
3
 72
8
 73
4
 74
0
 40
0
 40
0
 40
0
 40
0
 40
1
 40
1
 40
1
 40
1
 10
198.732240
 20
286.438471
 30
0.0
 10
198.047190
 20
286.485471
 30
0.0
 10
197.358460
 20
286.522961
 30
0.0
 10
196.670350
 20
286.529941
 30
0.0
  0
LWPOLYLINE
  5
197
100
AcDbEntity
  8
图层_1
 62
7
100
AcDbPolyline
 90
14
 70
0
 10
202.941820
 20
283.393696
 30
0.0
 10
205.135990
 20
282.184467
 30
0.0
 10
206.390180
 20
280.795921
 30
0.0
 10
207.643850
 20
278.512340
 30
0.0
 10
207.912560
 20
277.034394
 30
0.0
 10
208.763670
 20
277.034394
 30
0.0
 10
208.539920
 20
285.005484
 30
0.0
 10
208.226250
 20
285.453518
 30
0.0
 10
207.823170
 20
285.364118
 30
0.0
 10
207.554440
 20
284.916083
 30
0.0
 10
206.390180
 20
284.871123
 30
0.0
 10
205.046600
 20
284.916083
 30
0.0
 10
203.703010
 20
285.498477
 30
0.0
 10
201.329500
 20
286.080353
 30
0.0
  0
SPLINE
  5
198
100
AcDbEntity
  8
图层_1
 62
7
100
AcDbSpline
 70
8
 71
3
 72
8
 73
4
 74
0
 40
0
 40
0
 40
0
 40
0
 40
1
 40
1
 40
1
 40
1
 10
73.129066
 20
286.108302
 30
0.0
 10
76.412858
 20
286.108195
 30
0.0
 10
79.562115
 20
284.666819
 30
0.0
 10
81.884032
 20
282.101263
 30
0.0
  0
SPLINE
  5
199
100
AcDbEntity
  8
图层_1
 62
7
100
AcDbSpline
 70
8
 71
3
 72
8
 73
4
 74
0
 40
0
 40
0
 40
0
 40
0
 40
1
 40
1
 40
1
 40
1
 10
81.884032
 20
282.101263
 30
0.0
 10
84.205949
 20
279.535706
 30
0.0
 10
85.510326
 20
276.056128
 30
0.0
 10
85.510213
 20
272.428000
 30
0.0
  0
SPLINE
  5
19a
100
AcDbEntity
  8
图层_1
 62
7
100
AcDbSpline
 70
8
 71
3
 72
8
 73
4
 74
0
 40
0
 40
0
 40
0
 40
0
 40
1
 40
1
 40
1
 40
1
 10
85.510213
 20
272.428000
 30
0.0
 10
85.510192
 20
264.873013
 30
0.0
 10
79.967029
 20
258.748436
 30
0.0
 10
73.129066
 20
258.748213
 30
0.0
  0
SPLINE
  5
19b
100
AcDbEntity
  8
图层_1
 62
7
100
AcDbSpline
 70
8
 71
3
 72
8
 73
4
 74
0
 40
0
 40
0
 40
0
 40
0
 40
1
 40
1
 40
1
 40
1
 10
73.129066
 20
258.748213
 30
0.0
 10
69.845264
 20
258.748167
 30
0.0
 10
66.695943
 20
260.189404
 30
0.0
 10
64.373926
 20
262.754866
 30
0.0
  0
SPLINE
  5
19c
100
AcDbEntity
  8
图层_1
 62
7
100
AcDbSpline
 70
8
 71
3
 72
8
 73
4
 74
0
 40
0
 40
0
 40
0
 40
0
 40
1
 40
1
 40
1
 40
1
 10
64.373926
 20
262.754866
 30
0.0
 10
62.051910
 20
265.320327
 30
0.0
 10
60.747406
 20
268.799861
 30
0.0
 10
60.747396
 20
272.428000
 30
0.0
  0
SPLINE
  5
19d
100
AcDbEntity
  8
图层_1
 62
7
100
AcDbSpline
 70
8
 71
3
 72
8
 73
4
 74
0
 40
0
 40
0
 40
0
 40
0
 40
1
 40
1
 40
1
 40
1
 10
60.747396
 20
272.428000
 30
0.0
 10
60.747283
 20
276.056228
 30
0.0
 10
62.051731
 20
279.535894
 30
0.0
 10
64.373762
 20
282.101467
 30
0.0
  0
SPLINE
  5
19e
100
AcDbEntity
  8
图层_1
 62
7
100
AcDbSpline
 70
8
 71
3
 72
8
 73
4
 74
0
 40
0
 40
0
 40
0
 40
0
 40
1
 40
1
 40
1
 40
1
 10
64.373762
 20
282.101467
 30
0.0
 10
66.695792
 20
284.667040
 30
0.0
 10
69.845183
 20
286.108348
 30
0.0
 10
73.129066
 20
286.108302
 30
0.0
  0
LWPOLYLINE
  5
19f
100
AcDbEntity
  8
图层_1
 62
7
100
AcDbPolyline
 90
1
 70
1
 10
196.670350
 20
286.529941
 30
0.0
  0
SPLINE
  5
1a0
100
AcDbEntity
  8
图层_1
 62
7
100
AcDbSpline
 70
8
 71
3
 72
8
 73
4
 74
0
 40
0
 40
0
 40
0
 40
0
 40
1
 40
1
 40
1
 40
1
 10
146.921970
 20
285.491285
 30
0.0
 10
147.242500
 20
285.491277
 30
0.0
 10
147.569790
 20
285.490368
 30
0.0
 10
147.898650
 20
285.487685
 30
0.0
  0
SPLINE
  5
1a1
100
AcDbEntity
  8
图层_1
 62
7
100
AcDbSpline
 70
8
 71
3
 72
8
 73
4
 74
0
 40
0
 40
0
 40
0
 40
0
 40
1
 40
1
 40
1
 40
1
 10
147.898650
 20
285.487685
 30
0.0
 10
148.222230
 20
285.485185
 30
0.0
 10
149.258460
 20
285.325463
 30
0.0
 10
149.925400
 20
285.176076
 30
0.0
  0
SPLINE
  5
1a2
100
AcDbEntity
  8
图层_1
 62
7
100
AcDbSpline
 70
8
 71
3
 72
8
 73
4
 74
0
 40
0
 40
0
 40
0
 40
0
 40
1
 40
1
 40
1
 40
1
 10
149.925400
 20
285.176076
 30
0.0
 10
150.401360
 20
285.069465
 30
0.0
 10
150.876040
 20
284.942968
 30
0.0
 10
151.328420
 20
284.760597
 30
0.0
  0
SPLINE
  5
1a3
100
AcDbEntity
  8
图层_1
 62
7
100
AcDbSpline
 70
8
 71
3
 72
8
 73
4
 74
0
 40
0
 40
0
 40
0
 40
0
 40
1
 40
1
 40
1
 40
1
 10
151.328420
 20
284.760597
 30
0.0
 10
151.816990
 20
284.563634
 30
0.0
 10
152.313230
 20
284.353308
 30
0.0
 10
152.731430
 20
284.032993
 30
0.0
  0
SPLINE
  5
1a4
100
AcDbEntity
  8
图层_1
 62
7
100
AcDbSpline
 70
8
 71
3
 72
8
 73
4
 74
0
 40
0
 40
0
 40
0
 40
0
 40
1
 40
1
 40
1
 40
1
 10
152.731430
 20
284.032993
 30
0.0
 10
153.179140
 20
283.690098
 30
0.0
 10
153.563500
 20
283.256370
 30
0.0
 10
153.874520
 20
282.786041
 30
0.0
  0
SPLINE
  5
1a5
100
AcDbEntity
  8
图层_1
 62
7
100
AcDbSpline
 70
8
 71
3
 72
8
 73
4
 74
0
 40
0
 40
0
 40
0
 40
0
 40
1
 40
1
 40
1
 40
1
 10
153.874520
 20
282.786041
 30
0.0
 10
154.105420
 20
282.436872
 30
0.0
 10
154.282770
 20
282.046006
 30
0.0
 10
154.393870
 20
281.642441
 30
0.0
  0
SPLINE
  5
1a6
100
AcDbEntity
  8
图层_1
 62
7
100
AcDbSpline
 70
8
 71
3
 72
8
 73
4
 74
0
 40
0
 40
0
 40
0
 40
0
 40
1
 40
1
 40
1
 40
1
 10
154.393870
 20
281.642441
 30
0.0
 10
154.477070
 20
281.340001
 30
0.0
 10
154.576650
 20
280.897940
 30
0.0
 10
154.638300
 20
280.520029
 30
0.0
  0
SPLINE
  5
1a7
100
AcDbEntity
  8
图层_1
 62
7
100
AcDbSpline
 70
8
 71
3
 72
8
 73
4
 74
0
 40
0
 40
0
 40
0
 40
0
 40
1
 40
1
 40
1
 40
1
 10
154.638300
 20
280.520029
 30
0.0
 10
154.733100
 20
279.938742
 30
0.0
 10
154.841360
 20
279.352419
 30
0.0
 10
154.830530
 20
278.763547
 30
0.0
  0
SPLINE
  5
1a8
100
AcDbEntity
  8
图层_1
 62
7
100
AcDbSpline
 70
8
 71
3
 72
8
 73
4
 74
0
 40
0
 40
0
 40
0
 40
0
 40
1
 40
1
 40
1
 40
1
 10
154.830530
 20
278.763547
 30
0.0
 10
154.816230
 20
277.988143
 30
0.0
 10
154.680750
 20
277.093588
 30
0.0
 10
154.492570
 20
276.461879
 30
0.0
  0
SPLINE
  5
1a9
100
AcDbEntity
  8
图层_1
 62
7
100
AcDbSpline
 70
8
 71
3
 72
8
 73
4
 74
0
 40
0
 40
0
 40
0
 40
0
 40
1
 40
1
 40
1
 40
1
 10
154.492570
 20
276.461879
 30
0.0
 10
154.315410
 20
275.866788
 30
0.0
 10
153.976420
 20
275.020253
 30
0.0
 10
153.510200
 20
274.429962
 30
0.0
  0
SPLINE
  5
1aa
100
AcDbEntity
  8
图层_1
 62
7
100
AcDbSpline
 70
8
 71
3
 72
8
 73
4
 74
0
 40
0
 40
0
 40
0
 40
0
 40
1
 40
1
 40
1
 40
1
 10
153.510200
 20
274.429962
 30
0.0
 10
153.165320
 20
273.993302
 30
0.0
 10
152.692660
 20
273.663551
 30
0.0
 10
152.216740
 20
273.375246
 30
0.0
  0
SPLINE
  5
1ab
100
AcDbEntity
  8
图层_1
 62
7
100
AcDbSpline
 70
8
 71
3
 72
8
 73
4
 74
0
 40
0
 40
0
 40
0
 40
0
 40
1
 40
1
 40
1
 40
1
 10
152.216740
 20
273.375246
 30
0.0
 10
151.683150
 20
273.052001
 30
0.0
 10
151.094130
 20
272.817830
 30
0.0
 10
150.496950
 20
272.637306
 30
0.0
  0
SPLINE
  5
1ac
100
AcDbEntity
  8
图层_1
 62
7
100
AcDbSpline
 70
8
 71
3
 72
8
 73
4
 74
0
 40
0
 40
0
 40
0
 40
0
 40
1
 40
1
 40
1
 40
1
 10
150.496950
 20
272.637306
 30
0.0
 10
150.011440
 20
272.490539
 30
0.0
 10
149.481300
 20
272.443344
 30
0.0
 10
149.000400
 20
272.361871
 30
0.0
  0
SPLINE
  5
1ad
100
AcDbEntity
  8
图层_1
 62
7
100
AcDbSpline
 70
8
 71
3
 72
8
 73
4
 74
0
 40
0
 40
0
 40
0
 40
0
 40
1
 40
1
 40
1
 40
1
 10
149.000400
 20
272.361871
 30
0.0
 10
148.641370
 20
272.301061
 30
0.0
 10
148.273080
 20
272.316491
 30
0.0
 10
147.908990
 20
272.309681
 30
0.0
  0
SPLINE
  5
1ae
100
AcDbEntity
  8
图层_1
 62
7
100
AcDbSpline
 70
8
 71
3
 72
8
 73
4
 74
0
 40
0
 40
0
 40
0
 40
0
 40
1
 40
1
 40
1
 40
1
 10
147.908990
 20
272.309681
 30
0.0
 10
146.211760
 20
272.277961
 30
0.0
 10
142.910330
 20
271.987737
 30
0.0
 10
142.910330
 20
271.987737
 30
0.0
  0
LWPOLYLINE
  5
1af
100
AcDbEntity
  8
图层_1
 62
7
100
AcDbPolyline
 90
1
 70
1
 10
73.129066
 20
286.108302
 30
0.0
  0
SPLINE
  5
1b0
100
AcDbEntity
  8
图层_1
 62
7
100
AcDbSpline
 70
8
 71
3
 72
8
 73
4
 74
0
 40
0
 40
0
 40
0
 40
0
 40
1
 40
1
 40
1
 40
1
 10
142.754270
 20
285.435991
 30
0.0
 10
142.754270
 20
285.435991
 30
0.0
 10
144.678340
 20
285.491361
 30
0.0
 10
146.921970
 20
285.491281
 30
0.0
  0
LWPOLYLINE
  5
1b1
100
AcDbEntity
  8
图层_1
 62
7
100
AcDbPolyline
 90
4
 70
0
 10
142.910330
 20
271.987737
 30
0.0
 10
142.702070
 20
272.455408
 30
0.0
 10
142.702070
 20
285.176059
 30
0.0
 10
142.754270
 20
285.435991
 30
0.0
  0
SPLINE
  5
1b2
100
AcDbEntity
  8
图层_1
 62
7
100
AcDbSpline
 70
8
 71
3
 72
8
 73
4
 74
0
 40
0
 40
0
 40
0
 40
0
 40
1
 40
1
 40
1
 40
1
 10
229.803230
 20
285.033432
 30
0.0
 10
233.087021
 20
285.033323
 30
0.0
 10
236.236276
 20
283.591946
 30
0.0
 10
238.558192
 20
281.026390
 30
0.0
  0
SPLINE
  5
1b3
100
AcDbEntity
  8
图层_1
 62
7
100
AcDbSpline
 70
8
 71
3
 72
8
 73
4
 74
0
 40
0
 40
0
 40
0
 40
0
 40
1
 40
1
 40
1
 40
1
 10
238.558192
 20
281.026390
 30
0.0
 10
240.880107
 20
278.460834
 30
0.0
 10
242.184483
 20
274.981257
 30
0.0
 10
242.184370
 20
271.353130
 30
0.0
  0
SPLINE
  5
1b4
100
AcDbEntity
  8
图层_1
 62
7
100
AcDbSpline
 70
8
 71
3
 72
8
 73
4
 74
0
 40
0
 40
0
 40
0
 40
0
 40
1
 40
1
 40
1
 40
1
 10
242.184370
 20
271.353130
 30
0.0
 10
242.184349
 20
263.798146
 30
0.0
 10
236.641190
 20
257.673571
 30
0.0
 10
229.803230
 20
257.673343
 30
0.0
  0
SPLINE
  5
1b5
100
AcDbEntity
  8
图层_1
 62
7
100
AcDbSpline
 70
8
 71
3
 72
8
 73
4
 74
0
 40
0
 40
0
 40
0
 40
0
 40
1
 40
1
 40
1
 40
1
 10
229.803230
 20
257.673343
 30
0.0
 10
226.519425
 20
257.673291
 30
0.0
 10
223.370099
 20
259.114526
 30
0.0
 10
221.048078
 20
261.679988
 30
0.0
  0
SPLINE
  5
1b6
100
AcDbEntity
  8
图层_1
 62
7
100
AcDbSpline
 70
8
 71
3
 72
8
 73
4
 74
0
 40
0
 40
0
 40
0
 40
0
 40
1
 40
1
 40
1
 40
1
 10
221.048078
 20
261.679988
 30
0.0
 10
218.726056
 20
264.245450
 30
0.0
 10
217.421550
 20
267.724987
 30
0.0
 10
217.421540
 20
271.353130
 30
0.0
  0
SPLINE
  5
1b7
100
AcDbEntity
  8
图层_1
 62
7
100
AcDbSpline
 70
8
 71
3
 72
8
 73
4
 74
0
 40
0
 40
0
 40
0
 40
0
 40
1
 40
1
 40
1
 40
1
 10
217.421540
 20
271.353130
 30
0.0
 10
217.421427
 20
274.981362
 30
0.0
 10
218.725878
 20
278.461031
 30
0.0
 10
221.047913
 20
281.026605
 30
0.0
  0
SPLINE
  5
1b8
100
AcDbEntity
  8
图层_1
 62
7
100
AcDbSpline
 70
8
 71
3
 72
8
 73
4
 74
0
 40
0
 40
0
 40
0
 40
0
 40
1
 40
1
 40
1
 40
1
 10
221.047913
 20
281.026605
 30
0.0
 10
223.369947
 20
283.592178
 30
0.0
 10
226.519344
 20
285.033484
 30
0.0
 10
229.803230
 20
285.033432
 30
0.0
  0
LWPOLYLINE
  5
1b9
100
AcDbEntity
  8
图层_1
 62
7
100
AcDbPolyline
 90
1
 70
1
 10
146.921970
 20
285.491281
 30
0.0
  0
SPLINE
  5
1ba
100
AcDbEntity
  8
图层_1
 62
7
100
AcDbSpline
 70
8
 71
3
 72
8
 73
4
 74
0
 40
0
 40
0
 40
0
 40
0
 40
1
 40
1
 40
1
 40
1
 10
73.160586
 20
275.594732
 30
0.0
 10
72.387890
 20
275.594794
 30
0.0
 10
71.646821
 20
275.271202
 30
0.0
 10
71.100423
 20
274.695149
 30
0.0
  0
SPLINE
  5
1bb
100
AcDbEntity
  8
图层_1
 62
7
100
AcDbSpline
 70
8
 71
3
 72
8
 73
4
 74
0
 40
0
 40
0
 40
0
 40
0
 40
1
 40
1
 40
1
 40
1
 10
71.100423
 20
274.695149
 30
0.0
 10
70.554025
 20
274.119096
 30
0.0
 10
70.247061
 20
273.337775
 30
0.0
 10
70.247066
 20
272.523084
 30
0.0
  0
SPLINE
  5
1bc
100
AcDbEntity
  8
图层_1
 62
7
100
AcDbSpline
 70
8
 71
3
 72
8
 73
4
 74
0
 40
0
 40
0
 40
0
 40
0
 40
1
 40
1
 40
1
 40
1
 10
70.247066
 20
272.523084
 30
0.0
 10
70.247061
 20
271.708394
 30
0.0
 10
70.554026
 20
270.927072
 30
0.0
 10
71.100424
 20
270.351020
 30
0.0
  0
SPLINE
  5
1bd
100
AcDbEntity
  8
图层_1
 62
7
100
AcDbSpline
 70
8
 71
3
 72
8
 73
4
 74
0
 40
0
 40
0
 40
0
 40
0
 40
1
 40
1
 40
1
 40
1
 10
71.100424
 20
270.351020
 30
0.0
 10
71.646821
 20
269.774967
 30
0.0
 10
72.387890
 20
269.451375
 30
0.0
 10
73.160586
 20
269.451437
 30
0.0
  0
SPLINE
  5
1be
100
AcDbEntity
  8
图层_1
 62
7
100
AcDbSpline
 70
8
 71
3
 72
8
 73
4
 74
0
 40
0
 40
0
 40
0
 40
0
 40
1
 40
1
 40
1
 40
1
 10
73.160586
 20
269.451437
 30
0.0
 10
74.769445
 20
269.451612
 30
0.0
 10
76.073593
 20
270.826787
 30
0.0
 10
76.073583
 20
272.523084
 30
0.0
  0
SPLINE
  5
1bf
100
AcDbEntity
  8
图层_1
 62
7
100
AcDbSpline
 70
8
 71
3
 72
8
 73
4
 74
0
 40
0
 40
0
 40
0
 40
0
 40
1
 40
1
 40
1
 40
1
 10
76.073583
 20
272.523084
 30
0.0
 10
76.073593
 20
274.219382
 30
0.0
 10
74.769446
 20
275.594557
 30
0.0
 10
73.160586
 20
275.594732
 30
0.0
  0
LWPOLYLINE
  5
1c0
100
AcDbEntity
  8
图层_1
 62
7
100
AcDbPolyline
 90
1
 70
1
 10
229.803230
 20
285.033432
 30
0.0
  0
SPLINE
  5
1c1
100
AcDbEntity
  8
图层_1
 62
7
100
AcDbSpline
 70
8
 71
3
 72
8
 73
4
 74
0
 40
0
 40
0
 40
0
 40
0
 40
1
 40
1
 40
1
 40
1
 10
229.834750
 20
274.519862
 30
0.0
 10
229.062054
 20
274.519924
 30
0.0
 10
228.320985
 20
274.196332
 30
0.0
 10
227.774588
 20
273.620279
 30
0.0
  0
SPLINE
  5
1c2
100
AcDbEntity
  8
图层_1
 62
7
100
AcDbSpline
 70
8
 71
3
 72
8
 73
4
 74
0
 40
0
 40
0
 40
0
 40
0
 40
1
 40
1
 40
1
 40
1
 10
227.774588
 20
273.620279
 30
0.0
 10
227.228190
 20
273.044227
 30
0.0
 10
226.921225
 20
272.262905
 30
0.0
 10
226.921230
 20
271.448215
 30
0.0
  0
SPLINE
  5
1c3
100
AcDbEntity
  8
图层_1
 62
7
100
AcDbSpline
 70
8
 71
3
 72
8
 73
4
 74
0
 40
0
 40
0
 40
0
 40
0
 40
1
 40
1
 40
1
 40
1
 10
226.921230
 20
271.448215
 30
0.0
 10
226.921225
 20
270.633524
 30
0.0
 10
227.228189
 20
269.852203
 30
0.0
 10
227.774587
 20
269.276150
 30
0.0
  0
SPLINE
  5
1c4
100
AcDbEntity
  8
图层_1
 62
7
100
AcDbSpline
 70
8
 71
3
 72
8
 73
4
 74
0
 40
0
 40
0
 40
0
 40
0
 40
1
 40
1
 40
1
 40
1
 10
227.774587
 20
269.276150
 30
0.0
 10
228.320985
 20
268.700097
 30
0.0
 10
229.062054
 20
268.376505
 30
0.0
 10
229.834750
 20
268.376567
 30
0.0
  0
SPLINE
  5
1c5
100
AcDbEntity
  8
图层_1
 62
7
100
AcDbSpline
 70
8
 71
3
 72
8
 73
4
 74
0
 40
0
 40
0
 40
0
 40
0
 40
1
 40
1
 40
1
 40
1
 10
229.834750
 20
268.376567
 30
0.0
 10
231.443611
 20
268.376740
 30
0.0
 10
232.747760
 20
269.751916
 30
0.0
 10
232.747750
 20
271.448215
 30
0.0
  0
SPLINE
  5
1c6
100
AcDbEntity
  8
图层_1
 62
7
100
AcDbSpline
 70
8
 71
3
 72
8
 73
4
 74
0
 40
0
 40
0
 40
0
 40
0
 40
1
 40
1
 40
1
 40
1
 10
232.747750
 20
271.448215
 30
0.0
 10
232.747760
 20
273.144514
 30
0.0
 10
231.443610
 20
274.519689
 30
0.0
 10
229.834750
 20
274.519862
 30
0.0
  0
LWPOLYLINE
  5
1c7
100
AcDbEntity
  8
图层_1
 62
7
100
AcDbPolyline
 90
1
 70
1
 10
73.160586
 20
275.594732
 30
0.0
  0
LWPOLYLINE
  5
1c8
100
AcDbEntity
  8
图层_1
 62
7
100
AcDbPolyline
 90
1
 70
1
 10
229.834750
 20
274.519862
 30
0.0
  0
ENDSEC
  0
SECTION
  2
OBJECTS
  0
DICTIONARY
  5
C
330
0
100
AcDbDictionary
  3
ACAD_GROUP
350
D
  3
ACAD_MLINESTYLE
350
17
  0
DICTIONARY
  5
D
330
C
100
AcDbDictionary
  0
DICTIONARY
  5
1A
330
C
100
AcDbDictionary
  0
DICTIONARY
  5
17
330
C
100
AcDbDictionary
  3
STANDARD
350
18
  0
DICTIONARY
  5
19
330
C
100
AcDbDictionary
  0
ENDSEC
  0
EOF
