<?xml version="1.0" encoding="UTF-8" standalone="no"?>
<!-- Created with Inkscape (http://www.inkscape.org/) -->

<svg
   width="297mm"
   height="210mm"
   viewBox="0 0 297 210"
   version="1.1"
   id="svg5"
   xml:space="preserve"
   inkscape:version="1.2.1 (9c6d41e410, 2022-07-14)"
   sodipodi:docname="logo.svg"
   xmlns:inkscape="http://www.inkscape.org/namespaces/inkscape"
   xmlns:sodipodi="http://sodipodi.sourceforge.net/DTD/sodipodi-0.dtd"
   xmlns="http://www.w3.org/2000/svg"
   xmlns:svg="http://www.w3.org/2000/svg"><sodipodi:namedview
     id="namedview7"
     pagecolor="#ffffff"
     bordercolor="#000000"
     borderopacity="0.25"
     inkscape:showpageshadow="2"
     inkscape:pageopacity="0.0"
     inkscape:pagecheckerboard="0"
     inkscape:deskcolor="#d1d1d1"
     inkscape:document-units="mm"
     showgrid="false"
     inkscape:zoom="0.70710678"
     inkscape:cx="440.52753"
     inkscape:cy="410.82904"
     inkscape:window-width="1920"
     inkscape:window-height="1010"
     inkscape:window-x="-6"
     inkscape:window-y="-6"
     inkscape:window-maximized="1"
     inkscape:current-layer="layer1" /><defs
     id="defs2"><rect
       x="93.430466"
       y="216.65036"
       width="636.41046"
       height="388.61658"
       id="rect236" /></defs><g
     inkscape:label="图层 1"
     inkscape:groupmode="layer"
     id="layer1"><path
       style="fill:#ff0000;fill-opacity:1;stroke:none;stroke-width:0.264583;stroke-linecap:square;stroke-miterlimit:10"
       d="m 14.921786,11.534927 12.270507,0.17913 0.447829,2.32871 22.391435,23.0184 c 0,0 0.453898,-13.06775 0.268698,-19.25664 -0.01363,-0.45552 -0.331245,-0.92096 -0.716526,-1.16435 -0.939348,-0.5934 -3.313933,-0.35827 -3.313933,-0.35827 l -0.08957,-0.71652 11.822679,-0.0896 -0.179131,0.89566 -2.328709,-0.0896 c 0,0 -1.430245,0.75752 -1.433052,1.43306 -0.04184,10.06752 0,27.13841 0,27.13841 l -0.358265,0.62696 H 51.643737 L 28.714908,21.655797 c 0,0 1.020017,17.80366 -0.08957,26.60102 -0.350664,2.78024 -1.043471,5.53911 -2.060012,8.15049 -0.775325,1.99172 -1.80178,3.90427 -3.045235,5.64264 -1.27827,1.78704 -2.865782,3.34414 -4.478287,4.83655 -1.34141,1.24151 -2.608741,2.70835 -4.299156,3.4035 -0.500069,0.20564 -1.612183,0.17913 -1.612183,0.17913 l 0.179131,-0.80609 c 0,0 1.802341,-1.03899 2.597407,-1.70175 1.330083,-1.10875 2.53398,-2.3838 3.582629,-3.76176 1.14766,-1.50807 2.183025,-3.13167 2.923071,-4.87629 0.960379,-2.26406 1.749093,-4.68802 1.913479,-7.12552 0.798679,-11.84274 -0.281493,-22.41059 -0.179131,-34.48281 0.0057,-0.66756 -0.108209,-1.35147 -0.358263,-1.97045 -0.28224,-0.69866 -0.701349,-1.36859 -1.253921,-1.88088 -0.401915,-0.37262 -0.905639,-0.65704 -1.433051,-0.80609 -0.747533,-0.21126 -1.552262,-0.0658 -2.32871,-0.0896 -1.313355,-0.0402 -3.940892,-0.0896 -3.940892,-0.0896 z"
       id="path3247"
       sodipodi:nodetypes="ccccsacccccsccccaaaaaccaaassaaaacc" /><path
       id="path3678"
       style="fill:#ff0000;fill-opacity:1;stroke:none;stroke-width:0.264583;stroke-linecap:square;stroke-miterlimit:10"
       d="m 77.013811,14.336787 a 17.131453,15.674806 0 0 0 -17.131254,15.67501 17.131453,15.674806 0 0 0 17.131254,15.6745 17.131453,15.674806 0 0 0 17.131258,-15.6745 17.131453,15.674806 0 0 0 -17.131258,-15.67501 z m 0.19017,2.08979 a 12.381513,13.67983 0 0 1 12.381158,13.68031 12.381513,13.67983 0 0 1 -12.381158,13.67978 12.381513,13.67983 0 0 1 -12.381674,-13.67978 12.381513,13.67983 0 0 1 12.381674,-13.68031 z m 0.03152,10.51357 a 2.9132969,3.0716283 0 0 0 -2.913517,3.07165 2.9132969,3.0716283 0 0 0 2.913517,3.07165 2.9132969,3.0716283 0 0 0 2.913001,-3.07165 2.9132969,3.0716283 0 0 0 -2.913001,-3.07165 z" /><path
       id="path3678-2"
       style="fill:#ff0000;fill-opacity:1;stroke:none;stroke-width:0.264583;stroke-linecap:square;stroke-miterlimit:10"
       d="m 233.68762,15.411311 a 17.131453,15.674806 0 0 0 -17.13135,15.67501 17.131453,15.674806 0 0 0 17.13135,15.6745 17.131453,15.674806 0 0 0 17.13134,-15.6745 17.131453,15.674806 0 0 0 -17.13134,-15.67501 z m 0.19017,2.08979 a 12.381513,13.67983 0 0 1 12.38123,13.68031 12.381513,13.67983 0 0 1 -12.38123,13.67978 12.381513,13.67983 0 0 1 -12.38174,-13.67978 12.381513,13.67983 0 0 1 12.38174,-13.68031 z m 0.0315,10.51357 a 2.9132969,3.0716283 0 0 0 -2.91353,3.07165 2.9132969,3.0716283 0 0 0 2.91353,3.07165 2.9132969,3.0716283 0 0 0 2.91302,-3.07165 2.9132969,3.0716283 0 0 0 -2.91302,-3.07165 z" /><path
       style="fill:#ff0000;fill-opacity:1;stroke:none;stroke-width:0.264583;stroke-linecap:square;stroke-miterlimit:10"
       d="m 117.25065,22.148467 -0.76131,-6.71743 -0.94044,0.53739 -1.38827,0.0896 h -0.85087 l -1.97045,-0.94044 -1.47784,-0.22391 -1.8361,-0.0896 -2.37349,0.35826 c 0,0 -1.79782,0.48378 -2.59741,0.94044 -0.77341,0.44172 -1.48284,1.02339 -2.06001,1.70175 -0.45955,0.54013 -0.82536,1.17223 -1.074776,1.8361 -0.25124,0.66871 -0.37574,1.39097 -0.40305,2.1048 -0.0304,0.79563 0.064,1.60403 0.2687,2.37349 0.21314,0.80125 0.512146,1.603 0.985216,2.28392 0.55421,0.79771 1.3548,1.39799 2.1048,2.01523 1.0009,0.82375 2.1121,1.50369 3.17958,2.23914 0.68188,0.46979 1.37137,0.92846 2.06001,1.38828 0.96754,0.64603 2.00988,1.18968 2.91089,1.92566 0.67034,0.54755 1.31677,1.14366 1.8361,1.8361 0.31666,0.42222 0.55808,0.9012 0.76131,1.38827 0.22189,0.53178 0.42933,1.08423 0.49261,1.65696 0.0477,0.4313 -0.002,0.87378 -0.0896,1.2987 -0.10908,0.52705 -0.24694,1.0695 -0.5374,1.52262 -0.3703,0.57768 -0.8976,1.06675 -1.47783,1.43305 -0.57914,0.36561 -1.25742,0.56649 -1.92568,0.71653 -1.02329,0.22976 -2.09676,0.41827 -3.1348,0.2687 -0.93562,-0.13481 -1.82486,-0.55511 -2.64219,-1.03001 -0.96354,-0.55986 -1.88737,-1.24589 -2.5974,-2.10479 -0.60424,-0.73093 -0.97132,-1.63558 -1.34348,-2.50785 -0.26492,-0.6209 -0.0942,-1.51107 -0.626956,-1.92566 -0.17711,-0.13782 -0.70606,-0.26657 -0.67175,-0.0448 0.45982,2.97209 0.69845,5.05088 1.030006,7.92657 0.0185,0.1604 0.40304,0.26869 0.40304,0.26869 0,0 0.58051,-0.66936 0.98523,-0.76131 0.20842,-0.0473 0.42035,0.0796 0.62696,0.13435 0.90817,0.24051 2.68696,0.85088 2.68696,0.85088 l 1.34349,0.44783 c 0,0 1.31216,0.14246 1.97045,0.13434 1.28922,-0.0159 2.61062,-0.008 3.85133,-0.35826 1.16922,-0.33047 2.29505,-0.88596 3.26915,-1.61218 0.89766,-0.66923 1.73529,-1.48702 2.28393,-2.46306 0.56266,-1.00096 0.83986,-2.17008 0.94044,-3.31393 0.0907,-1.03131 0.0115,-2.10707 -0.31348,-3.09002 -0.28371,-0.85802 -0.8186,-1.62717 -1.38827,-2.32871 -0.48614,-0.59868 -1.09841,-1.08706 -1.70175,-1.5674 -1.30219,-1.03672 -2.69365,-1.96345 -4.12002,-2.82132 -0.60652,-0.36478 -1.28834,-0.59816 -1.88089,-0.98522 -0.96029,-0.62727 -2.68698,-2.14958 -2.68698,-2.14958 0,0 -1.38208,-1.06676 -1.83609,-1.79132 -0.22558,-0.36001 -0.335,-0.78977 -0.40305,-1.20913 -0.0765,-0.47152 -0.0798,-0.96208 0,-1.43306 0.11355,-0.67027 0.28632,-1.36565 0.67174,-1.92566 0.35434,-0.51485 0.8688,-0.94035 1.43306,-1.20913 0.8643,-0.4117 1.86645,-0.46862 2.82132,-0.5374 0.67067,-0.0483 1.36117,-0.0663 2.01524,0.0896 0.81237,0.19369 1.61132,0.53495 2.28392,1.03 0.85163,0.62682 2.1048,2.37349 2.1048,2.37349 l 1.20914,2.14958 z"
       id="path3800"
       sodipodi:nodetypes="cccccccccaaaaaaaaaaaaaaaaaaaaaasscaaccaaaaaaaaaacaaaaaaaaccc" /><path
       id="path4540"
       style="fill:#ff0000;fill-opacity:1;stroke:none;stroke-width:0.264583;stroke-linecap:square;stroke-miterlimit:10"
       d="m 147.8038,15.003963 c -4.0654,0.01043 -8.73469,0.132708 -8.73469,0.132708 l 0.0733,0.440951 c 0,0 1.39455,0.702002 1.99126,1.195178 0.32705,0.270303 0.84884,0.948517 0.84884,0.948517 l 0.16853,0.657608 -0.0692,12.11655 -1.43287,-0.03689 -1.32287,0.147126 -0.58785,0.5143 -0.47763,0.624748 -0.58787,1.249078 0.22048,0.734987 0.22027,0.07355 0.80854,-0.955463 1.46956,-0.367388 1.61667,-0.07356 0.22048,0.07356 -0.0733,9.847004 c 0,0 -0.16864,1.365754 -0.63114,1.80378 -0.89741,0.849927 -3.56132,1.032729 -3.56132,1.032729 l -0.11854,0.42219 13.60577,3.21e-4 -0.10977,-0.444144 c 0,0 -3.1053,0.05355 -4.07712,-0.947618 -0.42498,-0.43782 -0.36119,-1.794503 -0.36119,-1.794503 l -0.007,-9.559565 0.3676,-0.3676 c 0,0 6.00542,-0.06424 9.01864,-0.447527 0.70133,-0.08921 1.40982,-0.23139 2.05764,-0.514514 0.69725,-0.304727 1.51776,-1.224502 2.0978,-1.71701 0.60794,-0.516183 1.09969,-1.30652 1.5699,-1.950676 0.3493,-0.478537 0.65053,-0.980283 0.83491,-1.543328 0.26855,-0.820062 0.28292,-1.709075 0.29404,-2.571925 0.0107,-0.836007 0.0131,-1.695799 -0.22048,-2.498573 -0.20816,-0.715325 -0.59327,-1.379644 -1.0288,-1.984065 -0.67853,-0.941623 -1.48306,-1.820515 -2.42503,-2.498579 -0.55128,-0.396846 -1.19919,-0.648381 -1.83713,-0.881687 -0.6417,-0.234663 -1.30674,-0.424889 -1.98407,-0.514513 -2.09153,-0.276745 -5.05503,-0.352902 -7.83663,-0.345763 z m 3.19306,2.039184 c 0.32053,8e-6 0.64758,0.0011 0.97645,0.0038 0.32358,0.0025 1.35974,0.162245 2.02669,0.311632 0.47596,0.106611 0.9506,0.233353 1.40298,0.415724 0.48857,0.196964 0.98477,0.407251 1.40298,0.727566 0.44771,0.342896 0.83205,0.776626 1.14307,1.246956 0.2309,0.349169 0.40851,0.739727 0.51961,1.143292 0.0832,0.302441 0.18276,0.744504 0.24441,1.122415 0.0948,0.581288 0.20304,1.167557 0.19221,1.756429 -0.0143,0.775405 -0.14976,1.670223 -0.33794,2.301933 -0.17716,0.595092 -0.51589,1.441395 -0.98211,2.031687 -0.34488,0.43666 -0.8178,0.766608 -1.29372,1.054914 -0.53359,0.323245 -1.12281,0.557378 -1.71999,0.737902 -0.48551,0.146767 -1.01563,0.193722 -1.49653,0.275195 -0.35903,0.06081 -0.72706,0.04534 -1.09115,0.05215 -1.69723,0.03172 -4.99879,0.322027 -4.99879,0.322027 l -0.20797,-0.46766 V 17.358594 l 0.0519,-0.259692 c 0,0 1.92418,-0.05583 4.16781,-0.05575 z"
       sodipodi:nodetypes="cccacccccccccccccccaccccacccssssscsssssccscsssacaacaaassccccss" /><path
       style="fill:#ff0000;fill-opacity:1;stroke:none;stroke-width:0.264583;stroke-linecap:square;stroke-miterlimit:10"
       d="m 167.08336,15.594013 h 13.56583 v 0.452196 l -1.03359,0.06457 -1.29197,0.1938 -0.96899,0.516793 -0.25841,0.516794 -0.51678,0.839796 -0.0646,24.806084 0.32298,0.839797 0.51681,0.581389 0.45218,0.322994 3.03617,0.1938 v 0.645986 l -13.63043,0.129203 -0.19379,-0.645996 1.29198,-0.06457 1.48578,-0.1938 0.77519,-0.452197 0.4522,-0.645986 0.19379,-0.452197 V 18.307182 17.661185 l -0.2584,-0.258396 -0.38759,-0.516783 -0.25839,-0.323004 -0.8398,-0.258396 -2.39017,-0.06457 z"
       id="path4599" /><path
       style="fill:#ff0000;fill-opacity:1;stroke:none;stroke-width:0.264583;stroke-linecap:square;stroke-miterlimit:10"
       d="m 212.3009,17.081119 -0.40305,0.0896 -0.26869,0.44783 -1.16436,0.0448 -1.34348,-0.0448 -1.34349,-0.58218 -2.3735,-0.58217 c 0,0 -1.72545,-0.29842 -2.5974,-0.35827 -1.37012,-0.094 -2.75488,-0.14985 -4.12002,0 -0.95763,0.10512 -1.90171,0.33988 -2.82133,0.62696 -1.32305,0.41302 -2.63862,0.89629 -3.85132,1.56741 -1.09471,0.60582 -2.17137,1.29894 -3.04524,2.19435 -1.44016,1.47567 -2.6552,3.2212 -3.49306,5.10525 -0.54288,1.22073 -0.79478,2.56807 -0.94044,3.89611 -0.17743,1.61768 -0.16599,3.27414 0.0896,4.88133 0.24028,1.51093 0.63774,3.03131 1.34349,4.38873 0.75071,1.44389 1.78851,2.76524 3.00045,3.85132 0.95333,0.85433 2.1168,1.45773 3.26915,2.01523 1.10099,0.53265 2.26278,0.95315 3.44828,1.25392 0.98018,0.24868 1.99164,0.37798 3.00046,0.44783 1.50416,0.10415 3.02255,0.10282 4.52307,-0.0448 1.04309,-0.10262 3.09001,-0.58218 3.09001,-0.58218 l 4.12003,-1.25392 1.70174,-0.71653 0.31348,-0.49261 c 0,0 0.33337,-1.31241 0.49262,-1.97044 0.16948,-0.70034 0.49261,-2.1048 0.49261,-2.1048 l 0.22392,-0.94044 -0.71653,0.31348 -0.2687,1.11957 -0.71652,1.43306 -0.67175,1.07478 -1.47783,0.71653 -3.1348,1.07479 c 0,0 -2.09461,0.6707 -3.17959,0.80609 -1.1702,0.14603 -2.37654,0.20516 -3.53784,0 -1.33001,-0.23496 -2.60908,-0.76362 -3.80655,-1.38827 -0.92162,-0.48076 -1.79335,-1.08136 -2.55262,-1.79131 -0.79865,-0.74678 -1.48235,-1.62429 -2.06002,-2.55263 -0.59985,-0.96399 -1.1192,-1.99887 -1.43305,-3.09001 -0.32859,-1.14237 -0.4144,-2.34963 -0.44783,-3.53785 -0.0362,-1.28639 0.0506,-2.58305 0.2687,-3.85133 0.18905,-1.09935 0.43882,-2.20672 0.89566,-3.22436 0.45108,-1.00481 1.09125,-1.92624 1.79132,-2.77654 0.69788,-0.84764 1.49407,-1.62655 2.37349,-2.28393 0.99064,-0.74052 2.05331,-1.4381 3.22436,-1.8361 0.92745,-0.31521 1.93177,-0.37375 2.91089,-0.40304 1.1524,-0.0345 2.31955,0.0338 3.44828,0.2687 0.85041,0.17699 2.46306,0.85087 2.46306,0.85087 l 2.19436,1.20914 1.25392,1.38827 1.25392,2.28392 0.2687,1.47784 h 0.85087 l -0.22391,-7.97135 z"
       id="path9683"
       sodipodi:nodetypes="cccccccaaaaaaaaaaaaaaccccaccccccccaaaaaaaaaaaaaacccccccc" /><path
       id="path3247-6"
       style="fill:#ff0000;fill-opacity:1;stroke:none;stroke-width:0.264583;stroke-linecap:square;stroke-miterlimit:10"
       d="m 35.985655,70.812107 -0.0894,1.34307 c 0,0 2.627491,0.0492 3.940844,0.0894 0.776448,0.0238 1.581008,-0.121343 2.32854,0.08992 0.527412,0.14905 1.031073,0.433532 1.432988,0.806152 0.552571,0.51229 0.971947,1.181846 1.254187,1.880505 0.250054,0.61898 0.363818,1.30338 0.358118,1.97094 -0.102362,12.072207 0.977995,22.639921 0.179317,34.482648 -0.164386,2.4375 -0.9532,4.86161 -1.913578,7.12566 -0.740046,1.74462 -1.775677,3.36812 -2.923336,4.87619 -1.048648,1.37796 -2.252646,2.65278 -3.582727,3.76153 -0.795065,0.66276 -2.597258,1.70171 -2.597258,1.70171 l -0.179317,0.80615 c 0,0 1.112236,0.0268 1.612305,-0.1788 1.690413,-0.69515 2.95807,-2.16242 4.299479,-3.40393 1.612503,-1.49241 3.200011,-3.04936 4.47828,-4.8364 1.243453,-1.73837 2.269967,-3.65083 3.045292,-5.64255 1.01654,-2.61137 1.709159,-5.37017 2.059822,-8.1504 1.109586,-8.797355 0.0894,-26.600964 0.0894,-26.600964 l 22.928832,23.824384 h 2.06034 l 0.35812,-0.62683 c 0,0 -0.0418,-17.070889 0,-27.138398 0.0028,-0.67554 1.43299,-1.433505 1.43299,-1.433505 l 2.32854,0.08992 0.17931,-0.895552 -11.82253,0.0894 0.0894,0.716752 c 0,0 2.37466,-0.235282 3.31401,0.358118 0.38528,0.243389 0.70263,0.70875 0.71623,1.16427 0.1852,6.188884 -0.26871,19.256705 -0.26871,19.256705 L 48.703742,73.319964 48.256224,70.990907 Z m 62.091818,2.801379 A 17.131453,15.674806 0 0 0 80.946223,89.288499 17.131453,15.674806 0 0 0 98.077473,104.96299 17.131453,15.674806 0 0 0 115.20872,89.288499 17.131453,15.674806 0 0 0 98.077473,73.613486 Z m 31.011537,0.467672 -2.3735,0.358118 c 0,0 -1.79766,0.483851 -2.59725,0.940511 -0.77341,0.441719 -1.48266,1.023345 -2.05983,1.701705 -0.45955,0.540129 -0.82545,1.172194 -1.07487,1.836063 -0.25124,0.66871 -0.37576,1.390952 -0.40307,2.104781 -0.0304,0.79563 0.064,1.60404 0.26872,2.373499 0.21314,0.801249 0.51188,1.603179 0.98495,2.284098 0.55421,0.79771 1.35478,1.397625 2.10478,2.014864 1.0009,0.82375 2.11217,1.503691 3.17965,2.23914 0.68188,0.46979 1.3717,0.928726 2.06034,1.388546 0.96754,0.646029 2.00992,1.189485 2.91093,1.925464 0.67034,0.547549 1.31674,1.143624 1.83607,1.836063 0.31666,0.42222 0.55796,0.901477 0.76119,1.388546 0.22189,0.53178 0.4292,1.084017 0.49248,1.656747 0.0477,0.431299 -0.002,0.873709 -0.0894,1.298628 -0.10908,0.52705 -0.24698,1.069789 -0.53744,1.522909 -0.3703,0.57767 -0.89771,1.06668 -1.47794,1.43298 -0.57914,0.36561 -1.25721,0.56672 -1.92547,0.71675 -1.02329,0.22976 -2.09717,0.41778 -3.13521,0.26821 -0.93562,-0.13481 -1.82488,-0.55502 -2.64221,-1.02992 -0.96354,-0.55986 -1.88723,-1.24588 -2.59726,-2.10478 -0.60424,-0.730926 -0.97143,-1.635584 -1.34359,-2.507854 -0.26492,-0.620899 -0.0941,-1.510874 -0.62683,-1.925463 -0.17711,-0.13782 -0.70611,-0.266729 -0.6718,-0.04496 0.45982,2.972087 0.69836,5.050956 1.02991,7.926646 0.0185,0.1604 0.40308,0.26872 0.40308,0.26872 0,0 0.58075,-0.66924 0.98547,-0.76119 0.20842,-0.0473 0.42023,0.0796 0.62684,0.13435 0.90816,0.24051 2.68717,0.8506 2.68717,0.8506 l 1.34359,0.44803 c 0,0 1.31213,0.14248 1.97042,0.13436 1.28922,-0.0159 2.61022,-0.008 3.85093,-0.35812 1.16922,-0.33047 2.29547,-0.88608 3.26957,-1.6123 0.89765,-0.66923 1.73494,-1.48686 2.28358,-2.4629 0.56266,-1.000958 0.83993,-2.17016 0.94051,-3.314009 0.0907,-1.031309 0.0113,-2.107302 -0.31368,-3.090251 -0.28371,-0.858019 -0.81836,-1.627 -1.38803,-2.32854 -0.48614,-0.598679 -1.09836,-1.087006 -1.7017,-1.567346 -1.30219,-1.036719 -2.6938,-1.963664 -4.12016,-2.821533 -0.60652,-0.36478 -1.28848,-0.597893 -1.88103,-0.984953 -0.96028,-0.627269 -2.68665,-2.149739 -2.68665,-2.149739 0,0 -1.38206,-1.067063 -1.83607,-1.791622 -0.22558,-0.36001 -0.33502,-0.789352 -0.40307,-1.208712 -0.0765,-0.47152 -0.0798,-0.962008 0,-1.432987 0.11355,-0.67027 0.28637,-1.365972 0.67179,-1.925981 0.35434,-0.51485 0.86873,-0.940449 1.43299,-1.209229 0.8643,-0.411699 1.86615,-0.468655 2.82101,-0.537435 0.67067,-0.0483 1.36132,-0.06598 2.01539,0.08992 0.81236,0.19369 1.61149,0.534862 2.28409,1.029912 0.85163,0.626819 2.10478,2.373498 2.10478,2.373498 l 1.20923,2.14974 0.58188,-0.179317 -0.76119,-6.71742 -0.94052,0.537435 -1.38802,0.0894 h -0.85112 l -1.97042,-0.940511 -1.47794,-0.223759 z m 39.77845,0.199988 c -4.06539,0.01043 -8.73435,0.132292 -8.73435,0.132292 l 0.0729,0.441316 c 0,0 1.3949,0.701584 1.99161,1.194759 0.32705,0.270303 0.84852,0.94878 0.84852,0.94878 l 0.16899,0.657324 -0.0693,12.116573 -1.43299,-0.03669 -1.32292,0.147278 -0.58807,0.51418 -0.47749,0.624768 -0.58756,1.24902 0.22014,0.734838 0.22014,0.0739 0.80874,-0.955498 1.46967,-0.367419 1.61644,-0.0739 0.22066,0.0739 -0.0734,9.846945 c 0,0 -0.16847,1.36548 -0.63097,1.80351 -0.89741,0.84992 -3.56154,1.03301 -3.56154,1.03301 l -0.11834,0.42219 13.60589,5.2e-4 -0.11007,-0.44442 c 0,0 -3.10545,0.0534 -4.07727,-0.94774 -0.42498,-0.43782 -0.36122,-1.79421 -0.36122,-1.79421 l -0.007,-9.55962 0.36742,-0.367936 c 0,0 6.00536,-0.06423 9.01857,-0.447518 0.70133,-0.08921 1.40994,-0.231057 2.05776,-0.514181 0.69725,-0.304727 1.51802,-1.2247 2.09806,-1.717208 0.60794,-0.516182 1.09972,-1.30663 1.56993,-1.950785 0.3493,-0.478537 0.6502,-0.980014 0.83458,-1.543058 0.26854,-0.820061 0.28291,-1.709087 0.29403,-2.571936 0.0107,-0.836007 0.0134,-1.695783 -0.22014,-2.498556 -0.20816,-0.715324 -0.59335,-1.379954 -1.02888,-1.984375 -0.67852,-0.941622 -1.4832,-1.820492 -2.42517,-2.498555 -0.55128,-0.396846 -1.19916,-0.648295 -1.8371,-0.8816 -0.6417,-0.234663 -1.30653,-0.424557 -1.98386,-0.514181 -2.09152,-0.276744 -5.05513,-0.352854 -7.83673,-0.345715 z m 85.88417,0.40721 a 17.131453,15.674806 0 0 0 -17.13177,15.675012 17.131453,15.674806 0 0 0 17.13177,15.674492 17.131453,15.674806 0 0 0 17.13125,-15.674492 17.131453,15.674806 0 0 0 -17.13125,-15.675012 z m -66.60421,0.182418 v 0.645955 l 2.39004,0.0646 0.83974,0.258382 0.25838,0.323495 0.38758,0.516764 0.25838,0.258382 v 0.645955 24.934917 l -0.19379,0.45216 -0.45217,0.64596 -0.77514,0.45268 -1.4857,0.19379 -1.29191,0.0646 0.19378,0.64595 13.63018,-0.12919 v -0.64595 l -3.03599,-0.19431 -0.45217,-0.32298 -0.51676,-0.58136 -0.32298,-0.83974 0.0646,-24.805718 0.51677,-0.840258 0.25838,-0.516765 0.96893,-0.516764 1.29192,-0.193787 1.03352,-0.0646 v -0.452169 z m 33.66151,0.410828 c -0.68809,-0.007 -1.3757,0.01654 -2.05827,0.09147 -0.95763,0.10512 -1.90139,0.339755 -2.82101,0.626835 -1.32305,0.41302 -2.63875,0.896227 -3.85145,1.567346 -1.09471,0.60582 -2.17142,1.298772 -3.04529,2.194182 -1.44016,1.475668 -2.65547,3.221583 -3.49333,5.105631 -0.54288,1.220729 -0.79433,2.567848 -0.93999,3.895886 -0.17743,1.617679 -0.16619,3.274168 0.0894,4.881356 0.24028,1.510929 0.63784,3.031461 1.34359,4.388879 0.75071,1.443889 1.78839,2.764846 3.00033,3.850926 0.95333,0.85433 2.1167,1.45788 3.26905,2.01538 1.10099,0.53265 2.26287,0.95342 3.44837,1.25419 0.98018,0.24868 1.99151,0.37767 3.00033,0.44752 1.50416,0.10415 3.02272,0.10318 4.52324,-0.0444 1.04309,-0.10262 3.08973,-0.5824 3.08973,-0.5824 l 4.12017,-1.25418 1.7017,-0.71624 0.31368,-0.49248 c 0,0 0.33322,-1.31239 0.49247,-1.97042 0.16948,-0.700338 0.49248,-2.104779 0.49248,-2.104779 l 0.22428,-0.940511 -0.71676,0.313159 -0.26871,1.119828 -0.71624,1.432983 -0.67179,1.07487 -1.47795,0.71624 -3.13469,1.07487 c 0,0 -2.09467,0.67076 -3.17965,0.80615 -1.1702,0.14603 -2.37647,0.20516 -3.53777,0 -1.33001,-0.23496 -2.60902,-0.76338 -3.80649,-1.38803 -0.92162,-0.48076 -1.79354,-1.08167 -2.55281,-1.79162 -0.79865,-0.74678 -1.48216,-1.623959 -2.05982,-2.552298 -0.59985,-0.963989 -1.11966,-1.999112 -1.43351,-3.090251 -0.32859,-1.142369 -0.41409,-2.349549 -0.44752,-3.537768 -0.0362,-1.286389 0.0506,-2.583166 0.26872,-3.851445 0.18905,-1.099349 0.43871,-2.206453 0.89555,-3.224092 0.45108,-1.004809 1.09104,-1.926276 1.79111,-2.776575 0.69788,-0.847639 1.49408,-1.626719 2.3735,-2.284098 0.99064,-0.74052 2.05356,-1.438064 3.22461,-1.836064 0.92745,-0.31521 1.93181,-0.373786 2.91093,-0.403076 1.1524,-0.0345 2.31964,0.03382 3.44837,0.268717 0.85041,0.17699 2.4629,0.850594 2.4629,0.850594 l 2.19418,1.209229 1.25418,1.388546 1.25368,2.283581 0.26871,1.477946 h 0.85111 l -0.22376,-7.97109 -0.31367,-0.448034 -0.40308,0.0894 -0.26872,0.448035 -1.16427,0.04496 -1.34358,-0.04496 -1.34359,-0.582394 -2.3735,-0.581876 c 0,0 -1.72531,-0.298268 -2.59726,-0.358118 -0.68505,-0.047 -1.37379,-0.08449 -2.06189,-0.09147 z M 98.267643,75.703281 A 12.381513,13.67983 0 0 1 110.64879,89.383583 12.381513,13.67983 0 0 1 98.267643,103.06337 12.381513,13.67983 0 0 1 85.885973,89.383583 12.381513,13.67983 0 0 1 98.267643,75.703281 Z m 73.792907,0.617017 c 0.32053,8e-6 0.64782,9.17e-4 0.97668,0.0036 0.32358,0.0025 1.35981,0.162222 2.02675,0.311609 0.47596,0.106611 0.95064,0.233108 1.40302,0.415479 0.48857,0.196963 0.98481,0.407289 1.40301,0.727604 0.44771,0.342895 0.83207,0.776623 1.14309,1.246952 0.2309,0.349169 0.40825,0.740035 0.51935,1.1436 0.0832,0.30244 0.18278,0.744501 0.24443,1.122412 0.0948,0.581287 0.20306,1.16761 0.19223,1.756482 -0.0143,0.775404 -0.14978,1.669959 -0.33796,2.301668 -0.17716,0.595091 -0.51615,1.441626 -0.98237,2.031917 -0.34488,0.43666 -0.81754,0.766411 -1.29346,1.054716 -0.53359,0.323245 -1.12261,0.557416 -1.71979,0.73794 -0.48551,0.146767 -1.01565,0.193962 -1.49655,0.275435 -0.35903,0.06081 -0.72732,0.04538 -1.09141,0.05219 -1.69723,0.03172 -4.99866,0.321944 -4.99866,0.321944 l -0.20826,-0.467671 V 76.635524 l 0.0522,-0.259932 c 0,0 1.92407,-0.05537 4.1677,-0.05529 z m 82.88125,0.457853 A 12.381513,13.67983 0 0 1 267.32295,90.458453 12.381513,13.67983 0 0 1 254.9418,104.13824 12.381513,13.67983 0 0 1 242.56012,90.458453 12.381513,13.67983 0 0 1 254.9418,76.778151 Z m -156.642637,9.4387 a 2.9132969,3.0716283 0 0 0 -2.91352,3.071648 2.9132969,3.0716283 0 0 0 2.91352,3.071647 2.9132969,3.0716283 0 0 0 2.912997,-3.071647 2.9132969,3.0716283 0 0 0 -2.912997,-3.071648 z m 156.674157,1.07487 a 2.9132969,3.0716283 0 0 0 -2.91352,3.071647 2.9132969,3.0716283 0 0 0 2.91352,3.071648 2.9132969,3.0716283 0 0 0 2.913,-3.071648 2.9132969,3.0716283 0 0 0 -2.913,-3.071647 z" /><path
       style="fill:#ff0000;stroke-width:0.264583;stroke-linecap:square;stroke-miterlimit:10"
       d="m 259.45503,27.026109 4.15721,0.05812 c 0,0 4.66549,0.245047 6.74103,-0.642084 0.84764,-0.362297 1.60403,-1.026579 2.09201,-1.808636 0.45455,-0.728476 0.65173,-1.488552 0.65677,-2.490843 0.0295,-5.869069 0.0454,-11.199632 0.0454,-11.199632 l 0.62133,-1.2156038 3.0427,-0.514496 0.51312,1.4962368 c 0,0 -0.0879,6.426545 0.19706,10.721939 0.0815,1.228831 0.10599,2.246671 0.61801,3.207668 0.36252,0.680412 0.94644,1.499915 1.64092,1.629976 2.84402,0.532615 4.83102,0.419941 7.25329,0.457347 1.22545,0.01892 3.67489,-0.117959 3.67489,-0.117959 l -0.13585,2.89179 c 0,0 -4.50656,0.09816 -5.23268,0.0952 -2.64396,-0.01075 -3.93154,0.191366 -4.86752,0.455686 -0.4951,0.139817 -1.39818,0.782762 -1.82842,1.424486 -0.51327,0.765571 -0.70021,1.686262 -0.74365,2.663259 -0.30269,6.806952 -0.61136,16.659349 -0.61136,16.659349 l -1.21138,6.780921 -0.71351,-1.414509 -0.90998,-5.380512 c 0,0 -0.43974,-9.685488 -1.1783,-14.467133 -0.24135,-1.56259 -0.35093,-3.15942 -1.0593,-4.623561 -0.30114,-0.622392 -1.05458,-0.942687 -1.7018,-1.185923 -1.85803,-0.698275 -5.91851,-0.65578 -5.91851,-0.65578 l -3.2345,-0.187089 z"
       id="path446"
       sodipodi:nodetypes="ccaasccccsasaccssasccccasaccc" /><path
       id="path3247-9"
       style="fill:#ff0000;fill-opacity:1;stroke:none;stroke-width:0.264583;stroke-linecap:square;stroke-miterlimit:10"
       d="m 278.30482,139.99605 -3.04271,0.51469 -0.62167,1.21543 c 0,0 -0.016,5.33077 -0.0455,11.19984 -0.005,1.00228 -0.20225,1.76232 -0.6568,2.4908 -0.48798,0.78206 -1.24423,1.44638 -2.09186,1.80867 -2.07554,0.88714 -6.7412,0.64183 -6.7412,0.64183 l -4.15685,-0.0579 1.90686,2.63808 3.23443,0.18707 c 0,0 4.06047,-0.0425 5.9185,0.65577 0.64722,0.24324 1.40057,0.56359 1.70171,1.18598 0.70837,1.46414 0.81801,3.0609 1.05936,4.62349 0.73856,4.78163 1.17823,14.46733 1.17823,14.46733 l 0.91002,5.38055 0.71365,1.41439 1.2113,-6.78099 c 0,0 0.30864,-9.8525 0.61133,-16.65944 0.0434,-0.97699 0.23035,-1.89731 0.74362,-2.66289 0.43024,-0.64172 1.33321,-1.28491 1.82831,-1.42472 0.93598,-0.26432 2.22397,-0.46659 4.86792,-0.45579 0.72612,0.003 5.23276,-0.0951 5.23276,-0.0951 l 0.13539,-2.89181 c 0,0 -2.44926,0.13672 -3.67471,0.11782 -2.42227,-0.0374 -4.40929,0.0753 -7.2533,-0.45734 -0.69448,-0.13006 -1.27821,-0.94946 -1.64073,-1.62987 -0.51202,-0.961 -0.53655,-1.97873 -0.61805,-3.20756 -0.28496,-4.29538 -0.1974,-10.72183 -0.1974,-10.72183 z m -261.889961,2.32233 -0.0894,1.34307 c 0,0 2.627491,0.0497 3.940845,0.0899 0.776447,0.0238 1.581007,-0.12186 2.32854,0.0894 0.527411,0.14905 1.031073,0.43353 1.432987,0.80615 0.552572,0.51229 0.971947,1.18237 1.254187,1.88103 0.250054,0.61898 0.363818,1.30286 0.358118,1.97042 -0.102362,12.07221 0.977995,22.63992 0.179317,34.48265 -0.164386,2.4375 -0.9532,4.8616 -1.913578,7.12566 -0.740045,1.74462 -1.775677,3.36812 -2.923336,4.87619 -1.048648,1.37796 -2.252129,2.65278 -3.58221,3.76153 -0.795065,0.66276 -2.597774,1.7017 -2.597774,1.7017 l -0.178801,0.80615 c 0,0 1.111719,0.0268 1.611788,-0.1788 1.690413,-0.69515 2.95807,-2.16241 4.299479,-3.40392 1.612504,-1.49241 3.200011,-3.04936 4.47828,-4.8364 1.243454,-1.73837 2.269968,-3.65083 3.045292,-5.64255 1.01654,-2.61138 1.709159,-5.37017 2.059823,-8.15041 1.109585,-8.79735 0.0894,-26.60096 0.0894,-26.60096 l 22.928833,23.82439 h 2.060339 l 0.358118,-0.62684 c 0,0 -0.04184,-17.07088 0,-27.13839 0.0028,-0.67554 1.432987,-1.43299 1.432987,-1.43299 l 2.32854,0.0894 0.179318,-0.89555 -11.822535,0.0894 0.0894,0.71675 c 0,0 2.374662,-0.23528 3.314009,0.35812 0.385281,0.24339 0.703122,0.70875 0.716752,1.16427 0.1852,6.18888 -0.268717,19.2567 -0.268717,19.2567 l -22.391398,-23.01823 -0.448035,-2.32906 z m 62.091817,2.8019 a 17.131453,15.674806 0 0 0 -17.131254,15.67501 17.131453,15.674806 0 0 0 17.131254,15.6745 17.131453,15.674806 0 0 0 17.131254,-15.6745 17.131453,15.674806 0 0 0 -17.131254,-15.67501 z m 31.011544,0.46716 -2.3735,0.35811 c 0,0 -1.79767,0.48385 -2.59726,0.94051 -0.77341,0.44172 -1.48265,1.02335 -2.05982,1.70171 -0.45955,0.54013 -0.82545,1.17219 -1.07487,1.83606 -0.25124,0.66871 -0.37577,1.39095 -0.40308,2.10478 -0.0304,0.79563 0.064,1.60404 0.26872,2.3735 0.21314,0.80125 0.5124,1.60318 0.98547,2.2841 0.55421,0.79771 1.35478,1.39814 2.10478,2.01538 1.0009,0.82375 2.11166,1.50369 3.17914,2.23914 0.68188,0.46979 1.3717,0.92821 2.06034,1.38803 0.96754,0.64603 2.00992,1.18948 2.91093,1.92546 0.67034,0.54755 1.31673,1.14363 1.83606,1.83607 0.31666,0.42222 0.55797,0.90147 0.7612,1.38854 0.22189,0.53178 0.42919,1.08402 0.49247,1.65675 0.0477,0.4313 -0.002,0.87371 -0.0894,1.29863 -0.10908,0.52705 -0.24697,1.06978 -0.53743,1.5229 -0.3703,0.57768 -0.89772,1.06669 -1.47795,1.43299 -0.57914,0.36561 -1.2572,0.56671 -1.92546,0.71675 -1.02329,0.22976 -2.09665,0.41829 -3.13469,0.26872 -0.93562,-0.13481 -1.82489,-0.55553 -2.64222,-1.03043 -0.96354,-0.55986 -1.88774,-1.24588 -2.59777,-2.10478 -0.60424,-0.73093 -0.97091,-1.63559 -1.34307,-2.50786 -0.26492,-0.6209 -0.0946,-1.51087 -0.62736,-1.92546 -0.17711,-0.13782 -0.7061,-0.26673 -0.67179,-0.045 0.45982,2.97209 0.69887,5.05096 1.03043,7.92665 0.0185,0.1604 0.40256,0.26872 0.40256,0.26872 0,0 0.58075,-0.66925 0.98547,-0.7612 0.20842,-0.0473 0.42022,0.0796 0.62683,0.13436 0.90817,0.24051 2.68718,0.8506 2.68718,0.8506 l 1.34358,0.44803 c 0,0 1.31214,0.14248 1.97043,0.13436 1.28921,-0.0159 2.61022,-0.008 3.85092,-0.35812 1.16922,-0.33047 2.29547,-0.88608 3.26957,-1.6123 0.89766,-0.66923 1.73494,-1.48686 2.28358,-2.4629 0.56266,-1.00096 0.83993,-2.17016 0.94051,-3.31401 0.0907,-1.03131 0.0118,-2.1073 -0.31315,-3.09025 -0.28371,-0.85802 -0.81888,-1.627 -1.38855,-2.32854 -0.48614,-0.59868 -1.09837,-1.08701 -1.70171,-1.56735 -1.30218,-1.03672 -2.69379,-1.96366 -4.12016,-2.82153 -0.60652,-0.36478 -1.28795,-0.5979 -1.8805,-0.98495 -0.96029,-0.62727 -2.68718,-2.14974 -2.68718,-2.14974 0,0 -1.38205,-1.06655 -1.83606,-1.79111 -0.22558,-0.36001 -0.33503,-0.78987 -0.40308,-1.20923 -0.0765,-0.47152 -0.0798,-0.96201 0,-1.43299 0.11355,-0.67026 0.28638,-1.36597 0.6718,-1.92598 0.35434,-0.51485 0.86872,-0.94044 1.43298,-1.20922 0.8643,-0.4117 1.86667,-0.46814 2.82154,-0.53692 0.67067,-0.0483 1.36079,-0.0665 2.01486,0.0894 0.81237,0.19369 1.6115,0.53486 2.2841,1.02991 0.85163,0.62682 2.10478,2.3735 2.10478,2.3735 l 1.20923,2.14974 0.58188,-0.17932 -0.7612,-6.71742 -0.94051,0.53744 -1.38803,0.0894 h -0.85111 l -1.97042,-0.94 -1.47743,-0.22427 z m 39.77845,0.19998 c -4.0654,0.0104 -8.73435,0.13229 -8.73435,0.13229 l 0.0734,0.44132 c 0,0 1.39438,0.7021 1.99109,1.19528 0.32705,0.2703 0.84905,0.94826 0.84905,0.94826 l 0.16846,0.65784 -0.0692,12.11657 -1.43299,-0.0372 -1.32292,0.14727 -0.58756,0.51419 -0.47801,0.62476 -0.58756,1.24902 0.22014,0.73484 0.22066,0.0739 0.80822,-0.9555 1.46968,-0.36742 1.61644,-0.0739 0.22066,0.0739 -0.0734,9.84695 c 0,0 -0.16847,1.36547 -0.63097,1.8035 -0.89741,0.84992 -3.56154,1.03302 -3.56154,1.03302 l -0.11834,0.42219 13.60589,5.2e-4 -0.11008,-0.44442 c 0,0 -3.10493,0.0535 -4.07675,-0.94774 -0.42498,-0.43782 -0.36122,-1.79421 -0.36122,-1.79421 l -0.007,-9.55962 0.36742,-0.36794 c 0,0 6.00587,-0.0642 9.01909,-0.44752 0.70132,-0.0892 1.40941,-0.23106 2.05723,-0.51418 0.69725,-0.30473 1.51803,-1.22471 2.09807,-1.71721 0.60794,-0.51619 1.09972,-1.30662 1.56993,-1.95078 0.3493,-0.47854 0.65019,-0.98001 0.83457,-1.54306 0.26855,-0.82006 0.28292,-1.70909 0.29404,-2.57194 0.0107,-0.836 0.0134,-1.69577 -0.22014,-2.49855 -0.20816,-0.71532 -0.59335,-1.37996 -1.02888,-1.98438 -0.67853,-0.94161 -1.4832,-1.82049 -2.42517,-2.49855 -0.55128,-0.39685 -1.19916,-0.64829 -1.8371,-0.8816 -0.6417,-0.23466 -1.30653,-0.42456 -1.98386,-0.51418 -2.09153,-0.27675 -5.05513,-0.35286 -7.83673,-0.34572 z m 85.88416,0.40721 a 17.131453,15.674806 0 0 0 -17.13125,15.67502 17.131453,15.674806 0 0 0 17.13125,15.67449 17.131453,15.674806 0 0 0 17.13126,-15.67449 17.131453,15.674806 0 0 0 -17.13126,-15.67502 z m -66.6042,0.18242 v 0.64647 l 2.39003,0.0646 0.83975,0.25838 0.25838,0.32298 0.38757,0.51676 0.25838,0.25839 v 0.64595 24.93491 l -0.19378,0.45269 -0.45217,0.64595 -0.77515,0.45217 -1.48569,0.19379 -1.29192,0.0646 0.19379,0.64596 13.63018,-0.12919 v -0.64596 l -3.03599,-0.19378 -0.45217,-0.32298 -0.51677,-0.58136 -0.32297,-0.84026 0.0646,-24.80572 0.51677,-0.83974 0.25838,-0.51677 0.96893,-0.51676 1.29191,-0.19379 1.03353,-0.0646 v -0.45269 z m 33.66151,0.41083 c -0.6881,-0.007 -1.3757,0.0165 -2.05827,0.0915 -0.95763,0.10512 -1.9014,0.33975 -2.82102,0.62683 -1.32305,0.41302 -2.63874,0.89623 -3.85144,1.56735 -1.09471,0.60582 -2.17143,1.29877 -3.04529,2.19418 -1.44016,1.47567 -2.65496,3.22158 -3.49281,5.10563 -0.54288,1.22073 -0.79486,2.56785 -0.94052,3.89589 -0.17743,1.61767 -0.16618,3.27416 0.0894,4.88135 0.24028,1.51093 0.63784,3.03146 1.34359,4.38888 0.75071,1.44389 1.7884,2.76537 3.00034,3.85145 0.95332,0.85433 2.1167,1.45736 3.26905,2.01486 1.10099,0.53265 2.26287,0.95342 3.44837,1.25419 0.98017,0.24868 1.99151,0.37767 3.00033,0.44752 1.50416,0.10415 3.02272,0.10317 4.52324,-0.0445 1.04309,-0.10262 3.09025,-0.58239 3.09025,-0.58239 l 4.11964,-1.25367 1.70171,-0.71675 0.31367,-0.49248 c 0,0 0.33323,-1.31239 0.49248,-1.97042 0.16948,-0.70034 0.49299,-2.10478 0.49299,-2.10478 l 0.22376,-0.94051 -0.71675,0.31316 -0.26872,1.11982 -0.71623,1.43299 -0.6718,1.07487 -1.47794,0.71624 -3.13469,1.07487 c 0,0 -2.09468,0.67076 -3.17966,0.80615 -1.17019,0.14603 -2.37647,0.20516 -3.53776,0 -1.33001,-0.23496 -2.60902,-0.76338 -3.80649,-1.38803 -0.92162,-0.48076 -1.79355,-1.08167 -2.55282,-1.79162 -0.79865,-0.74678 -1.48215,-1.62396 -2.05982,-2.5523 -0.59985,-0.96399 -1.11914,-1.99911 -1.43299,-3.09025 -0.32859,-1.14237 -0.4146,-2.34955 -0.44803,-3.53777 -0.0362,-1.28639 0.0506,-2.58317 0.26872,-3.85144 0.18905,-1.09935 0.43871,-2.20646 0.89555,-3.2241 0.45108,-1.00481 1.09155,-1.92627 1.79162,-2.77657 0.69788,-0.84764 1.49408,-1.62672 2.3735,-2.2841 0.99064,-0.74052 2.05304,-1.43806 3.22409,-1.83606 0.92745,-0.31521 1.93182,-0.37379 2.91094,-0.40308 1.15239,-0.0345 2.31964,0.0338 3.44836,0.26872 0.85041,0.17699 2.4629,0.85111 2.4629,0.85111 l 2.19418,1.20871 1.25419,1.38855 1.25367,2.28409 0.26872,1.47743 h 0.85111 l -0.22376,-7.97109 -0.31368,-0.44803 -0.40307,0.0899 -0.26872,0.44751 -1.16427,0.045 -1.34359,-0.045 -1.34358,-0.58187 -2.3735,-0.5824 c 0,0 -1.72531,-0.29826 -2.59726,-0.35811 -0.68506,-0.047 -1.37379,-0.0845 -2.06189,-0.0915 z m -123.541294,0.4222 a 12.381513,13.67983 0 0 1 12.381156,13.6803 12.381513,13.67983 0 0 1 -12.381156,13.67978 12.381513,13.67983 0 0 1 -12.381673,-13.67978 12.381513,13.67983 0 0 1 12.381673,-13.6803 z m 73.792914,0.6165 c 0.32053,0 0.64781,6.1e-4 0.97668,0.004 0.32358,0.002 1.3598,0.16274 2.02675,0.31213 0.47596,0.10661 0.95064,0.23311 1.40302,0.41548 0.48857,0.19697 0.9848,0.40728 1.40301,0.7276 0.44771,0.34289 0.83206,0.77662 1.14308,1.24695 0.2309,0.34917 0.40825,0.73952 0.51935,1.14309 0.0832,0.30244 0.18278,0.7445 0.24443,1.12241 0.0948,0.58129 0.20307,1.16761 0.19224,1.75648 -0.0143,0.77541 -0.14979,1.67048 -0.33797,2.30218 -0.17716,0.5951 -0.51563,1.44112 -0.98185,2.03141 -0.34488,0.43665 -0.81806,0.76693 -1.29398,1.05523 -0.53359,0.32325 -1.12261,0.55741 -1.71979,0.73794 -0.48551,0.14676 -1.01565,0.19345 -1.49655,0.27492 -0.35903,0.0608 -0.72731,0.0454 -1.0914,0.0522 -1.69723,0.0317 -4.99866,0.32194 -4.99866,0.32194 l -0.20774,-0.46767 V 148.1418 l 0.0517,-0.25941 c 0,0 1.92408,-0.0558 4.16771,-0.0558 z m 82.88124,0.45785 a 12.381513,13.67983 0 0 1 12.38116,13.6803 12.381513,13.67983 0 0 1 -12.38116,13.67979 12.381513,13.67983 0 0 1 -12.38167,-13.67979 12.381513,13.67983 0 0 1 12.38167,-13.6803 z m -156.642632,9.43922 a 2.9132969,3.0716283 0 0 0 -2.913517,3.07164 2.9132969,3.0716283 0 0 0 2.913517,3.07165 2.9132969,3.0716283 0 0 0 2.913001,-3.07165 2.9132969,3.0716283 0 0 0 -2.913001,-3.07164 z M 235.40253,158.798 a 2.9132969,3.0716283 0 0 0 -2.91352,3.07165 2.9132969,3.0716283 0 0 0 2.91352,3.07164 2.9132969,3.0716283 0 0 0 2.913,-3.07164 2.9132969,3.0716283 0 0 0 -2.913,-3.07165 z" /></g></svg>
