<?xml version="1.0" encoding="UTF-8" standalone="no"?>
<!-- Created with Inkscape (http://www.inkscape.org/) -->

<svg
   width="210mm"
   height="297mm"
   viewBox="0 0 210 297"
   version="1.1"
   id="svg606"
   inkscape:version="1.2.1 (9c6d41e410, 2022-07-14)"
   sodipodi:docname="logo_nos_pico+.svg"
   xmlns:inkscape="http://www.inkscape.org/namespaces/inkscape"
   xmlns:sodipodi="http://sodipodi.sourceforge.net/DTD/sodipodi-0.dtd"
   xmlns="http://www.w3.org/2000/svg"
   xmlns:svg="http://www.w3.org/2000/svg">
  <sodipodi:namedview
     id="namedview608"
     pagecolor="#ffffff"
     bordercolor="#000000"
     borderopacity="0.25"
     inkscape:showpageshadow="2"
     inkscape:pageopacity="0.0"
     inkscape:pagecheckerboard="0"
     inkscape:deskcolor="#d1d1d1"
     inkscape:document-units="mm"
     showgrid="false"
     inkscape:zoom="0.26110523"
     inkscape:cx="-97.661774"
     inkscape:cy="886.61571"
     inkscape:window-width="1920"
     inkscape:window-height="1010"
     inkscape:window-x="-6"
     inkscape:window-y="-6"
     inkscape:window-maximized="1"
     inkscape:current-layer="layer1" />
  <defs
     id="defs603" />
  <g
     inkscape:label="图层 1"
     inkscape:groupmode="layer"
     id="layer1">
    <path
       id="path3247-9"
       style="fill:#ff0000;fill-opacity:1;stroke:none;stroke-width:0.264583;stroke-linecap:square;stroke-miterlimit:10"
       d="m 271.61121,16.704233 -3.04271,0.51469 -0.62167,1.21543 c 0,0 -0.016,5.33077 -0.0455,11.19984 -0.005,1.00228 -0.20225,1.76232 -0.6568,2.4908 -0.48798,0.78206 -1.24423,1.44638 -2.09186,1.80867 -2.07554,0.88714 -6.7412,0.64183 -6.7412,0.64183 l -4.15685,-0.0579 1.90686,2.63808 3.23443,0.18707 c 0,0 4.06047,-0.0425 5.9185,0.65577 0.64722,0.24324 1.40057,0.56359 1.70171,1.18598 0.70837,1.46414 0.81801,3.0609 1.05936,4.62349 0.73856,4.78163 1.17823,14.46733 1.17823,14.46733 l 0.91002,5.38055 0.71365,1.41439 1.2113,-6.78099 c 0,0 0.30864,-9.8525 0.61133,-16.65944 0.0434,-0.97699 0.23035,-1.89731 0.74362,-2.66289 0.43024,-0.64172 1.33321,-1.28491 1.82831,-1.42472 0.93598,-0.26432 2.22397,-0.46659 4.86792,-0.45579 0.72612,0.003 5.23276,-0.0951 5.23276,-0.0951 l 0.13539,-2.89181 c 0,0 -2.44926,0.13672 -3.67471,0.11782 -2.42227,-0.0374 -4.40929,0.0753 -7.2533,-0.45734 -0.69448,-0.13006 -1.27821,-0.94946 -1.64073,-1.62987 -0.51202,-0.961 -0.53655,-1.97873 -0.61805,-3.20756 -0.28496,-4.29538 -0.1974,-10.72183 -0.1974,-10.72183 z m -261.8899644,2.32233 -0.0894,1.34307 c 0,0 2.6274914,0.0497 3.9408454,0.0899 0.776447,0.0238 1.581007,-0.12186 2.32854,0.0894 0.527411,0.14905 1.031073,0.43353 1.432987,0.80615 0.552572,0.51229 0.971947,1.18237 1.254187,1.88103 0.250054,0.61898 0.363818,1.30286 0.358118,1.97042 -0.102362,12.07221 0.977995,22.63992 0.179317,34.48265 -0.164386,2.4375 -0.9532,4.8616 -1.913578,7.12566 -0.740045,1.74462 -1.775677,3.36812 -2.923336,4.87619 -1.048648,1.37796 -2.252129,2.65278 -3.58221,3.76153 -0.7950654,0.66276 -2.5977744,1.7017 -2.5977744,1.7017 l -0.178801,0.80615 c 0,0 1.111719,0.0268 1.611788,-0.1788 1.6904134,-0.69515 2.9580704,-2.16241 4.2994794,-3.40392 1.612504,-1.49241 3.200011,-3.04936 4.47828,-4.8364 1.243454,-1.73837 2.269968,-3.65083 3.045292,-5.64255 1.01654,-2.61138 1.709159,-5.37017 2.059823,-8.15041 1.109585,-8.79735 0.0894,-26.60096 0.0894,-26.60096 l 22.928833,23.82439 h 2.060339 l 0.358118,-0.62684 c 0,0 -0.04184,-17.07088 0,-27.13839 0.0028,-0.67554 1.432987,-1.43299 1.432987,-1.43299 l 2.32854,0.0894 0.179318,-0.89555 -11.822535,0.0894 0.0894,0.71675 c 0,0 2.374662,-0.23528 3.314009,0.35812 0.385281,0.24339 0.703122,0.70875 0.716752,1.16427 0.1852,6.18888 -0.268717,19.2567 -0.268717,19.2567 l -22.391398,-23.01823 -0.448035,-2.32906 z m 62.0918174,2.8019 a 17.131453,15.674806 0 0 0 -17.131254,15.67501 17.131453,15.674806 0 0 0 17.131254,15.6745 17.131453,15.674806 0 0 0 17.131254,-15.6745 17.131453,15.674806 0 0 0 -17.131254,-15.67501 z m 31.011547,0.46716 -2.3735,0.35811 c 0,0 -1.797673,0.48385 -2.597263,0.94051 -0.77341,0.44172 -1.48265,1.02335 -2.05982,1.70171 -0.45955,0.54013 -0.82545,1.17219 -1.07487,1.83606 -0.25124,0.66871 -0.37577,1.39095 -0.40308,2.10478 -0.0304,0.79563 0.064,1.60404 0.26872,2.3735 0.21314,0.80125 0.5124,1.60318 0.98547,2.2841 0.55421,0.79771 1.35478,1.39814 2.10478,2.01538 1.0009,0.82375 2.11166,1.50369 3.179143,2.23914 0.68188,0.46979 1.3717,0.92821 2.06034,1.38803 0.96754,0.64603 2.00992,1.18948 2.91093,1.92546 0.67034,0.54755 1.31673,1.14363 1.83606,1.83607 0.31666,0.42222 0.55797,0.90147 0.7612,1.38854 0.22189,0.53178 0.42919,1.08402 0.49247,1.65675 0.0477,0.4313 -0.002,0.87371 -0.0894,1.29863 -0.10908,0.52705 -0.24697,1.06978 -0.53743,1.5229 -0.3703,0.57768 -0.89772,1.06669 -1.47795,1.43299 -0.57914,0.36561 -1.2572,0.56671 -1.92546,0.71675 -1.02329,0.22976 -2.09665,0.41829 -3.13469,0.26872 -0.93562,-0.13481 -1.824893,-0.55553 -2.642223,-1.03043 -0.96354,-0.55986 -1.88774,-1.24588 -2.59777,-2.10478 -0.60424,-0.73093 -0.97091,-1.63559 -1.34307,-2.50786 -0.26492,-0.6209 -0.0946,-1.51087 -0.62736,-1.92546 -0.17711,-0.13782 -0.7061,-0.26673 -0.67179,-0.045 0.45982,2.97209 0.69887,5.05096 1.03043,7.92665 0.0185,0.1604 0.40256,0.26872 0.40256,0.26872 0,0 0.58075,-0.66925 0.98547,-0.7612 0.20842,-0.0473 0.42022,0.0796 0.62683,0.13436 0.90817,0.24051 2.68718,0.8506 2.68718,0.8506 l 1.343583,0.44803 c 0,0 1.31214,0.14248 1.97043,0.13436 1.28921,-0.0159 2.61022,-0.008 3.85092,-0.35812 1.16922,-0.33047 2.29547,-0.88608 3.26957,-1.6123 0.89766,-0.66923 1.73494,-1.48686 2.28358,-2.4629 0.56266,-1.00096 0.83993,-2.17016 0.94051,-3.31401 0.0907,-1.03131 0.0118,-2.1073 -0.31315,-3.09025 -0.28371,-0.85802 -0.81888,-1.627 -1.38855,-2.32854 -0.48614,-0.59868 -1.09837,-1.08701 -1.70171,-1.56735 -1.30218,-1.03672 -2.69379,-1.96366 -4.12016,-2.82153 -0.60652,-0.36478 -1.28795,-0.5979 -1.8805,-0.98495 -0.96029,-0.62727 -2.68718,-2.14974 -2.68718,-2.14974 0,0 -1.382053,-1.06655 -1.836063,-1.79111 -0.22558,-0.36001 -0.33503,-0.78987 -0.40308,-1.20923 -0.0765,-0.47152 -0.0798,-0.96201 0,-1.43299 0.11355,-0.67026 0.28638,-1.36597 0.6718,-1.92598 0.35434,-0.51485 0.868723,-0.94044 1.432983,-1.20922 0.8643,-0.4117 1.86667,-0.46814 2.82154,-0.53692 0.67067,-0.0483 1.36079,-0.0665 2.01486,0.0894 0.81237,0.19369 1.6115,0.53486 2.2841,1.02991 0.85163,0.62682 2.10478,2.3735 2.10478,2.3735 l 1.20923,2.14974 0.58188,-0.17932 -0.7612,-6.71742 -0.94051,0.53744 -1.38803,0.0894 h -0.85111 l -1.97042,-0.94 -1.47743,-0.22427 z m 39.77845,0.19998 c -4.0654,0.0104 -8.73435,0.13229 -8.73435,0.13229 l 0.0734,0.44132 c 0,0 1.39438,0.7021 1.99109,1.19528 0.32705,0.2703 0.84905,0.94826 0.84905,0.94826 l 0.16846,0.65784 -0.0692,12.11657 -1.43299,-0.0372 -1.32292,0.14727 -0.58756,0.51419 -0.47801,0.62476 -0.58756,1.24902 0.22014,0.73484 0.22066,0.0739 0.80822,-0.9555 1.46968,-0.36742 1.61644,-0.0739 0.22066,0.0739 -0.0734,9.84695 c 0,0 -0.16847,1.36547 -0.63097,1.8035 -0.89741,0.84992 -3.56154,1.03302 -3.56154,1.03302 l -0.11834,0.42219 13.60589,5.2e-4 -0.11008,-0.44442 c 0,0 -3.10493,0.0535 -4.07675,-0.94774 -0.42498,-0.43782 -0.36122,-1.79421 -0.36122,-1.79421 l -0.007,-9.55962 0.36742,-0.36794 c 0,0 6.00587,-0.0642 9.01909,-0.44752 0.70132,-0.0892 1.40941,-0.23106 2.05723,-0.51418 0.69725,-0.30473 1.51803,-1.22471 2.09807,-1.71721 0.60794,-0.51619 1.09972,-1.30662 1.56993,-1.95078 0.3493,-0.47854 0.65019,-0.98001 0.83457,-1.54306 0.26855,-0.82006 0.28292,-1.70909 0.29404,-2.57194 0.0107,-0.836 0.0134,-1.69577 -0.22014,-2.49855 -0.20816,-0.71532 -0.59335,-1.37996 -1.02888,-1.98438 -0.67853,-0.94161 -1.4832,-1.82049 -2.42517,-2.49855 -0.55128,-0.39685 -1.19916,-0.64829 -1.8371,-0.8816 -0.6417,-0.23466 -1.30653,-0.42456 -1.98386,-0.51418 -2.09153,-0.27675 -5.05513,-0.35286 -7.83673,-0.34572 z m 85.88416,0.40721 a 17.131453,15.674806 0 0 0 -17.13125,15.67502 17.131453,15.674806 0 0 0 17.13125,15.67449 17.131453,15.674806 0 0 0 17.13126,-15.67449 17.131453,15.674806 0 0 0 -17.13126,-15.67502 z m -66.6042,0.18242 v 0.64647 l 2.39003,0.0646 0.83975,0.25838 0.25838,0.32298 0.38757,0.51676 0.25838,0.25839 v 0.64595 24.93491 l -0.19378,0.45269 -0.45217,0.64595 -0.77515,0.45217 -1.48569,0.19379 -1.29192,0.0646 0.19379,0.64596 13.63018,-0.12919 v -0.64596 l -3.03599,-0.19378 -0.45217,-0.32298 -0.51677,-0.58136 -0.32297,-0.84026 0.0646,-24.80572 0.51677,-0.83974 0.25838,-0.51677 0.96893,-0.51676 1.29191,-0.19379 1.03353,-0.0646 v -0.45269 z m 33.66151,0.41083 c -0.6881,-0.007 -1.3757,0.0165 -2.05827,0.0915 -0.95763,0.10512 -1.9014,0.33975 -2.82102,0.62683 -1.32305,0.41302 -2.63874,0.89623 -3.85144,1.56735 -1.09471,0.60582 -2.17143,1.29877 -3.04529,2.19418 -1.44016,1.47567 -2.65496,3.22158 -3.49281,5.10563 -0.54288,1.22073 -0.79486,2.56785 -0.94052,3.89589 -0.17743,1.61767 -0.16618,3.27416 0.0894,4.88135 0.24028,1.51093 0.63784,3.03146 1.34359,4.38888 0.75071,1.44389 1.7884,2.76537 3.00034,3.85145 0.95332,0.85433 2.1167,1.45736 3.26905,2.01486 1.10099,0.53265 2.26287,0.95342 3.44837,1.25419 0.98017,0.24868 1.99151,0.37767 3.00033,0.44752 1.50416,0.10415 3.02272,0.10317 4.52324,-0.0445 1.04309,-0.10262 3.09025,-0.58239 3.09025,-0.58239 l 4.11964,-1.25367 1.70171,-0.71675 0.31367,-0.49248 c 0,0 0.33323,-1.31239 0.49248,-1.97042 0.16948,-0.70034 0.49299,-2.10478 0.49299,-2.10478 l 0.22376,-0.94051 -0.71675,0.31316 -0.26872,1.11982 -0.71623,1.43299 -0.6718,1.07487 -1.47794,0.71624 -3.13469,1.07487 c 0,0 -2.09468,0.67076 -3.17966,0.80615 -1.17019,0.14603 -2.37647,0.20516 -3.53776,0 -1.33001,-0.23496 -2.60902,-0.76338 -3.80649,-1.38803 -0.92162,-0.48076 -1.79355,-1.08167 -2.55282,-1.79162 -0.79865,-0.74678 -1.48215,-1.62396 -2.05982,-2.5523 -0.59985,-0.96399 -1.11914,-1.99911 -1.43299,-3.09025 -0.32859,-1.14237 -0.4146,-2.34955 -0.44803,-3.53777 -0.0362,-1.28639 0.0506,-2.58317 0.26872,-3.85144 0.18905,-1.09935 0.43871,-2.20646 0.89555,-3.2241 0.45108,-1.00481 1.09155,-1.92627 1.79162,-2.77657 0.69788,-0.84764 1.49408,-1.62672 2.3735,-2.2841 0.99064,-0.74052 2.05304,-1.43806 3.22409,-1.83606 0.92745,-0.31521 1.93182,-0.37379 2.91094,-0.40308 1.15239,-0.0345 2.31964,0.0338 3.44836,0.26872 0.85041,0.17699 2.4629,0.85111 2.4629,0.85111 l 2.19418,1.20871 1.25419,1.38855 1.25367,2.28409 0.26872,1.47743 h 0.85111 l -0.22376,-7.97109 -0.31368,-0.44803 -0.40307,0.0899 -0.26872,0.44751 -1.16427,0.045 -1.34359,-0.045 -1.34358,-0.58187 -2.3735,-0.5824 c 0,0 -1.72531,-0.29826 -2.59726,-0.35811 -0.68506,-0.047 -1.37379,-0.0845 -2.06189,-0.0915 z m -123.541297,0.4222 a 12.381513,13.67983 0 0 1 12.381156,13.6803 12.381513,13.67983 0 0 1 -12.381156,13.67978 12.381513,13.67983 0 0 1 -12.381673,-13.67978 12.381513,13.67983 0 0 1 12.381673,-13.6803 z m 73.792917,0.6165 c 0.32053,0 0.64781,6.1e-4 0.97668,0.004 0.32358,0.002 1.3598,0.16274 2.02675,0.31213 0.47596,0.10661 0.95064,0.23311 1.40302,0.41548 0.48857,0.19697 0.9848,0.40728 1.40301,0.7276 0.44771,0.34289 0.83206,0.77662 1.14308,1.24695 0.2309,0.34917 0.40825,0.73952 0.51935,1.14309 0.0832,0.30244 0.18278,0.7445 0.24443,1.12241 0.0948,0.58129 0.20307,1.16761 0.19224,1.75648 -0.0143,0.77541 -0.14979,1.67048 -0.33797,2.30218 -0.17716,0.5951 -0.51563,1.44112 -0.98185,2.03141 -0.34488,0.43665 -0.81806,0.76693 -1.29398,1.05523 -0.53359,0.32325 -1.12261,0.55741 -1.71979,0.73794 -0.48551,0.14676 -1.01565,0.19345 -1.49655,0.27492 -0.35903,0.0608 -0.72731,0.0454 -1.0914,0.0522 -1.69723,0.0317 -4.99866,0.32194 -4.99866,0.32194 l -0.20774,-0.46767 v -12.72107 l 0.0517,-0.25941 c 0,0 1.92408,-0.0558 4.16771,-0.0558 z m 82.88124,0.45785 a 12.381513,13.67983 0 0 1 12.38116,13.6803 12.381513,13.67983 0 0 1 -12.38116,13.67979 12.381513,13.67983 0 0 1 -12.38167,-13.67979 12.381513,13.67983 0 0 1 12.38167,-13.6803 z m -156.642635,9.43922 a 2.9132969,3.0716283 0 0 0 -2.913517,3.07164 2.9132969,3.0716283 0 0 0 2.913517,3.07165 2.9132969,3.0716283 0 0 0 2.913001,-3.07165 2.9132969,3.0716283 0 0 0 -2.913001,-3.07164 z m 156.674165,1.07435 a 2.9132969,3.0716283 0 0 0 -2.91352,3.07165 2.9132969,3.0716283 0 0 0 2.91352,3.07164 2.9132969,3.0716283 0 0 0 2.913,-3.07164 2.9132969,3.0716283 0 0 0 -2.913,-3.07165 z" />
  </g>
</svg>
