  0
SECTION
  2
HEADER
  9
$ACADVER
  1
AC1014
  9
$HANDSEED
  5
FFFF
  9
$MEASUREMENT
 70
     1
  0
ENDSEC
  0
SECTION
  2
TABLES
  0
TABLE
  2
VPORT
  5
8
330
0
100
AcDbSymbolTable
 70
     4
  0
VPORT
  5
2E
330
8
100
AcDbSymbolTableRecord
100
AcDbViewportTableRecord
  2
*ACTIVE
 70
     0
 10
0.0
 20
0.0
 11
1.0
 21
1.0
 12
210.0
 22
148.5
 13
0.0
 23
0.0
 14
10.0
 24
10.0
 15
10.0
 25
10.0
 16
0.0
 26
0.0
 36
1.0
 17
0.0
 27
0.0
 37
0.0
 40
341.0
 41
1.24
 42
50.0
 43
0.0
 44
0.0
 50
0.0
 51
0.0
 71
     0
 72
   100
 73
     1
 74
     3
 75
     0
 76
     0
 77
     0
 78
     0
  0
ENDTAB
  0
TABLE
  2
LTYPE
  5
5
330
0
100
AcDbSymbolTable
 70
     1
  0
LTYPE
  5
14
330
5
100
AcDbSymbolTableRecord
100
AcDbLinetypeTableRecord
  2
BYBLOCK
 70
     0
  3

 72
    65
 73
     0
 40
0.0
  0
LTYPE
  5
15
330
5
100
AcDbSymbolTableRecord
100
AcDbLinetypeTableRecord
  2
BYLAYER
 70
     0
  3

 72
    65
 73
     0
 40
0.0
  0
LTYPE
  5
16
330
5
100
AcDbSymbolTableRecord
100
AcDbLinetypeTableRecord
  2
CONTINUOUS
 70
     0
  3
Solid line
 72
    65
 73
     0
 40
0.0
  0
ENDTAB
  0
TABLE
  2
LAYER
  5
2
100
AcDbSymbolTable
 70
2
  0
LAYER
  5
50
100
AcDbSymbolTableRecord
100
AcDbLayerTableRecord
  2
0
 70
0
  6
CONTINUOUS
  0
LAYER
  5
51
100
AcDbSymbolTableRecord
100
AcDbLayerTableRecord
  2
图层_1
 70
0
  6
CONTINUOUS
  0
ENDTAB
  0
TABLE
  2
STYLE
  5
3
330
0
100
AcDbSymbolTable
 70
     1
  0
STYLE
  5
11
330
3
100
AcDbSymbolTableRecord
100
AcDbTextStyleTableRecord
  2
STANDARD
 70
     0
 40
0.0
 41
1.0
 50
0.0
 71
     0
 42
2.5
  3
txt
  4

  0
ENDTAB
  0
TABLE
  2
VIEW
  5
6
330
0
100
AcDbSymbolTable
 70
     0
  0
ENDTAB
  0
TABLE
  2
UCS
  5
7
330
0
100
AcDbSymbolTable
 70
     0
  0
ENDTAB
  0
TABLE
  2
APPID
  5
9
330
0
100
AcDbSymbolTable
 70
     2
  0
APPID
  5
12
330
9
100
AcDbSymbolTableRecord
100
AcDbRegAppTableRecord
  2
ACAD
 70
     0
  0
ENDTAB
  0
TABLE
  2
DIMSTYLE
  5
A
330
0
100
AcDbSymbolTable
 70
     1
  0
DIMSTYLE
105
27
330
A
100
AcDbSymbolTableRecord
100
AcDbDimStyleTableRecord
  2
ISO-25
 70
     0
  3

  4

  5

  6

  7

 40
1.0
 41
2.5
 42
0.625
 43
3.75
 44
1.25
 45
0.0
 46
0.0
 47
0.0
 48
0.0
140
2.5
141
2.5
142
0.0
143
0.03937007874016
144
1.0
145
0.0
146
1.0
147
0.625
 71
     0
 72
     0
 73
     0
 74
     0
 75
     0
 76
     0
 77
     1
 78
     8
170
     0
171
     3
172
     1
173
     0
174
     0
175
     0
176
     0
177
     0
178
     0
270
     2
271
     2
272
     2
273
     2
274
     3
340
11
275
     0
280
     0
281
     0
282
     0
283
     0
284
     8
285
     0
286
     0
287
     3
288
     0
  0
ENDTAB
  0
TABLE
  2
BLOCK_RECORD
  5
1
330
0
100
AcDbSymbolTable
 70
     1
  0
BLOCK_RECORD
  5
1F
330
1
100
AcDbSymbolTableRecord
100
AcDbBlockTableRecord
  2
*MODEL_SPACE
  0
BLOCK_RECORD
  5
1B
330
1
100
AcDbSymbolTableRecord
100
AcDbBlockTableRecord
  2
*PAPER_SPACE
  0
ENDTAB
  0
ENDSEC
  0
SECTION
  2
BLOCKS
  0
BLOCK
  5
20
330
1F
100
AcDbEntity
  8
0
100
AcDbBlockBegin
  2
*MODEL_SPACE
 70
     0
 10
0.0
 20
0.0
 30
0.0
  3
*MODEL_SPACE
  1

  0
ENDBLK
  5
21
330
1F
100
AcDbEntity
  8
0
100
AcDbBlockEnd
  0
BLOCK
  5
1C
330
1B
100
AcDbEntity
 67
     1
  8
0
100
AcDbBlockBegin
  2
*PAPER_SPACE
  1

  0
ENDBLK
  5
1D
330
1B
100
AcDbEntity
 67
     1
  8
0
100
AcDbBlockEnd
  0
ENDSEC
  0
SECTION
  2
ENTITIES
  0
SPLINE
  5
100
100
AcDbEntity
  8
图层_1
 62
7
100
AcDbSpline
 70
8
 71
3
 72
8
 73
4
 74
0
 40
0
 40
0
 40
0
 40
0
 40
1
 40
1
 40
1
 40
1
 10
5.655561
 20
289.794722
 30
0.0
 10
5.655561
 20
289.794722
 30
0.0
 10
8.283052
 20
289.745522
 30
0.0
 10
9.596405
 20
289.705322
 30
0.0
  0
SPLINE
  5
101
100
AcDbEntity
  8
图层_1
 62
7
100
AcDbSpline
 70
8
 71
3
 72
8
 73
4
 74
0
 40
0
 40
0
 40
0
 40
0
 40
1
 40
1
 40
1
 40
1
 10
9.596405
 20
289.705322
 30
0.0
 10
10.372852
 20
289.681522
 30
0.0
 10
11.177930
 20
289.827182
 30
0.0
 10
11.925462
 20
289.615922
 30
0.0
  0
SPLINE
  5
102
100
AcDbEntity
  8
图层_1
 62
7
100
AcDbSpline
 70
8
 71
3
 72
8
 73
4
 74
0
 40
0
 40
0
 40
0
 40
0
 40
1
 40
1
 40
1
 40
1
 10
11.925462
 20
289.615922
 30
0.0
 10
12.452874
 20
289.466872
 30
0.0
 10
12.956535
 20
289.182383
 30
0.0
 10
13.358450
 20
288.809763
 30
0.0
  0
SPLINE
  5
103
100
AcDbEntity
  8
图层_1
 62
7
100
AcDbSpline
 70
8
 71
3
 72
8
 73
4
 74
0
 40
0
 40
0
 40
0
 40
0
 40
1
 40
1
 40
1
 40
1
 10
13.358450
 20
288.809763
 30
0.0
 10
13.911021
 20
288.297473
 30
0.0
 10
14.329880
 20
287.627403
 30
0.0
 10
14.612120
 20
286.928743
 30
0.0
  0
SPLINE
  5
104
100
AcDbEntity
  8
图层_1
 62
7
100
AcDbSpline
 70
8
 71
3
 72
8
 73
4
 74
0
 40
0
 40
0
 40
0
 40
0
 40
1
 40
1
 40
1
 40
1
 10
14.612120
 20
286.928743
 30
0.0
 10
14.862174
 20
286.309763
 30
0.0
 10
14.975937
 20
285.625883
 30
0.0
 10
14.970237
 20
284.958323
 30
0.0
  0
SPLINE
  5
105
100
AcDbEntity
  8
图层_1
 62
7
100
AcDbSpline
 70
8
 71
3
 72
8
 73
4
 74
0
 40
0
 40
0
 40
0
 40
0
 40
1
 40
1
 40
1
 40
1
 10
14.970237
 20
284.958323
 30
0.0
 10
14.867876
 20
272.886113
 30
0.0
 10
15.948233
 20
262.318403
 30
0.0
 10
15.149555
 20
250.475673
 30
0.0
  0
SPLINE
  5
106
100
AcDbEntity
  8
图层_1
 62
7
100
AcDbSpline
 70
8
 71
3
 72
8
 73
4
 74
0
 40
0
 40
0
 40
0
 40
0
 40
1
 40
1
 40
1
 40
1
 10
15.149555
 20
250.475673
 30
0.0
 10
14.985169
 20
248.038173
 30
0.0
 10
14.196354
 20
245.614073
 30
0.0
 10
13.235976
 20
243.350013
 30
0.0
  0
SPLINE
  5
107
100
AcDbEntity
  8
图层_1
 62
7
100
AcDbSpline
 70
8
 71
3
 72
8
 73
4
 74
0
 40
0
 40
0
 40
0
 40
0
 40
1
 40
1
 40
1
 40
1
 10
13.235976
 20
243.350013
 30
0.0
 10
12.495931
 20
241.605393
 30
0.0
 10
11.460816
 20
239.981893
 30
0.0
 10
10.313157
 20
238.473823
 30
0.0
  0
SPLINE
  5
108
100
AcDbEntity
  8
图层_1
 62
7
100
AcDbSpline
 70
8
 71
3
 72
8
 73
4
 74
0
 40
0
 40
0
 40
0
 40
0
 40
1
 40
1
 40
1
 40
1
 10
10.313157
 20
238.473823
 30
0.0
 10
9.264509
 20
237.095863
 30
0.0
 10
8.060512
 20
235.820533
 30
0.0
 10
6.730430
 20
234.711783
 30
0.0
  0
SPLINE
  5
109
100
AcDbEntity
  8
图层_1
 62
7
100
AcDbSpline
 70
8
 71
3
 72
8
 73
4
 74
0
 40
0
 40
0
 40
0
 40
0
 40
1
 40
1
 40
1
 40
1
 10
6.730430
 20
234.711783
 30
0.0
 10
5.935365
 20
234.049023
 30
0.0
 10
4.133173
 20
233.010073
 30
0.0
 10
4.133173
 20
233.010073
 30
0.0
  0
LWPOLYLINE
  5
10a
100
AcDbEntity
  8
图层_1
 62
7
100
AcDbPolyline
 90
2
 70
0
 10
5.745481
 20
291.138302
 30
0.0
 10
5.655561
 20
289.794722
 30
0.0
  0
SPLINE
  5
10b
100
AcDbEntity
  8
图层_1
 62
7
100
AcDbSpline
 70
8
 71
3
 72
8
 73
4
 74
0
 40
0
 40
0
 40
0
 40
0
 40
1
 40
1
 40
1
 40
1
 10
3.953856
 20
232.203923
 30
0.0
 10
3.953856
 20
232.203923
 30
0.0
 10
5.066092
 20
232.177623
 30
0.0
 10
5.566160
 20
232.383243
 30
0.0
  0
SPLINE
  5
10c
100
AcDbEntity
  8
图层_1
 62
7
100
AcDbSpline
 70
8
 71
3
 72
8
 73
4
 74
0
 40
0
 40
0
 40
0
 40
0
 40
1
 40
1
 40
1
 40
1
 10
5.566160
 20
232.383243
 30
0.0
 10
7.256574
 20
233.078393
 30
0.0
 10
8.523714
 20
234.545143
 30
0.0
 10
9.865123
 20
235.786653
 30
0.0
  0
SPLINE
  5
10d
100
AcDbEntity
  8
图层_1
 62
7
100
AcDbSpline
 70
8
 71
3
 72
8
 73
4
 74
0
 40
0
 40
0
 40
0
 40
0
 40
1
 40
1
 40
1
 40
1
 10
9.865123
 20
235.786653
 30
0.0
 10
11.477626
 20
237.279053
 30
0.0
 10
13.065134
 20
238.836013
 30
0.0
 10
14.343402
 20
240.623043
 30
0.0
  0
SPLINE
  5
10e
100
AcDbEntity
  8
图层_1
 62
7
100
AcDbSpline
 70
8
 71
3
 72
8
 73
4
 74
0
 40
0
 40
0
 40
0
 40
0
 40
1
 40
1
 40
1
 40
1
 10
14.343402
 20
240.623043
 30
0.0
 10
15.586856
 20
242.361413
 30
0.0
 10
16.613370
 20
244.274393
 30
0.0
 10
17.388694
 20
246.266113
 30
0.0
  0
SPLINE
  5
10f
100
AcDbEntity
  8
图层_1
 62
7
100
AcDbSpline
 70
8
 71
3
 72
8
 73
4
 74
0
 40
0
 40
0
 40
0
 40
0
 40
1
 40
1
 40
1
 40
1
 10
17.388694
 20
246.266113
 30
0.0
 10
18.405234
 20
248.877493
 30
0.0
 10
19.098370
 20
251.636283
 30
0.0
 10
19.449034
 20
254.416513
 30
0.0
  0
SPLINE
  5
110
100
AcDbEntity
  8
图层_1
 62
7
100
AcDbSpline
 70
8
 71
3
 72
8
 73
4
 74
0
 40
0
 40
0
 40
0
 40
0
 40
1
 40
1
 40
1
 40
1
 10
19.449034
 20
254.416513
 30
0.0
 10
20.558620
 20
263.213873
 30
0.0
 10
19.538434
 20
281.017473
 30
0.0
 10
19.538434
 20
281.017473
 30
0.0
  0
LWPOLYLINE
  5
111
100
AcDbEntity
  8
图层_1
 62
7
100
AcDbPolyline
 90
2
 70
0
 10
4.133173
 20
233.010073
 30
0.0
 10
3.953856
 20
232.203923
 30
0.0
  0
SPLINE
  5
112
100
AcDbEntity
  8
图层_1
 62
7
100
AcDbSpline
 70
8
 71
3
 72
8
 73
4
 74
0
 40
0
 40
0
 40
0
 40
0
 40
1
 40
1
 40
1
 40
1
 10
44.885205
 20
257.819923
 30
0.0
 10
44.885205
 20
257.819923
 30
0.0
 10
44.843405
 20
274.890813
 30
0.0
 10
44.885205
 20
284.958323
 30
0.0
  0
SPLINE
  5
113
100
AcDbEntity
  8
图层_1
 62
7
100
AcDbSpline
 70
8
 71
3
 72
8
 73
4
 74
0
 40
0
 40
0
 40
0
 40
0
 40
1
 40
1
 40
1
 40
1
 10
44.885205
 20
284.958323
 30
0.0
 10
44.888005
 20
285.633863
 30
0.0
 10
46.318715
 20
286.391313
 30
0.0
 10
46.318715
 20
286.391313
 30
0.0
  0
LWPOLYLINE
  5
114
100
AcDbEntity
  8
图层_1
 62
7
100
AcDbPolyline
 90
4
 70
0
 10
19.538434
 20
281.017473
 30
0.0
 10
42.467265
 20
257.193093
 30
0.0
 10
44.527085
 20
257.193093
 30
0.0
 10
44.885205
 20
257.819923
 30
0.0
  0
SPLINE
  5
115
100
AcDbEntity
  8
图层_1
 62
7
100
AcDbSpline
 70
8
 71
3
 72
8
 73
4
 74
0
 40
0
 40
0
 40
0
 40
0
 40
1
 40
1
 40
1
 40
1
 10
37.093435
 20
286.391313
 30
0.0
 10
37.093435
 20
286.391313
 30
0.0
 10
39.467585
 20
286.626593
 30
0.0
 10
40.406925
 20
286.033193
 30
0.0
  0
SPLINE
  5
116
100
AcDbEntity
  8
图层_1
 62
7
100
AcDbSpline
 70
8
 71
3
 72
8
 73
4
 74
0
 40
0
 40
0
 40
0
 40
0
 40
1
 40
1
 40
1
 40
1
 10
40.406925
 20
286.033193
 30
0.0
 10
40.792205
 20
285.789803
 30
0.0
 10
41.110075
 20
285.324443
 30
0.0
 10
41.123675
 20
284.868923
 30
0.0
  0
SPLINE
  5
117
100
AcDbEntity
  8
图层_1
 62
7
100
AcDbSpline
 70
8
 71
3
 72
8
 73
4
 74
0
 40
0
 40
0
 40
0
 40
0
 40
1
 40
1
 40
1
 40
1
 10
41.123675
 20
284.868923
 30
0.0
 10
41.308875
 20
278.680043
 30
0.0
 10
40.854965
 20
265.612213
 30
0.0
 10
40.854965
 20
265.612213
 30
0.0
  0
LWPOLYLINE
  5
118
100
AcDbEntity
  8
图层_1
 62
7
100
AcDbPolyline
 90
5
 70
0
 10
46.318715
 20
286.391313
 30
0.0
 10
48.647255
 20
286.301913
 30
0.0
 10
48.826565
 20
287.197463
 30
0.0
 10
37.003515
 20
287.108063
 30
0.0
 10
37.093435
 20
286.391313
 30
0.0
  0
SPLINE
  5
119
100
AcDbEntity
  8
图层_1
 62
7
100
AcDbSpline
 70
8
 71
3
 72
8
 73
4
 74
0
 40
0
 40
0
 40
0
 40
0
 40
1
 40
1
 40
1
 40
1
 10
67.837298
 20
288.336413
 30
0.0
 10
63.293751
 20
288.336364
 30
0.0
 10
58.936317
 20
286.684866
 30
0.0
 10
55.723584
 20
283.745231
 30
0.0
  0
SPLINE
  5
11a
100
AcDbEntity
  8
图层_1
 62
7
100
AcDbSpline
 70
8
 71
3
 72
8
 73
4
 74
0
 40
0
 40
0
 40
0
 40
0
 40
1
 40
1
 40
1
 40
1
 10
55.723584
 20
283.745231
 30
0.0
 10
52.510851
 20
280.805596
 30
0.0
 10
50.705989
 20
276.818623
 30
0.0
 10
50.706048
 20
272.661403
 30
0.0
  0
SPLINE
  5
11b
100
AcDbEntity
  8
图层_1
 62
7
100
AcDbSpline
 70
8
 71
3
 72
8
 73
4
 74
0
 40
0
 40
0
 40
0
 40
0
 40
1
 40
1
 40
1
 40
1
 10
50.706048
 20
272.661403
 30
0.0
 10
50.706233
 20
264.004639
 30
0.0
 10
58.376068
 20
256.987006
 30
0.0
 10
67.837298
 20
256.986903
 30
0.0
  0
SPLINE
  5
11c
100
AcDbEntity
  8
图层_1
 62
7
100
AcDbSpline
 70
8
 71
3
 72
8
 73
4
 74
0
 40
0
 40
0
 40
0
 40
0
 40
1
 40
1
 40
1
 40
1
 10
67.837298
 20
256.986903
 30
0.0
 10
77.298528
 20
256.987006
 30
0.0
 10
84.968363
 20
264.004639
 30
0.0
 10
84.968548
 20
272.661403
 30
0.0
  0
SPLINE
  5
11d
100
AcDbEntity
  8
图层_1
 62
7
100
AcDbSpline
 70
8
 71
3
 72
8
 73
4
 74
0
 40
0
 40
0
 40
0
 40
0
 40
1
 40
1
 40
1
 40
1
 10
84.968548
 20
272.661403
 30
0.0
 10
84.968607
 20
276.818623
 30
0.0
 10
83.163745
 20
280.805596
 30
0.0
 10
79.951012
 20
283.745231
 30
0.0
  0
SPLINE
  5
11e
100
AcDbEntity
  8
图层_1
 62
7
100
AcDbSpline
 70
8
 71
3
 72
8
 73
4
 74
0
 40
0
 40
0
 40
0
 40
0
 40
1
 40
1
 40
1
 40
1
 10
79.951012
 20
283.745231
 30
0.0
 10
76.738279
 20
286.684866
 30
0.0
 10
72.380845
 20
288.336364
 30
0.0
 10
67.837298
 20
288.336413
 30
0.0
  0
LWPOLYLINE
  5
11f
100
AcDbEntity
  8
图层_1
 62
7
100
AcDbPolyline
 90
4
 70
0
 10
40.854965
 20
265.612213
 30
0.0
 10
18.463567
 20
288.630453
 30
0.0
 10
18.015533
 20
290.958992
 30
0.0
 10
5.745481
 20
291.138302
 30
0.0
  0
LWPOLYLINE
  5
120
100
AcDbEntity
  8
图层_1
 62
7
100
AcDbPolyline
 90
1
 70
1
 10
67.837298
 20
288.336413
 30
0.0
  0
SPLINE
  5
121
100
AcDbEntity
  8
图层_1
 62
7
100
AcDbSpline
 70
8
 71
3
 72
8
 73
4
 74
0
 40
0
 40
0
 40
0
 40
0
 40
1
 40
1
 40
1
 40
1
 10
96.475338
 20
287.511133
 30
0.0
 10
96.475338
 20
287.511133
 30
0.0
 10
94.677678
 20
287.027283
 30
0.0
 10
93.878088
 20
286.570623
 30
0.0
  0
SPLINE
  5
122
100
AcDbEntity
  8
图层_1
 62
7
100
AcDbSpline
 70
8
 71
3
 72
8
 73
4
 74
0
 40
0
 40
0
 40
0
 40
0
 40
1
 40
1
 40
1
 40
1
 10
93.878088
 20
286.570623
 30
0.0
 10
93.104678
 20
286.128903
 30
0.0
 10
92.394918
 20
285.547283
 30
0.0
 10
91.817748
 20
284.868923
 30
0.0
  0
SPLINE
  5
123
100
AcDbEntity
  8
图层_1
 62
7
100
AcDbSpline
 70
8
 71
3
 72
8
 73
4
 74
0
 40
0
 40
0
 40
0
 40
0
 40
1
 40
1
 40
1
 40
1
 10
91.817748
 20
284.868923
 30
0.0
 10
91.358198
 20
284.328793
 30
0.0
 10
90.992298
 20
283.696723
 30
0.0
 10
90.742878
 20
283.032863
 30
0.0
  0
SPLINE
  5
124
100
AcDbEntity
  8
图层_1
 62
7
100
AcDbSpline
 70
8
 71
3
 72
8
 73
4
 74
0
 40
0
 40
0
 40
0
 40
0
 40
1
 40
1
 40
1
 40
1
 10
90.742878
 20
283.032863
 30
0.0
 10
90.491638
 20
282.364153
 30
0.0
 10
90.367628
 20
281.641393
 30
0.0
 10
90.340318
 20
280.927563
 30
0.0
  0
SPLINE
  5
125
100
AcDbEntity
  8
图层_1
 62
7
100
AcDbSpline
 70
8
 71
3
 72
8
 73
4
 74
0
 40
0
 40
0
 40
0
 40
0
 40
1
 40
1
 40
1
 40
1
 10
90.340318
 20
280.927563
 30
0.0
 10
90.309918
 20
280.131933
 30
0.0
 10
90.403818
 20
279.323523
 30
0.0
 10
90.608518
 20
278.554063
 30
0.0
  0
SPLINE
  5
126
100
AcDbEntity
  8
图层_1
 62
7
100
AcDbSpline
 70
8
 71
3
 72
8
 73
4
 74
0
 40
0
 40
0
 40
0
 40
0
 40
1
 40
1
 40
1
 40
1
 10
90.608518
 20
278.554063
 30
0.0
 10
90.821658
 20
277.752813
 30
0.0
 10
91.120918
 20
276.951403
 30
0.0
 10
91.593988
 20
276.270483
 30
0.0
  0
SPLINE
  5
127
100
AcDbEntity
  8
图层_1
 62
7
100
AcDbSpline
 70
8
 71
3
 72
8
 73
4
 74
0
 40
0
 40
0
 40
0
 40
0
 40
1
 40
1
 40
1
 40
1
 10
91.593988
 20
276.270483
 30
0.0
 10
92.148198
 20
275.472773
 30
0.0
 10
92.948768
 20
274.872343
 30
0.0
 10
93.698768
 20
274.255103
 30
0.0
  0
SPLINE
  5
128
100
AcDbEntity
  8
图层_1
 62
7
100
AcDbSpline
 70
8
 71
3
 72
8
 73
4
 74
0
 40
0
 40
0
 40
0
 40
0
 40
1
 40
1
 40
1
 40
1
 10
93.698768
 20
274.255103
 30
0.0
 10
94.699668
 20
273.431353
 30
0.0
 10
95.810938
 20
272.751413
 30
0.0
 10
96.878418
 20
272.015963
 30
0.0
  0
SPLINE
  5
129
100
AcDbEntity
  8
图层_1
 62
7
100
AcDbSpline
 70
8
 71
3
 72
8
 73
4
 74
0
 40
0
 40
0
 40
0
 40
0
 40
1
 40
1
 40
1
 40
1
 10
96.878418
 20
272.015963
 30
0.0
 10
97.560298
 20
271.546173
 30
0.0
 10
98.249598
 20
271.087753
 30
0.0
 10
98.938238
 20
270.627933
 30
0.0
  0
SPLINE
  5
12a
100
AcDbEntity
  8
图层_1
 62
7
100
AcDbSpline
 70
8
 71
3
 72
8
 73
4
 74
0
 40
0
 40
0
 40
0
 40
0
 40
1
 40
1
 40
1
 40
1
 10
98.938238
 20
270.627933
 30
0.0
 10
99.905778
 20
269.981903
 30
0.0
 10
100.948170
 20
269.437933
 30
0.0
 10
101.849180
 20
268.701953
 30
0.0
  0
SPLINE
  5
12b
100
AcDbEntity
  8
图层_1
 62
7
100
AcDbSpline
 70
8
 71
3
 72
8
 73
4
 74
0
 40
0
 40
0
 40
0
 40
0
 40
1
 40
1
 40
1
 40
1
 10
101.849180
 20
268.701953
 30
0.0
 10
102.519520
 20
268.154403
 30
0.0
 10
103.165910
 20
267.558323
 30
0.0
 10
103.685240
 20
266.865883
 30
0.0
  0
SPLINE
  5
12c
100
AcDbEntity
  8
图层_1
 62
7
100
AcDbSpline
 70
8
 71
3
 72
8
 73
4
 74
0
 40
0
 40
0
 40
0
 40
0
 40
1
 40
1
 40
1
 40
1
 10
103.685240
 20
266.865883
 30
0.0
 10
104.001900
 20
266.443663
 30
0.0
 10
104.243200
 20
265.964923
 30
0.0
 10
104.446430
 20
265.477853
 30
0.0
  0
SPLINE
  5
12d
100
AcDbEntity
  8
图层_1
 62
7
100
AcDbSpline
 70
8
 71
3
 72
8
 73
4
 74
0
 40
0
 40
0
 40
0
 40
0
 40
1
 40
1
 40
1
 40
1
 10
104.446430
 20
265.477853
 30
0.0
 10
104.668320
 20
264.946083
 30
0.0
 10
104.876150
 20
264.393323
 30
0.0
 10
104.939430
 20
263.820593
 30
0.0
  0
SPLINE
  5
12e
100
AcDbEntity
  8
图层_1
 62
7
100
AcDbSpline
 70
8
 71
3
 72
8
 73
4
 74
0
 40
0
 40
0
 40
0
 40
0
 40
1
 40
1
 40
1
 40
1
 10
104.939430
 20
263.820593
 30
0.0
 10
104.987130
 20
263.389293
 30
0.0
 10
104.937430
 20
262.946883
 30
0.0
 10
104.849530
 20
262.521963
 30
0.0
  0
SPLINE
  5
12f
100
AcDbEntity
  8
图层_1
 62
7
100
AcDbSpline
 70
8
 71
3
 72
8
 73
4
 74
0
 40
0
 40
0
 40
0
 40
0
 40
1
 40
1
 40
1
 40
1
 10
104.849530
 20
262.521963
 30
0.0
 10
104.740450
 20
261.994913
 30
0.0
 10
104.602560
 20
261.452693
 30
0.0
 10
104.312100
 20
260.999573
 30
0.0
  0
SPLINE
  5
130
100
AcDbEntity
  8
图层_1
 62
7
100
AcDbSpline
 70
8
 71
3
 72
8
 73
4
 74
0
 40
0
 40
0
 40
0
 40
0
 40
1
 40
1
 40
1
 40
1
 10
104.312100
 20
260.999573
 30
0.0
 10
103.941800
 20
260.421903
 30
0.0
 10
103.414900
 20
259.932893
 30
0.0
 10
102.834670
 20
259.566593
 30
0.0
  0
SPLINE
  5
131
100
AcDbEntity
  8
图层_1
 62
7
100
AcDbSpline
 70
8
 71
3
 72
8
 73
4
 74
0
 40
0
 40
0
 40
0
 40
0
 40
1
 40
1
 40
1
 40
1
 10
102.834670
 20
259.566593
 30
0.0
 10
102.255530
 20
259.200983
 30
0.0
 10
101.576950
 20
258.999883
 30
0.0
 10
100.908690
 20
258.849843
 30
0.0
  0
SPLINE
  5
132
100
AcDbEntity
  8
图层_1
 62
7
100
AcDbSpline
 70
8
 71
3
 72
8
 73
4
 74
0
 40
0
 40
0
 40
0
 40
0
 40
1
 40
1
 40
1
 40
1
 10
100.908690
 20
258.849843
 30
0.0
 10
99.885398
 20
258.620083
 30
0.0
 10
98.812028
 20
258.431553
 30
0.0
 10
97.773988
 20
258.581123
 30
0.0
  0
SPLINE
  5
133
100
AcDbEntity
  8
图层_1
 62
7
100
AcDbSpline
 70
8
 71
3
 72
8
 73
4
 74
0
 40
0
 40
0
 40
0
 40
0
 40
1
 40
1
 40
1
 40
1
 10
97.773988
 20
258.581123
 30
0.0
 10
96.838368
 20
258.715933
 30
0.0
 10
95.949108
 20
259.136133
 30
0.0
 10
95.131778
 20
259.611033
 30
0.0
  0
SPLINE
  5
134
100
AcDbEntity
  8
图层_1
 62
7
100
AcDbSpline
 70
8
 71
3
 72
8
 73
4
 74
0
 40
0
 40
0
 40
0
 40
0
 40
1
 40
1
 40
1
 40
1
 10
95.131778
 20
259.611033
 30
0.0
 10
94.168238
 20
260.170893
 30
0.0
 10
93.244548
 20
260.856913
 30
0.0
 10
92.534518
 20
261.715813
 30
0.0
  0
SPLINE
  5
135
100
AcDbEntity
  8
图层_1
 62
7
100
AcDbSpline
 70
8
 71
3
 72
8
 73
4
 74
0
 40
0
 40
0
 40
0
 40
0
 40
1
 40
1
 40
1
 40
1
 10
92.534518
 20
261.715813
 30
0.0
 10
91.930278
 20
262.446743
 30
0.0
 10
91.563088
 20
263.351403
 30
0.0
 10
91.190928
 20
264.223673
 30
0.0
  0
SPLINE
  5
136
100
AcDbEntity
  8
图层_1
 62
7
100
AcDbSpline
 70
8
 71
3
 72
8
 73
4
 74
0
 40
0
 40
0
 40
0
 40
0
 40
1
 40
1
 40
1
 40
1
 10
91.190928
 20
264.223673
 30
0.0
 10
90.926008
 20
264.844573
 30
0.0
 10
91.096828
 20
265.735063
 30
0.0
 10
90.564098
 20
266.149653
 30
0.0
  0
SPLINE
  5
137
100
AcDbEntity
  8
图层_1
 62
7
100
AcDbSpline
 70
8
 71
3
 72
8
 73
4
 74
0
 40
0
 40
0
 40
0
 40
0
 40
1
 40
1
 40
1
 40
1
 10
90.564098
 20
266.149653
 30
0.0
 10
90.386988
 20
266.287473
 30
0.0
 10
89.857988
 20
266.415863
 30
0.0
 10
89.892298
 20
266.194053
 30
0.0
  0
SPLINE
  5
138
100
AcDbEntity
  8
图层_1
 62
7
100
AcDbSpline
 70
8
 71
3
 72
8
 73
4
 74
0
 40
0
 40
0
 40
0
 40
0
 40
1
 40
1
 40
1
 40
1
 10
89.892298
 20
266.194053
 30
0.0
 10
90.352118
 20
263.221963
 30
0.0
 10
90.590658
 20
261.143093
 30
0.0
 10
90.922218
 20
258.267403
 30
0.0
  0
SPLINE
  5
139
100
AcDbEntity
  8
图层_1
 62
7
100
AcDbSpline
 70
8
 71
3
 72
8
 73
4
 74
0
 40
0
 40
0
 40
0
 40
0
 40
1
 40
1
 40
1
 40
1
 10
90.922218
 20
258.267403
 30
0.0
 10
90.940718
 20
258.107003
 30
0.0
 10
91.325288
 20
257.999203
 30
0.0
 10
91.325288
 20
257.999203
 30
0.0
  0
SPLINE
  5
13a
100
AcDbEntity
  8
图层_1
 62
7
100
AcDbSpline
 70
8
 71
3
 72
8
 73
4
 74
0
 40
0
 40
0
 40
0
 40
0
 40
1
 40
1
 40
1
 40
1
 10
91.325288
 20
257.999203
 30
0.0
 10
91.325288
 20
257.999203
 30
0.0
 10
91.905518
 20
258.668453
 30
0.0
 10
92.310238
 20
258.760403
 30
0.0
  0
SPLINE
  5
13b
100
AcDbEntity
  8
图层_1
 62
7
100
AcDbSpline
 70
8
 71
3
 72
8
 73
4
 74
0
 40
0
 40
0
 40
0
 40
0
 40
1
 40
1
 40
1
 40
1
 10
92.310238
 20
258.760403
 30
0.0
 10
92.518658
 20
258.807703
 30
0.0
 10
92.730988
 20
258.680803
 30
0.0
 10
92.937598
 20
258.626043
 30
0.0
  0
SPLINE
  5
13c
100
AcDbEntity
  8
图层_1
 62
7
100
AcDbSpline
 70
8
 71
3
 72
8
 73
4
 74
0
 40
0
 40
0
 40
0
 40
0
 40
1
 40
1
 40
1
 40
1
 10
92.937598
 20
258.626043
 30
0.0
 10
93.845768
 20
258.385533
 30
0.0
 10
95.624248
 20
257.774933
 30
0.0
 10
95.624248
 20
257.774933
 30
0.0
  0
LWPOLYLINE
  5
13d
100
AcDbEntity
  8
图层_1
 62
7
100
AcDbPolyline
 90
2
 70
0
 10
98.848838
 20
287.869253
 30
0.0
 10
96.475338
 20
287.511133
 30
0.0
  0
SPLINE
  5
13e
100
AcDbEntity
  8
图层_1
 62
7
100
AcDbSpline
 70
8
 71
3
 72
8
 73
4
 74
0
 40
0
 40
0
 40
0
 40
0
 40
1
 40
1
 40
1
 40
1
 10
96.967838
 20
257.327413
 30
0.0
 10
96.967838
 20
257.327413
 30
0.0
 10
98.279968
 20
257.184933
 30
0.0
 10
98.938258
 20
257.193053
 30
0.0
  0
SPLINE
  5
13f
100
AcDbEntity
  8
图层_1
 62
7
100
AcDbSpline
 70
8
 71
3
 72
8
 73
4
 74
0
 40
0
 40
0
 40
0
 40
0
 40
1
 40
1
 40
1
 40
1
 10
98.938258
 20
257.193053
 30
0.0
 10
100.227480
 20
257.208953
 30
0.0
 10
101.549000
 20
257.201053
 30
0.0
 10
102.789710
 20
257.551173
 30
0.0
  0
SPLINE
  5
140
100
AcDbEntity
  8
图层_1
 62
7
100
AcDbSpline
 70
8
 71
3
 72
8
 73
4
 74
0
 40
0
 40
0
 40
0
 40
0
 40
1
 40
1
 40
1
 40
1
 10
102.789710
 20
257.551173
 30
0.0
 10
103.958930
 20
257.881643
 30
0.0
 10
105.084660
 20
258.437253
 30
0.0
 10
106.058760
 20
259.163473
 30
0.0
  0
SPLINE
  5
141
100
AcDbEntity
  8
图层_1
 62
7
100
AcDbSpline
 70
8
 71
3
 72
8
 73
4
 74
0
 40
0
 40
0
 40
0
 40
0
 40
1
 40
1
 40
1
 40
1
 10
106.058760
 20
259.163473
 30
0.0
 10
106.956420
 20
259.832703
 30
0.0
 10
107.794220
 20
260.650333
 30
0.0
 10
108.342860
 20
261.626373
 30
0.0
  0
SPLINE
  5
142
100
AcDbEntity
  8
图层_1
 62
7
100
AcDbSpline
 70
8
 71
3
 72
8
 73
4
 74
0
 40
0
 40
0
 40
0
 40
0
 40
1
 40
1
 40
1
 40
1
 10
108.342860
 20
261.626373
 30
0.0
 10
108.905520
 20
262.627333
 30
0.0
 10
109.182790
 20
263.796533
 30
0.0
 10
109.283370
 20
264.940383
 30
0.0
  0
SPLINE
  5
143
100
AcDbEntity
  8
图层_1
 62
7
100
AcDbSpline
 70
8
 71
3
 72
8
 73
4
 74
0
 40
0
 40
0
 40
0
 40
0
 40
1
 40
1
 40
1
 40
1
 10
109.283370
 20
264.940383
 30
0.0
 10
109.374070
 20
265.971693
 30
0.0
 10
109.294670
 20
267.047163
 30
0.0
 10
108.969690
 20
268.030113
 30
0.0
  0
SPLINE
  5
144
100
AcDbEntity
  8
图层_1
 62
7
100
AcDbSpline
 70
8
 71
3
 72
8
 73
4
 74
0
 40
0
 40
0
 40
0
 40
0
 40
1
 40
1
 40
1
 40
1
 10
108.969690
 20
268.030113
 30
0.0
 10
108.685980
 20
268.888133
 30
0.0
 10
108.151330
 20
269.657633
 30
0.0
 10
107.581660
 20
270.359173
 30
0.0
  0
SPLINE
  5
145
100
AcDbEntity
  8
图层_1
 62
7
100
AcDbSpline
 70
8
 71
3
 72
8
 73
4
 74
0
 40
0
 40
0
 40
0
 40
0
 40
1
 40
1
 40
1
 40
1
 10
107.581660
 20
270.359173
 30
0.0
 10
107.095520
 20
270.957853
 30
0.0
 10
106.483300
 20
271.446183
 30
0.0
 10
105.879960
 20
271.926523
 30
0.0
  0
SPLINE
  5
146
100
AcDbEntity
  8
图层_1
 62
7
100
AcDbSpline
 70
8
 71
3
 72
8
 73
4
 74
0
 40
0
 40
0
 40
0
 40
0
 40
1
 40
1
 40
1
 40
1
 10
105.879960
 20
271.926523
 30
0.0
 10
104.577770
 20
272.963243
 30
0.0
 10
103.186170
 20
273.889663
 30
0.0
 10
101.759800
 20
274.747533
 30
0.0
  0
SPLINE
  5
147
100
AcDbEntity
  8
图层_1
 62
7
100
AcDbSpline
 70
8
 71
3
 72
8
 73
4
 74
0
 40
0
 40
0
 40
0
 40
0
 40
1
 40
1
 40
1
 40
1
 10
101.759800
 20
274.747533
 30
0.0
 10
101.153280
 20
275.112313
 30
0.0
 10
100.471320
 20
275.345943
 30
0.0
 10
99.878768
 20
275.733003
 30
0.0
  0
SPLINE
  5
148
100
AcDbEntity
  8
图层_1
 62
7
100
AcDbSpline
 70
8
 71
3
 72
8
 73
4
 74
0
 40
0
 40
0
 40
0
 40
0
 40
1
 40
1
 40
1
 40
1
 10
99.878768
 20
275.733003
 30
0.0
 10
98.918488
 20
276.360273
 30
0.0
 10
97.191598
 20
277.882743
 30
0.0
 10
97.191598
 20
277.882743
 30
0.0
  0
SPLINE
  5
149
100
AcDbEntity
  8
图层_1
 62
7
100
AcDbSpline
 70
8
 71
3
 72
8
 73
4
 74
0
 40
0
 40
0
 40
0
 40
0
 40
1
 40
1
 40
1
 40
1
 10
97.191598
 20
277.882743
 30
0.0
 10
97.191598
 20
277.882743
 30
0.0
 10
95.809548
 20
278.949293
 30
0.0
 10
95.355538
 20
279.673853
 30
0.0
  0
SPLINE
  5
14a
100
AcDbEntity
  8
图层_1
 62
7
100
AcDbSpline
 70
8
 71
3
 72
8
 73
4
 74
0
 40
0
 40
0
 40
0
 40
0
 40
1
 40
1
 40
1
 40
1
 10
95.355538
 20
279.673853
 30
0.0
 10
95.129958
 20
280.033863
 30
0.0
 10
95.020508
 20
280.463723
 30
0.0
 10
94.952458
 20
280.883083
 30
0.0
  0
SPLINE
  5
14b
100
AcDbEntity
  8
图层_1
 62
7
100
AcDbSpline
 70
8
 71
3
 72
8
 73
4
 74
0
 40
0
 40
0
 40
0
 40
0
 40
1
 40
1
 40
1
 40
1
 10
94.952458
 20
280.883083
 30
0.0
 10
94.875958
 20
281.354603
 30
0.0
 10
94.872658
 20
281.845083
 30
0.0
 10
94.952458
 20
282.316063
 30
0.0
  0
SPLINE
  5
14c
100
AcDbEntity
  8
图层_1
 62
7
100
AcDbSpline
 70
8
 71
3
 72
8
 73
4
 74
0
 40
0
 40
0
 40
0
 40
0
 40
1
 40
1
 40
1
 40
1
 10
94.952458
 20
282.316063
 30
0.0
 10
95.066008
 20
282.986333
 30
0.0
 10
95.238828
 20
283.681523
 30
0.0
 10
95.624248
 20
284.241533
 30
0.0
  0
SPLINE
  5
14d
100
AcDbEntity
  8
图层_1
 62
7
100
AcDbSpline
 70
8
 71
3
 72
8
 73
4
 74
0
 40
0
 40
0
 40
0
 40
0
 40
1
 40
1
 40
1
 40
1
 10
95.624248
 20
284.241533
 30
0.0
 10
95.978588
 20
284.756383
 30
0.0
 10
96.492978
 20
285.181983
 30
0.0
 10
97.057238
 20
285.450763
 30
0.0
  0
SPLINE
  5
14e
100
AcDbEntity
  8
图层_1
 62
7
100
AcDbSpline
 70
8
 71
3
 72
8
 73
4
 74
0
 40
0
 40
0
 40
0
 40
0
 40
1
 40
1
 40
1
 40
1
 10
97.057238
 20
285.450763
 30
0.0
 10
97.921538
 20
285.862463
 30
0.0
 10
98.923908
 20
285.919413
 30
0.0
 10
99.878768
 20
285.988193
 30
0.0
  0
SPLINE
  5
14f
100
AcDbEntity
  8
图层_1
 62
7
100
AcDbSpline
 70
8
 71
3
 72
8
 73
4
 74
0
 40
0
 40
0
 40
0
 40
0
 40
1
 40
1
 40
1
 40
1
 10
99.878768
 20
285.988193
 30
0.0
 10
100.549440
 20
286.036493
 30
0.0
 10
101.240090
 20
286.054693
 30
0.0
 10
101.894160
 20
285.898793
 30
0.0
  0
SPLINE
  5
150
100
AcDbEntity
  8
图层_1
 62
7
100
AcDbSpline
 70
8
 71
3
 72
8
 73
4
 74
0
 40
0
 40
0
 40
0
 40
0
 40
1
 40
1
 40
1
 40
1
 10
101.894160
 20
285.898793
 30
0.0
 10
102.706520
 20
285.705103
 30
0.0
 10
103.505140
 20
285.363933
 30
0.0
 10
104.177740
 20
284.868883
 30
0.0
  0
SPLINE
  5
151
100
AcDbEntity
  8
图层_1
 62
7
100
AcDbSpline
 70
8
 71
3
 72
8
 73
4
 74
0
 40
0
 40
0
 40
0
 40
0
 40
1
 40
1
 40
1
 40
1
 10
104.177740
 20
284.868883
 30
0.0
 10
105.029370
 20
284.242063
 30
0.0
 10
106.282520
 20
282.495383
 30
0.0
 10
106.282520
 20
282.495383
 30
0.0
  0
LWPOLYLINE
  5
152
100
AcDbEntity
  8
图层_1
 62
7
100
AcDbPolyline
 90
2
 70
0
 10
95.624248
 20
257.774933
 30
0.0
 10
96.967838
 20
257.327413
 30
0.0
  0
SPLINE
  5
153
100
AcDbEntity
  8
图层_1
 62
7
100
AcDbSpline
 70
8
 71
3
 72
8
 73
4
 74
0
 40
0
 40
0
 40
0
 40
0
 40
1
 40
1
 40
1
 40
1
 10
138.626780
 20
287.669263
 30
0.0
 10
134.561460
 20
287.658863
 30
0.0
 10
129.363260
 20
287.536463
 30
0.0
 10
129.363260
 20
287.536463
 30
0.0
  0
LWPOLYLINE
  5
154
100
AcDbEntity
  8
图层_1
 62
7
100
AcDbPolyline
 90
10
 70
0
 10
106.282520
 20
282.495383
 30
0.0
 10
107.491750
 20
280.345643
 30
0.0
 10
108.074140
 20
280.524963
 30
0.0
 10
107.312950
 20
287.242383
 30
0.0
 10
106.372440
 20
286.704943
 30
0.0
 10
104.983890
 20
286.615043
 30
0.0
 10
104.133300
 20
286.615043
 30
0.0
 10
102.162870
 20
287.555553
 30
0.0
 10
100.684930
 20
287.779313
 30
0.0
 10
98.848838
 20
287.869253
 30
0.0
  0
SPLINE
  5
155
100
AcDbEntity
  8
图层_1
 62
7
100
AcDbSpline
 70
8
 71
3
 72
8
 73
4
 74
0
 40
0
 40
0
 40
0
 40
0
 40
1
 40
1
 40
1
 40
1
 10
129.436660
 20
287.095663
 30
0.0
 10
129.436660
 20
287.095663
 30
0.0
 10
130.831040
 20
286.393563
 30
0.0
 10
131.427750
 20
285.900383
 30
0.0
  0
SPLINE
  5
156
100
AcDbEntity
  8
图层_1
 62
7
100
AcDbSpline
 70
8
 71
3
 72
8
 73
4
 74
0
 40
0
 40
0
 40
0
 40
0
 40
1
 40
1
 40
1
 40
1
 10
131.427750
 20
285.900383
 30
0.0
 10
131.754800
 20
285.630083
 30
0.0
 10
132.276800
 20
284.952123
 30
0.0
 10
132.276800
 20
284.952123
 30
0.0
  0
LWPOLYLINE
  5
157
100
AcDbEntity
  8
图层_1
 62
7
100
AcDbPolyline
 90
2
 70
0
 10
129.363260
 20
287.536463
 30
0.0
 10
129.436660
 20
287.095663
 30
0.0
  0
SPLINE
  5
158
100
AcDbEntity
  8
图层_1
 62
7
100
AcDbSpline
 70
8
 71
3
 72
8
 73
4
 74
0
 40
0
 40
0
 40
0
 40
0
 40
1
 40
1
 40
1
 40
1
 10
132.449930
 20
260.346893
 30
0.0
 10
132.449930
 20
260.346893
 30
0.0
 10
131.870860
 20
258.949483
 30
0.0
 10
131.304270
 20
258.496363
 30
0.0
  0
SPLINE
  5
159
100
AcDbEntity
  8
图层_1
 62
7
100
AcDbSpline
 70
8
 71
3
 72
8
 73
4
 74
0
 40
0
 40
0
 40
0
 40
0
 40
1
 40
1
 40
1
 40
1
 10
131.304270
 20
258.496363
 30
0.0
 10
130.729260
 20
258.036503
 30
0.0
 10
129.216540
 20
257.774963
 30
0.0
 10
129.216540
 20
257.774963
 30
0.0
  0
LWPOLYLINE
  5
15a
100
AcDbEntity
  8
图层_1
 62
7
100
AcDbPolyline
 90
15
 70
0
 10
132.276800
 20
284.952123
 30
0.0
 10
132.445260
 20
284.294283
 30
0.0
 10
132.376060
 20
272.177703
 30
0.0
 10
130.943070
 20
272.214403
 30
0.0
 10
129.620670
 20
272.067643
 30
0.0
 10
129.032590
 20
271.553463
 30
0.0
 10
128.555100
 20
270.928693
 30
0.0
 10
127.967020
 20
269.679163
 30
0.0
 10
128.187680
 20
268.944323
 30
0.0
 10
128.407820
 20
268.870923
 30
0.0
 10
129.216560
 20
269.826423
 30
0.0
 10
130.685720
 20
270.193843
 30
0.0
 10
132.302680
 20
270.267243
 30
0.0
 10
132.523330
 20
270.193843
 30
0.0
 10
132.449930
 20
260.346893
 30
0.0
  0
SPLINE
  5
15b
100
AcDbEntity
  8
图层_1
 62
7
100
AcDbSpline
 70
8
 71
3
 72
8
 73
4
 74
0
 40
0
 40
0
 40
0
 40
0
 40
1
 40
1
 40
1
 40
1
 10
140.411200
 20
257.564673
 30
0.0
 10
140.411200
 20
257.564673
 30
0.0
 10
138.857000
 20
258.003123
 30
0.0
 10
138.344150
 20
258.572883
 30
0.0
  0
SPLINE
  5
15c
100
AcDbEntity
  8
图层_1
 62
7
100
AcDbSpline
 70
8
 71
3
 72
8
 73
4
 74
0
 40
0
 40
0
 40
0
 40
0
 40
1
 40
1
 40
1
 40
1
 10
138.344150
 20
258.572883
 30
0.0
 10
137.940540
 20
259.021283
 30
0.0
 10
137.725580
 20
260.274073
 30
0.0
 10
137.725580
 20
260.274073
 30
0.0
  0
LWPOLYLINE
  5
15d
100
AcDbEntity
  8
图层_1
 62
7
100
AcDbPolyline
 90
4
 70
0
 10
129.216540
 20
257.774963
 30
0.0
 10
129.263040
 20
257.220473
 30
0.0
 10
140.454600
 20
257.120773
 30
0.0
 10
140.411200
 20
257.564673
 30
0.0
  0
SPLINE
  5
15e
100
AcDbEntity
  8
图层_1
 62
7
100
AcDbSpline
 70
8
 71
3
 72
8
 73
4
 74
0
 40
0
 40
0
 40
0
 40
0
 40
1
 40
1
 40
1
 40
1
 10
138.086000
 20
270.201113
 30
0.0
 10
138.086000
 20
270.201113
 30
0.0
 10
144.091360
 20
270.265313
 30
0.0
 10
147.104570
 20
270.648633
 30
0.0
  0
SPLINE
  5
15f
100
AcDbEntity
  8
图层_1
 62
7
100
AcDbSpline
 70
8
 71
3
 72
8
 73
4
 74
0
 40
0
 40
0
 40
0
 40
0
 40
1
 40
1
 40
1
 40
1
 10
147.104570
 20
270.648633
 30
0.0
 10
147.805900
 20
270.737833
 30
0.0
 10
148.514510
 20
270.880203
 30
0.0
 10
149.162330
 20
271.163333
 30
0.0
  0
SPLINE
  5
160
100
AcDbEntity
  8
图层_1
 62
7
100
AcDbSpline
 70
8
 71
3
 72
8
 73
4
 74
0
 40
0
 40
0
 40
0
 40
0
 40
1
 40
1
 40
1
 40
1
 10
149.162330
 20
271.163333
 30
0.0
 10
149.859580
 20
271.468053
 30
0.0
 10
150.773370
 20
272.247473
 30
0.0
 10
151.353410
 20
272.739973
 30
0.0
  0
SPLINE
  5
161
100
AcDbEntity
  8
图层_1
 62
7
100
AcDbSpline
 70
8
 71
3
 72
8
 73
4
 74
0
 40
0
 40
0
 40
0
 40
0
 40
1
 40
1
 40
1
 40
1
 10
151.353410
 20
272.739973
 30
0.0
 10
151.961350
 20
273.256163
 30
0.0
 10
152.453130
 20
274.140143
 30
0.0
 10
152.923340
 20
274.784293
 30
0.0
  0
SPLINE
  5
162
100
AcDbEntity
  8
图层_1
 62
7
100
AcDbSpline
 70
8
 71
3
 72
8
 73
4
 74
0
 40
0
 40
0
 40
0
 40
0
 40
1
 40
1
 40
1
 40
1
 10
152.923340
 20
274.784293
 30
0.0
 10
153.272640
 20
275.262833
 30
0.0
 10
153.480520
 20
275.811333
 30
0.0
 10
153.664900
 20
276.374383
 30
0.0
  0
SPLINE
  5
163
100
AcDbEntity
  8
图层_1
 62
7
100
AcDbSpline
 70
8
 71
3
 72
8
 73
4
 74
0
 40
0
 40
0
 40
0
 40
0
 40
1
 40
1
 40
1
 40
1
 10
153.664900
 20
276.374383
 30
0.0
 10
153.933450
 20
277.194443
 30
0.0
 10
153.947810
 20
278.083463
 30
0.0
 10
153.958930
 20
278.946313
 30
0.0
  0
SPLINE
  5
164
100
AcDbEntity
  8
图层_1
 62
7
100
AcDbSpline
 70
8
 71
3
 72
8
 73
4
 74
0
 40
0
 40
0
 40
0
 40
0
 40
1
 40
1
 40
1
 40
1
 10
153.958930
 20
278.946313
 30
0.0
 10
153.969630
 20
279.782323
 30
0.0
 10
153.971830
 20
280.642103
 30
0.0
 10
153.738280
 20
281.444873
 30
0.0
  0
SPLINE
  5
165
100
AcDbEntity
  8
图层_1
 62
7
100
AcDbSpline
 70
8
 71
3
 72
8
 73
4
 74
0
 40
0
 40
0
 40
0
 40
0
 40
1
 40
1
 40
1
 40
1
 10
153.738280
 20
281.444873
 30
0.0
 10
153.530120
 20
282.160193
 30
0.0
 10
153.144930
 20
282.824313
 30
0.0
 10
152.709400
 20
283.428733
 30
0.0
  0
SPLINE
  5
166
100
AcDbEntity
  8
图层_1
 62
7
100
AcDbSpline
 70
8
 71
3
 72
8
 73
4
 74
0
 40
0
 40
0
 40
0
 40
0
 40
1
 40
1
 40
1
 40
1
 10
152.709400
 20
283.428733
 30
0.0
 10
152.030870
 20
284.370353
 30
0.0
 10
151.226710
 20
285.155683
 30
0.0
 10
150.284740
 20
285.833753
 30
0.0
  0
SPLINE
  5
167
100
AcDbEntity
  8
图层_1
 62
7
100
AcDbSpline
 70
8
 71
3
 72
8
 73
4
 74
0
 40
0
 40
0
 40
0
 40
0
 40
1
 40
1
 40
1
 40
1
 10
150.284740
 20
285.833753
 30
0.0
 10
149.733460
 20
286.230593
 30
0.0
 10
149.085580
 20
286.482043
 30
0.0
 10
148.447640
 20
286.715353
 30
0.0
  0
SPLINE
  5
168
100
AcDbEntity
  8
图层_1
 62
7
100
AcDbSpline
 70
8
 71
3
 72
8
 73
4
 74
0
 40
0
 40
0
 40
0
 40
0
 40
1
 40
1
 40
1
 40
1
 10
148.447640
 20
286.715353
 30
0.0
 10
147.805940
 20
286.950013
 30
0.0
 10
147.140600
 20
287.140423
 30
0.0
 10
146.463270
 20
287.230053
 30
0.0
  0
SPLINE
  5
169
100
AcDbEntity
  8
图层_1
 62
7
100
AcDbSpline
 70
8
 71
3
 72
8
 73
4
 74
0
 40
0
 40
0
 40
0
 40
0
 40
1
 40
1
 40
1
 40
1
 10
146.463270
 20
287.230053
 30
0.0
 10
144.371870
 20
287.506773
 30
0.0
 10
141.408500
 20
287.676413
 30
0.0
 10
138.627050
 20
287.669293
 30
0.0
  0
LWPOLYLINE
  5
16a
100
AcDbEntity
  8
图层_1
 62
7
100
AcDbPolyline
 90
3
 70
0
 10
137.725580
 20
260.274073
 30
0.0
 10
137.718580
 20
269.833693
 30
0.0
 10
138.086000
 20
270.201113
 30
0.0
  0
SPLINE
  5
16b
100
AcDbEntity
  8
图层_1
 62
7
100
AcDbSpline
 70
8
 71
3
 72
8
 73
4
 74
0
 40
0
 40
0
 40
0
 40
0
 40
1
 40
1
 40
1
 40
1
 10
224.510940
 20
287.262053
 30
0.0
 10
219.967393
 20
287.262004
 30
0.0
 10
215.609959
 20
285.610506
 30
0.0
 10
212.397226
 20
282.670871
 30
0.0
  0
SPLINE
  5
16c
100
AcDbEntity
  8
图层_1
 62
7
100
AcDbSpline
 70
8
 71
3
 72
8
 73
4
 74
0
 40
0
 40
0
 40
0
 40
0
 40
1
 40
1
 40
1
 40
1
 10
212.397226
 20
282.670871
 30
0.0
 10
209.184493
 20
279.731236
 30
0.0
 10
207.379631
 20
275.744263
 30
0.0
 10
207.379690
 20
271.587043
 30
0.0
  0
SPLINE
  5
16d
100
AcDbEntity
  8
图层_1
 62
7
100
AcDbSpline
 70
8
 71
3
 72
8
 73
4
 74
0
 40
0
 40
0
 40
0
 40
0
 40
1
 40
1
 40
1
 40
1
 10
207.379690
 20
271.587043
 30
0.0
 10
207.379881
 20
262.930283
 30
0.0
 10
215.049714
 20
255.912656
 30
0.0
 10
224.510940
 20
255.912553
 30
0.0
  0
SPLINE
  5
16e
100
AcDbEntity
  8
图层_1
 62
7
100
AcDbSpline
 70
8
 71
3
 72
8
 73
4
 74
0
 40
0
 40
0
 40
0
 40
0
 40
1
 40
1
 40
1
 40
1
 10
224.510940
 20
255.912553
 30
0.0
 10
233.972166
 20
255.912656
 30
0.0
 10
241.641999
 20
262.930283
 30
0.0
 10
241.642190
 20
271.587043
 30
0.0
  0
SPLINE
  5
16f
100
AcDbEntity
  8
图层_1
 62
7
100
AcDbSpline
 70
8
 71
3
 72
8
 73
4
 74
0
 40
0
 40
0
 40
0
 40
0
 40
1
 40
1
 40
1
 40
1
 10
241.642190
 20
271.587043
 30
0.0
 10
241.642249
 20
275.744263
 30
0.0
 10
239.837387
 20
279.731236
 30
0.0
 10
236.624654
 20
282.670871
 30
0.0
  0
SPLINE
  5
170
100
AcDbEntity
  8
图层_1
 62
7
100
AcDbSpline
 70
8
 71
3
 72
8
 73
4
 74
0
 40
0
 40
0
 40
0
 40
0
 40
1
 40
1
 40
1
 40
1
 10
236.624654
 20
282.670871
 30
0.0
 10
233.411921
 20
285.610506
 30
0.0
 10
229.054487
 20
287.262004
 30
0.0
 10
224.510940
 20
287.262053
 30
0.0
  0
LWPOLYLINE
  5
171
100
AcDbEntity
  8
图层_1
 62
7
100
AcDbPolyline
 90
2
 70
0
 10
138.627050
 20
287.669293
 30
0.0
 10
138.626780
 20
287.669263
 30
0.0
  0
LWPOLYLINE
  5
172
100
AcDbEntity
  8
图层_1
 62
7
100
AcDbPolyline
 90
1
 70
1
 10
224.510940
 20
287.262053
 30
0.0
  0
SPLINE
  5
173
100
AcDbEntity
  8
图层_1
 62
7
100
AcDbSpline
 70
8
 71
3
 72
8
 73
4
 74
0
 40
0
 40
0
 40
0
 40
0
 40
1
 40
1
 40
1
 40
1
 10
191.568250
 20
286.668813
 30
0.0
 10
190.880150
 20
286.675813
 30
0.0
 10
190.193060
 20
286.652313
 30
0.0
 10
189.510490
 20
286.577313
 30
0.0
  0
SPLINE
  5
174
100
AcDbEntity
  8
图层_1
 62
7
100
AcDbSpline
 70
8
 71
3
 72
8
 73
4
 74
0
 40
0
 40
0
 40
0
 40
0
 40
1
 40
1
 40
1
 40
1
 10
189.510490
 20
286.577313
 30
0.0
 10
188.552860
 20
286.472193
 30
0.0
 10
187.608580
 20
286.237563
 30
0.0
 10
186.688960
 20
285.950483
 30
0.0
  0
SPLINE
  5
175
100
AcDbEntity
  8
图层_1
 62
7
100
AcDbSpline
 70
8
 71
3
 72
8
 73
4
 74
0
 40
0
 40
0
 40
0
 40
0
 40
1
 40
1
 40
1
 40
1
 10
186.688960
 20
285.950483
 30
0.0
 10
185.365910
 20
285.537463
 30
0.0
 10
184.050210
 20
285.054253
 30
0.0
 10
182.837520
 20
284.383133
 30
0.0
  0
SPLINE
  5
176
100
AcDbEntity
  8
图层_1
 62
7
100
AcDbSpline
 70
8
 71
3
 72
8
 73
4
 74
0
 40
0
 40
0
 40
0
 40
0
 40
1
 40
1
 40
1
 40
1
 10
182.837520
 20
284.383133
 30
0.0
 10
181.742810
 20
283.777313
 30
0.0
 10
180.666090
 20
283.083843
 30
0.0
 10
179.792220
 20
282.188433
 30
0.0
  0
SPLINE
  5
177
100
AcDbEntity
  8
图层_1
 62
7
100
AcDbSpline
 70
8
 71
3
 72
8
 73
4
 74
0
 40
0
 40
0
 40
0
 40
0
 40
1
 40
1
 40
1
 40
1
 10
179.792220
 20
282.188433
 30
0.0
 10
178.352060
 20
280.712763
 30
0.0
 10
177.137270
 20
278.967373
 30
0.0
 10
176.299410
 20
277.083323
 30
0.0
  0
SPLINE
  5
178
100
AcDbEntity
  8
图层_1
 62
7
100
AcDbSpline
 70
8
 71
3
 72
8
 73
4
 74
0
 40
0
 40
0
 40
0
 40
0
 40
1
 40
1
 40
1
 40
1
 10
176.299410
 20
277.083323
 30
0.0
 10
175.756530
 20
275.862593
 30
0.0
 10
175.504560
 20
274.515473
 30
0.0
 10
175.358900
 20
273.187433
 30
0.0
  0
SPLINE
  5
179
100
AcDbEntity
  8
图层_1
 62
7
100
AcDbSpline
 70
8
 71
3
 72
8
 73
4
 74
0
 40
0
 40
0
 40
0
 40
0
 40
1
 40
1
 40
1
 40
1
 10
175.358900
 20
273.187433
 30
0.0
 10
175.181470
 20
271.569753
 30
0.0
 10
175.192710
 20
269.913263
 30
0.0
 10
175.448300
 20
268.306083
 30
0.0
  0
SPLINE
  5
17a
100
AcDbEntity
  8
图层_1
 62
7
100
AcDbSpline
 70
8
 71
3
 72
8
 73
4
 74
0
 40
0
 40
0
 40
0
 40
0
 40
1
 40
1
 40
1
 40
1
 10
175.448300
 20
268.306083
 30
0.0
 10
175.688580
 20
266.795153
 30
0.0
 10
176.086140
 20
265.274613
 30
0.0
 10
176.791890
 20
263.917203
 30
0.0
  0
SPLINE
  5
17b
100
AcDbEntity
  8
图层_1
 62
7
100
AcDbSpline
 70
8
 71
3
 72
8
 73
4
 74
0
 40
0
 40
0
 40
0
 40
0
 40
1
 40
1
 40
1
 40
1
 10
176.791890
 20
263.917203
 30
0.0
 10
177.542600
 20
262.473313
 30
0.0
 10
178.580800
 20
261.151833
 30
0.0
 10
179.792740
 20
260.065753
 30
0.0
  0
SPLINE
  5
17c
100
AcDbEntity
  8
图层_1
 62
7
100
AcDbSpline
 70
8
 71
3
 72
8
 73
4
 74
0
 40
0
 40
0
 40
0
 40
0
 40
1
 40
1
 40
1
 40
1
 10
179.792740
 20
260.065753
 30
0.0
 10
180.746070
 20
259.211423
 30
0.0
 10
181.909440
 20
258.607873
 30
0.0
 10
183.061790
 20
258.050373
 30
0.0
  0
SPLINE
  5
17d
100
AcDbEntity
  8
图层_1
 62
7
100
AcDbSpline
 70
8
 71
3
 72
8
 73
4
 74
0
 40
0
 40
0
 40
0
 40
0
 40
1
 40
1
 40
1
 40
1
 10
183.061790
 20
258.050373
 30
0.0
 10
184.162780
 20
257.517723
 30
0.0
 10
185.324660
 20
257.097473
 30
0.0
 10
186.510160
 20
256.796703
 30
0.0
  0
SPLINE
  5
17e
100
AcDbEntity
  8
图层_1
 62
7
100
AcDbSpline
 70
8
 71
3
 72
8
 73
4
 74
0
 40
0
 40
0
 40
0
 40
0
 40
1
 40
1
 40
1
 40
1
 10
186.510160
 20
256.796703
 30
0.0
 10
187.490340
 20
256.548023
 30
0.0
 10
188.501670
 20
256.418523
 30
0.0
 10
189.510490
 20
256.348673
 30
0.0
  0
SPLINE
  5
17f
100
AcDbEntity
  8
图层_1
 62
7
100
AcDbSpline
 70
8
 71
3
 72
8
 73
4
 74
0
 40
0
 40
0
 40
0
 40
0
 40
1
 40
1
 40
1
 40
1
 10
189.510490
 20
256.348673
 30
0.0
 10
191.014650
 20
256.244523
 30
0.0
 10
192.532700
 20
256.246003
 30
0.0
 10
194.033210
 20
256.393673
 30
0.0
  0
SPLINE
  5
180
100
AcDbEntity
  8
图层_1
 62
7
100
AcDbSpline
 70
8
 71
3
 72
8
 73
4
 74
0
 40
0
 40
0
 40
0
 40
0
 40
1
 40
1
 40
1
 40
1
 10
194.033210
 20
256.393673
 30
0.0
 10
195.076300
 20
256.496293
 30
0.0
 10
197.123470
 20
256.976073
 30
0.0
 10
197.123470
 20
256.976073
 30
0.0
  0
LWPOLYLINE
  5
181
100
AcDbEntity
  8
图层_1
 62
7
100
AcDbPolyline
 90
28
 70
1
 10
157.906740
 20
287.079123
 30
0.0
 10
157.906740
 20
286.433163
 30
0.0
 10
160.296770
 20
286.368563
 30
0.0
 10
161.136510
 20
286.110183
 30
0.0
 10
161.395410
 20
285.787203
 30
0.0
 10
161.782990
 20
285.270433
 30
0.0
 10
162.041370
 20
285.012053
 30
0.0
 10
162.041370
 20
284.366103
 30
0.0
 10
162.041370
 20
259.430673
 30
0.0
 10
161.847580
 20
258.978503
 30
0.0
 10
161.395410
 20
258.332543
 30
0.0
 10
160.619750
 20
257.880383
 30
0.0
 10
159.134050
 20
257.686593
 30
0.0
 10
157.842140
 20
257.621993
 30
0.0
 10
158.035930
 20
256.976043
 30
0.0
 10
171.666620
 20
257.105233
 30
0.0
 10
171.666620
 20
257.751183
 30
0.0
 10
168.630110
 20
257.944973
 30
0.0
 10
168.177950
 20
258.267953
 30
0.0
 10
167.661180
 20
258.849313
 30
0.0
 10
167.338200
 20
259.689053
 30
0.0
 10
167.402800
 20
284.495293
 30
0.0
 10
167.919560
 20
285.335033
 30
0.0
 10
168.177950
 20
285.851793
 30
0.0
 10
169.146880
 20
286.368563
 30
0.0
 10
170.438790
 20
286.562353
 30
0.0
 10
171.472830
 20
286.626953
 30
0.0
 10
171.472830
 20
287.079123
 30
0.0
  0
SPLINE
  5
182
100
AcDbEntity
  8
图层_1
 62
7
100
AcDbSpline
 70
8
 71
3
 72
8
 73
4
 74
0
 40
0
 40
0
 40
0
 40
0
 40
1
 40
1
 40
1
 40
1
 10
203.258490
 20
259.438973
 30
0.0
 10
203.258490
 20
259.438973
 30
0.0
 10
203.592230
 20
260.751363
 30
0.0
 10
203.751480
 20
261.409393
 30
0.0
  0
SPLINE
  5
183
100
AcDbEntity
  8
图层_1
 62
7
100
AcDbSpline
 70
8
 71
3
 72
8
 73
4
 74
0
 40
0
 40
0
 40
0
 40
0
 40
1
 40
1
 40
1
 40
1
 10
203.751480
 20
261.409393
 30
0.0
 10
203.920960
 20
262.109733
 30
0.0
 10
204.243960
 20
263.514173
 30
0.0
 10
204.243960
 20
263.514173
 30
0.0
  0
LWPOLYLINE
  5
184
100
AcDbEntity
  8
图层_1
 62
7
100
AcDbPolyline
 90
4
 70
0
 10
197.123470
 20
256.976073
 30
0.0
 10
201.243630
 20
258.229743
 30
0.0
 10
202.945330
 20
258.946493
 30
0.0
 10
203.258490
 20
259.438973
 30
0.0
  0
SPLINE
  5
185
100
AcDbEntity
  8
图层_1
 62
7
100
AcDbSpline
 70
8
 71
3
 72
8
 73
4
 74
0
 40
0
 40
0
 40
0
 40
0
 40
1
 40
1
 40
1
 40
1
 10
197.481580
 20
258.722213
 30
0.0
 10
197.481580
 20
258.722213
 30
0.0
 10
195.386910
 20
258.051453
 30
0.0
 10
194.301930
 20
257.916063
 30
0.0
  0
SPLINE
  5
186
100
AcDbEntity
  8
图层_1
 62
7
100
AcDbSpline
 70
8
 71
3
 72
8
 73
4
 74
0
 40
0
 40
0
 40
0
 40
0
 40
1
 40
1
 40
1
 40
1
 10
194.301930
 20
257.916063
 30
0.0
 10
193.131730
 20
257.770033
 30
0.0
 10
191.925460
 20
257.710903
 30
0.0
 10
190.764160
 20
257.916063
 30
0.0
  0
SPLINE
  5
187
100
AcDbEntity
  8
图层_1
 62
7
100
AcDbSpline
 70
8
 71
3
 72
8
 73
4
 74
0
 40
0
 40
0
 40
0
 40
0
 40
1
 40
1
 40
1
 40
1
 10
190.764160
 20
257.916063
 30
0.0
 10
189.434150
 20
258.151023
 30
0.0
 10
188.155150
 20
258.679963
 30
0.0
 10
186.957680
 20
259.304613
 30
0.0
  0
SPLINE
  5
188
100
AcDbEntity
  8
图层_1
 62
7
100
AcDbSpline
 70
8
 71
3
 72
8
 73
4
 74
0
 40
0
 40
0
 40
0
 40
0
 40
1
 40
1
 40
1
 40
1
 10
186.957680
 20
259.304613
 30
0.0
 10
186.036060
 20
259.785373
 30
0.0
 10
185.164650
 20
260.385763
 30
0.0
 10
184.405380
 20
261.095713
 30
0.0
  0
SPLINE
  5
189
100
AcDbEntity
  8
图层_1
 62
7
100
AcDbSpline
 70
8
 71
3
 72
8
 73
4
 74
0
 40
0
 40
0
 40
0
 40
0
 40
1
 40
1
 40
1
 40
1
 10
184.405380
 20
261.095713
 30
0.0
 10
183.606730
 20
261.842493
 30
0.0
 10
182.922710
 20
262.720193
 30
0.0
 10
182.345040
 20
263.648533
 30
0.0
  0
SPLINE
  5
18a
100
AcDbEntity
  8
图层_1
 62
7
100
AcDbSpline
 70
8
 71
3
 72
8
 73
4
 74
0
 40
0
 40
0
 40
0
 40
0
 40
1
 40
1
 40
1
 40
1
 10
182.345040
 20
263.648533
 30
0.0
 10
181.745190
 20
264.612523
 30
0.0
 10
181.225900
 20
265.647123
 30
0.0
 10
180.912050
 20
266.738263
 30
0.0
  0
SPLINE
  5
18b
100
AcDbEntity
  8
图层_1
 62
7
100
AcDbSpline
 70
8
 71
3
 72
8
 73
4
 74
0
 40
0
 40
0
 40
0
 40
0
 40
1
 40
1
 40
1
 40
1
 10
180.912050
 20
266.738263
 30
0.0
 10
180.583460
 20
267.880633
 30
0.0
 10
180.497450
 20
269.088333
 30
0.0
 10
180.464020
 20
270.276553
 30
0.0
  0
SPLINE
  5
18c
100
AcDbEntity
  8
图层_1
 62
7
100
AcDbSpline
 70
8
 71
3
 72
8
 73
4
 74
0
 40
0
 40
0
 40
0
 40
0
 40
1
 40
1
 40
1
 40
1
 10
180.464020
 20
270.276553
 30
0.0
 10
180.427820
 20
271.562943
 30
0.0
 10
180.514620
 20
272.859203
 30
0.0
 10
180.732730
 20
274.127483
 30
0.0
  0
SPLINE
  5
18d
100
AcDbEntity
  8
图层_1
 62
7
100
AcDbSpline
 70
8
 71
3
 72
8
 73
4
 74
0
 40
0
 40
0
 40
0
 40
0
 40
1
 40
1
 40
1
 40
1
 10
180.732730
 20
274.127483
 30
0.0
 10
180.921780
 20
275.226823
 30
0.0
 10
181.171960
 20
276.334453
 30
0.0
 10
181.628800
 20
277.352093
 30
0.0
  0
SPLINE
  5
18e
100
AcDbEntity
  8
图层_1
 62
7
100
AcDbSpline
 70
8
 71
3
 72
8
 73
4
 74
0
 40
0
 40
0
 40
0
 40
0
 40
1
 40
1
 40
1
 40
1
 10
181.628800
 20
277.352093
 30
0.0
 10
182.079880
 20
278.356893
 30
0.0
 10
182.719840
 20
279.278363
 30
0.0
 10
183.419910
 20
280.128663
 30
0.0
  0
SPLINE
  5
18f
100
AcDbEntity
  8
图层_1
 62
7
100
AcDbSpline
 70
8
 71
3
 72
8
 73
4
 74
0
 40
0
 40
0
 40
0
 40
0
 40
1
 40
1
 40
1
 40
1
 10
183.419910
 20
280.128663
 30
0.0
 10
184.117790
 20
280.976303
 30
0.0
 10
184.913990
 20
281.755383
 30
0.0
 10
185.793410
 20
282.412763
 30
0.0
  0
SPLINE
  5
190
100
AcDbEntity
  8
图层_1
 62
7
100
AcDbSpline
 70
8
 71
3
 72
8
 73
4
 74
0
 40
0
 40
0
 40
0
 40
0
 40
1
 40
1
 40
1
 40
1
 10
185.793410
 20
282.412763
 30
0.0
 10
186.784050
 20
283.153283
 30
0.0
 10
187.846970
 20
283.850823
 30
0.0
 10
189.018020
 20
284.248823
 30
0.0
  0
SPLINE
  5
191
100
AcDbEntity
  8
图层_1
 62
7
100
AcDbSpline
 70
8
 71
3
 72
8
 73
4
 74
0
 40
0
 40
0
 40
0
 40
0
 40
1
 40
1
 40
1
 40
1
 10
189.018020
 20
284.248823
 30
0.0
 10
189.945470
 20
284.564033
 30
0.0
 10
190.949310
 20
284.622613
 30
0.0
 10
191.928430
 20
284.651903
 30
0.0
  0
SPLINE
  5
192
100
AcDbEntity
  8
图层_1
 62
7
100
AcDbSpline
 70
8
 71
3
 72
8
 73
4
 74
0
 40
0
 40
0
 40
0
 40
0
 40
1
 40
1
 40
1
 40
1
 10
191.928430
 20
284.651903
 30
0.0
 10
193.080830
 20
284.686403
 30
0.0
 10
194.248070
 20
284.618103
 30
0.0
 10
195.376800
 20
284.383183
 30
0.0
  0
SPLINE
  5
193
100
AcDbEntity
  8
图层_1
 62
7
100
AcDbSpline
 70
8
 71
3
 72
8
 73
4
 74
0
 40
0
 40
0
 40
0
 40
0
 40
1
 40
1
 40
1
 40
1
 10
195.376800
 20
284.383183
 30
0.0
 10
196.227210
 20
284.206193
 30
0.0
 10
197.840220
 20
283.532073
 30
0.0
 10
197.840220
 20
283.532073
 30
0.0
  0
LWPOLYLINE
  5
194
100
AcDbEntity
  8
图层_1
 62
7
100
AcDbPolyline
 90
8
 70
0
 10
204.243960
 20
263.514173
 30
0.0
 10
204.467720
 20
264.454683
 30
0.0
 10
203.751480
 20
264.141013
 30
0.0
 10
203.482770
 20
263.021693
 30
0.0
 10
202.766010
 20
261.588713
 30
0.0
 10
202.094220
 20
260.513843
 30
0.0
 10
200.616790
 20
259.797083
 30
0.0
 10
197.481580
 20
258.722213
 30
0.0
  0
SPLINE
  5
195
100
AcDbEntity
  8
图层_1
 62
7
100
AcDbSpline
 70
8
 71
3
 72
8
 73
4
 74
0
 40
0
 40
0
 40
0
 40
0
 40
1
 40
1
 40
1
 40
1
 10
196.227910
 20
286.219243
 30
0.0
 10
196.227910
 20
286.219243
 30
0.0
 10
194.502090
 20
286.517513
 30
0.0
 10
193.630140
 20
286.577363
 30
0.0
  0
SPLINE
  5
196
100
AcDbEntity
  8
图层_1
 62
7
100
AcDbSpline
 70
8
 71
3
 72
8
 73
4
 74
0
 40
0
 40
0
 40
0
 40
0
 40
1
 40
1
 40
1
 40
1
 10
193.630140
 20
286.577363
 30
0.0
 10
192.945080
 20
286.624363
 30
0.0
 10
192.256350
 20
286.661863
 30
0.0
 10
191.568250
 20
286.668863
 30
0.0
  0
LWPOLYLINE
  5
197
100
AcDbEntity
  8
图层_1
 62
7
100
AcDbPolyline
 90
14
 70
0
 10
197.840220
 20
283.532073
 30
0.0
 10
200.034400
 20
282.322843
 30
0.0
 10
201.288070
 20
280.934813
 30
0.0
 10
202.542260
 20
278.650713
 30
0.0
 10
202.810970
 20
277.172773
 30
0.0
 10
203.661570
 20
277.172773
 30
0.0
 10
203.437810
 20
285.144373
 30
0.0
 10
203.124130
 20
285.591893
 30
0.0
 10
202.721060
 20
285.502493
 30
0.0
 10
202.452860
 20
285.054463
 30
0.0
 10
201.288070
 20
285.010063
 30
0.0
 10
199.945000
 20
285.054463
 30
0.0
 10
198.601410
 20
285.636853
 30
0.0
 10
196.227910
 20
286.219243
 30
0.0
  0
SPLINE
  5
198
100
AcDbEntity
  8
图层_1
 62
7
100
AcDbSpline
 70
8
 71
3
 72
8
 73
4
 74
0
 40
0
 40
0
 40
0
 40
0
 40
1
 40
1
 40
1
 40
1
 10
68.027468
 20
286.246613
 30
0.0
 10
71.311262
 20
286.246510
 30
0.0
 10
74.460522
 20
284.805136
 30
0.0
 10
76.782442
 20
282.239579
 30
0.0
  0
SPLINE
  5
199
100
AcDbEntity
  8
图层_1
 62
7
100
AcDbSpline
 70
8
 71
3
 72
8
 73
4
 74
0
 40
0
 40
0
 40
0
 40
0
 40
1
 40
1
 40
1
 40
1
 10
76.782442
 20
282.239579
 30
0.0
 10
79.104362
 20
279.674023
 30
0.0
 10
80.408741
 20
276.194443
 30
0.0
 10
80.408628
 20
272.566313
 30
0.0
  0
SPLINE
  5
19a
100
AcDbEntity
  8
图层_1
 62
7
100
AcDbSpline
 70
8
 71
3
 72
8
 73
4
 74
0
 40
0
 40
0
 40
0
 40
0
 40
1
 40
1
 40
1
 40
1
 10
80.408628
 20
272.566313
 30
0.0
 10
80.408603
 20
265.011323
 30
0.0
 10
74.865433
 20
258.886748
 30
0.0
 10
68.027468
 20
258.886533
 30
0.0
  0
SPLINE
  5
19b
100
AcDbEntity
  8
图层_1
 62
7
100
AcDbSpline
 70
8
 71
3
 72
8
 73
4
 74
0
 40
0
 40
0
 40
0
 40
0
 40
1
 40
1
 40
1
 40
1
 10
68.027468
 20
258.886533
 30
0.0
 10
64.743667
 20
258.886487
 30
0.0
 10
61.594347
 20
260.327723
 30
0.0
 10
59.272331
 20
262.893183
 30
0.0
  0
SPLINE
  5
19c
100
AcDbEntity
  8
图层_1
 62
7
100
AcDbSpline
 70
8
 71
3
 72
8
 73
4
 74
0
 40
0
 40
0
 40
0
 40
0
 40
1
 40
1
 40
1
 40
1
 10
59.272331
 20
262.893183
 30
0.0
 10
56.950314
 20
265.458643
 30
0.0
 10
55.645810
 20
268.938175
 30
0.0
 10
55.645798
 20
272.566313
 30
0.0
  0
SPLINE
  5
19d
100
AcDbEntity
  8
图层_1
 62
7
100
AcDbSpline
 70
8
 71
3
 72
8
 73
4
 74
0
 40
0
 40
0
 40
0
 40
0
 40
1
 40
1
 40
1
 40
1
 10
55.645798
 20
272.566313
 30
0.0
 10
55.645685
 20
276.194541
 30
0.0
 10
56.950134
 20
279.674206
 30
0.0
 10
59.272164
 20
282.239779
 30
0.0
  0
SPLINE
  5
19e
100
AcDbEntity
  8
图层_1
 62
7
100
AcDbSpline
 70
8
 71
3
 72
8
 73
4
 74
0
 40
0
 40
0
 40
0
 40
0
 40
1
 40
1
 40
1
 40
1
 10
59.272164
 20
282.239779
 30
0.0
 10
61.594195
 20
284.805351
 30
0.0
 10
64.743586
 20
286.246659
 30
0.0
 10
68.027468
 20
286.246613
 30
0.0
  0
LWPOLYLINE
  5
19f
100
AcDbEntity
  8
图层_1
 62
7
100
AcDbPolyline
 90
1
 70
1
 10
191.568250
 20
286.668863
 30
0.0
  0
SPLINE
  5
1a0
100
AcDbEntity
  8
图层_1
 62
7
100
AcDbSpline
 70
8
 71
3
 72
8
 73
4
 74
0
 40
0
 40
0
 40
0
 40
0
 40
1
 40
1
 40
1
 40
1
 10
141.820380
 20
285.630113
 30
0.0
 10
142.140910
 20
285.630103
 30
0.0
 10
142.467680
 20
285.629203
 30
0.0
 10
142.796550
 20
285.626113
 30
0.0
  0
SPLINE
  5
1a1
100
AcDbEntity
  8
图层_1
 62
7
100
AcDbSpline
 70
8
 71
3
 72
8
 73
4
 74
0
 40
0
 40
0
 40
0
 40
0
 40
1
 40
1
 40
1
 40
1
 10
142.796550
 20
285.626113
 30
0.0
 10
143.120130
 20
285.623113
 30
0.0
 10
144.156350
 20
285.463883
 30
0.0
 10
144.823300
 20
285.314503
 30
0.0
  0
SPLINE
  5
1a2
100
AcDbEntity
  8
图层_1
 62
7
100
AcDbSpline
 70
8
 71
3
 72
8
 73
4
 74
0
 40
0
 40
0
 40
0
 40
0
 40
1
 40
1
 40
1
 40
1
 10
144.823300
 20
285.314503
 30
0.0
 10
145.299260
 20
285.207893
 30
0.0
 10
145.773930
 20
285.080873
 30
0.0
 10
146.226310
 20
284.898503
 30
0.0
  0
SPLINE
  5
1a3
100
AcDbEntity
  8
图层_1
 62
7
100
AcDbSpline
 70
8
 71
3
 72
8
 73
4
 74
0
 40
0
 40
0
 40
0
 40
0
 40
1
 40
1
 40
1
 40
1
 10
146.226310
 20
284.898503
 30
0.0
 10
146.714880
 20
284.701543
 30
0.0
 10
147.211120
 20
284.491213
 30
0.0
 10
147.629330
 20
284.170903
 30
0.0
  0
SPLINE
  5
1a4
100
AcDbEntity
  8
图层_1
 62
7
100
AcDbSpline
 70
8
 71
3
 72
8
 73
4
 74
0
 40
0
 40
0
 40
0
 40
0
 40
1
 40
1
 40
1
 40
1
 10
147.629330
 20
284.170903
 30
0.0
 10
148.077040
 20
283.828003
 30
0.0
 10
148.461390
 20
283.394273
 30
0.0
 10
148.772410
 20
282.923943
 30
0.0
  0
SPLINE
  5
1a5
100
AcDbEntity
  8
图层_1
 62
7
100
AcDbSpline
 70
8
 71
3
 72
8
 73
4
 74
0
 40
0
 40
0
 40
0
 40
0
 40
1
 40
1
 40
1
 40
1
 10
148.772410
 20
282.923943
 30
0.0
 10
149.003310
 20
282.574783
 30
0.0
 10
149.181180
 20
282.184433
 30
0.0
 10
149.292280
 20
281.780863
 30
0.0
  0
SPLINE
  5
1a6
100
AcDbEntity
  8
图层_1
 62
7
100
AcDbSpline
 70
8
 71
3
 72
8
 73
4
 74
0
 40
0
 40
0
 40
0
 40
0
 40
1
 40
1
 40
1
 40
1
 10
149.292280
 20
281.780863
 30
0.0
 10
149.375480
 20
281.478423
 30
0.0
 10
149.475060
 20
281.036363
 30
0.0
 10
149.536710
 20
280.658453
 30
0.0
  0
SPLINE
  5
1a7
100
AcDbEntity
  8
图层_1
 62
7
100
AcDbSpline
 70
8
 71
3
 72
8
 73
4
 74
0
 40
0
 40
0
 40
0
 40
0
 40
1
 40
1
 40
1
 40
1
 10
149.536710
 20
280.658453
 30
0.0
 10
149.631510
 20
280.077163
 30
0.0
 10
149.739770
 20
279.490843
 30
0.0
 10
149.728940
 20
278.901973
 30
0.0
  0
SPLINE
  5
1a8
100
AcDbEntity
  8
图层_1
 62
7
100
AcDbSpline
 70
8
 71
3
 72
8
 73
4
 74
0
 40
0
 40
0
 40
0
 40
0
 40
1
 40
1
 40
1
 40
1
 10
149.728940
 20
278.901973
 30
0.0
 10
149.714640
 20
278.126563
 30
0.0
 10
149.579160
 20
277.231493
 30
0.0
 10
149.390980
 20
276.599783
 30
0.0
  0
SPLINE
  5
1a9
100
AcDbEntity
  8
图层_1
 62
7
100
AcDbSpline
 70
8
 71
3
 72
8
 73
4
 74
0
 40
0
 40
0
 40
0
 40
0
 40
1
 40
1
 40
1
 40
1
 10
149.390980
 20
276.599783
 30
0.0
 10
149.213820
 20
276.004693
 30
0.0
 10
148.881810
 20
275.267943
 30
0.0
 10
148.455630
 20
274.708433
 30
0.0
  0
SPLINE
  5
1aa
100
AcDbEntity
  8
图层_1
 62
7
100
AcDbSpline
 70
8
 71
3
 72
8
 73
4
 74
0
 40
0
 40
0
 40
0
 40
0
 40
1
 40
1
 40
1
 40
1
 10
148.455630
 20
274.708433
 30
0.0
 10
148.092900
 20
274.232193
 30
0.0
 10
147.620220
 20
273.834553
 30
0.0
 10
147.115150
 20
273.513153
 30
0.0
  0
SPLINE
  5
1ab
100
AcDbEntity
  8
图层_1
 62
7
100
AcDbSpline
 70
8
 71
3
 72
8
 73
4
 74
0
 40
0
 40
0
 40
0
 40
0
 40
1
 40
1
 40
1
 40
1
 10
147.115150
 20
273.513153
 30
0.0
 10
146.588820
 20
273.178223
 30
0.0
 10
145.992020
 20
272.955733
 30
0.0
 10
145.394840
 20
272.775213
 30
0.0
  0
SPLINE
  5
1ac
100
AcDbEntity
  8
图层_1
 62
7
100
AcDbSpline
 70
8
 71
3
 72
8
 73
4
 74
0
 40
0
 40
0
 40
0
 40
0
 40
1
 40
1
 40
1
 40
1
 10
145.394840
 20
272.775213
 30
0.0
 10
144.909330
 20
272.628443
 30
0.0
 10
144.379190
 20
272.581763
 30
0.0
 10
143.898290
 20
272.500293
 30
0.0
  0
SPLINE
  5
1ad
100
AcDbEntity
  8
图层_1
 62
7
100
AcDbSpline
 70
8
 71
3
 72
8
 73
4
 74
0
 40
0
 40
0
 40
0
 40
0
 40
1
 40
1
 40
1
 40
1
 10
143.898290
 20
272.500293
 30
0.0
 10
143.539260
 20
272.439493
 30
0.0
 10
141.674420
 20
272.267843
 30
0.0
 10
141.310330
 20
272.261033
 30
0.0
  0
SPLINE
  5
1ae
100
AcDbEntity
  8
图层_1
 62
7
100
AcDbSpline
 70
8
 71
3
 72
8
 73
4
 74
0
 40
0
 40
0
 40
0
 40
0
 40
1
 40
1
 40
1
 40
1
 10
141.310330
 20
272.261033
 30
0.0
 10
139.613110
 20
272.229333
 30
0.0
 10
137.808220
 20
272.126153
 30
0.0
 10
137.808220
 20
272.126153
 30
0.0
  0
LWPOLYLINE
  5
1af
100
AcDbEntity
  8
图层_1
 62
7
100
AcDbPolyline
 90
1
 70
1
 10
68.027468
 20
286.246613
 30
0.0
  0
SPLINE
  5
1b0
100
AcDbEntity
  8
图层_1
 62
7
100
AcDbSpline
 70
8
 71
3
 72
8
 73
4
 74
0
 40
0
 40
0
 40
0
 40
0
 40
1
 40
1
 40
1
 40
1
 10
137.652180
 20
285.573913
 30
0.0
 10
137.652180
 20
285.573913
 30
0.0
 10
139.576770
 20
285.629813
 30
0.0
 10
141.820400
 20
285.629713
 30
0.0
  0
LWPOLYLINE
  5
1b1
100
AcDbEntity
  8
图层_1
 62
7
100
AcDbPolyline
 90
4
 70
0
 10
137.808220
 20
272.126153
 30
0.0
 10
137.600480
 20
272.593833
 30
0.0
 10
137.600480
 20
285.314503
 30
0.0
 10
137.652180
 20
285.573913
 30
0.0
  0
SPLINE
  5
1b2
100
AcDbEntity
  8
图层_1
 62
7
100
AcDbSpline
 70
8
 71
3
 72
8
 73
4
 74
0
 40
0
 40
0
 40
0
 40
0
 40
1
 40
1
 40
1
 40
1
 10
224.701110
 20
285.172263
 30
0.0
 10
227.984904
 20
285.172160
 30
0.0
 10
231.134164
 20
283.730786
 30
0.0
 10
233.456084
 20
281.165229
 30
0.0
  0
SPLINE
  5
1b3
100
AcDbEntity
  8
图层_1
 62
7
100
AcDbSpline
 70
8
 71
3
 72
8
 73
4
 74
0
 40
0
 40
0
 40
0
 40
0
 40
1
 40
1
 40
1
 40
1
 10
233.456084
 20
281.165229
 30
0.0
 10
235.778004
 20
278.599673
 30
0.0
 10
237.082383
 20
275.120093
 30
0.0
 10
237.082270
 20
271.491963
 30
0.0
  0
SPLINE
  5
1b4
100
AcDbEntity
  8
图层_1
 62
7
100
AcDbSpline
 70
8
 71
3
 72
8
 73
4
 74
0
 40
0
 40
0
 40
0
 40
0
 40
1
 40
1
 40
1
 40
1
 10
237.082270
 20
271.491963
 30
0.0
 10
237.082250
 20
263.936969
 30
0.0
 10
231.539079
 20
257.812388
 30
0.0
 10
224.701110
 20
257.812173
 30
0.0
  0
SPLINE
  5
1b5
100
AcDbEntity
  8
图层_1
 62
7
100
AcDbSpline
 70
8
 71
3
 72
8
 73
4
 74
0
 40
0
 40
0
 40
0
 40
0
 40
1
 40
1
 40
1
 40
1
 10
224.701110
 20
257.812173
 30
0.0
 10
221.417308
 20
257.812127
 30
0.0
 10
218.267987
 20
259.253365
 30
0.0
 10
215.945970
 20
261.818827
 30
0.0
  0
SPLINE
  5
1b6
100
AcDbEntity
  8
图层_1
 62
7
100
AcDbSpline
 70
8
 71
3
 72
8
 73
4
 74
0
 40
0
 40
0
 40
0
 40
0
 40
1
 40
1
 40
1
 40
1
 10
215.945970
 20
261.818827
 30
0.0
 10
213.623952
 20
264.384289
 30
0.0
 10
212.319450
 20
267.863823
 30
0.0
 10
212.319440
 20
271.491963
 30
0.0
  0
SPLINE
  5
1b7
100
AcDbEntity
  8
图层_1
 62
7
100
AcDbSpline
 70
8
 71
3
 72
8
 73
4
 74
0
 40
0
 40
0
 40
0
 40
0
 40
1
 40
1
 40
1
 40
1
 10
212.319440
 20
271.491963
 30
0.0
 10
212.319327
 20
275.120191
 30
0.0
 10
213.623776
 20
278.599856
 30
0.0
 10
215.945806
 20
281.165429
 30
0.0
  0
SPLINE
  5
1b8
100
AcDbEntity
  8
图层_1
 62
7
100
AcDbSpline
 70
8
 71
3
 72
8
 73
4
 74
0
 40
0
 40
0
 40
0
 40
0
 40
1
 40
1
 40
1
 40
1
 10
215.945806
 20
281.165429
 30
0.0
 10
218.267837
 20
283.731001
 30
0.0
 10
221.417228
 20
285.172309
 30
0.0
 10
224.701110
 20
285.172263
 30
0.0
  0
LWPOLYLINE
  5
1b9
100
AcDbEntity
  8
图层_1
 62
7
100
AcDbPolyline
 90
2
 70
0
 10
141.820400
 20
285.629713
 30
0.0
 10
141.820380
 20
285.630113
 30
0.0
  0
SPLINE
  5
1ba
100
AcDbEntity
  8
图层_1
 62
7
100
AcDbSpline
 70
8
 71
3
 72
8
 73
4
 74
0
 40
0
 40
0
 40
0
 40
0
 40
1
 40
1
 40
1
 40
1
 10
68.058988
 20
275.733043
 30
0.0
 10
67.286293
 20
275.733105
 30
0.0
 10
66.545226
 20
275.409514
 30
0.0
 10
65.998828
 20
274.833463
 30
0.0
  0
SPLINE
  5
1bb
100
AcDbEntity
  8
图层_1
 62
7
100
AcDbSpline
 70
8
 71
3
 72
8
 73
4
 74
0
 40
0
 40
0
 40
0
 40
0
 40
1
 40
1
 40
1
 40
1
 10
65.998828
 20
274.833463
 30
0.0
 10
65.452430
 20
274.257412
 30
0.0
 10
65.145465
 20
273.476092
 30
0.0
 10
65.145468
 20
272.661403
 30
0.0
  0
SPLINE
  5
1bc
100
AcDbEntity
  8
图层_1
 62
7
100
AcDbSpline
 70
8
 71
3
 72
8
 73
4
 74
0
 40
0
 40
0
 40
0
 40
0
 40
1
 40
1
 40
1
 40
1
 10
65.145468
 20
272.661403
 30
0.0
 10
65.145463
 20
271.846712
 30
0.0
 10
65.452427
 20
271.065390
 30
0.0
 10
65.998825
 20
270.489337
 30
0.0
  0
SPLINE
  5
1bd
100
AcDbEntity
  8
图层_1
 62
7
100
AcDbSpline
 70
8
 71
3
 72
8
 73
4
 74
0
 40
0
 40
0
 40
0
 40
0
 40
1
 40
1
 40
1
 40
1
 10
65.998825
 20
270.489337
 30
0.0
 10
66.545223
 20
269.913283
 30
0.0
 10
67.286291
 20
269.589691
 30
0.0
 10
68.058988
 20
269.589753
 30
0.0
  0
SPLINE
  5
1be
100
AcDbEntity
  8
图层_1
 62
7
100
AcDbSpline
 70
8
 71
3
 72
8
 73
4
 74
0
 40
0
 40
0
 40
0
 40
0
 40
1
 40
1
 40
1
 40
1
 10
68.058988
 20
269.589753
 30
0.0
 10
69.667850
 20
269.589926
 30
0.0
 10
70.971999
 20
270.965103
 30
0.0
 10
70.971988
 20
272.661403
 30
0.0
  0
SPLINE
  5
1bf
100
AcDbEntity
  8
图层_1
 62
7
100
AcDbSpline
 70
8
 71
3
 72
8
 73
4
 74
0
 40
0
 40
0
 40
0
 40
0
 40
1
 40
1
 40
1
 40
1
 10
70.971988
 20
272.661403
 30
0.0
 10
70.971994
 20
274.357699
 30
0.0
 10
69.667846
 20
275.732870
 30
0.0
 10
68.058988
 20
275.733043
 30
0.0
  0
LWPOLYLINE
  5
1c0
100
AcDbEntity
  8
图层_1
 62
7
100
AcDbPolyline
 90
1
 70
1
 10
224.701110
 20
285.172263
 30
0.0
  0
SPLINE
  5
1c1
100
AcDbEntity
  8
图层_1
 62
7
100
AcDbSpline
 70
8
 71
3
 72
8
 73
4
 74
0
 40
0
 40
0
 40
0
 40
0
 40
1
 40
1
 40
1
 40
1
 10
224.732630
 20
274.658693
 30
0.0
 10
223.959935
 20
274.658753
 30
0.0
 10
223.218869
 20
274.335159
 30
0.0
 10
222.672473
 20
273.759106
 30
0.0
  0
SPLINE
  5
1c2
100
AcDbEntity
  8
图层_1
 62
7
100
AcDbSpline
 70
8
 71
3
 72
8
 73
4
 74
0
 40
0
 40
0
 40
0
 40
0
 40
1
 40
1
 40
1
 40
1
 10
222.672473
 20
273.759106
 30
0.0
 10
222.126077
 20
273.183052
 30
0.0
 10
221.819115
 20
272.401732
 30
0.0
 10
221.819120
 20
271.587043
 30
0.0
  0
SPLINE
  5
1c3
100
AcDbEntity
  8
图层_1
 62
7
100
AcDbSpline
 70
8
 71
3
 72
8
 73
4
 74
0
 40
0
 40
0
 40
0
 40
0
 40
1
 40
1
 40
1
 40
1
 10
221.819120
 20
271.587043
 30
0.0
 10
221.819117
 20
270.772356
 30
0.0
 10
222.126081
 20
269.991038
 30
0.0
 10
222.672476
 20
269.414987
 30
0.0
  0
SPLINE
  5
1c4
100
AcDbEntity
  8
图层_1
 62
7
100
AcDbSpline
 70
8
 71
3
 72
8
 73
4
 74
0
 40
0
 40
0
 40
0
 40
0
 40
1
 40
1
 40
1
 40
1
 10
222.672476
 20
269.414987
 30
0.0
 10
223.218872
 20
268.838936
 30
0.0
 10
223.959937
 20
268.515343
 30
0.0
 10
224.732630
 20
268.515403
 30
0.0
  0
SPLINE
  5
1c5
100
AcDbEntity
  8
图层_1
 62
7
100
AcDbSpline
 70
8
 71
3
 72
8
 73
4
 74
0
 40
0
 40
0
 40
0
 40
0
 40
1
 40
1
 40
1
 40
1
 10
224.732630
 20
268.515403
 30
0.0
 10
226.341488
 20
268.515576
 30
0.0
 10
227.645636
 20
269.890747
 30
0.0
 10
227.645630
 20
271.587043
 30
0.0
  0
SPLINE
  5
1c6
100
AcDbEntity
  8
图层_1
 62
7
100
AcDbSpline
 70
8
 71
3
 72
8
 73
4
 74
0
 40
0
 40
0
 40
0
 40
0
 40
1
 40
1
 40
1
 40
1
 10
227.645630
 20
271.587043
 30
0.0
 10
227.645641
 20
273.283343
 30
0.0
 10
226.341492
 20
274.658520
 30
0.0
 10
224.732630
 20
274.658693
 30
0.0
  0
LWPOLYLINE
  5
1c7
100
AcDbEntity
  8
图层_1
 62
7
100
AcDbPolyline
 90
1
 70
1
 10
68.058988
 20
275.733043
 30
0.0
  0
LWPOLYLINE
  5
1c8
100
AcDbEntity
  8
图层_1
 62
7
100
AcDbPolyline
 90
1
 70
1
 10
224.732630
 20
274.658693
 30
0.0
  0
ENDSEC
  0
SECTION
  2
OBJECTS
  0
DICTIONARY
  5
C
330
0
100
AcDbDictionary
  3
ACAD_GROUP
350
D
  3
ACAD_MLINESTYLE
350
17
  0
DICTIONARY
  5
D
330
C
100
AcDbDictionary
  0
DICTIONARY
  5
1A
330
C
100
AcDbDictionary
  0
DICTIONARY
  5
17
330
C
100
AcDbDictionary
  3
STANDARD
350
18
  0
DICTIONARY
  5
19
330
C
100
AcDbDictionary
  0
ENDSEC
  0
EOF
