  0
SECTION
  2
HEADER
  9
$ACADVER
  1
AC1014
  9
$HANDSEED
  5
FFFF
  9
$MEASUREMENT
 70
     1
  0
ENDSEC
  0
SECTION
  2
TABLES
  0
TABLE
  2
VPORT
  5
8
330
0
100
AcDbSymbolTable
 70
     4
  0
VPORT
  5
2E
330
8
100
AcDbSymbolTableRecord
100
AcDbViewportTableRecord
  2
*ACTIVE
 70
     0
 10
0.0
 20
0.0
 11
1.0
 21
1.0
 12
210.0
 22
148.5
 13
0.0
 23
0.0
 14
10.0
 24
10.0
 15
10.0
 25
10.0
 16
0.0
 26
0.0
 36
1.0
 17
0.0
 27
0.0
 37
0.0
 40
341.0
 41
1.24
 42
50.0
 43
0.0
 44
0.0
 50
0.0
 51
0.0
 71
     0
 72
   100
 73
     1
 74
     3
 75
     0
 76
     0
 77
     0
 78
     0
  0
ENDTAB
  0
TABLE
  2
LTYPE
  5
5
330
0
100
AcDbSymbolTable
 70
     1
  0
LTYPE
  5
14
330
5
100
AcDbSymbolTableRecord
100
AcDbLinetypeTableRecord
  2
BYBLOCK
 70
     0
  3

 72
    65
 73
     0
 40
0.0
  0
LTYPE
  5
15
330
5
100
AcDbSymbolTableRecord
100
AcDbLinetypeTableRecord
  2
BYLAYER
 70
     0
  3

 72
    65
 73
     0
 40
0.0
  0
LTYPE
  5
16
330
5
100
AcDbSymbolTableRecord
100
AcDbLinetypeTableRecord
  2
CONTINUOUS
 70
     0
  3
Solid line
 72
    65
 73
     0
 40
0.0
  0
ENDTAB
  0
TABLE
  2
LAYER
  5
2
100
AcDbSymbolTable
 70
2
  0
LAYER
  5
50
100
AcDbSymbolTableRecord
100
AcDbLayerTableRecord
  2
0
 70
0
  6
CONTINUOUS
  0
LAYER
  5
51
100
AcDbSymbolTableRecord
100
AcDbLayerTableRecord
  2
图层_1
 70
0
  6
CONTINUOUS
  0
ENDTAB
  0
TABLE
  2
STYLE
  5
3
330
0
100
AcDbSymbolTable
 70
     1
  0
STYLE
  5
11
330
3
100
AcDbSymbolTableRecord
100
AcDbTextStyleTableRecord
  2
STANDARD
 70
     0
 40
0.0
 41
1.0
 50
0.0
 71
     0
 42
2.5
  3
txt
  4

  0
ENDTAB
  0
TABLE
  2
VIEW
  5
6
330
0
100
AcDbSymbolTable
 70
     0
  0
ENDTAB
  0
TABLE
  2
UCS
  5
7
330
0
100
AcDbSymbolTable
 70
     0
  0
ENDTAB
  0
TABLE
  2
APPID
  5
9
330
0
100
AcDbSymbolTable
 70
     2
  0
APPID
  5
12
330
9
100
AcDbSymbolTableRecord
100
AcDbRegAppTableRecord
  2
ACAD
 70
     0
  0
ENDTAB
  0
TABLE
  2
DIMSTYLE
  5
A
330
0
100
AcDbSymbolTable
 70
     1
  0
DIMSTYLE
105
27
330
A
100
AcDbSymbolTableRecord
100
AcDbDimStyleTableRecord
  2
ISO-25
 70
     0
  3

  4

  5

  6

  7

 40
1.0
 41
2.5
 42
0.625
 43
3.75
 44
1.25
 45
0.0
 46
0.0
 47
0.0
 48
0.0
140
2.5
141
2.5
142
0.0
143
0.03937007874016
144
1.0
145
0.0
146
1.0
147
0.625
 71
     0
 72
     0
 73
     0
 74
     0
 75
     0
 76
     0
 77
     1
 78
     8
170
     0
171
     3
172
     1
173
     0
174
     0
175
     0
176
     0
177
     0
178
     0
270
     2
271
     2
272
     2
273
     2
274
     3
340
11
275
     0
280
     0
281
     0
282
     0
283
     0
284
     8
285
     0
286
     0
287
     3
288
     0
  0
ENDTAB
  0
TABLE
  2
BLOCK_RECORD
  5
1
330
0
100
AcDbSymbolTable
 70
     1
  0
BLOCK_RECORD
  5
1F
330
1
100
AcDbSymbolTableRecord
100
AcDbBlockTableRecord
  2
*MODEL_SPACE
  0
BLOCK_RECORD
  5
1B
330
1
100
AcDbSymbolTableRecord
100
AcDbBlockTableRecord
  2
*PAPER_SPACE
  0
ENDTAB
  0
ENDSEC
  0
SECTION
  2
BLOCKS
  0
BLOCK
  5
20
330
1F
100
AcDbEntity
  8
0
100
AcDbBlockBegin
  2
*MODEL_SPACE
 70
     0
 10
0.0
 20
0.0
 30
0.0
  3
*MODEL_SPACE
  1

  0
ENDBLK
  5
21
330
1F
100
AcDbEntity
  8
0
100
AcDbBlockEnd
  0
BLOCK
  5
1C
330
1B
100
AcDbEntity
 67
     1
  8
0
100
AcDbBlockBegin
  2
*PAPER_SPACE
  1

  0
ENDBLK
  5
1D
330
1B
100
AcDbEntity
 67
     1
  8
0
100
AcDbBlockEnd
  0
ENDSEC
  0
SECTION
  2
ENTITIES
  0
SPLINE
  5
100
100
AcDbEntity
  8
图层_1
 62
7
100
AcDbSpline
 70
8
 71
3
 72
8
 73
4
 74
0
 40
0
 40
0
 40
0
 40
0
 40
1
 40
1
 40
1
 40
1
 10
267.946830
 20
278.565647
 30
0.0
 10
267.946830
 20
278.565647
 30
0.0
 10
267.930830
 20
273.234877
 30
0.0
 10
267.901330
 20
267.365807
 30
0.0
  0
SPLINE
  5
101
100
AcDbEntity
  8
图层_1
 62
7
100
AcDbSpline
 70
8
 71
3
 72
8
 73
4
 74
0
 40
0
 40
0
 40
0
 40
0
 40
1
 40
1
 40
1
 40
1
 10
267.901330
 20
267.365807
 30
0.0
 10
267.896330
 20
266.363527
 30
0.0
 10
267.699080
 20
265.603487
 30
0.0
 10
267.244530
 20
264.875007
 30
0.0
  0
SPLINE
  5
102
100
AcDbEntity
  8
图层_1
 62
7
100
AcDbSpline
 70
8
 71
3
 72
8
 73
4
 74
0
 40
0
 40
0
 40
0
 40
0
 40
1
 40
1
 40
1
 40
1
 10
267.244530
 20
264.875007
 30
0.0
 10
266.756550
 20
264.092947
 30
0.0
 10
266.000300
 20
263.428627
 30
0.0
 10
265.152670
 20
263.066337
 30
0.0
  0
SPLINE
  5
103
100
AcDbEntity
  8
图层_1
 62
7
100
AcDbSpline
 70
8
 71
3
 72
8
 73
4
 74
0
 40
0
 40
0
 40
0
 40
0
 40
1
 40
1
 40
1
 40
1
 10
265.152670
 20
263.066337
 30
0.0
 10
263.077130
 20
262.179197
 30
0.0
 10
258.411470
 20
262.424507
 30
0.0
 10
258.411470
 20
262.424507
 30
0.0
  0
LWPOLYLINE
  5
104
100
AcDbEntity
  8
图层_1
 62
7
100
AcDbPolyline
 90
3
 70
0
 10
271.611210
 20
280.295767
 30
0.0
 10
268.568500
 20
279.781077
 30
0.0
 10
267.946830
 20
278.565647
 30
0.0
  0
SPLINE
  5
105
100
AcDbEntity
  8
图层_1
 62
7
100
AcDbSpline
 70
8
 71
3
 72
8
 73
4
 74
0
 40
0
 40
0
 40
0
 40
0
 40
1
 40
1
 40
1
 40
1
 10
259.395910
 20
259.657257
 30
0.0
 10
259.395910
 20
259.657257
 30
0.0
 10
263.456380
 20
259.699757
 30
0.0
 10
265.314410
 20
259.001487
 30
0.0
  0
SPLINE
  5
106
100
AcDbEntity
  8
图层_1
 62
7
100
AcDbSpline
 70
8
 71
3
 72
8
 73
4
 74
0
 40
0
 40
0
 40
0
 40
0
 40
1
 40
1
 40
1
 40
1
 10
265.314410
 20
259.001487
 30
0.0
 10
265.961630
 20
258.758247
 30
0.0
 10
266.714980
 20
258.437897
 30
0.0
 10
267.016120
 20
257.815507
 30
0.0
  0
SPLINE
  5
107
100
AcDbEntity
  8
图层_1
 62
7
100
AcDbSpline
 70
8
 71
3
 72
8
 73
4
 74
0
 40
0
 40
0
 40
0
 40
0
 40
1
 40
1
 40
1
 40
1
 10
267.016120
 20
257.815507
 30
0.0
 10
267.724490
 20
256.351367
 30
0.0
 10
267.834130
 20
254.754607
 30
0.0
 10
268.075480
 20
253.192017
 30
0.0
  0
SPLINE
  5
108
100
AcDbEntity
  8
图层_1
 62
7
100
AcDbSpline
 70
8
 71
3
 72
8
 73
4
 74
0
 40
0
 40
0
 40
0
 40
0
 40
1
 40
1
 40
1
 40
1
 10
268.075480
 20
253.192017
 30
0.0
 10
268.814040
 20
248.410387
 30
0.0
 10
269.253710
 20
238.724687
 30
0.0
 10
269.253710
 20
238.724687
 30
0.0
  0
LWPOLYLINE
  5
109
100
AcDbEntity
  8
图层_1
 62
7
100
AcDbPolyline
 90
4
 70
0
 10
258.411470
 20
262.424507
 30
0.0
 10
254.254620
 20
262.482407
 30
0.0
 10
256.161480
 20
259.844327
 30
0.0
 10
259.395910
 20
259.657257
 30
0.0
  0
SPLINE
  5
10a
100
AcDbEntity
  8
图层_1
 62
7
100
AcDbSpline
 70
8
 71
3
 72
8
 73
4
 74
0
 40
0
 40
0
 40
0
 40
0
 40
1
 40
1
 40
1
 40
1
 10
272.088680
 20
238.710737
 30
0.0
 10
272.088680
 20
238.710737
 30
0.0
 10
272.397320
 20
248.563237
 30
0.0
 10
272.700010
 20
255.370177
 30
0.0
  0
SPLINE
  5
10b
100
AcDbEntity
  8
图层_1
 62
7
100
AcDbSpline
 70
8
 71
3
 72
8
 73
4
 74
0
 40
0
 40
0
 40
0
 40
0
 40
1
 40
1
 40
1
 40
1
 10
272.700010
 20
255.370177
 30
0.0
 10
272.743410
 20
256.347167
 30
0.0
 10
272.930360
 20
257.267487
 30
0.0
 10
273.443630
 20
258.033067
 30
0.0
  0
SPLINE
  5
10c
100
AcDbEntity
  8
图层_1
 62
7
100
AcDbSpline
 70
8
 71
3
 72
8
 73
4
 74
0
 40
0
 40
0
 40
0
 40
0
 40
1
 40
1
 40
1
 40
1
 10
273.443630
 20
258.033067
 30
0.0
 10
273.873870
 20
258.674787
 30
0.0
 10
274.776840
 20
259.317977
 30
0.0
 10
275.271940
 20
259.457787
 30
0.0
  0
SPLINE
  5
10d
100
AcDbEntity
  8
图层_1
 62
7
100
AcDbSpline
 70
8
 71
3
 72
8
 73
4
 74
0
 40
0
 40
0
 40
0
 40
0
 40
1
 40
1
 40
1
 40
1
 10
275.271940
 20
259.457787
 30
0.0
 10
276.207920
 20
259.722107
 30
0.0
 10
277.495910
 20
259.924377
 30
0.0
 10
280.139860
 20
259.913577
 30
0.0
  0
SPLINE
  5
10e
100
AcDbEntity
  8
图层_1
 62
7
100
AcDbSpline
 70
8
 71
3
 72
8
 73
4
 74
0
 40
0
 40
0
 40
0
 40
0
 40
1
 40
1
 40
1
 40
1
 10
280.139860
 20
259.913577
 30
0.0
 10
280.865980
 20
259.910577
 30
0.0
 10
285.372620
 20
260.008677
 30
0.0
 10
285.372620
 20
260.008677
 30
0.0
  0
LWPOLYLINE
  5
10f
100
AcDbEntity
  8
图层_1
 62
7
100
AcDbPolyline
 90
4
 70
0
 10
269.253710
 20
238.724687
 30
0.0
 10
270.163730
 20
233.344137
 30
0.0
 10
270.877380
 20
231.929747
 30
0.0
 10
272.088680
 20
238.710737
 30
0.0
  0
SPLINE
  5
110
100
AcDbEntity
  8
图层_1
 62
7
100
AcDbSpline
 70
8
 71
3
 72
8
 73
4
 74
0
 40
0
 40
0
 40
0
 40
0
 40
1
 40
1
 40
1
 40
1
 10
285.508010
 20
262.900487
 30
0.0
 10
285.508010
 20
262.900487
 30
0.0
 10
283.058750
 20
262.763767
 30
0.0
 10
281.833300
 20
262.782667
 30
0.0
  0
SPLINE
  5
111
100
AcDbEntity
  8
图层_1
 62
7
100
AcDbSpline
 70
8
 71
3
 72
8
 73
4
 74
0
 40
0
 40
0
 40
0
 40
0
 40
1
 40
1
 40
1
 40
1
 10
281.833300
 20
262.782667
 30
0.0
 10
279.411030
 20
262.820067
 30
0.0
 10
277.424010
 20
262.707367
 30
0.0
 10
274.580000
 20
263.240007
 30
0.0
  0
SPLINE
  5
112
100
AcDbEntity
  8
图层_1
 62
7
100
AcDbSpline
 70
8
 71
3
 72
8
 73
4
 74
0
 40
0
 40
0
 40
0
 40
0
 40
1
 40
1
 40
1
 40
1
 10
274.580000
 20
263.240007
 30
0.0
 10
273.885520
 20
263.370067
 30
0.0
 10
273.301790
 20
264.189467
 30
0.0
 10
272.939270
 20
264.869877
 30
0.0
  0
SPLINE
  5
113
100
AcDbEntity
  8
图层_1
 62
7
100
AcDbSpline
 70
8
 71
3
 72
8
 73
4
 74
0
 40
0
 40
0
 40
0
 40
0
 40
1
 40
1
 40
1
 40
1
 10
272.939270
 20
264.869877
 30
0.0
 10
272.427250
 20
265.830877
 30
0.0
 10
272.402720
 20
266.848607
 30
0.0
 10
272.321220
 20
268.077437
 30
0.0
  0
SPLINE
  5
114
100
AcDbEntity
  8
图层_1
 62
7
100
AcDbSpline
 70
8
 71
3
 72
8
 73
4
 74
0
 40
0
 40
0
 40
0
 40
0
 40
1
 40
1
 40
1
 40
1
 10
272.321220
 20
268.077437
 30
0.0
 10
272.036260
 20
272.372817
 30
0.0
 10
272.123820
 20
278.799267
 30
0.0
 10
272.123820
 20
278.799267
 30
0.0
  0
LWPOLYLINE
  5
115
100
AcDbEntity
  8
图层_1
 62
7
100
AcDbPolyline
 90
2
 70
0
 10
285.372620
 20
260.008677
 30
0.0
 10
285.508010
 20
262.900487
 30
0.0
  0
LWPOLYLINE
  5
116
100
AcDbEntity
  8
图层_1
 62
7
100
AcDbPolyline
 90
2
 70
0
 10
272.123820
 20
278.799267
 30
0.0
 10
271.611210
 20
280.295767
 30
0.0
  0
SPLINE
  5
117
100
AcDbEntity
  8
图层_1
 62
7
100
AcDbSpline
 70
8
 71
3
 72
8
 73
4
 74
0
 40
0
 40
0
 40
0
 40
0
 40
1
 40
1
 40
1
 40
1
 10
9.631846
 20
276.630367
 30
0.0
 10
9.631846
 20
276.630367
 30
0.0
 10
12.259337
 20
276.580667
 30
0.0
 10
13.572691
 20
276.540467
 30
0.0
  0
SPLINE
  5
118
100
AcDbEntity
  8
图层_1
 62
7
100
AcDbSpline
 70
8
 71
3
 72
8
 73
4
 74
0
 40
0
 40
0
 40
0
 40
0
 40
1
 40
1
 40
1
 40
1
 10
13.572691
 20
276.540467
 30
0.0
 10
14.349138
 20
276.516667
 30
0.0
 10
15.153698
 20
276.662327
 30
0.0
 10
15.901231
 20
276.451067
 30
0.0
  0
SPLINE
  5
119
100
AcDbEntity
  8
图层_1
 62
7
100
AcDbSpline
 70
8
 71
3
 72
8
 73
4
 74
0
 40
0
 40
0
 40
0
 40
0
 40
1
 40
1
 40
1
 40
1
 10
15.901231
 20
276.451067
 30
0.0
 10
16.428642
 20
276.302017
 30
0.0
 10
16.932304
 20
276.017537
 30
0.0
 10
17.334218
 20
275.644917
 30
0.0
  0
SPLINE
  5
11a
100
AcDbEntity
  8
图层_1
 62
7
100
AcDbSpline
 70
8
 71
3
 72
8
 73
4
 74
0
 40
0
 40
0
 40
0
 40
0
 40
1
 40
1
 40
1
 40
1
 10
17.334218
 20
275.644917
 30
0.0
 10
17.886790
 20
275.132627
 30
0.0
 10
18.306165
 20
274.462547
 30
0.0
 10
18.588405
 20
273.763887
 30
0.0
  0
SPLINE
  5
11b
100
AcDbEntity
  8
图层_1
 62
7
100
AcDbSpline
 70
8
 71
3
 72
8
 73
4
 74
0
 40
0
 40
0
 40
0
 40
0
 40
1
 40
1
 40
1
 40
1
 10
18.588405
 20
273.763887
 30
0.0
 10
18.838459
 20
273.144907
 30
0.0
 10
18.952223
 20
272.461027
 30
0.0
 10
18.946523
 20
271.793467
 30
0.0
  0
SPLINE
  5
11c
100
AcDbEntity
  8
图层_1
 62
7
100
AcDbSpline
 70
8
 71
3
 72
8
 73
4
 74
0
 40
0
 40
0
 40
0
 40
0
 40
1
 40
1
 40
1
 40
1
 10
18.946523
 20
271.793467
 30
0.0
 10
18.844161
 20
259.721257
 30
0.0
 10
19.924518
 20
249.153547
 30
0.0
 10
19.125840
 20
237.310817
 30
0.0
  0
SPLINE
  5
11d
100
AcDbEntity
  8
图层_1
 62
7
100
AcDbSpline
 70
8
 71
3
 72
8
 73
4
 74
0
 40
0
 40
0
 40
0
 40
0
 40
1
 40
1
 40
1
 40
1
 10
19.125840
 20
237.310817
 30
0.0
 10
18.961454
 20
234.873317
 30
0.0
 10
18.172640
 20
232.449217
 30
0.0
 10
17.212262
 20
230.185157
 30
0.0
  0
SPLINE
  5
11e
100
AcDbEntity
  8
图层_1
 62
7
100
AcDbSpline
 70
8
 71
3
 72
8
 73
4
 74
0
 40
0
 40
0
 40
0
 40
0
 40
1
 40
1
 40
1
 40
1
 10
17.212262
 20
230.185157
 30
0.0
 10
16.472217
 20
228.440537
 30
0.0
 10
15.436585
 20
226.817037
 30
0.0
 10
14.288926
 20
225.308967
 30
0.0
  0
SPLINE
  5
11f
100
AcDbEntity
  8
图层_1
 62
7
100
AcDbSpline
 70
8
 71
3
 72
8
 73
4
 74
0
 40
0
 40
0
 40
0
 40
0
 40
1
 40
1
 40
1
 40
1
 10
14.288926
 20
225.308967
 30
0.0
 10
13.240278
 20
223.931007
 30
0.0
 10
12.036797
 20
222.656187
 30
0.0
 10
10.706716
 20
221.547437
 30
0.0
  0
SPLINE
  5
120
100
AcDbEntity
  8
图层_1
 62
7
100
AcDbSpline
 70
8
 71
3
 72
8
 73
4
 74
0
 40
0
 40
0
 40
0
 40
0
 40
1
 40
1
 40
1
 40
1
 10
10.706716
 20
221.547437
 30
0.0
 10
9.911651
 20
220.884677
 30
0.0
 10
8.108942
 20
219.845737
 30
0.0
 10
8.108942
 20
219.845737
 30
0.0
  0
LWPOLYLINE
  5
121
100
AcDbEntity
  8
图层_1
 62
7
100
AcDbPolyline
 90
2
 70
0
 10
9.721246
 20
277.973437
 30
0.0
 10
9.631846
 20
276.630367
 30
0.0
  0
SPLINE
  5
122
100
AcDbEntity
  8
图层_1
 62
7
100
AcDbSpline
 70
8
 71
3
 72
8
 73
4
 74
0
 40
0
 40
0
 40
0
 40
0
 40
1
 40
1
 40
1
 40
1
 10
7.930141
 20
219.039587
 30
0.0
 10
7.930141
 20
219.039587
 30
0.0
 10
9.041860
 20
219.012787
 30
0.0
 10
9.541929
 20
219.218387
 30
0.0
  0
SPLINE
  5
123
100
AcDbEntity
  8
图层_1
 62
7
100
AcDbSpline
 70
8
 71
3
 72
8
 73
4
 74
0
 40
0
 40
0
 40
0
 40
0
 40
1
 40
1
 40
1
 40
1
 10
9.541929
 20
219.218387
 30
0.0
 10
11.232342
 20
219.913537
 30
0.0
 10
12.499999
 20
221.380797
 30
0.0
 10
13.841408
 20
222.622307
 30
0.0
  0
SPLINE
  5
124
100
AcDbEntity
  8
图层_1
 62
7
100
AcDbSpline
 70
8
 71
3
 72
8
 73
4
 74
0
 40
0
 40
0
 40
0
 40
0
 40
1
 40
1
 40
1
 40
1
 10
13.841408
 20
222.622307
 30
0.0
 10
15.453912
 20
224.114717
 30
0.0
 10
17.041419
 20
225.671667
 30
0.0
 10
18.319688
 20
227.458707
 30
0.0
  0
SPLINE
  5
125
100
AcDbEntity
  8
图层_1
 62
7
100
AcDbSpline
 70
8
 71
3
 72
8
 73
4
 74
0
 40
0
 40
0
 40
0
 40
0
 40
1
 40
1
 40
1
 40
1
 10
18.319688
 20
227.458707
 30
0.0
 10
19.563142
 20
229.197077
 30
0.0
 10
20.589656
 20
231.109537
 30
0.0
 10
21.364980
 20
233.101257
 30
0.0
  0
SPLINE
  5
126
100
AcDbEntity
  8
图层_1
 62
7
100
AcDbSpline
 70
8
 71
3
 72
8
 73
4
 74
0
 40
0
 40
0
 40
0
 40
0
 40
1
 40
1
 40
1
 40
1
 10
21.364980
 20
233.101257
 30
0.0
 10
22.381520
 20
235.712637
 30
0.0
 10
23.074139
 20
238.471427
 30
0.0
 10
23.424803
 20
241.251667
 30
0.0
  0
SPLINE
  5
127
100
AcDbEntity
  8
图层_1
 62
7
100
AcDbSpline
 70
8
 71
3
 72
8
 73
4
 74
0
 40
0
 40
0
 40
0
 40
0
 40
1
 40
1
 40
1
 40
1
 10
23.424803
 20
241.251667
 30
0.0
 10
24.534388
 20
250.049017
 30
0.0
 10
23.514203
 20
267.852627
 30
0.0
 10
23.514203
 20
267.852627
 30
0.0
  0
LWPOLYLINE
  5
128
100
AcDbEntity
  8
图层_1
 62
7
100
AcDbPolyline
 90
2
 70
0
 10
8.108942
 20
219.845737
 30
0.0
 10
7.930141
 20
219.039587
 30
0.0
  0
SPLINE
  5
129
100
AcDbEntity
  8
图层_1
 62
7
100
AcDbSpline
 70
8
 71
3
 72
8
 73
4
 74
0
 40
0
 40
0
 40
0
 40
0
 40
1
 40
1
 40
1
 40
1
 10
48.861493
 20
244.655077
 30
0.0
 10
48.861493
 20
244.655077
 30
0.0
 10
48.819653
 20
261.725957
 30
0.0
 10
48.861493
 20
271.793467
 30
0.0
  0
SPLINE
  5
12a
100
AcDbEntity
  8
图层_1
 62
7
100
AcDbSpline
 70
8
 71
3
 72
8
 73
4
 74
0
 40
0
 40
0
 40
0
 40
0
 40
1
 40
1
 40
1
 40
1
 10
48.861493
 20
271.793467
 30
0.0
 10
48.864293
 20
272.469007
 30
0.0
 10
50.294480
 20
273.226457
 30
0.0
 10
50.294480
 20
273.226457
 30
0.0
  0
LWPOLYLINE
  5
12b
100
AcDbEntity
  8
图层_1
 62
7
100
AcDbPolyline
 90
4
 70
0
 10
23.514203
 20
267.852627
 30
0.0
 10
46.443036
 20
244.028237
 30
0.0
 10
48.503375
 20
244.028237
 30
0.0
 10
48.861493
 20
244.655077
 30
0.0
  0
SPLINE
  5
12c
100
AcDbEntity
  8
图层_1
 62
7
100
AcDbSpline
 70
8
 71
3
 72
8
 73
4
 74
0
 40
0
 40
0
 40
0
 40
0
 40
1
 40
1
 40
1
 40
1
 10
41.069203
 20
273.226457
 30
0.0
 10
41.069203
 20
273.226457
 30
0.0
 10
43.443865
 20
273.461737
 30
0.0
 10
44.383212
 20
272.868337
 30
0.0
  0
SPLINE
  5
12d
100
AcDbEntity
  8
图层_1
 62
7
100
AcDbSpline
 70
8
 71
3
 72
8
 73
4
 74
0
 40
0
 40
0
 40
0
 40
0
 40
1
 40
1
 40
1
 40
1
 10
44.383212
 20
272.868337
 30
0.0
 10
44.768493
 20
272.624947
 30
0.0
 10
45.086334
 20
272.159587
 30
0.0
 10
45.099964
 20
271.704067
 30
0.0
  0
SPLINE
  5
12e
100
AcDbEntity
  8
图层_1
 62
7
100
AcDbSpline
 70
8
 71
3
 72
8
 73
4
 74
0
 40
0
 40
0
 40
0
 40
0
 40
1
 40
1
 40
1
 40
1
 10
45.099964
 20
271.704067
 30
0.0
 10
45.285164
 20
265.515187
 30
0.0
 10
44.831247
 20
252.447367
 30
0.0
 10
44.831247
 20
252.447367
 30
0.0
  0
LWPOLYLINE
  5
12f
100
AcDbEntity
  8
图层_1
 62
7
100
AcDbPolyline
 90
5
 70
0
 10
50.294480
 20
273.226457
 30
0.0
 10
52.623020
 20
273.137057
 30
0.0
 10
52.802338
 20
274.032607
 30
0.0
 10
40.979803
 20
273.943207
 30
0.0
 10
41.069203
 20
273.226457
 30
0.0
  0
SPLINE
  5
130
100
AcDbEntity
  8
图层_1
 62
7
100
AcDbSpline
 70
8
 71
3
 72
8
 73
4
 74
0
 40
0
 40
0
 40
0
 40
0
 40
1
 40
1
 40
1
 40
1
 10
71.813063
 20
275.171537
 30
0.0
 10
67.269515
 20
275.171489
 30
0.0
 10
62.912080
 20
273.519991
 30
0.0
 10
59.699346
 20
270.580356
 30
0.0
  0
SPLINE
  5
131
100
AcDbEntity
  8
图层_1
 62
7
100
AcDbSpline
 70
8
 71
3
 72
8
 73
4
 74
0
 40
0
 40
0
 40
0
 40
0
 40
1
 40
1
 40
1
 40
1
 10
59.699346
 20
270.580356
 30
0.0
 10
56.486612
 20
267.640721
 30
0.0
 10
54.681750
 20
263.653748
 30
0.0
 10
54.681809
 20
259.496527
 30
0.0
  0
SPLINE
  5
132
100
AcDbEntity
  8
图层_1
 62
7
100
AcDbSpline
 70
8
 71
3
 72
8
 73
4
 74
0
 40
0
 40
0
 40
0
 40
0
 40
1
 40
1
 40
1
 40
1
 10
54.681809
 20
259.496527
 30
0.0
 10
54.681994
 20
250.839761
 30
0.0
 10
62.351831
 20
243.822128
 30
0.0
 10
71.813063
 20
243.822027
 30
0.0
  0
SPLINE
  5
133
100
AcDbEntity
  8
图层_1
 62
7
100
AcDbSpline
 70
8
 71
3
 72
8
 73
4
 74
0
 40
0
 40
0
 40
0
 40
0
 40
1
 40
1
 40
1
 40
1
 10
71.813063
 20
243.822027
 30
0.0
 10
81.274295
 20
243.822128
 30
0.0
 10
88.944132
 20
250.839761
 30
0.0
 10
88.944317
 20
259.496527
 30
0.0
  0
SPLINE
  5
134
100
AcDbEntity
  8
图层_1
 62
7
100
AcDbSpline
 70
8
 71
3
 72
8
 73
4
 74
0
 40
0
 40
0
 40
0
 40
0
 40
1
 40
1
 40
1
 40
1
 10
88.944317
 20
259.496527
 30
0.0
 10
88.944376
 20
263.653748
 30
0.0
 10
87.139514
 20
267.640721
 30
0.0
 10
83.926780
 20
270.580356
 30
0.0
  0
SPLINE
  5
135
100
AcDbEntity
  8
图层_1
 62
7
100
AcDbSpline
 70
8
 71
3
 72
8
 73
4
 74
0
 40
0
 40
0
 40
0
 40
0
 40
1
 40
1
 40
1
 40
1
 10
83.926780
 20
270.580356
 30
0.0
 10
80.714046
 20
273.519991
 30
0.0
 10
76.356611
 20
275.171489
 30
0.0
 10
71.813063
 20
275.171537
 30
0.0
  0
LWPOLYLINE
  5
136
100
AcDbEntity
  8
图层_1
 62
7
100
AcDbPolyline
 90
4
 70
0
 10
44.831247
 20
252.447367
 30
0.0
 10
22.439849
 20
275.465597
 30
0.0
 10
21.991814
 20
277.794657
 30
0.0
 10
9.721246
 20
277.973437
 30
0.0
  0
LWPOLYLINE
  5
137
100
AcDbEntity
  8
图层_1
 62
7
100
AcDbPolyline
 90
1
 70
1
 10
71.813063
 20
275.171537
 30
0.0
  0
SPLINE
  5
138
100
AcDbEntity
  8
图层_1
 62
7
100
AcDbSpline
 70
8
 71
3
 72
8
 73
4
 74
0
 40
0
 40
0
 40
0
 40
0
 40
1
 40
1
 40
1
 40
1
 10
100.451110
 20
274.346267
 30
0.0
 10
100.451110
 20
274.346267
 30
0.0
 10
98.653437
 20
273.862417
 30
0.0
 10
97.853847
 20
273.405757
 30
0.0
  0
SPLINE
  5
139
100
AcDbEntity
  8
图层_1
 62
7
100
AcDbSpline
 70
8
 71
3
 72
8
 73
4
 74
0
 40
0
 40
0
 40
0
 40
0
 40
1
 40
1
 40
1
 40
1
 10
97.853847
 20
273.405757
 30
0.0
 10
97.080437
 20
272.964037
 30
0.0
 10
96.371197
 20
272.382407
 30
0.0
 10
95.794027
 20
271.704047
 30
0.0
  0
SPLINE
  5
13a
100
AcDbEntity
  8
图层_1
 62
7
100
AcDbSpline
 70
8
 71
3
 72
8
 73
4
 74
0
 40
0
 40
0
 40
0
 40
0
 40
1
 40
1
 40
1
 40
1
 10
95.794027
 20
271.704047
 30
0.0
 10
95.334477
 20
271.163917
 30
0.0
 10
94.968577
 20
270.531857
 30
0.0
 10
94.719157
 20
269.867987
 30
0.0
  0
SPLINE
  5
13b
100
AcDbEntity
  8
图层_1
 62
7
100
AcDbSpline
 70
8
 71
3
 72
8
 73
4
 74
0
 40
0
 40
0
 40
0
 40
0
 40
1
 40
1
 40
1
 40
1
 10
94.719157
 20
269.867987
 30
0.0
 10
94.467917
 20
269.199277
 30
0.0
 10
94.343387
 20
268.477037
 30
0.0
 10
94.316077
 20
267.763207
 30
0.0
  0
SPLINE
  5
13c
100
AcDbEntity
  8
图层_1
 62
7
100
AcDbSpline
 70
8
 71
3
 72
8
 73
4
 74
0
 40
0
 40
0
 40
0
 40
0
 40
1
 40
1
 40
1
 40
1
 10
94.316077
 20
267.763207
 30
0.0
 10
94.285677
 20
266.967577
 30
0.0
 10
94.380077
 20
266.159167
 30
0.0
 10
94.584797
 20
265.389707
 30
0.0
  0
SPLINE
  5
13d
100
AcDbEntity
  8
图层_1
 62
7
100
AcDbSpline
 70
8
 71
3
 72
8
 73
4
 74
0
 40
0
 40
0
 40
0
 40
0
 40
1
 40
1
 40
1
 40
1
 10
94.584797
 20
265.389707
 30
0.0
 10
94.797937
 20
264.588457
 30
0.0
 10
95.097197
 20
263.786527
 30
0.0
 10
95.570267
 20
263.105607
 30
0.0
  0
SPLINE
  5
13e
100
AcDbEntity
  8
图层_1
 62
7
100
AcDbSpline
 70
8
 71
3
 72
8
 73
4
 74
0
 40
0
 40
0
 40
0
 40
0
 40
1
 40
1
 40
1
 40
1
 10
95.570267
 20
263.105607
 30
0.0
 10
96.124477
 20
262.307897
 30
0.0
 10
96.925047
 20
261.707467
 30
0.0
 10
97.675047
 20
261.090227
 30
0.0
  0
SPLINE
  5
13f
100
AcDbEntity
  8
图层_1
 62
7
100
AcDbSpline
 70
8
 71
3
 72
8
 73
4
 74
0
 40
0
 40
0
 40
0
 40
0
 40
1
 40
1
 40
1
 40
1
 10
97.675047
 20
261.090227
 30
0.0
 10
98.675947
 20
260.266477
 30
0.0
 10
99.786707
 20
259.586537
 30
0.0
 10
100.854190
 20
258.851087
 30
0.0
  0
SPLINE
  5
140
100
AcDbEntity
  8
图层_1
 62
7
100
AcDbSpline
 70
8
 71
3
 72
8
 73
4
 74
0
 40
0
 40
0
 40
0
 40
0
 40
1
 40
1
 40
1
 40
1
 10
100.854190
 20
258.851087
 30
0.0
 10
101.536070
 20
258.381297
 30
0.0
 10
102.225890
 20
257.922877
 30
0.0
 10
102.914530
 20
257.463057
 30
0.0
  0
SPLINE
  5
141
100
AcDbEntity
  8
图层_1
 62
7
100
AcDbSpline
 70
8
 71
3
 72
8
 73
4
 74
0
 40
0
 40
0
 40
0
 40
0
 40
1
 40
1
 40
1
 40
1
 10
102.914530
 20
257.463057
 30
0.0
 10
103.882070
 20
256.817027
 30
0.0
 10
104.924450
 20
256.273577
 30
0.0
 10
105.825460
 20
255.537597
 30
0.0
  0
SPLINE
  5
142
100
AcDbEntity
  8
图层_1
 62
7
100
AcDbSpline
 70
8
 71
3
 72
8
 73
4
 74
0
 40
0
 40
0
 40
0
 40
0
 40
1
 40
1
 40
1
 40
1
 10
105.825460
 20
255.537597
 30
0.0
 10
106.495800
 20
254.990047
 30
0.0
 10
107.142190
 20
254.393967
 30
0.0
 10
107.661520
 20
253.701527
 30
0.0
  0
SPLINE
  5
143
100
AcDbEntity
  8
图层_1
 62
7
100
AcDbSpline
 70
8
 71
3
 72
8
 73
4
 74
0
 40
0
 40
0
 40
0
 40
0
 40
1
 40
1
 40
1
 40
1
 10
107.661520
 20
253.701527
 30
0.0
 10
107.978180
 20
253.279307
 30
0.0
 10
108.219490
 20
252.800057
 30
0.0
 10
108.422720
 20
252.312987
 30
0.0
  0
SPLINE
  5
144
100
AcDbEntity
  8
图层_1
 62
7
100
AcDbSpline
 70
8
 71
3
 72
8
 73
4
 74
0
 40
0
 40
0
 40
0
 40
0
 40
1
 40
1
 40
1
 40
1
 10
108.422720
 20
252.312987
 30
0.0
 10
108.644610
 20
251.781207
 30
0.0
 10
108.851910
 20
251.228967
 30
0.0
 10
108.915190
 20
250.656237
 30
0.0
  0
SPLINE
  5
145
100
AcDbEntity
  8
图层_1
 62
7
100
AcDbSpline
 70
8
 71
3
 72
8
 73
4
 74
0
 40
0
 40
0
 40
0
 40
0
 40
1
 40
1
 40
1
 40
1
 10
108.915190
 20
250.656237
 30
0.0
 10
108.962890
 20
250.224937
 30
0.0
 10
108.913190
 20
249.782527
 30
0.0
 10
108.825790
 20
249.357607
 30
0.0
  0
SPLINE
  5
146
100
AcDbEntity
  8
图层_1
 62
7
100
AcDbSpline
 70
8
 71
3
 72
8
 73
4
 74
0
 40
0
 40
0
 40
0
 40
0
 40
1
 40
1
 40
1
 40
1
 10
108.825790
 20
249.357607
 30
0.0
 10
108.716710
 20
248.830557
 30
0.0
 10
108.578820
 20
248.287827
 30
0.0
 10
108.288360
 20
247.834707
 30
0.0
  0
SPLINE
  5
147
100
AcDbEntity
  8
图层_1
 62
7
100
AcDbSpline
 70
8
 71
3
 72
8
 73
4
 74
0
 40
0
 40
0
 40
0
 40
0
 40
1
 40
1
 40
1
 40
1
 10
108.288360
 20
247.834707
 30
0.0
 10
107.918060
 20
247.257027
 30
0.0
 10
107.390640
 20
246.768017
 30
0.0
 10
106.810410
 20
246.401717
 30
0.0
  0
SPLINE
  5
148
100
AcDbEntity
  8
图层_1
 62
7
100
AcDbSpline
 70
8
 71
3
 72
8
 73
4
 74
0
 40
0
 40
0
 40
0
 40
0
 40
1
 40
1
 40
1
 40
1
 10
106.810410
 20
246.401717
 30
0.0
 10
106.231270
 20
246.036107
 30
0.0
 10
105.553210
 20
245.835007
 30
0.0
 10
104.884950
 20
245.684967
 30
0.0
  0
SPLINE
  5
149
100
AcDbEntity
  8
图层_1
 62
7
100
AcDbSpline
 70
8
 71
3
 72
8
 73
4
 74
0
 40
0
 40
0
 40
0
 40
0
 40
1
 40
1
 40
1
 40
1
 10
104.884950
 20
245.684967
 30
0.0
 10
103.861660
 20
245.455207
 30
0.0
 10
102.788300
 20
245.266677
 30
0.0
 10
101.750260
 20
245.416247
 30
0.0
  0
SPLINE
  5
14a
100
AcDbEntity
  8
图层_1
 62
7
100
AcDbSpline
 70
8
 71
3
 72
8
 73
4
 74
0
 40
0
 40
0
 40
0
 40
0
 40
1
 40
1
 40
1
 40
1
 10
101.750260
 20
245.416247
 30
0.0
 10
100.814640
 20
245.551057
 30
0.0
 10
99.925367
 20
245.971777
 30
0.0
 10
99.108037
 20
246.446677
 30
0.0
  0
SPLINE
  5
14b
100
AcDbEntity
  8
图层_1
 62
7
100
AcDbSpline
 70
8
 71
3
 72
8
 73
4
 74
0
 40
0
 40
0
 40
0
 40
0
 40
1
 40
1
 40
1
 40
1
 10
99.108037
 20
246.446677
 30
0.0
 10
98.144497
 20
247.006537
 30
0.0
 10
97.220297
 20
247.692557
 30
0.0
 10
96.510267
 20
248.551457
 30
0.0
  0
SPLINE
  5
14c
100
AcDbEntity
  8
图层_1
 62
7
100
AcDbSpline
 70
8
 71
3
 72
8
 73
4
 74
0
 40
0
 40
0
 40
0
 40
0
 40
1
 40
1
 40
1
 40
1
 10
96.510267
 20
248.551457
 30
0.0
 10
95.906027
 20
249.282387
 30
0.0
 10
95.539357
 20
250.187047
 30
0.0
 10
95.167197
 20
251.059317
 30
0.0
  0
SPLINE
  5
14d
100
AcDbEntity
  8
图层_1
 62
7
100
AcDbSpline
 70
8
 71
3
 72
8
 73
4
 74
0
 40
0
 40
0
 40
0
 40
0
 40
1
 40
1
 40
1
 40
1
 10
95.167197
 20
251.059317
 30
0.0
 10
94.902277
 20
251.680217
 30
0.0
 10
95.072597
 20
252.570187
 30
0.0
 10
94.539837
 20
252.984777
 30
0.0
  0
SPLINE
  5
14e
100
AcDbEntity
  8
图层_1
 62
7
100
AcDbSpline
 70
8
 71
3
 72
8
 73
4
 74
0
 40
0
 40
0
 40
0
 40
0
 40
1
 40
1
 40
1
 40
1
 10
94.539837
 20
252.984777
 30
0.0
 10
94.362727
 20
253.122597
 30
0.0
 10
93.833737
 20
253.251507
 30
0.0
 10
93.868047
 20
253.029777
 30
0.0
  0
SPLINE
  5
14f
100
AcDbEntity
  8
图层_1
 62
7
100
AcDbSpline
 70
8
 71
3
 72
8
 73
4
 74
0
 40
0
 40
0
 40
0
 40
0
 40
1
 40
1
 40
1
 40
1
 10
93.868047
 20
253.029777
 30
0.0
 10
94.327867
 20
250.057687
 30
0.0
 10
94.566917
 20
247.978817
 30
0.0
 10
94.898477
 20
245.103127
 30
0.0
  0
SPLINE
  5
150
100
AcDbEntity
  8
图层_1
 62
7
100
AcDbSpline
 70
8
 71
3
 72
8
 73
4
 74
0
 40
0
 40
0
 40
0
 40
0
 40
1
 40
1
 40
1
 40
1
 10
94.898477
 20
245.103127
 30
0.0
 10
94.916977
 20
244.942727
 30
0.0
 10
95.301037
 20
244.834407
 30
0.0
 10
95.301037
 20
244.834407
 30
0.0
  0
SPLINE
  5
151
100
AcDbEntity
  8
图层_1
 62
7
100
AcDbSpline
 70
8
 71
3
 72
8
 73
4
 74
0
 40
0
 40
0
 40
0
 40
0
 40
1
 40
1
 40
1
 40
1
 10
95.301037
 20
244.834407
 30
0.0
 10
95.301037
 20
244.834407
 30
0.0
 10
95.881787
 20
245.503657
 30
0.0
 10
96.286507
 20
245.595607
 30
0.0
  0
SPLINE
  5
152
100
AcDbEntity
  8
图层_1
 62
7
100
AcDbSpline
 70
8
 71
3
 72
8
 73
4
 74
0
 40
0
 40
0
 40
0
 40
0
 40
1
 40
1
 40
1
 40
1
 10
96.286507
 20
245.595607
 30
0.0
 10
96.494927
 20
245.642907
 30
0.0
 10
96.706727
 20
245.516007
 30
0.0
 10
96.913337
 20
245.461247
 30
0.0
  0
SPLINE
  5
153
100
AcDbEntity
  8
图层_1
 62
7
100
AcDbSpline
 70
8
 71
3
 72
8
 73
4
 74
0
 40
0
 40
0
 40
0
 40
0
 40
1
 40
1
 40
1
 40
1
 10
96.913337
 20
245.461247
 30
0.0
 10
97.821507
 20
245.220737
 30
0.0
 10
99.600517
 20
244.610647
 30
0.0
 10
99.600517
 20
244.610647
 30
0.0
  0
LWPOLYLINE
  5
154
100
AcDbEntity
  8
图层_1
 62
7
100
AcDbPolyline
 90
2
 70
0
 10
102.824610
 20
274.704377
 30
0.0
 10
100.451110
 20
274.346267
 30
0.0
  0
SPLINE
  5
155
100
AcDbEntity
  8
图层_1
 62
7
100
AcDbSpline
 70
8
 71
3
 72
8
 73
4
 74
0
 40
0
 40
0
 40
0
 40
0
 40
1
 40
1
 40
1
 40
1
 10
100.944100
 20
244.162617
 30
0.0
 10
100.944100
 20
244.162617
 30
0.0
 10
102.256240
 20
244.020137
 30
0.0
 10
102.914530
 20
244.028257
 30
0.0
  0
SPLINE
  5
156
100
AcDbEntity
  8
图层_1
 62
7
100
AcDbSpline
 70
8
 71
3
 72
8
 73
4
 74
0
 40
0
 40
0
 40
0
 40
0
 40
1
 40
1
 40
1
 40
1
 10
102.914530
 20
244.028257
 30
0.0
 10
104.203740
 20
244.044157
 30
0.0
 10
105.524750
 20
244.036257
 30
0.0
 10
106.765450
 20
244.386377
 30
0.0
  0
SPLINE
  5
157
100
AcDbEntity
  8
图层_1
 62
7
100
AcDbSpline
 70
8
 71
3
 72
8
 73
4
 74
0
 40
0
 40
0
 40
0
 40
0
 40
1
 40
1
 40
1
 40
1
 10
106.765450
 20
244.386377
 30
0.0
 10
107.934670
 20
244.716847
 30
0.0
 10
109.060920
 20
245.272457
 30
0.0
 10
110.035020
 20
245.998677
 30
0.0
  0
SPLINE
  5
158
100
AcDbEntity
  8
图层_1
 62
7
100
AcDbSpline
 70
8
 71
3
 72
8
 73
4
 74
0
 40
0
 40
0
 40
0
 40
0
 40
1
 40
1
 40
1
 40
1
 10
110.035020
 20
245.998677
 30
0.0
 10
110.932680
 20
246.667907
 30
0.0
 10
111.769960
 20
247.485537
 30
0.0
 10
112.318600
 20
248.461577
 30
0.0
  0
SPLINE
  5
159
100
AcDbEntity
  8
图层_1
 62
7
100
AcDbSpline
 70
8
 71
3
 72
8
 73
4
 74
0
 40
0
 40
0
 40
0
 40
0
 40
1
 40
1
 40
1
 40
1
 10
112.318600
 20
248.461577
 30
0.0
 10
112.881260
 20
249.462537
 30
0.0
 10
113.158530
 20
250.631737
 30
0.0
 10
113.259110
 20
251.775587
 30
0.0
  0
SPLINE
  5
15a
100
AcDbEntity
  8
图层_1
 62
7
100
AcDbSpline
 70
8
 71
3
 72
8
 73
4
 74
0
 40
0
 40
0
 40
0
 40
0
 40
1
 40
1
 40
1
 40
1
 10
113.259110
 20
251.775587
 30
0.0
 10
113.349810
 20
252.806897
 30
0.0
 10
113.270910
 20
253.882887
 30
0.0
 10
112.945960
 20
254.865837
 30
0.0
  0
SPLINE
  5
15b
100
AcDbEntity
  8
图层_1
 62
7
100
AcDbSpline
 70
8
 71
3
 72
8
 73
4
 74
0
 40
0
 40
0
 40
0
 40
0
 40
1
 40
1
 40
1
 40
1
 10
112.945960
 20
254.865837
 30
0.0
 10
112.662250
 20
255.723857
 30
0.0
 10
112.127080
 20
256.492837
 30
0.0
 10
111.557410
 20
257.194377
 30
0.0
  0
SPLINE
  5
15c
100
AcDbEntity
  8
图层_1
 62
7
100
AcDbSpline
 70
8
 71
3
 72
8
 73
4
 74
0
 40
0
 40
0
 40
0
 40
0
 40
1
 40
1
 40
1
 40
1
 10
111.557410
 20
257.194377
 30
0.0
 10
111.071270
 20
257.793057
 30
0.0
 10
110.459040
 20
258.281387
 30
0.0
 10
109.855700
 20
258.761727
 30
0.0
  0
SPLINE
  5
15d
100
AcDbEntity
  8
图层_1
 62
7
100
AcDbSpline
 70
8
 71
3
 72
8
 73
4
 74
0
 40
0
 40
0
 40
0
 40
0
 40
1
 40
1
 40
1
 40
1
 10
109.855700
 20
258.761727
 30
0.0
 10
108.553520
 20
259.798447
 30
0.0
 10
107.161910
 20
260.725387
 30
0.0
 10
105.735540
 20
261.583257
 30
0.0
  0
SPLINE
  5
15e
100
AcDbEntity
  8
图层_1
 62
7
100
AcDbSpline
 70
8
 71
3
 72
8
 73
4
 74
0
 40
0
 40
0
 40
0
 40
0
 40
1
 40
1
 40
1
 40
1
 10
105.735540
 20
261.583257
 30
0.0
 10
105.129020
 20
261.948037
 30
0.0
 10
104.447590
 20
262.181157
 30
0.0
 10
103.855040
 20
262.568207
 30
0.0
  0
SPLINE
  5
15f
100
AcDbEntity
  8
图层_1
 62
7
100
AcDbSpline
 70
8
 71
3
 72
8
 73
4
 74
0
 40
0
 40
0
 40
0
 40
0
 40
1
 40
1
 40
1
 40
1
 10
103.855040
 20
262.568207
 30
0.0
 10
102.894750
 20
263.195477
 30
0.0
 10
101.167860
 20
264.717947
 30
0.0
 10
101.167860
 20
264.717947
 30
0.0
  0
SPLINE
  5
160
100
AcDbEntity
  8
图层_1
 62
7
100
AcDbSpline
 70
8
 71
3
 72
8
 73
4
 74
0
 40
0
 40
0
 40
0
 40
0
 40
1
 40
1
 40
1
 40
1
 10
101.167860
 20
264.717947
 30
0.0
 10
101.167860
 20
264.717947
 30
0.0
 10
99.785807
 20
265.784497
 30
0.0
 10
99.331797
 20
266.509057
 30
0.0
  0
SPLINE
  5
161
100
AcDbEntity
  8
图层_1
 62
7
100
AcDbSpline
 70
8
 71
3
 72
8
 73
4
 74
0
 40
0
 40
0
 40
0
 40
0
 40
1
 40
1
 40
1
 40
1
 10
99.331797
 20
266.509057
 30
0.0
 10
99.106217
 20
266.869067
 30
0.0
 10
98.996767
 20
267.298927
 30
0.0
 10
98.928717
 20
267.718287
 30
0.0
  0
SPLINE
  5
162
100
AcDbEntity
  8
图层_1
 62
7
100
AcDbSpline
 70
8
 71
3
 72
8
 73
4
 74
0
 40
0
 40
0
 40
0
 40
0
 40
1
 40
1
 40
1
 40
1
 10
98.928717
 20
267.718287
 30
0.0
 10
98.852217
 20
268.189807
 30
0.0
 10
98.848917
 20
268.680297
 30
0.0
 10
98.928717
 20
269.151277
 30
0.0
  0
SPLINE
  5
163
100
AcDbEntity
  8
图层_1
 62
7
100
AcDbSpline
 70
8
 71
3
 72
8
 73
4
 74
0
 40
0
 40
0
 40
0
 40
0
 40
1
 40
1
 40
1
 40
1
 10
98.928717
 20
269.151277
 30
0.0
 10
99.042267
 20
269.821537
 30
0.0
 10
99.215097
 20
270.517247
 30
0.0
 10
99.600517
 20
271.077257
 30
0.0
  0
SPLINE
  5
164
100
AcDbEntity
  8
图层_1
 62
7
100
AcDbSpline
 70
8
 71
3
 72
8
 73
4
 74
0
 40
0
 40
0
 40
0
 40
0
 40
1
 40
1
 40
1
 40
1
 10
99.600517
 20
271.077257
 30
0.0
 10
99.954857
 20
271.592107
 30
0.0
 10
100.469240
 20
272.017697
 30
0.0
 10
101.033500
 20
272.286477
 30
0.0
  0
SPLINE
  5
165
100
AcDbEntity
  8
图层_1
 62
7
100
AcDbSpline
 70
8
 71
3
 72
8
 73
4
 74
0
 40
0
 40
0
 40
0
 40
0
 40
1
 40
1
 40
1
 40
1
 10
101.033500
 20
272.286477
 30
0.0
 10
101.897800
 20
272.698177
 30
0.0
 10
102.900170
 20
272.754617
 30
0.0
 10
103.855040
 20
272.823397
 30
0.0
  0
SPLINE
  5
166
100
AcDbEntity
  8
图层_1
 62
7
100
AcDbSpline
 70
8
 71
3
 72
8
 73
4
 74
0
 40
0
 40
0
 40
0
 40
0
 40
1
 40
1
 40
1
 40
1
 10
103.855040
 20
272.823397
 30
0.0
 10
104.525710
 20
272.871697
 30
0.0
 10
105.215830
 20
272.889897
 30
0.0
 10
105.869900
 20
272.733997
 30
0.0
  0
SPLINE
  5
167
100
AcDbEntity
  8
图层_1
 62
7
100
AcDbSpline
 70
8
 71
3
 72
8
 73
4
 74
0
 40
0
 40
0
 40
0
 40
0
 40
1
 40
1
 40
1
 40
1
 10
105.869900
 20
272.733997
 30
0.0
 10
106.682270
 20
272.540307
 30
0.0
 10
107.481400
 20
272.199137
 30
0.0
 10
108.154000
 20
271.704087
 30
0.0
  0
SPLINE
  5
168
100
AcDbEntity
  8
图层_1
 62
7
100
AcDbSpline
 70
8
 71
3
 72
8
 73
4
 74
0
 40
0
 40
0
 40
0
 40
0
 40
1
 40
1
 40
1
 40
1
 10
108.154000
 20
271.704087
 30
0.0
 10
109.005630
 20
271.077267
 30
0.0
 10
110.258780
 20
269.330587
 30
0.0
 10
110.258780
 20
269.330587
 30
0.0
  0
LWPOLYLINE
  5
169
100
AcDbEntity
  8
图层_1
 62
7
100
AcDbPolyline
 90
2
 70
0
 10
99.600517
 20
244.610647
 30
0.0
 10
100.944100
 20
244.162617
 30
0.0
  0
SPLINE
  5
16a
100
AcDbEntity
  8
图层_1
 62
7
100
AcDbSpline
 70
8
 71
3
 72
8
 73
4
 74
0
 40
0
 40
0
 40
0
 40
0
 40
1
 40
1
 40
1
 40
1
 10
142.603060
 20
274.504397
 30
0.0
 10
138.537660
 20
274.493997
 30
0.0
 10
133.868710
 20
274.372107
 30
0.0
 10
133.868710
 20
274.372107
 30
0.0
  0
LWPOLYLINE
  5
16b
100
AcDbEntity
  8
图层_1
 62
7
100
AcDbPolyline
 90
10
 70
0
 10
110.258780
 20
269.330587
 30
0.0
 10
111.468010
 20
267.180847
 30
0.0
 10
112.049890
 20
267.360167
 30
0.0
 10
111.288690
 20
274.077587
 30
0.0
 10
110.348180
 20
273.540147
 30
0.0
 10
108.960150
 20
273.450747
 30
0.0
 10
108.109040
 20
273.450747
 30
0.0
 10
106.138620
 20
274.390747
 30
0.0
 10
104.661190
 20
274.615017
 30
0.0
 10
102.824610
 20
274.704377
 30
0.0
  0
SPLINE
  5
16c
100
AcDbEntity
  8
图层_1
 62
7
100
AcDbSpline
 70
8
 71
3
 72
8
 73
4
 74
0
 40
0
 40
0
 40
0
 40
0
 40
1
 40
1
 40
1
 40
1
 10
133.942110
 20
273.930787
 30
0.0
 10
133.942110
 20
273.930787
 30
0.0
 10
135.336490
 20
273.228687
 30
0.0
 10
135.933200
 20
272.735507
 30
0.0
  0
SPLINE
  5
16d
100
AcDbEntity
  8
图层_1
 62
7
100
AcDbSpline
 70
8
 71
3
 72
8
 73
4
 74
0
 40
0
 40
0
 40
0
 40
0
 40
1
 40
1
 40
1
 40
1
 10
135.933200
 20
272.735507
 30
0.0
 10
136.260250
 20
272.465207
 30
0.0
 10
136.782250
 20
271.787247
 30
0.0
 10
136.782250
 20
271.787247
 30
0.0
  0
LWPOLYLINE
  5
16e
100
AcDbEntity
  8
图层_1
 62
7
100
AcDbPolyline
 90
2
 70
0
 10
133.868710
 20
274.372107
 30
0.0
 10
133.942110
 20
273.930787
 30
0.0
  0
SPLINE
  5
16f
100
AcDbEntity
  8
图层_1
 62
7
100
AcDbSpline
 70
8
 71
3
 72
8
 73
4
 74
0
 40
0
 40
0
 40
0
 40
0
 40
1
 40
1
 40
1
 40
1
 10
136.954870
 20
247.182027
 30
0.0
 10
136.954870
 20
247.182027
 30
0.0
 10
136.786400
 20
245.816557
 30
0.0
 10
136.323900
 20
245.378527
 30
0.0
  0
SPLINE
  5
170
100
AcDbEntity
  8
图层_1
 62
7
100
AcDbSpline
 70
8
 71
3
 72
8
 73
4
 74
0
 40
0
 40
0
 40
0
 40
0
 40
1
 40
1
 40
1
 40
1
 10
136.323900
 20
245.378527
 30
0.0
 10
135.426490
 20
244.528607
 30
0.0
 10
132.762360
 20
244.345507
 30
0.0
 10
132.762360
 20
244.345507
 30
0.0
  0
LWPOLYLINE
  5
171
100
AcDbEntity
  8
图层_1
 62
7
100
AcDbPolyline
 90
15
 70
0
 10
136.782250
 20
271.787247
 30
0.0
 10
136.950710
 20
271.129407
 30
0.0
 10
136.881510
 20
259.012837
 30
0.0
 10
135.448520
 20
259.050037
 30
0.0
 10
134.125600
 20
258.902767
 30
0.0
 10
133.538040
 20
258.388577
 30
0.0
 10
133.060030
 20
257.763817
 30
0.0
 10
132.472470
 20
256.514797
 30
0.0
 10
132.692610
 20
255.779957
 30
0.0
 10
132.913270
 20
255.706057
 30
0.0
 10
133.721490
 20
256.661557
 30
0.0
 10
135.191170
 20
257.028977
 30
0.0
 10
136.807610
 20
257.102877
 30
0.0
 10
137.028270
 20
257.028977
 30
0.0
 10
136.954870
 20
247.182027
 30
0.0
  0
SPLINE
  5
172
100
AcDbEntity
  8
图层_1
 62
7
100
AcDbSpline
 70
8
 71
3
 72
8
 73
4
 74
0
 40
0
 40
0
 40
0
 40
0
 40
1
 40
1
 40
1
 40
1
 10
146.139830
 20
244.367217
 30
0.0
 10
146.139830
 20
244.367217
 30
0.0
 10
143.034900
 20
244.313717
 30
0.0
 10
142.063080
 20
245.314957
 30
0.0
  0
SPLINE
  5
173
100
AcDbEntity
  8
图层_1
 62
7
100
AcDbSpline
 70
8
 71
3
 72
8
 73
4
 74
0
 40
0
 40
0
 40
0
 40
0
 40
1
 40
1
 40
1
 40
1
 10
142.063080
 20
245.314957
 30
0.0
 10
141.638100
 20
245.752777
 30
0.0
 10
141.701860
 20
247.109167
 30
0.0
 10
141.701860
 20
247.109167
 30
0.0
  0
LWPOLYLINE
  5
174
100
AcDbEntity
  8
图层_1
 62
7
100
AcDbPolyline
 90
4
 70
0
 10
132.762360
 20
244.345507
 30
0.0
 10
132.644020
 20
243.923317
 30
0.0
 10
146.249910
 20
243.922797
 30
0.0
 10
146.139830
 20
244.367217
 30
0.0
  0
SPLINE
  5
175
100
AcDbEntity
  8
图层_1
 62
7
100
AcDbSpline
 70
8
 71
3
 72
8
 73
4
 74
0
 40
0
 40
0
 40
0
 40
0
 40
1
 40
1
 40
1
 40
1
 10
142.062280
 20
257.036727
 30
0.0
 10
142.062280
 20
257.036727
 30
0.0
 10
148.068150
 20
257.100927
 30
0.0
 10
151.081370
 20
257.484247
 30
0.0
  0
SPLINE
  5
176
100
AcDbEntity
  8
图层_1
 62
7
100
AcDbSpline
 70
8
 71
3
 72
8
 73
4
 74
0
 40
0
 40
0
 40
0
 40
0
 40
1
 40
1
 40
1
 40
1
 10
151.081370
 20
257.484247
 30
0.0
 10
151.782690
 20
257.573447
 30
0.0
 10
152.490780
 20
257.715307
 30
0.0
 10
153.138600
 20
257.998427
 30
0.0
  0
SPLINE
  5
177
100
AcDbEntity
  8
图层_1
 62
7
100
AcDbSpline
 70
8
 71
3
 72
8
 73
4
 74
0
 40
0
 40
0
 40
0
 40
0
 40
1
 40
1
 40
1
 40
1
 10
153.138600
 20
257.998427
 30
0.0
 10
153.835850
 20
258.303157
 30
0.0
 10
154.656630
 20
259.223137
 30
0.0
 10
155.236670
 20
259.715637
 30
0.0
  0
SPLINE
  5
178
100
AcDbEntity
  8
图层_1
 62
7
100
AcDbSpline
 70
8
 71
3
 72
8
 73
4
 74
0
 40
0
 40
0
 40
0
 40
0
 40
1
 40
1
 40
1
 40
1
 10
155.236670
 20
259.715637
 30
0.0
 10
155.844610
 20
260.231827
 30
0.0
 10
156.336390
 20
261.022257
 30
0.0
 10
156.806600
 20
261.666417
 30
0.0
  0
SPLINE
  5
179
100
AcDbEntity
  8
图层_1
 62
7
100
AcDbSpline
 70
8
 71
3
 72
8
 73
4
 74
0
 40
0
 40
0
 40
0
 40
0
 40
1
 40
1
 40
1
 40
1
 10
156.806600
 20
261.666417
 30
0.0
 10
157.155900
 20
262.144957
 30
0.0
 10
157.456790
 20
262.646427
 30
0.0
 10
157.641170
 20
263.209477
 30
0.0
  0
SPLINE
  5
17a
100
AcDbEntity
  8
图层_1
 62
7
100
AcDbSpline
 70
8
 71
3
 72
8
 73
4
 74
0
 40
0
 40
0
 40
0
 40
0
 40
1
 40
1
 40
1
 40
1
 10
157.641170
 20
263.209477
 30
0.0
 10
157.909720
 20
264.029537
 30
0.0
 10
157.924090
 20
264.918567
 30
0.0
 10
157.935210
 20
265.781417
 30
0.0
  0
SPLINE
  5
17b
100
AcDbEntity
  8
图层_1
 62
7
100
AcDbSpline
 70
8
 71
3
 72
8
 73
4
 74
0
 40
0
 40
0
 40
0
 40
0
 40
1
 40
1
 40
1
 40
1
 10
157.935210
 20
265.781417
 30
0.0
 10
157.945910
 20
266.617417
 30
0.0
 10
157.948610
 20
267.477187
 30
0.0
 10
157.715070
 20
268.279967
 30
0.0
  0
SPLINE
  5
17c
100
AcDbEntity
  8
图层_1
 62
7
100
AcDbSpline
 70
8
 71
3
 72
8
 73
4
 74
0
 40
0
 40
0
 40
0
 40
0
 40
1
 40
1
 40
1
 40
1
 10
157.715070
 20
268.279967
 30
0.0
 10
157.506910
 20
268.995287
 30
0.0
 10
157.121720
 20
269.659927
 30
0.0
 10
156.686190
 20
270.264347
 30
0.0
  0
SPLINE
  5
17d
100
AcDbEntity
  8
图层_1
 62
7
100
AcDbSpline
 70
8
 71
3
 72
8
 73
4
 74
0
 40
0
 40
0
 40
0
 40
0
 40
1
 40
1
 40
1
 40
1
 10
156.686190
 20
270.264347
 30
0.0
 10
156.007660
 20
271.205957
 30
0.0
 10
155.202990
 20
272.084837
 30
0.0
 10
154.261020
 20
272.762897
 30
0.0
  0
SPLINE
  5
17e
100
AcDbEntity
  8
图层_1
 62
7
100
AcDbSpline
 70
8
 71
3
 72
8
 73
4
 74
0
 40
0
 40
0
 40
0
 40
0
 40
1
 40
1
 40
1
 40
1
 10
154.261020
 20
272.762897
 30
0.0
 10
153.709740
 20
273.159747
 30
0.0
 10
153.061860
 20
273.411187
 30
0.0
 10
152.423920
 20
273.644497
 30
0.0
  0
SPLINE
  5
17f
100
AcDbEntity
  8
图层_1
 62
7
100
AcDbSpline
 70
8
 71
3
 72
8
 73
4
 74
0
 40
0
 40
0
 40
0
 40
0
 40
1
 40
1
 40
1
 40
1
 10
152.423920
 20
273.644497
 30
0.0
 10
151.782220
 20
273.879157
 30
0.0
 10
151.117390
 20
274.069057
 30
0.0
 10
150.440060
 20
274.158677
 30
0.0
  0
SPLINE
  5
180
100
AcDbEntity
  8
图层_1
 62
7
100
AcDbSpline
 70
8
 71
3
 72
8
 73
4
 74
0
 40
0
 40
0
 40
0
 40
0
 40
1
 40
1
 40
1
 40
1
 10
150.440060
 20
274.158677
 30
0.0
 10
148.348530
 20
274.435427
 30
0.0
 10
145.384930
 20
274.511537
 30
0.0
 10
142.603330
 20
274.504397
 30
0.0
  0
LWPOLYLINE
  5
181
100
AcDbEntity
  8
图层_1
 62
7
100
AcDbPolyline
 90
3
 70
0
 10
141.701860
 20
247.109167
 30
0.0
 10
141.694860
 20
256.668787
 30
0.0
 10
142.062280
 20
257.036727
 30
0.0
  0
SPLINE
  5
182
100
AcDbEntity
  8
图层_1
 62
7
100
AcDbSpline
 70
8
 71
3
 72
8
 73
4
 74
0
 40
0
 40
0
 40
0
 40
0
 40
1
 40
1
 40
1
 40
1
 10
228.487220
 20
274.097187
 30
0.0
 10
223.943671
 20
274.097138
 30
0.0
 10
219.586235
 20
272.445639
 30
0.0
 10
216.373502
 20
269.506001
 30
0.0
  0
SPLINE
  5
183
100
AcDbEntity
  8
图层_1
 62
7
100
AcDbSpline
 70
8
 71
3
 72
8
 73
4
 74
0
 40
0
 40
0
 40
0
 40
0
 40
1
 40
1
 40
1
 40
1
 10
216.373502
 20
269.506001
 30
0.0
 10
213.160768
 20
266.566364
 30
0.0
 10
211.355908
 20
262.579389
 30
0.0
 10
211.355970
 20
258.422167
 30
0.0
  0
SPLINE
  5
184
100
AcDbEntity
  8
图层_1
 62
7
100
AcDbSpline
 70
8
 71
3
 72
8
 73
4
 74
0
 40
0
 40
0
 40
0
 40
0
 40
1
 40
1
 40
1
 40
1
 10
211.355970
 20
258.422167
 30
0.0
 10
211.356161
 20
249.765407
 30
0.0
 10
219.025994
 20
242.747780
 30
0.0
 10
228.487220
 20
242.747677
 30
0.0
  0
SPLINE
  5
185
100
AcDbEntity
  8
图层_1
 62
7
100
AcDbSpline
 70
8
 71
3
 72
8
 73
4
 74
0
 40
0
 40
0
 40
0
 40
0
 40
1
 40
1
 40
1
 40
1
 10
228.487220
 20
242.747677
 30
0.0
 10
237.948450
 20
242.747775
 30
0.0
 10
245.618289
 20
249.765403
 30
0.0
 10
245.618480
 20
258.422167
 30
0.0
  0
SPLINE
  5
186
100
AcDbEntity
  8
图层_1
 62
7
100
AcDbSpline
 70
8
 71
3
 72
8
 73
4
 74
0
 40
0
 40
0
 40
0
 40
0
 40
1
 40
1
 40
1
 40
1
 10
245.618480
 20
258.422167
 30
0.0
 10
245.618542
 20
262.579391
 30
0.0
 10
243.813680
 20
266.566367
 30
0.0
 10
240.600945
 20
269.506005
 30
0.0
  0
SPLINE
  5
187
100
AcDbEntity
  8
图层_1
 62
7
100
AcDbSpline
 70
8
 71
3
 72
8
 73
4
 74
0
 40
0
 40
0
 40
0
 40
0
 40
1
 40
1
 40
1
 40
1
 10
240.600945
 20
269.506005
 30
0.0
 10
237.388209
 20
272.445642
 30
0.0
 10
233.030771
 20
274.097140
 30
0.0
 10
228.487220
 20
274.097187
 30
0.0
  0
LWPOLYLINE
  5
188
100
AcDbEntity
  8
图层_1
 62
7
100
AcDbPolyline
 90
2
 70
0
 10
142.603330
 20
274.504397
 30
0.0
 10
142.603060
 20
274.504397
 30
0.0
  0
LWPOLYLINE
  5
189
100
AcDbEntity
  8
图层_1
 62
7
100
AcDbPolyline
 90
1
 70
1
 10
228.487220
 20
274.097187
 30
0.0
  0
SPLINE
  5
18a
100
AcDbEntity
  8
图层_1
 62
7
100
AcDbSpline
 70
8
 71
3
 72
8
 73
4
 74
0
 40
0
 40
0
 40
0
 40
0
 40
1
 40
1
 40
1
 40
1
 10
195.544530
 20
273.503937
 30
0.0
 10
194.856430
 20
273.510937
 30
0.0
 10
194.168830
 20
273.487437
 30
0.0
 10
193.486260
 20
273.412437
 30
0.0
  0
SPLINE
  5
18b
100
AcDbEntity
  8
图层_1
 62
7
100
AcDbSpline
 70
8
 71
3
 72
8
 73
4
 74
0
 40
0
 40
0
 40
0
 40
0
 40
1
 40
1
 40
1
 40
1
 10
193.486260
 20
273.412437
 30
0.0
 10
192.528630
 20
273.307317
 30
0.0
 10
191.584860
 20
273.072687
 30
0.0
 10
190.665240
 20
272.785607
 30
0.0
  0
SPLINE
  5
18c
100
AcDbEntity
  8
图层_1
 62
7
100
AcDbSpline
 70
8
 71
3
 72
8
 73
4
 74
0
 40
0
 40
0
 40
0
 40
0
 40
1
 40
1
 40
1
 40
1
 10
190.665240
 20
272.785607
 30
0.0
 10
189.342190
 20
272.372587
 30
0.0
 10
188.026500
 20
271.889377
 30
0.0
 10
186.813800
 20
271.218257
 30
0.0
  0
SPLINE
  5
18d
100
AcDbEntity
  8
图层_1
 62
7
100
AcDbSpline
 70
8
 71
3
 72
8
 73
4
 74
0
 40
0
 40
0
 40
0
 40
0
 40
1
 40
1
 40
1
 40
1
 10
186.813800
 20
271.218257
 30
0.0
 10
185.719090
 20
270.612437
 30
0.0
 10
184.642370
 20
269.919487
 30
0.0
 10
183.768510
 20
269.024077
 30
0.0
  0
SPLINE
  5
18e
100
AcDbEntity
  8
图层_1
 62
7
100
AcDbSpline
 70
8
 71
3
 72
8
 73
4
 74
0
 40
0
 40
0
 40
0
 40
0
 40
1
 40
1
 40
1
 40
1
 10
183.768510
 20
269.024077
 30
0.0
 10
182.328350
 20
267.548407
 30
0.0
 10
181.113550
 20
265.802497
 30
0.0
 10
180.275700
 20
263.918447
 30
0.0
  0
SPLINE
  5
18f
100
AcDbEntity
  8
图层_1
 62
7
100
AcDbSpline
 70
8
 71
3
 72
8
 73
4
 74
0
 40
0
 40
0
 40
0
 40
0
 40
1
 40
1
 40
1
 40
1
 10
180.275700
 20
263.918447
 30
0.0
 10
179.732820
 20
262.697717
 30
0.0
 10
179.480840
 20
261.350597
 30
0.0
 10
179.335180
 20
260.022557
 30
0.0
  0
SPLINE
  5
190
100
AcDbEntity
  8
图层_1
 62
7
100
AcDbSpline
 70
8
 71
3
 72
8
 73
4
 74
0
 40
0
 40
0
 40
0
 40
0
 40
1
 40
1
 40
1
 40
1
 10
179.335180
 20
260.022557
 30
0.0
 10
179.157750
 20
258.404887
 30
0.0
 10
179.169000
 20
256.748397
 30
0.0
 10
179.424580
 20
255.141207
 30
0.0
  0
SPLINE
  5
191
100
AcDbEntity
  8
图层_1
 62
7
100
AcDbSpline
 70
8
 71
3
 72
8
 73
4
 74
0
 40
0
 40
0
 40
0
 40
0
 40
1
 40
1
 40
1
 40
1
 10
179.424580
 20
255.141207
 30
0.0
 10
179.664860
 20
253.630277
 30
0.0
 10
180.062420
 20
252.109747
 30
0.0
 10
180.768170
 20
250.752327
 30
0.0
  0
SPLINE
  5
192
100
AcDbEntity
  8
图层_1
 62
7
100
AcDbSpline
 70
8
 71
3
 72
8
 73
4
 74
0
 40
0
 40
0
 40
0
 40
0
 40
1
 40
1
 40
1
 40
1
 10
180.768170
 20
250.752327
 30
0.0
 10
181.518880
 20
249.308437
 30
0.0
 10
182.556570
 20
247.986957
 30
0.0
 10
183.768510
 20
246.900877
 30
0.0
  0
SPLINE
  5
193
100
AcDbEntity
  8
图层_1
 62
7
100
AcDbSpline
 70
8
 71
3
 72
8
 73
4
 74
0
 40
0
 40
0
 40
0
 40
0
 40
1
 40
1
 40
1
 40
1
 10
183.768510
 20
246.900877
 30
0.0
 10
184.721830
 20
246.046547
 30
0.0
 10
185.885210
 20
245.443517
 30
0.0
 10
187.037560
 20
244.886017
 30
0.0
  0
SPLINE
  5
194
100
AcDbEntity
  8
图层_1
 62
7
100
AcDbSpline
 70
8
 71
3
 72
8
 73
4
 74
0
 40
0
 40
0
 40
0
 40
0
 40
1
 40
1
 40
1
 40
1
 10
187.037560
 20
244.886017
 30
0.0
 10
188.138550
 20
244.353367
 30
0.0
 10
189.300430
 20
243.932597
 30
0.0
 10
190.485930
 20
243.631827
 30
0.0
  0
SPLINE
  5
195
100
AcDbEntity
  8
图层_1
 62
7
100
AcDbSpline
 70
8
 71
3
 72
8
 73
4
 74
0
 40
0
 40
0
 40
0
 40
0
 40
1
 40
1
 40
1
 40
1
 10
190.485930
 20
243.631827
 30
0.0
 10
191.466100
 20
243.383147
 30
0.0
 10
192.477440
 20
243.254157
 30
0.0
 10
193.486260
 20
243.184307
 30
0.0
  0
SPLINE
  5
196
100
AcDbEntity
  8
图层_1
 62
7
100
AcDbSpline
 70
8
 71
3
 72
8
 73
4
 74
0
 40
0
 40
0
 40
0
 40
0
 40
1
 40
1
 40
1
 40
1
 10
193.486260
 20
243.184307
 30
0.0
 10
194.990420
 20
243.080157
 30
0.0
 10
196.508980
 20
243.081137
 30
0.0
 10
198.009500
 20
243.228807
 30
0.0
  0
SPLINE
  5
197
100
AcDbEntity
  8
图层_1
 62
7
100
AcDbSpline
 70
8
 71
3
 72
8
 73
4
 74
0
 40
0
 40
0
 40
0
 40
0
 40
1
 40
1
 40
1
 40
1
 10
198.009500
 20
243.228807
 30
0.0
 10
199.052590
 20
243.331427
 30
0.0
 10
201.099750
 20
243.811197
 30
0.0
 10
201.099750
 20
243.811197
 30
0.0
  0
LWPOLYLINE
  5
198
100
AcDbEntity
  8
图层_1
 62
7
100
AcDbPolyline
 90
28
 70
1
 10
161.883020
 20
273.914767
 30
0.0
 10
161.883020
 20
273.268297
 30
0.0
 10
164.273050
 20
273.203697
 30
0.0
 10
165.112800
 20
272.945317
 30
0.0
 10
165.371180
 20
272.622337
 30
0.0
 10
165.758750
 20
272.105577
 30
0.0
 10
166.017130
 20
271.847187
 30
0.0
 10
166.017130
 20
271.201237
 30
0.0
 10
166.017130
 20
246.266327
 30
0.0
 10
165.823350
 20
245.813637
 30
0.0
 10
165.371180
 20
245.167687
 30
0.0
 10
164.596030
 20
244.715517
 30
0.0
 10
163.110340
 20
244.521727
 30
0.0
 10
161.818420
 20
244.457127
 30
0.0
 10
162.012210
 20
243.811167
 30
0.0
 10
175.642390
 20
243.940357
 30
0.0
 10
175.642390
 20
244.586317
 30
0.0
 10
172.606400
 20
244.780097
 30
0.0
 10
172.154230
 20
245.103077
 30
0.0
 10
171.637460
 20
245.684437
 30
0.0
 10
171.314490
 20
246.524697
 30
0.0
 10
171.379090
 20
271.330417
 30
0.0
 10
171.895860
 20
272.170157
 30
0.0
 10
172.154240
 20
272.686927
 30
0.0
 10
173.123170
 20
273.203687
 30
0.0
 10
174.415080
 20
273.397477
 30
0.0
 10
175.448610
 20
273.462077
 30
0.0
 10
175.448610
 20
273.914767
 30
0.0
  0
SPLINE
  5
199
100
AcDbEntity
  8
图层_1
 62
7
100
AcDbSpline
 70
8
 71
3
 72
8
 73
4
 74
0
 40
0
 40
0
 40
0
 40
0
 40
1
 40
1
 40
1
 40
1
 10
207.234770
 20
246.274097
 30
0.0
 10
207.234770
 20
246.274097
 30
0.0
 10
207.568000
 20
247.586487
 30
0.0
 10
207.727250
 20
248.244517
 30
0.0
  0
SPLINE
  5
19a
100
AcDbEntity
  8
图层_1
 62
7
100
AcDbSpline
 70
8
 71
3
 72
8
 73
4
 74
0
 40
0
 40
0
 40
0
 40
0
 40
1
 40
1
 40
1
 40
1
 10
207.727250
 20
248.244517
 30
0.0
 10
207.896730
 20
248.944857
 30
0.0
 10
208.220240
 20
250.349297
 30
0.0
 10
208.220240
 20
250.349297
 30
0.0
  0
LWPOLYLINE
  5
19b
100
AcDbEntity
  8
图层_1
 62
7
100
AcDbPolyline
 90
4
 70
0
 10
201.099750
 20
243.811197
 30
0.0
 10
205.219390
 20
245.064867
 30
0.0
 10
206.921100
 20
245.781617
 30
0.0
 10
207.234770
 20
246.274097
 30
0.0
  0
SPLINE
  5
19c
100
AcDbEntity
  8
图层_1
 62
7
100
AcDbSpline
 70
8
 71
3
 72
8
 73
4
 74
0
 40
0
 40
0
 40
0
 40
0
 40
1
 40
1
 40
1
 40
1
 10
201.457870
 20
245.557857
 30
0.0
 10
201.457870
 20
245.557857
 30
0.0
 10
199.363190
 20
244.887097
 30
0.0
 10
198.278210
 20
244.751707
 30
0.0
  0
SPLINE
  5
19d
100
AcDbEntity
  8
图层_1
 62
7
100
AcDbSpline
 70
8
 71
3
 72
8
 73
4
 74
0
 40
0
 40
0
 40
0
 40
0
 40
1
 40
1
 40
1
 40
1
 10
198.278210
 20
244.751707
 30
0.0
 10
197.108020
 20
244.605677
 30
0.0
 10
195.901740
 20
244.546547
 30
0.0
 10
194.740450
 20
244.751707
 30
0.0
  0
SPLINE
  5
19e
100
AcDbEntity
  8
图层_1
 62
7
100
AcDbSpline
 70
8
 71
3
 72
8
 73
4
 74
0
 40
0
 40
0
 40
0
 40
0
 40
1
 40
1
 40
1
 40
1
 10
194.740450
 20
244.751707
 30
0.0
 10
193.410440
 20
244.986667
 30
0.0
 10
192.131430
 20
245.515087
 30
0.0
 10
190.933960
 20
246.139737
 30
0.0
  0
SPLINE
  5
19f
100
AcDbEntity
  8
图层_1
 62
7
100
AcDbSpline
 70
8
 71
3
 72
8
 73
4
 74
0
 40
0
 40
0
 40
0
 40
0
 40
1
 40
1
 40
1
 40
1
 10
190.933960
 20
246.139737
 30
0.0
 10
190.012340
 20
246.620497
 30
0.0
 10
189.140410
 20
247.221407
 30
0.0
 10
188.381140
 20
247.931357
 30
0.0
  0
SPLINE
  5
1a0
100
AcDbEntity
  8
图层_1
 62
7
100
AcDbSpline
 70
8
 71
3
 72
8
 73
4
 74
0
 40
0
 40
0
 40
0
 40
0
 40
1
 40
1
 40
1
 40
1
 10
188.381140
 20
247.931357
 30
0.0
 10
187.582490
 20
248.678137
 30
0.0
 10
186.898990
 20
249.555317
 30
0.0
 10
186.321320
 20
250.483657
 30
0.0
  0
SPLINE
  5
1a1
100
AcDbEntity
  8
图层_1
 62
7
100
AcDbSpline
 70
8
 71
3
 72
8
 73
4
 74
0
 40
0
 40
0
 40
0
 40
0
 40
1
 40
1
 40
1
 40
1
 10
186.321320
 20
250.483657
 30
0.0
 10
185.721470
 20
251.447647
 30
0.0
 10
185.202180
 20
252.482767
 30
0.0
 10
184.888330
 20
253.573907
 30
0.0
  0
SPLINE
  5
1a2
100
AcDbEntity
  8
图层_1
 62
7
100
AcDbSpline
 70
8
 71
3
 72
8
 73
4
 74
0
 40
0
 40
0
 40
0
 40
0
 40
1
 40
1
 40
1
 40
1
 10
184.888330
 20
253.573907
 30
0.0
 10
184.559740
 20
254.716277
 30
0.0
 10
184.473730
 20
255.923457
 30
0.0
 10
184.440300
 20
257.111677
 30
0.0
  0
SPLINE
  5
1a3
100
AcDbEntity
  8
图层_1
 62
7
100
AcDbSpline
 70
8
 71
3
 72
8
 73
4
 74
0
 40
0
 40
0
 40
0
 40
0
 40
1
 40
1
 40
1
 40
1
 10
184.440300
 20
257.111677
 30
0.0
 10
184.404100
 20
258.398067
 30
0.0
 10
184.490900
 20
259.694847
 30
0.0
 10
184.709020
 20
260.963117
 30
0.0
  0
SPLINE
  5
1a4
100
AcDbEntity
  8
图层_1
 62
7
100
AcDbSpline
 70
8
 71
3
 72
8
 73
4
 74
0
 40
0
 40
0
 40
0
 40
0
 40
1
 40
1
 40
1
 40
1
 10
184.709020
 20
260.963117
 30
0.0
 10
184.898070
 20
262.062467
 30
0.0
 10
185.147730
 20
263.169577
 30
0.0
 10
185.604570
 20
264.187217
 30
0.0
  0
SPLINE
  5
1a5
100
AcDbEntity
  8
图层_1
 62
7
100
AcDbSpline
 70
8
 71
3
 72
8
 73
4
 74
0
 40
0
 40
0
 40
0
 40
0
 40
1
 40
1
 40
1
 40
1
 10
185.604570
 20
264.187217
 30
0.0
 10
186.055650
 20
265.192027
 30
0.0
 10
186.696120
 20
266.113487
 30
0.0
 10
187.396190
 20
266.963787
 30
0.0
  0
SPLINE
  5
1a6
100
AcDbEntity
  8
图层_1
 62
7
100
AcDbSpline
 70
8
 71
3
 72
8
 73
4
 74
0
 40
0
 40
0
 40
0
 40
0
 40
1
 40
1
 40
1
 40
1
 10
187.396190
 20
266.963787
 30
0.0
 10
188.094070
 20
267.811427
 30
0.0
 10
188.890270
 20
268.590507
 30
0.0
 10
189.769690
 20
269.247887
 30
0.0
  0
SPLINE
  5
1a7
100
AcDbEntity
  8
图层_1
 62
7
100
AcDbSpline
 70
8
 71
3
 72
8
 73
4
 74
0
 40
0
 40
0
 40
0
 40
0
 40
1
 40
1
 40
1
 40
1
 10
189.769690
 20
269.247887
 30
0.0
 10
190.760330
 20
269.988407
 30
0.0
 10
191.822730
 20
270.685947
 30
0.0
 10
192.993780
 20
271.083947
 30
0.0
  0
SPLINE
  5
1a8
100
AcDbEntity
  8
图层_1
 62
7
100
AcDbSpline
 70
8
 71
3
 72
8
 73
4
 74
0
 40
0
 40
0
 40
0
 40
0
 40
1
 40
1
 40
1
 40
1
 10
192.993780
 20
271.083947
 30
0.0
 10
193.921230
 20
271.399157
 30
0.0
 10
194.925600
 20
271.457737
 30
0.0
 10
195.904720
 20
271.487027
 30
0.0
  0
SPLINE
  5
1a9
100
AcDbEntity
  8
图层_1
 62
7
100
AcDbSpline
 70
8
 71
3
 72
8
 73
4
 74
0
 40
0
 40
0
 40
0
 40
0
 40
1
 40
1
 40
1
 40
1
 10
195.904720
 20
271.487027
 30
0.0
 10
197.057110
 20
271.521527
 30
0.0
 10
198.224360
 20
271.453227
 30
0.0
 10
199.353080
 20
271.218307
 30
0.0
  0
SPLINE
  5
1aa
100
AcDbEntity
  8
图层_1
 62
7
100
AcDbSpline
 70
8
 71
3
 72
8
 73
4
 74
0
 40
0
 40
0
 40
0
 40
0
 40
1
 40
1
 40
1
 40
1
 10
199.353080
 20
271.218307
 30
0.0
 10
200.203490
 20
271.041317
 30
0.0
 10
201.815980
 20
270.367197
 30
0.0
 10
201.815980
 20
270.367197
 30
0.0
  0
LWPOLYLINE
  5
1ab
100
AcDbEntity
  8
图层_1
 62
7
100
AcDbPolyline
 90
8
 70
0
 10
208.220240
 20
250.349297
 30
0.0
 10
208.444000
 20
251.289807
 30
0.0
 10
207.727250
 20
250.976647
 30
0.0
 10
207.458530
 20
249.856827
 30
0.0
 10
206.742300
 20
248.423837
 30
0.0
 10
206.070500
 20
247.348967
 30
0.0
 10
204.592560
 20
246.632727
 30
0.0
 10
201.457870
 20
245.557857
 30
0.0
  0
SPLINE
  5
1ac
100
AcDbEntity
  8
图层_1
 62
7
100
AcDbSpline
 70
8
 71
3
 72
8
 73
4
 74
0
 40
0
 40
0
 40
0
 40
0
 40
1
 40
1
 40
1
 40
1
 10
200.203680
 20
273.054397
 30
0.0
 10
200.203680
 20
273.054397
 30
0.0
 10
198.478370
 20
273.352657
 30
0.0
 10
197.606420
 20
273.412507
 30
0.0
  0
SPLINE
  5
1ad
100
AcDbEntity
  8
图层_1
 62
7
100
AcDbSpline
 70
8
 71
3
 72
8
 73
4
 74
0
 40
0
 40
0
 40
0
 40
0
 40
1
 40
1
 40
1
 40
1
 10
197.606420
 20
273.412507
 30
0.0
 10
196.921360
 20
273.459507
 30
0.0
 10
196.232630
 20
273.497007
 30
0.0
 10
195.544530
 20
273.504007
 30
0.0
  0
LWPOLYLINE
  5
1ae
100
AcDbEntity
  8
图层_1
 62
7
100
AcDbPolyline
 90
14
 70
0
 10
201.815980
 20
270.367197
 30
0.0
 10
204.010160
 20
269.158487
 30
0.0
 10
205.264350
 20
267.769937
 30
0.0
 10
206.518020
 20
265.485847
 30
0.0
 10
206.786740
 20
264.008417
 30
0.0
 10
207.637850
 20
264.008417
 30
0.0
 10
207.414090
 20
271.979507
 30
0.0
 10
207.100410
 20
272.427537
 30
0.0
 10
206.697340
 20
272.337637
 30
0.0
 10
206.428620
 20
271.890127
 30
0.0
 10
205.264350
 20
271.845127
 30
0.0
 10
203.920760
 20
271.890127
 30
0.0
 10
202.577180
 20
272.471997
 30
0.0
 10
200.203680
 20
273.054397
 30
0.0
  0
SPLINE
  5
1af
100
AcDbEntity
  8
图层_1
 62
7
100
AcDbSpline
 70
8
 71
3
 72
8
 73
4
 74
0
 40
0
 40
0
 40
0
 40
0
 40
1
 40
1
 40
1
 40
1
 10
72.003233
 20
273.081737
 30
0.0
 10
75.287026
 20
273.081632
 30
0.0
 10
78.436285
 20
271.640258
 30
0.0
 10
80.758204
 20
269.074702
 30
0.0
  0
SPLINE
  5
1b0
100
AcDbEntity
  8
图层_1
 62
7
100
AcDbSpline
 70
8
 71
3
 72
8
 73
4
 74
0
 40
0
 40
0
 40
0
 40
0
 40
1
 40
1
 40
1
 40
1
 10
80.758204
 20
269.074702
 30
0.0
 10
83.080124
 20
266.509146
 30
0.0
 10
84.384502
 20
263.029567
 30
0.0
 10
84.384389
 20
259.401437
 30
0.0
  0
SPLINE
  5
1b1
100
AcDbEntity
  8
图层_1
 62
7
100
AcDbSpline
 70
8
 71
3
 72
8
 73
4
 74
0
 40
0
 40
0
 40
0
 40
0
 40
1
 40
1
 40
1
 40
1
 10
84.384389
 20
259.401437
 30
0.0
 10
84.384364
 20
251.846449
 30
0.0
 10
78.841197
 20
245.721875
 30
0.0
 10
72.003233
 20
245.721657
 30
0.0
  0
SPLINE
  5
1b2
100
AcDbEntity
  8
图层_1
 62
7
100
AcDbSpline
 70
8
 71
3
 72
8
 73
4
 74
0
 40
0
 40
0
 40
0
 40
0
 40
1
 40
1
 40
1
 40
1
 10
72.003233
 20
245.721657
 30
0.0
 10
68.719432
 20
245.721610
 30
0.0
 10
65.570111
 20
247.162846
 30
0.0
 10
63.248094
 20
249.728306
 30
0.0
  0
SPLINE
  5
1b3
100
AcDbEntity
  8
图层_1
 62
7
100
AcDbSpline
 70
8
 71
3
 72
8
 73
4
 74
0
 40
0
 40
0
 40
0
 40
0
 40
1
 40
1
 40
1
 40
1
 10
63.248094
 20
249.728306
 30
0.0
 10
60.926076
 20
252.293766
 30
0.0
 10
59.621572
 20
255.773299
 30
0.0
 10
59.621560
 20
259.401437
 30
0.0
  0
SPLINE
  5
1b4
100
AcDbEntity
  8
图层_1
 62
7
100
AcDbSpline
 70
8
 71
3
 72
8
 73
4
 74
0
 40
0
 40
0
 40
0
 40
0
 40
1
 40
1
 40
1
 40
1
 10
59.621560
 20
259.401437
 30
0.0
 10
59.621447
 20
263.029666
 30
0.0
 10
60.925896
 20
266.509331
 30
0.0
 10
63.247927
 20
269.074904
 30
0.0
  0
SPLINE
  5
1b5
100
AcDbEntity
  8
图层_1
 62
7
100
AcDbSpline
 70
8
 71
3
 72
8
 73
4
 74
0
 40
0
 40
0
 40
0
 40
0
 40
1
 40
1
 40
1
 40
1
 10
63.247927
 20
269.074904
 30
0.0
 10
65.569958
 20
271.640476
 30
0.0
 10
68.719350
 20
273.081784
 30
0.0
 10
72.003233
 20
273.081737
 30
0.0
  0
LWPOLYLINE
  5
1b6
100
AcDbEntity
  8
图层_1
 62
7
100
AcDbPolyline
 90
1
 70
1
 10
195.544530
 20
273.504007
 30
0.0
  0
SPLINE
  5
1b7
100
AcDbEntity
  8
图层_1
 62
7
100
AcDbSpline
 70
8
 71
3
 72
8
 73
4
 74
0
 40
0
 40
0
 40
0
 40
0
 40
1
 40
1
 40
1
 40
1
 10
145.796150
 20
272.465237
 30
0.0
 10
146.116680
 20
272.465237
 30
0.0
 10
146.443960
 20
272.464627
 30
0.0
 10
146.772830
 20
272.461237
 30
0.0
  0
SPLINE
  5
1b8
100
AcDbEntity
  8
图层_1
 62
7
100
AcDbSpline
 70
8
 71
3
 72
8
 73
4
 74
0
 40
0
 40
0
 40
0
 40
0
 40
1
 40
1
 40
1
 40
1
 10
146.772830
 20
272.461237
 30
0.0
 10
147.096410
 20
272.459237
 30
0.0
 10
148.132630
 20
272.298497
 30
0.0
 10
148.799580
 20
272.149107
 30
0.0
  0
SPLINE
  5
1b9
100
AcDbEntity
  8
图层_1
 62
7
100
AcDbSpline
 70
8
 71
3
 72
8
 73
4
 74
0
 40
0
 40
0
 40
0
 40
0
 40
1
 40
1
 40
1
 40
1
 10
148.799580
 20
272.149107
 30
0.0
 10
149.275540
 20
272.042497
 30
0.0
 10
149.750220
 20
271.915997
 30
0.0
 10
150.202600
 20
271.733627
 30
0.0
  0
SPLINE
  5
1ba
100
AcDbEntity
  8
图层_1
 62
7
100
AcDbSpline
 70
8
 71
3
 72
8
 73
4
 74
0
 40
0
 40
0
 40
0
 40
0
 40
1
 40
1
 40
1
 40
1
 10
150.202600
 20
271.733627
 30
0.0
 10
150.691170
 20
271.536657
 30
0.0
 10
151.187400
 20
271.326347
 30
0.0
 10
151.605610
 20
271.006027
 30
0.0
  0
SPLINE
  5
1bb
100
AcDbEntity
  8
图层_1
 62
7
100
AcDbSpline
 70
8
 71
3
 72
8
 73
4
 74
0
 40
0
 40
0
 40
0
 40
0
 40
1
 40
1
 40
1
 40
1
 10
151.605610
 20
271.006027
 30
0.0
 10
152.053320
 20
270.663137
 30
0.0
 10
152.437670
 20
270.229407
 30
0.0
 10
152.748690
 20
269.759077
 30
0.0
  0
SPLINE
  5
1bc
100
AcDbEntity
  8
图层_1
 62
7
100
AcDbSpline
 70
8
 71
3
 72
8
 73
4
 74
0
 40
0
 40
0
 40
0
 40
0
 40
1
 40
1
 40
1
 40
1
 10
152.748690
 20
269.759077
 30
0.0
 10
152.979590
 20
269.409907
 30
0.0
 10
153.156940
 20
269.019557
 30
0.0
 10
153.268040
 20
268.615987
 30
0.0
  0
SPLINE
  5
1bd
100
AcDbEntity
  8
图层_1
 62
7
100
AcDbSpline
 70
8
 71
3
 72
8
 73
4
 74
0
 40
0
 40
0
 40
0
 40
0
 40
1
 40
1
 40
1
 40
1
 10
153.268040
 20
268.615987
 30
0.0
 10
153.351240
 20
268.313547
 30
0.0
 10
153.450820
 20
267.871487
 30
0.0
 10
153.512470
 20
267.493577
 30
0.0
  0
SPLINE
  5
1be
100
AcDbEntity
  8
图层_1
 62
7
100
AcDbSpline
 70
8
 71
3
 72
8
 73
4
 74
0
 40
0
 40
0
 40
0
 40
0
 40
1
 40
1
 40
1
 40
1
 10
153.512470
 20
267.493577
 30
0.0
 10
153.607270
 20
266.912287
 30
0.0
 10
153.715540
 20
266.325967
 30
0.0
 10
153.704710
 20
265.737097
 30
0.0
  0
SPLINE
  5
1bf
100
AcDbEntity
  8
图层_1
 62
7
100
AcDbSpline
 70
8
 71
3
 72
8
 73
4
 74
0
 40
0
 40
0
 40
0
 40
0
 40
1
 40
1
 40
1
 40
1
 10
153.704710
 20
265.737097
 30
0.0
 10
153.690410
 20
264.961687
 30
0.0
 10
153.554920
 20
264.066617
 30
0.0
 10
153.366740
 20
263.434917
 30
0.0
  0
SPLINE
  5
1c0
100
AcDbEntity
  8
图层_1
 62
7
100
AcDbSpline
 70
8
 71
3
 72
8
 73
4
 74
0
 40
0
 40
0
 40
0
 40
0
 40
1
 40
1
 40
1
 40
1
 10
153.366740
 20
263.434917
 30
0.0
 10
153.189580
 20
262.839817
 30
0.0
 10
152.851110
 20
261.993797
 30
0.0
 10
152.384890
 20
261.403507
 30
0.0
  0
SPLINE
  5
1c1
100
AcDbEntity
  8
图层_1
 62
7
100
AcDbSpline
 70
8
 71
3
 72
8
 73
4
 74
0
 40
0
 40
0
 40
0
 40
0
 40
1
 40
1
 40
1
 40
1
 10
152.384890
 20
261.403507
 30
0.0
 10
152.040010
 20
260.966857
 30
0.0
 10
151.566830
 20
260.636577
 30
0.0
 10
151.090910
 20
260.348277
 30
0.0
  0
SPLINE
  5
1c2
100
AcDbEntity
  8
图层_1
 62
7
100
AcDbSpline
 70
8
 71
3
 72
8
 73
4
 74
0
 40
0
 40
0
 40
0
 40
0
 40
1
 40
1
 40
1
 40
1
 10
151.090910
 20
260.348277
 30
0.0
 10
150.557320
 20
260.025027
 30
0.0
 10
149.968300
 20
259.790867
 30
0.0
 10
149.371120
 20
259.610337
 30
0.0
  0
SPLINE
  5
1c3
100
AcDbEntity
  8
图层_1
 62
7
100
AcDbSpline
 70
8
 71
3
 72
8
 73
4
 74
0
 40
0
 40
0
 40
0
 40
0
 40
1
 40
1
 40
1
 40
1
 10
149.371120
 20
259.610337
 30
0.0
 10
148.885610
 20
259.463577
 30
0.0
 10
148.355470
 20
259.416887
 30
0.0
 10
147.874570
 20
259.335417
 30
0.0
  0
SPLINE
  5
1c4
100
AcDbEntity
  8
图层_1
 62
7
100
AcDbSpline
 70
8
 71
3
 72
8
 73
4
 74
0
 40
0
 40
0
 40
0
 40
0
 40
1
 40
1
 40
1
 40
1
 10
147.874570
 20
259.335417
 30
0.0
 10
147.515540
 20
259.274617
 30
0.0
 10
147.147260
 20
259.290017
 30
0.0
 10
146.783170
 20
259.283217
 30
0.0
  0
SPLINE
  5
1c5
100
AcDbEntity
  8
图层_1
 62
7
100
AcDbSpline
 70
8
 71
3
 72
8
 73
4
 74
0
 40
0
 40
0
 40
0
 40
0
 40
1
 40
1
 40
1
 40
1
 10
146.783170
 20
259.283217
 30
0.0
 10
145.085940
 20
259.251517
 30
0.0
 10
141.784510
 20
258.961277
 30
0.0
 10
141.784510
 20
258.961277
 30
0.0
  0
LWPOLYLINE
  5
1c6
100
AcDbEntity
  8
图层_1
 62
7
100
AcDbPolyline
 90
1
 70
1
 10
72.003233
 20
273.081737
 30
0.0
  0
SPLINE
  5
1c7
100
AcDbEntity
  8
图层_1
 62
7
100
AcDbSpline
 70
8
 71
3
 72
8
 73
4
 74
0
 40
0
 40
0
 40
0
 40
0
 40
1
 40
1
 40
1
 40
1
 10
141.628470
 20
272.409427
 30
0.0
 10
141.628470
 20
272.409427
 30
0.0
 10
143.552550
 20
272.465227
 30
0.0
 10
145.796180
 20
272.465227
 30
0.0
  0
LWPOLYLINE
  5
1c8
100
AcDbEntity
  8
图层_1
 62
7
100
AcDbPolyline
 90
4
 70
0
 10
141.784510
 20
258.961277
 30
0.0
 10
141.576770
 20
259.428947
 30
0.0
 10
141.576770
 20
272.150017
 30
0.0
 10
141.628470
 20
272.409427
 30
0.0
  0
SPLINE
  5
1c9
100
AcDbEntity
  8
图层_1
 62
7
100
AcDbSpline
 70
8
 71
3
 72
8
 73
4
 74
0
 40
0
 40
0
 40
0
 40
0
 40
1
 40
1
 40
1
 40
1
 10
228.677390
 20
272.007387
 30
0.0
 10
231.961184
 20
272.007284
 30
0.0
 10
235.110444
 20
270.565910
 30
0.0
 10
237.432364
 20
268.000353
 30
0.0
  0
SPLINE
  5
1ca
100
AcDbEntity
  8
图层_1
 62
7
100
AcDbSpline
 70
8
 71
3
 72
8
 73
4
 74
0
 40
0
 40
0
 40
0
 40
0
 40
1
 40
1
 40
1
 40
1
 10
237.432364
 20
268.000353
 30
0.0
 10
239.754284
 20
265.434797
 30
0.0
 10
241.058663
 20
261.955217
 30
0.0
 10
241.058550
 20
258.327087
 30
0.0
  0
SPLINE
  5
1cb
100
AcDbEntity
  8
图层_1
 62
7
100
AcDbSpline
 70
8
 71
3
 72
8
 73
4
 74
0
 40
0
 40
0
 40
0
 40
0
 40
1
 40
1
 40
1
 40
1
 10
241.058550
 20
258.327087
 30
0.0
 10
241.058530
 20
250.772093
 30
0.0
 10
235.515359
 20
244.647512
 30
0.0
 10
228.677390
 20
244.647297
 30
0.0
  0
SPLINE
  5
1cc
100
AcDbEntity
  8
图层_1
 62
7
100
AcDbSpline
 70
8
 71
3
 72
8
 73
4
 74
0
 40
0
 40
0
 40
0
 40
0
 40
1
 40
1
 40
1
 40
1
 10
228.677390
 20
244.647297
 30
0.0
 10
225.393588
 20
244.647251
 30
0.0
 10
222.244267
 20
246.088489
 30
0.0
 10
219.922250
 20
248.653951
 30
0.0
  0
SPLINE
  5
1cd
100
AcDbEntity
  8
图层_1
 62
7
100
AcDbSpline
 70
8
 71
3
 72
8
 73
4
 74
0
 40
0
 40
0
 40
0
 40
0
 40
1
 40
1
 40
1
 40
1
 10
219.922250
 20
248.653951
 30
0.0
 10
217.600232
 20
251.219413
 30
0.0
 10
216.295730
 20
254.698947
 30
0.0
 10
216.295720
 20
258.327087
 30
0.0
  0
SPLINE
  5
1ce
100
AcDbEntity
  8
图层_1
 62
7
100
AcDbSpline
 70
8
 71
3
 72
8
 73
4
 74
0
 40
0
 40
0
 40
0
 40
0
 40
1
 40
1
 40
1
 40
1
 10
216.295720
 20
258.327087
 30
0.0
 10
216.295607
 20
261.955315
 30
0.0
 10
217.600056
 20
265.434980
 30
0.0
 10
219.922086
 20
268.000553
 30
0.0
  0
SPLINE
  5
1cf
100
AcDbEntity
  8
图层_1
 62
7
100
AcDbSpline
 70
8
 71
3
 72
8
 73
4
 74
0
 40
0
 40
0
 40
0
 40
0
 40
1
 40
1
 40
1
 40
1
 10
219.922086
 20
268.000553
 30
0.0
 10
222.244117
 20
270.566125
 30
0.0
 10
225.393508
 20
272.007433
 30
0.0
 10
228.677390
 20
272.007387
 30
0.0
  0
LWPOLYLINE
  5
1d0
100
AcDbEntity
  8
图层_1
 62
7
100
AcDbPolyline
 90
1
 70
1
 10
145.796180
 20
272.465227
 30
0.0
  0
SPLINE
  5
1d1
100
AcDbEntity
  8
图层_1
 62
7
100
AcDbSpline
 70
8
 71
3
 72
8
 73
4
 74
0
 40
0
 40
0
 40
0
 40
0
 40
1
 40
1
 40
1
 40
1
 10
72.034755
 20
262.568167
 30
0.0
 10
71.262061
 20
262.568229
 30
0.0
 10
70.520994
 20
262.244637
 30
0.0
 10
69.974597
 20
261.668586
 30
0.0
  0
SPLINE
  5
1d2
100
AcDbEntity
  8
图层_1
 62
7
100
AcDbSpline
 70
8
 71
3
 72
8
 73
4
 74
0
 40
0
 40
0
 40
0
 40
0
 40
1
 40
1
 40
1
 40
1
 10
69.974597
 20
261.668586
 30
0.0
 10
69.428200
 20
261.092535
 30
0.0
 10
69.121235
 20
260.311216
 30
0.0
 10
69.121238
 20
259.496527
 30
0.0
  0
SPLINE
  5
1d3
100
AcDbEntity
  8
图层_1
 62
7
100
AcDbSpline
 70
8
 71
3
 72
8
 73
4
 74
0
 40
0
 40
0
 40
0
 40
0
 40
1
 40
1
 40
1
 40
1
 10
69.121238
 20
259.496527
 30
0.0
 10
69.121233
 20
258.681837
 30
0.0
 10
69.428196
 20
257.900515
 30
0.0
 10
69.974593
 20
257.324462
 30
0.0
  0
SPLINE
  5
1d4
100
AcDbEntity
  8
图层_1
 62
7
100
AcDbSpline
 70
8
 71
3
 72
8
 73
4
 74
0
 40
0
 40
0
 40
0
 40
0
 40
1
 40
1
 40
1
 40
1
 10
69.974593
 20
257.324462
 30
0.0
 10
70.520991
 20
256.748408
 30
0.0
 10
71.262059
 20
256.424815
 30
0.0
 10
72.034755
 20
256.424877
 30
0.0
  0
SPLINE
  5
1d5
100
AcDbEntity
  8
图层_1
 62
7
100
AcDbSpline
 70
8
 71
3
 72
8
 73
4
 74
0
 40
0
 40
0
 40
0
 40
0
 40
1
 40
1
 40
1
 40
1
 10
72.034755
 20
256.424877
 30
0.0
 10
73.643617
 20
256.425049
 30
0.0
 10
74.947767
 20
257.800227
 30
0.0
 10
74.947756
 20
259.496527
 30
0.0
  0
SPLINE
  5
1d6
100
AcDbEntity
  8
图层_1
 62
7
100
AcDbSpline
 70
8
 71
3
 72
8
 73
4
 74
0
 40
0
 40
0
 40
0
 40
0
 40
1
 40
1
 40
1
 40
1
 10
74.947756
 20
259.496527
 30
0.0
 10
74.947762
 20
261.192823
 30
0.0
 10
73.643613
 20
262.567995
 30
0.0
 10
72.034755
 20
262.568167
 30
0.0
  0
LWPOLYLINE
  5
1d7
100
AcDbEntity
  8
图层_1
 62
7
100
AcDbPolyline
 90
1
 70
1
 10
228.677390
 20
272.007387
 30
0.0
  0
SPLINE
  5
1d8
100
AcDbEntity
  8
图层_1
 62
7
100
AcDbSpline
 70
8
 71
3
 72
8
 73
4
 74
0
 40
0
 40
0
 40
0
 40
0
 40
1
 40
1
 40
1
 40
1
 10
228.708920
 20
261.493817
 30
0.0
 10
227.936223
 20
261.493879
 30
0.0
 10
227.195155
 20
261.170287
 30
0.0
 10
226.648757
 20
260.594233
 30
0.0
  0
SPLINE
  5
1d9
100
AcDbEntity
  8
图层_1
 62
7
100
AcDbSpline
 70
8
 71
3
 72
8
 73
4
 74
0
 40
0
 40
0
 40
0
 40
0
 40
1
 40
1
 40
1
 40
1
 10
226.648757
 20
260.594233
 30
0.0
 10
226.102359
 20
260.018180
 30
0.0
 10
225.795395
 20
259.236858
 30
0.0
 10
225.795400
 20
258.422167
 30
0.0
  0
SPLINE
  5
1da
100
AcDbEntity
  8
图层_1
 62
7
100
AcDbSpline
 70
8
 71
3
 72
8
 73
4
 74
0
 40
0
 40
0
 40
0
 40
0
 40
1
 40
1
 40
1
 40
1
 10
225.795400
 20
258.422167
 30
0.0
 10
225.795397
 20
257.607478
 30
0.0
 10
226.102362
 20
256.826158
 30
0.0
 10
226.648760
 20
256.250107
 30
0.0
  0
SPLINE
  5
1db
100
AcDbEntity
  8
图层_1
 62
7
100
AcDbSpline
 70
8
 71
3
 72
8
 73
4
 74
0
 40
0
 40
0
 40
0
 40
0
 40
1
 40
1
 40
1
 40
1
 10
226.648760
 20
256.250107
 30
0.0
 10
227.195158
 20
255.674056
 30
0.0
 10
227.936225
 20
255.350465
 30
0.0
 10
228.708920
 20
255.350527
 30
0.0
  0
SPLINE
  5
1dc
100
AcDbEntity
  8
图层_1
 62
7
100
AcDbSpline
 70
8
 71
3
 72
8
 73
4
 74
0
 40
0
 40
0
 40
0
 40
0
 40
1
 40
1
 40
1
 40
1
 10
228.708920
 20
255.350527
 30
0.0
 10
230.317778
 20
255.350700
 30
0.0
 10
231.621926
 20
256.725871
 30
0.0
 10
231.621920
 20
258.422167
 30
0.0
  0
SPLINE
  5
1dd
100
AcDbEntity
  8
图层_1
 62
7
100
AcDbSpline
 70
8
 71
3
 72
8
 73
4
 74
0
 40
0
 40
0
 40
0
 40
0
 40
1
 40
1
 40
1
 40
1
 10
231.621920
 20
258.422167
 30
0.0
 10
231.621931
 20
260.118467
 30
0.0
 10
230.317782
 20
261.493644
 30
0.0
 10
228.708920
 20
261.493817
 30
0.0
  0
LWPOLYLINE
  5
1de
100
AcDbEntity
  8
图层_1
 62
7
100
AcDbPolyline
 90
1
 70
1
 10
72.034755
 20
262.568167
 30
0.0
  0
LWPOLYLINE
  5
1df
100
AcDbEntity
  8
图层_1
 62
7
100
AcDbPolyline
 90
1
 70
1
 10
228.708920
 20
261.493817
 30
0.0
  0
ENDSEC
  0
SECTION
  2
OBJECTS
  0
DICTIONARY
  5
C
330
0
100
AcDbDictionary
  3
ACAD_GROUP
350
D
  3
ACAD_MLINESTYLE
350
17
  0
DICTIONARY
  5
D
330
C
100
AcDbDictionary
  0
DICTIONARY
  5
1A
330
C
100
AcDbDictionary
  0
DICTIONARY
  5
17
330
C
100
AcDbDictionary
  3
STANDARD
350
18
  0
DICTIONARY
  5
19
330
C
100
AcDbDictionary
  0
ENDSEC
  0
EOF
